<svg width="58" height="58" viewBox="0 0 58 58" fill="none" xmlns="http://www.w3.org/2000/svg">
<path d="M10.875 19.3361C10.875 18.735 10.875 18.4344 10.9608 18.151C11.0466 17.8676 11.2134 17.6175 11.5468 17.1173L14.5209 12.6562C15.1022 11.7843 15.3928 11.3483 15.835 11.1117C16.2772 10.875 16.8011 10.875 17.8491 10.875H40.1509C41.1989 10.875 41.7228 10.875 42.165 11.1117C42.6072 11.3483 42.8978 11.7843 43.4791 12.6562L46.4532 17.1173C46.7866 17.6175 46.9534 17.8676 47.0392 18.151C47.125 18.4344 47.125 18.735 47.125 19.3361V43.125C47.125 45.0106 47.125 45.9534 46.5392 46.5392C45.9534 47.125 45.0106 47.125 43.125 47.125H14.875C12.9894 47.125 12.0466 47.125 11.4608 46.5392C10.875 45.9534 10.875 45.0106 10.875 43.125V19.3361Z" stroke="#404040" stroke-width="2"/>
<path d="M10.875 22.9583H47.125" stroke="#404040" stroke-width="2" stroke-linecap="round"/>
<path d="M22.9583 23.1083C22.9583 23.0255 23.0255 22.9583 23.1083 22.9583H34.8916C34.9745 22.9583 35.0416 23.0255 35.0416 23.1083V34.2469C35.0416 34.5967 34.6601 34.8127 34.3601 34.6327L29.1286 31.4938C29.0494 31.4463 28.9505 31.4463 28.8714 31.4938L23.6398 34.6327C23.3399 34.8127 22.9583 34.5967 22.9583 34.2469V23.1083Z" stroke="#404040" stroke-width="2"/>
</svg>
