<svg width="67" height="66" viewBox="0 0 67 66" fill="none" xmlns="http://www.w3.org/2000/svg">
<path d="M14.4571 35.0889C14.4571 31.3551 14.4571 29.4882 15.2119 27.8471C15.9666 26.2061 17.3841 24.9911 20.219 22.5612L22.969 20.204C28.0932 15.8119 30.6552 13.6159 33.7071 13.6159C36.759 13.6159 39.321 15.8119 44.4451 20.204L47.1951 22.5612C50.0301 24.9911 51.4476 26.2061 52.2023 27.8471C52.9571 29.4882 52.9571 31.3551 52.9571 35.0889V46.75C52.9571 51.9354 52.9571 54.5282 51.3462 56.1391C49.7353 57.75 47.1425 57.75 41.9571 57.75H25.4571C20.2716 57.75 17.6789 57.75 16.068 56.1391C14.4571 54.5282 14.4571 51.9354 14.4571 46.75V35.0889Z" stroke="#404040" stroke-width="2"/>
<path d="M40.5821 57.75V42.25C40.5821 41.6977 40.1344 41.25 39.5821 41.25H27.8321C27.2798 41.25 26.8321 41.6977 26.8321 42.25V57.75" stroke="#404040" stroke-width="2" stroke-linecap="round" stroke-linejoin="round"/>
</svg>
