<svg width="45" height="45" viewBox="0 0 45 45" fill="none" xmlns="http://www.w3.org/2000/svg">
<path d="M5.625 18.4764C5.625 16.5565 7.18146 15 9.10144 15V15C10.4182 15 11.622 14.256 12.2109 13.0783L13.8944 9.71115C14.4323 8.63531 14.7013 8.0974 15.1846 7.7987C15.6679 7.5 16.2693 7.5 17.4721 7.5H27.5279C28.7307 7.5 29.3321 7.5 29.8154 7.7987C30.2987 8.0974 30.5677 8.63531 31.1056 9.71115L32.7891 13.0783C33.378 14.256 34.5818 15 35.8986 15V15C37.8185 15 39.375 16.5565 39.375 18.4764V31.5C39.375 34.3284 39.375 35.7426 38.4963 36.6213C37.6176 37.5 36.2034 37.5 33.375 37.5H11.625C8.79657 37.5 7.38236 37.5 6.50368 36.6213C5.625 35.7426 5.625 34.3284 5.625 31.5V18.4764Z" stroke="#404040" stroke-width="2"/>
<circle cx="22.5" cy="24.375" r="6.5" stroke="#404040" stroke-width="2"/>
</svg>
