<?xml version="1.0" encoding="UTF-8"?>
<svg xmlns="http://www.w3.org/2000/svg" xmlns:xlink="http://www.w3.org/1999/xlink" width="1080px" height="1080px" viewBox="0 0 1080 1080" version="1.1">
<defs>
<clipPath id="clip1">
  <path d="M 344 603 L 780 603 L 780 762.816406 L 344 762.816406 Z M 344 603 "/>
</clipPath>
<clipPath id="clip2">
  <path d="M 310 316.636719 L 792 316.636719 L 792 517 L 310 517 Z M 310 316.636719 "/>
</clipPath>
</defs>
<g id="surface1">
<g clip-path="url(#clip1)" clip-rule="nonzero">
<path style=" stroke:none;fill-rule:nonzero;fill:rgb(5.098039%,5.098039%,5.098039%);fill-opacity:1;" d="M 778.375 620.558594 C 729.484375 724.660156 591.765625 784.730469 456.253906 755.394531 C 423.714844 748.371094 392.925781 735.871094 366.292969 719.328125 C 357.199219 713.753906 347.355469 707.867188 345.074219 698.207031 C 342.503906 687.882812 354.296875 678.703125 367.097656 680.648438 C 378.371094 681.667969 384.457031 687.449219 392.515625 692.402344 C 460.6875 735.683594 557.386719 744.722656 635.863281 714.171875 C 668.308594 701.398438 697.511719 682.042969 718.808594 658.597656 C 724.425781 652.5 729.738281 645.476562 734.457031 638.902344 C 736.660156 635.773438 738.886719 631.628906 740.90625 628.4375 C 740.90625 628.4375 742.488281 625.804688 742.488281 625.804688 C 743.003906 624.914062 743.394531 624 743.839844 623.085938 C 743.839844 623.085938 749.066406 612.203125 749.066406 612.203125 C 756.25 595.953125 785.734375 604.226562 778.347656 620.578125 Z M 778.375 620.558594 "/>
</g>
<g clip-path="url(#clip2)" clip-rule="nonzero">
<path style=" stroke:none;fill-rule:nonzero;fill:rgb(5.098039%,5.098039%,5.098039%);fill-opacity:1;" d="M 310.40625 418.933594 C 309.808594 407.058594 318.125 397.148438 327.921875 388.980469 C 336.886719 380.691406 347.015625 373.25 357.40625 366.117188 C 413.246094 328.929688 486.128906 311.578125 558.292969 317.925781 C 678.410156 327.9375 778.816406 406.390625 790.941406 502.820312 C 792.546875 518.722656 764.175781 522.015625 760.160156 506.347656 C 733.730469 391.160156 581.453125 322.503906 445.996094 367.984375 C 414.902344 378.472656 386.609375 394.476562 364.453125 414.871094 C 356.316406 422.4375 349.839844 429.195312 336.519531 432.449219 C 324.578125 436.222656 310.816406 429.300781 310.40625 418.933594 Z M 310.40625 418.933594 "/>
</g>
<path style=" stroke:none;fill-rule:nonzero;fill:rgb(5.098039%,5.098039%,5.098039%);fill-opacity:1;" d="M 656.933594 627.316406 C 650.171875 629.722656 643.511719 630.757812 636.488281 632.375 C 633.066406 633.164062 629.546875 634.222656 626.203125 634.589844 C 622.859375 634.988281 619.671875 634.652344 616.589844 634.011719 C 604.175781 631.691406 591.84375 629.183594 579.589844 626.507812 C 555.078125 621.160156 530.875 615.148438 506.964844 608.539062 C 411.355469 581.300781 275.167969 533.105469 212.621094 466.835938 C 191.011719 442.730469 185.75 415.761719 214.921875 393.769531 C 227.253906 384.691406 245.34375 380.503906 261.457031 381.703125 C 270.035156 382.203125 276.464844 388.171875 275.839844 395.011719 C 275.269531 401.394531 268.738281 406.308594 260.917969 406.539062 C 252.234375 406.664062 244.621094 408.859375 239.074219 413.855469 C 235.675781 416.960938 232.878906 421.128906 232.285156 425.335938 C 232.234375 428.738281 233.65625 431.949219 235.394531 435.101562 C 243.347656 447.3125 255.550781 456.246094 269 465.367188 C 305.53125 489.140625 347.84375 506.863281 390.652344 522.699219 C 466.984375 550.3125 547.847656 571.246094 629.984375 584.699219 C 639.910156 585.675781 646.253906 593.160156 654.316406 597.277344 C 657.089844 599.042969 659.910156 600.910156 662.605469 603.0625 C 671.984375 610.175781 668.824219 623.421875 656.933594 627.316406 Z M 656.933594 627.316406 "/>
<path style=" stroke:none;fill-rule:nonzero;fill:rgb(5.098039%,5.098039%,5.098039%);fill-opacity:1;" d="M 497.636719 671.738281 C 488.667969 672.253906 479.988281 671.882812 471.078125 672.132812 C 462.421875 672.027344 454.828125 668.398438 446.769531 666.371094 C 441.484375 664.8125 436.199219 663.195312 430.96875 661.539062 C 367.847656 641.578125 305.921875 617.261719 252.78125 583.042969 C 238.191406 573.152344 253.765625 555.183594 270.425781 562.605469 C 307.21875 580.535156 346.449219 594.894531 386.558594 607.5 C 411.609375 615.394531 437.109375 622.507812 462.8125 629.015625 C 470.402344 631.335938 478.824219 631.917969 485.609375 635.753906 C 492.480469 640.1875 499.839844 643.566406 506.78125 648.085938 C 518.59375 655.527344 512.480469 670.972656 497.636719 671.738281 Z M 497.636719 671.738281 "/>
<path style=" stroke:none;fill-rule:nonzero;fill:rgb(5.098039%,5.098039%,5.098039%);fill-opacity:1;" d="M 452.527344 463.292969 C 457.734375 460.992188 464.3125 462.753906 469.574219 463.5 C 485.222656 465.367188 499.941406 468.789062 514.0625 474.425781 C 532.824219 481.015625 551.761719 487.273438 570.910156 493.058594 C 637.03125 512.6875 705.800781 529.890625 776.328125 534.101562 C 795.527344 534.824219 839.675781 535.882812 847.738281 520.378906 C 852.375 511.027344 849.394531 501.804688 839.527344 494.527344 C 825.84375 483.421875 844.136719 466.585938 859.761719 475.6875 C 886.003906 490.800781 893.441406 520.296875 875.4375 542.101562 C 827.167969 595.1875 649.9375 559.449219 582.777344 542.746094 C 551.996094 535.011719 521.652344 526.121094 491.777344 516.398438 C 476.207031 511.941406 462.5 505.140625 450.113281 496.332031 C 450.113281 496.332031 443.738281 492.105469 443.738281 492.105469 C 442.675781 491.378906 441.71875 490.550781 440.890625 489.472656 C 434.105469 480.144531 440.707031 467.332031 452.550781 463.269531 Z M 452.527344 463.292969 "/>
</g>
</svg>
