<?xml version="1.0" encoding="UTF-8"?>
<!DOCTYPE svg PUBLIC "-//W3C//DTD SVG 1.1//EN" "http://www.w3.org/Graphics/SVG/1.1/DTD/svg11.dtd">
<!-- Creator: CorelDRAW -->
<svg xmlns="http://www.w3.org/2000/svg" xml:space="preserve" width="6.82666in" height="6.82666in" style="shape-rendering:geometricPrecision; text-rendering:geometricPrecision; image-rendering:optimizeQuality; fill-rule:evenodd; clip-rule:evenodd"
viewBox="0 0 6.82666 6.82666"
 xmlns:xlink="http://www.w3.org/1999/xlink">
 <defs>
  <style type="text/css">
   <![CDATA[
    .fil1 {fill:none}
    .fil0 {fill:#212121;fill-rule:nonzero}
   ]]>
  </style>
 </defs>
 <g id="Layer_x0020_1">
  <metadata id="CorelCorpID_0Corel-Layer"/>
  <path class="fil0" d="M2.49633 1.01871c-0.0829331,0 -0.157925,0.0336299 -0.212067,0.0878504 -0.0544291,0.0545079 -0.0881417,0.129874 -0.0881417,0.212957 0,0.0838071 0.0335827,0.15928 0.087811,0.213697 0.0541693,0.0543543 0.129291,0.0879094 0.212398,0.0879094 0.0839134,0 0.159862,-0.0337323 0.214673,-0.088374 0.0544567,-0.0542835 0.0881969,-0.129591 0.0881969,-0.213232 0,-0.0829173 -0.033874,-0.158114 -0.0885276,-0.212492 -0.0547835,-0.0545079 -0.130602,-0.088315 -0.214343,-0.088315zm-0.362902 -0.0621496c0.0931772,-0.093315 0.221547,-0.151189 0.362902,-0.151189 0.141874,0 0.270783,0.0577323 0.364343,0.150819 0.0937559,0.0932835 0.151866,0.221878 0.151866,0.363327 0,0.142173 -0.0579646,0.270791 -0.151535,0.364067 -0.0935787,0.0932913 -0.22263,0.150878 -0.364673,0.150878 -0.14152,0 -0.270035,-0.0577283 -0.363232,-0.151248 -0.0928346,-0.0931535 -0.150315,-0.221642 -0.150315,-0.363697 0,-0.141327 0.0576142,-0.269791 0.150646,-0.362957z"/>
  <path class="fil0" d="M1.37439 5.35407c-0.0586811,-0.00505906 -0.102146,-0.0567362 -0.0970866,-0.115417 0.00505906,-0.0586811 0.0567362,-0.102146 0.115417,-0.0970866 0.076126,0.00659055 0.140748,0.00506693 0.198598,-0.00279528 0.056126,-0.00762598 0.107535,-0.0212677 0.158047,-0.0392835 0.0832283,-0.0389449 0.269217,-0.615972 0.397524,-1.01407 0.0521063,-0.161669 0.095311,-0.295705 0.122917,-0.36213 -0.0162795,-0.0213386 -0.0293425,-0.0454882 -0.038437,-0.071815 -0.0314094,-0.0909055 -0.0148858,-0.204709 0.0834764,-0.308957l0.376862 -0.485776 0.0688346 -0.646846c0.0021811,-0.0205276 0.00391732,-0.0450906 0.00561811,-0.0691969 0.00726772,-0.103043 0.0140591,-0.199228 0.0810709,-0.30561 0.0219094,-0.0347795 0.0470079,-0.0662047 0.0743071,-0.0935039 0.0651339,-0.0651417 0.146705,-0.112343 0.232138,-0.131791 0.0915197,-0.0208307 0.186587,-0.00996063 0.271602,0.0435945 0.0235,0.0148031 0.0453622,0.032063 0.0651969,0.0518976l-0.000267717 0.000267717c0.00240945,0.00241339 0.00472441,0.00496063 0.00693307,0.00764961 0.0329252,0.0400512 0.0901732,0.105047 0.155811,0.179555 0.277185,0.314665 0.703827,0.799028 0.707472,1.0868l0.119307 1.13167 1.01589 0.883535c0.00202756,0.00152756 0.00401575,0.00312992 0.00596063,0.00482283 0.128843,0.112165 0.149256,0.256283 0.105925,0.380232 -0.0163268,0.0467008 -0.041622,0.0897362 -0.0733898,0.126236 -0.031622,0.0363307 -0.0708071,0.0672953 -0.115063,0.0900276 -0.116669,0.0599252 -0.261988,0.0595472 -0.39063,-0.0524646l0.000181102 -0.000204724 -1.10723 -0.962602 3.14961e-005 -3.54331e-005 -0.000448819 -0.00038189c-0.0905945,-0.079126 -0.167138,-0.324728 -0.220421,-0.509858l-0.259484 0.235413 0.274008 0.824929c0.000968504,0.00257874 0.00184646,0.00520472 0.00262598,0.0078937 0.00712205,0.0244409 0.00183465,0.00555512 0.0100866,0.0331772 0.0112323,0.0375748 0.0228071,0.0762913 0.0329331,0.121823 0.0415394,0.186642 0.0286575,0.362496 -0.246972,0.423839 -0.0899331,0.02 -0.171768,-0.00490945 -0.242268,-0.057874 -0.0686732,-0.0515866 -0.125209,-0.130965 -0.165138,-0.217941l-0.429894 -0.936173c-0.0486929,-0.0891496 -0.0596693,-0.197563 -0.0413425,-0.299315 0.0183228,-0.101748 0.0668819,-0.199453 0.136925,-0.266087 0.002,-0.00214567 0.00409843,-0.00422441 0.00630315,-0.00623228l0.589626 -0.53513 -0.132051 -0.342949 -0.0334055 0.167035 -0.000216535 -4.33071e-005c-0.00416142,0.0209882 -0.0146772,0.0409291 -0.0314488,0.0567087l-0.472287 0.44276c-0.0757756,0.077437 -0.161602,0.106362 -0.239539,0.101299 -0.0258425,0.0668583 -0.0642047,0.185882 -0.10961,0.326756 -0.137244,0.425835 -0.334795,1.0387 -0.50402,1.13837 -0.00147638,0.000893701 -0.00298031,0.00175984 -0.00451181,0.00258661l-0.00170866 0.000901575c-0.00198819,0.00102756 -0.00402756,0.002 -0.00610236,0.00291339 -0.000401575,0.000177165 -0.000807087,0.000401575 -0.00120866,0.000574803l-1.9685e-005 -4.33071e-005c-0.00176772,0.000751969 -0.00356299,0.00146063 -0.0053937,0.00212598 -0.0653228,0.0236614 -0.132354,0.0416457 -0.20678,0.0517559 -0.074378,0.0101102 -0.154429,0.0123268 -0.24526,0.00446457zm1.17725 -1.7857l0.448335 -0.420303 0.0986654 -0.493331c0.0115039,-0.0577559 0.0676614,-0.095252 0.125417,-0.083748 0.0407598,0.00811811 0.0714291,0.0384803 0.0819055,0.0759449l0.286492 0.744047c0.016063,0.0420079 0.00366929,0.0879016 -0.0276929,0.116457l0.000192913 0.000212598 -0.643295 0.583839c-0.00155512,0.00141339 -0.00314173,0.00277165 -0.00475591,0.0040748 -0.0362913,0.0351457 -0.0620787,0.0896024 -0.0726378,0.148244 -0.0102598,0.0569606 -0.00533858,0.115343 0.0193504,0.160236 0.00232677,0.00423622 0.00432677,0.00856299 0.00602362,0.0129488l0.430028 0.936469c0.0262244,0.057126 0.0605315,0.107142 0.099311,0.136272 0.0225157,0.0169173 0.0461732,0.0254291 0.0689291,0.0203701 0.0995315,-0.0221496 0.102366,-0.0938386 0.0853031,-0.1705 -0.00679528,-0.0305591 -0.0183661,-0.0692559 -0.0295945,-0.106823 -0.00140157,-0.00469685 0.00356299,0.0119843 -0.0100866,-0.0348465l-7.87402e-006 -3.14961e-005 -0.295984 -0.891083c-0.0135787,-0.0410748 -0.00069685,-0.0845276 0.0293425,-0.111898l-0.000173228 -0.000188976 0.436961 -0.396429c0.0434921,-0.0395787 0.110839,-0.0364055 0.150417,0.00708661 0.0112244,0.0123346 0.0190079,0.0265866 0.0234094,0.0415827 0.00839764,0.0267913 0.0190472,0.0642677 0.0313307,0.107492 0.0464606,0.16348 0.118909,0.41837 0.171709,0.465524l1.5748e-005 -1.5748e-005 1.10746 0.962807 0.00023622 0.000208661 0.000181102 -0.000208661c0.0524567,0.0456772 0.109382,0.0470315 0.153961,0.0241339 0.0184803,-0.00949213 0.0358504,-0.0235709 0.0508976,-0.0408622 0.0149055,-0.017126 0.0264291,-0.0363268 0.0333898,-0.0562362 0.0165709,-0.0473976 0.00740551,-0.103697 -0.0450906,-0.149398 -0.00192913,-0.00167717 -0.00377953,-0.00341339 -0.00555512,-0.00519685l-1.0473 -0.91085c-0.0213386,-0.0184646 -0.0335433,-0.043563 -0.0362008,-0.0695866l-5.11811e-005 3.93701e-006 -0.124472 -1.18067c-0.000374016,-0.0036378 -0.000555118,-0.00725197 -0.000559055,-0.0108346l-0.000275591 0c0,-0.207012 -0.396831,-0.657492 -0.65422,-0.949685 -0.0580472,-0.0658976 -0.109024,-0.123764 -0.154079,-0.17824 -0.00940551,-0.00931496 -0.0183937,-0.0165906 -0.0269252,-0.0219646 -0.0334606,-0.0210787 -0.072689,-0.0249449 -0.111602,-0.0160906 -0.0449921,0.0102402 -0.0900276,0.0371772 -0.127972,0.075122 -0.0174803,0.0174803 -0.032748,0.0363268 -0.0451417,0.056 -0.0382205,0.0606772 -0.0432165,0.131453 -0.0485669,0.20728 -0.00166535,0.0235945 -0.0033622,0.0476063 -0.00645276,0.0767008l-0.0720197 0.676768c-0.00234252,0.0220315 -0.0112559,0.0417795 -0.0245787,0.0574961l-0.396079 0.510551c-0.0025,0.00323622 -0.00515354,0.00627953 -0.00793307,0.00914567l1.9685e-005 1.9685e-005c-0.0378071,0.0390315 -0.047311,0.0730748 -0.0394173,0.0959291 0.00209449,0.00605906 0.00573228,0.0115748 0.0105039,0.0161811 0.00476772,0.00460236 0.010685,0.00812598 0.0173268,0.0102126 0.0227087,0.0071378 0.0546654,-0.00205906 0.0878543,-0.0365866 0.00123228,-0.00127953 0.00248819,-0.00252362 0.00376772,-0.00372835l-1.9685e-005 -1.9685e-005z"/>
  <path class="fil0" d="M2.09415 5.63518c0,0.0797913 -0.0325118,0.152217 -0.0850315,0.204748l0 0.000417323c-0.0525118,0.0525197 -0.125063,0.0850394 -0.205138,0.0850394 -0.0797874,0 -0.152236,-0.0325236 -0.204791,-0.0850551 -0.0527913,-0.0527717 -0.0854882,-0.125343 -0.0854882,-0.20515 0,-0.0802677 0.0324961,-0.152764 0.0849764,-0.205236 0.0525748,-0.0525669 0.125213,-0.0850197 0.205303,-0.0850197 0.0798228,0 0.152437,0.0326024 0.205232,0.0854213 0.0524724,0.0524882 0.084937,0.124862 0.084937,0.204835zm-0.235657 0.0545394c0.0137913,-0.0139016 0.0223189,-0.0331732 0.0223189,-0.0545394 0,-0.0216102 -0.0085748,-0.0409724 -0.0224331,-0.0548346 -0.0136457,-0.0136535 -0.0328701,-0.0220827 -0.0543976,-0.0220827 -0.0212756,0 -0.0405472,0.00859449 -0.0544685,0.0225157 -0.013878,0.013874 -0.0224724,0.0330906 -0.0224724,0.0544016 0,0.0214488 0.00847638,0.0406457 0.0221496,0.054315 0.0139331,0.0139252 0.0333071,0.0225512 0.0547913,0.0225512 0.0211811,0 0.0403898,-0.00861811 0.0543031,-0.0225354l0.000208661 0.000208661z"/>
 </g>
 <g id="Layer_x0020_1_0">
  <metadata id="CorelCorpID_1Corel-Layer"/>
  <rect class="fil1" width="6.82666" height="6.82666"/>
 </g>
</svg>
