<?xml version="1.0" encoding="UTF-8"?>
<!DOCTYPE svg PUBLIC "-//W3C//DTD SVG 1.1//EN" "http://www.w3.org/Graphics/SVG/1.1/DTD/svg11.dtd">
<!-- Creator: CorelDRAW -->
<svg xmlns="http://www.w3.org/2000/svg" xml:space="preserve" width="6.82666in" height="6.82666in" style="shape-rendering:geometricPrecision; text-rendering:geometricPrecision; image-rendering:optimizeQuality; fill-rule:evenodd; clip-rule:evenodd"
viewBox="0 0 6.82666 6.82666"
 xmlns:xlink="http://www.w3.org/1999/xlink">
 <defs>
  <style type="text/css">
   <![CDATA[
    .fil1 {fill:none}
    .fil0 {fill:#212121;fill-rule:nonzero}
   ]]>
  </style>
 </defs>
 <g id="Layer_x0020_1">
  <metadata id="CorelCorpID_0Corel-Layer"/>
  <path class="fil0" d="M4.95563 1.09266l-1.40685 3.68368c-0.0494488,0.129531 -0.143244,0.332874 -0.268031,0.479091 -0.0965472,0.113122 -0.212909,0.193969 -0.347295,0.193969l-0.973591 0c-0.026252,0 -0.044874,0.00268504 -0.0571024,0.00750394 -0.0024685,0.000972441 -0.00273228,-0.00131496 -0.00302756,-0.000279528l-0.000417323 0c-0.00279528,0.0097126 -0.000216535,0.0269094 0.00576772,0.048189 0.0137441,0.0488858 0.0441378,0.104484 0.0769724,0.153563l0.012126 0.0181575c0.0338858,0.0507953 0.0512402,0.0768071 0.0587874,0.081311 0.00430709,0.00257087 0.0309606,0.00256693 0.0855512,0.00256299l0 -0.000417323 0.00500394 0 0.817972 0c0.0575197,0 0.106831,-0.00148425 0.151346,-0.00835827 0.0445039,-0.00687402 0.0897047,-0.0194567 0.142028,-0.041815 0.22702,-0.0969843 0.36774,-0.578913 0.471488,-0.934244 0.0285827,-0.0978976 0.0546535,-0.187161 0.0769764,-0.251874 0.194382,-0.563535 1.00179,-2.90269 1.18094,-3.42169l-0.0286457 -0.00934252zm-1.60601 3.60784l1.44303 -3.77843 0.036185 -0.0947441 0.096315 0.0314094 0.227772 0.0742874 0.102815 0.0335354 -0.035315 0.102299c-0.00105906,0.00306693 -0.503827,1.46104 -1.21541,3.524 -0.0250827,0.0727047 -0.0486457,0.15339 -0.0744803,0.241874 -0.115791,0.396575 -0.272843,0.934429 -0.592323,1.07091 -0.0689449,0.0294646 -0.130539,0.0463543 -0.192854,0.0559803 -0.0622992,0.00962205 -0.119886,0.0116969 -0.18385,0.0116969l-0.817972 0 -0.00500394 0 0 -0.000417323c-0.0941732,7.87402e-006 -0.140146,1.1811e-005 -0.194717,-0.032563 -0.0485787,-0.0289921 -0.0748976,-0.0684409 -0.126291,-0.145484l-0.012126 -0.0181575c-0.0437441,-0.0653858 -0.0849646,-0.142039 -0.105303,-0.21439 -0.0158819,-0.0564685 -0.0197402,-0.112524 -0.00496457,-0.163913l-0.000385827 -0.000110236c0.0179016,-0.0621772 0.0587047,-0.111413 0.130524,-0.13972 0.0366929,-0.0144606 0.0811654,-0.0225118 0.134606,-0.0225118l0.973591 0c0.0621772,0 0.126417,-0.0495866 0.185626,-0.118961 0.104799,-0.122795 0.18665,-0.301634 0.230535,-0.416594z"/>
 </g>
 <g id="Layer_x0020_1_0">
  <metadata id="CorelCorpID_1Corel-Layer"/>
  <path class="fil0" d="M2.13333 4.05448c0.213744,0 0.409406,0.021689 0.552953,0.0567441 0.185591,0.0453189 0.300382,0.126339 0.300382,0.232272 0,0.105937 -0.114791,0.186953 -0.300382,0.232272 -0.143547,0.0350551 -0.339209,0.0567441 -0.552953,0.0567441 -0.21374,0 -0.409402,-0.0216929 -0.552949,-0.0567441 -0.185591,-0.0453268 -0.300386,-0.126331 -0.300386,-0.232272 0,-0.105937 0.114795,-0.186945 0.300386,-0.232272 0.143547,-0.0350512 0.339209,-0.0567441 0.552949,-0.0567441zm0.502953 0.263413c-0.126677,-0.0309331 -0.304335,-0.0500748 -0.502953,-0.0500748 -0.19861,0 -0.376268,0.0191417 -0.502949,0.0500748 -0.0846693,0.0206772 -0.137047,0.0203583 -0.137047,0.0256024 0,0.00524409 0.052378,0.0049252 0.137047,0.0256024 0.126681,0.0309331 0.304339,0.0500748 0.502949,0.0500748 0.198618,0 0.376276,-0.0191417 0.502953,-0.0500748 0.0846732,-0.0206772 0.137043,-0.0203622 0.137043,-0.0256024 0,-0.00524016 -0.0523701,-0.0049252 -0.137043,-0.0256024z"/>
  <path class="fil0" d="M2.98437 4.72604c0,0.0141772 -0.00204331,0.0282441 -0.0060315,0.042126 -0.00362205,0.0125984 -0.00897638,0.0249606 -0.0159803,0.0370079 -0.0416299,0.0715669 -0.158327,0.128303 -0.31965,0.162449 -0.137941,0.0291969 -0.316142,0.0468701 -0.50937,0.0468701 -0.21311,0 -0.408201,-0.021626 -0.551339,-0.0565787 -0.185181,-0.0452244 -0.29972,-0.126098 -0.29972,-0.231874l0.000417323 0 3.93701e-006 -0.0102323c3.93701e-006,-0.00416929 3.93701e-006,-0.00704331 -1.9685e-005,-0.0092874 -0.000354331,-0.00181102 -0.000708661,-0.00372835 -0.00102362,-0.0056378l-0.00166929 -0.0170827 0 -0.260783 0 -0.106669 0.106669 0 0.0306378 0 0.0691654 0.0258346c0.0306811,0.0263386 0.108665,0.0514409 0.218134,0.0716142 0.117516,0.0216535 0.265882,0.0344961 0.428744,0.0344961 0.16285,0 0.311209,-0.0128425 0.42872,-0.0344961 0.109465,-0.0201732 0.187449,-0.0452756 0.21813,-0.0716142l0.0691654 -0.0258346 0.0306378 0 0.106669 0 0 0.106669c0,0.0453661 -0.000787402,0.0993307 -0.00156299,0.153059 -0.000362205,0.0249882 -0.000728346,0.0501496 -0.000728346,0.149965zm-0.385827 0.033252c0.0893819,-0.0189173 0.15102,-0.0377205 0.172535,-0.0535709 0.000173228,-0.0389646 0.000787402,-0.0825236 0.00142913,-0.126417 -0.0498071,0.0170945 -0.107795,0.0318031 -0.172118,0.0436575 -0.131728,0.0242717 -0.293626,0.0386693 -0.467051,0.0386693 -0.173441,0 -0.335346,-0.0143976 -0.467075,-0.0386693 -0.0646732,-0.0119173 -0.122949,-0.0267283 -0.172937,-0.0439409l0 0.0965315c0.000807087,0.00437402 0.00134252,0.00852362 0.00172835,0.0157205 0.000165354,0.00311024 0.00015748,0.00977165 0.000149606,0.0245354l-3.93701e-006 0.0102323 0.000417323 0c0,0.00539764 0.0521181,0.00462992 0.136382,0.0252047 0.126264,0.0308307 0.303354,0.0499094 0.501339,0.0499094 0.179469,0 0.342004,-0.0157874 0.465205,-0.0418622z"/>
  <rect class="fil1" width="6.82666" height="6.82666"/>
 </g>
</svg>
