<?xml version="1.0" encoding="UTF-8"?>
<!DOCTYPE svg PUBLIC "-//W3C//DTD SVG 1.1//EN" "http://www.w3.org/Graphics/SVG/1.1/DTD/svg11.dtd">
<!-- Creator: CorelDRAW -->
<svg xmlns="http://www.w3.org/2000/svg" xml:space="preserve" width="6.82666in" height="6.82666in" style="shape-rendering:geometricPrecision; text-rendering:geometricPrecision; image-rendering:optimizeQuality; fill-rule:evenodd; clip-rule:evenodd"
viewBox="0 0 6.82666 6.82666"
 xmlns:xlink="http://www.w3.org/1999/xlink">
 <defs>
  <style type="text/css">
   <![CDATA[
    .fil1 {fill:none}
    .fil0 {fill:#212121;fill-rule:nonzero}
   ]]>
  </style>
 </defs>
 <g id="Layer_x0020_1">
  <metadata id="CorelCorpID_0Corel-Layer"/>
  <path class="fil0" d="M4.19957 4.31108l-0.000133858 -0.000692913 0.000141732 -2.75591e-005c-0.00551181,-0.028874 0.000893701,-0.0598819 0.0202756,-0.0849724 0.17363,-0.224063 0.0575551,-0.370165 -0.107535,-0.498098 -0.0482205,-0.0373622 -0.0978386,-0.0720472 -0.147039,-0.106437 -0.0683819,-0.0477953 -0.136043,-0.0950906 -0.197079,-0.146429 -0.160976,-0.135386 -0.324445,-0.293425 -0.448783,-0.471224 -0.129886,-0.185732 -0.217205,-0.392224 -0.217205,-0.616535 0,-0.167831 0.0748543,-0.265283 0.166858,-0.311154 0.0355433,-0.0177165 0.0736732,-0.0270472 0.111173,-0.0292717 0.0370472,-0.00220079 0.0736339,0.00270866 0.106567,0.0134094 0.0852992,0.0277283 0.14935,0.0941811 0.153579,0.183016 0.000452756,0.00927559 0.00178346,0.0197835 0.00418504,0.031185 0.00715748,0.0339252 0.0238228,0.0717874 0.0554173,0.0995906 0.0325394,0.0286339 0.0836339,0.0478661 0.161429,0.0440709 0.0252362,-0.00123228 0.0533031,-0.00493307 0.0844567,-0.0115039 0.371319,-0.078563 0.476748,-0.00255512 0.634591,0.111224 0.031752,0.0228898 0.0661417,0.0476811 0.106425,0.0724488 0.0556142,-0.0599961 0.140063,-0.155047 0.193394,-0.233709 0.000665354,-0.00109055 0.00135039,-0.00217717 0.00206299,-0.00325197 0.0298189,-0.044874 0.0541614,-0.0823346 0.0526929,-0.0984882 -0.00137008,-0.0150984 -0.0274213,-0.0371969 -0.0970433,-0.0739528 -0.00195669,-0.00088189 -0.00389764,-0.00182283 -0.0058189,-0.00283465 -0.10761,-0.0566024 -0.235028,-0.152146 -0.346685,-0.256559 -0.105996,-0.099126 -0.199252,-0.20789 -0.250378,-0.301539 -0.00134646,-0.00218898 -0.00262598,-0.00443307 -0.00382677,-0.00674803 -0.0251535,-0.0483622 -0.0555354,-0.0865669 -0.0870157,-0.116024 -0.038689,-0.0361969 -0.0790984,-0.0601575 -0.113531,-0.0738898 -0.0545354,-0.0216299 -0.0812165,-0.0833819 -0.0595866,-0.137917 0.00849213,-0.0213622 0.0223071,-0.0448504 0.0392756,-0.0736969 0.0277992,-0.0472598 0.0691378,-0.117559 0.0826063,-0.176433 -0.0271496,0.030252 -0.0570906,0.0645079 -0.0852126,0.096685 -0.050437,0.0577126 -0.0957756,0.109587 -0.121614,0.132791l-0.000125984 -0.000141732c-0.025189,0.0226299 -0.0607323,0.032874 -0.096126,0.024311 -0.112,-0.027374 -0.221996,-0.0410236 -0.32902,-0.0422953 -0.365039,-0.00434646 -0.700437,0.134807 -0.966602,0.363614 -0.268165,0.230528 -0.465799,0.551571 -0.553114,0.908811 -0.0308543,0.126248 -0.0479528,0.256724 -0.0495276,0.388996 -0.00281102,0.237472 0.0503543,0.470594 0.127598,0.675492 0.0996181,0.264248 0.23752,0.478276 0.346732,0.593673 0.0295827,0.0271339 0.0425236,0.0699055 0.0296496,0.110709 -0.00290551,0.00920866 -0.00348031,0.0113976 -0.00405118,0.0135984 -0.00122441,0.00470866 -0.00244488,0.00938976 -0.00436614,0.0159409 -0.0125039,0.0503976 -0.0604016,0.0853307 -0.113606,0.0800945 -0.101067,-0.0101102 -0.157992,0.00437008 -0.179398,0.0289803 -0.00182677,0.00210236 -0.00277165,0.00385433 -0.00287008,0.00517717 -0.000259843,0.00338976 0.000751969,0.0076811 0.00297638,0.0126299 0.000594488,0.00103937 0.00118504,0.00208268 0.00175197,0.00314961 0.0198898,0.0374843 0.0764724,0.0722008 0.166713,0.0828583l-1.1811e-005 0.000110236c0.0557795,0.00653937 0.0973228,0.0556654 0.0937638,0.11239 -0.0132638,0.208429 -0.110677,0.320606 -0.193035,0.415445 -0.0709646,0.0817165 -0.122457,0.141016 0.0572598,0.331063l-4.33071e-005 4.33071e-005c0.0369724,0.0392087 0.0389843,0.100827 0.00296063,0.142457 -0.0413307,0.0475945 -0.0687047,0.0795709 -0.0837165,0.109854 -0.00194488,0.00391732 -0.00375984,0.00798425 -0.00546457,0.0122441l2.31914 0c-0.00170472,-0.00425984 -0.00351969,-0.00832677 -0.00546457,-0.0122441 -0.0147087,-0.0296693 -0.0412835,-0.0609606 -0.0812205,-0.106976 -0.0378858,-0.0406614 -0.0382126,-0.104315 0.00042126,-0.145378 0.179717,-0.190047 0.128228,-0.249343 0.0572598,-0.331063 -0.0823583,-0.0948386 -0.179772,-0.207016 -0.193035,-0.415445l0.000173228 -1.1811e-005c-0.000192913,-0.00315748 -0.000259843,-0.00634646 -0.000173228,-0.00957087 0.00161024,-0.0586811 0.0504882,-0.104945 0.109169,-0.103335 0.0374882,0.00103937 0.062248,-0.0146142 0.0725276,-0.0353937 0.004,-0.00808661 0.00614961,-0.0166142 0.00629528,-0.024878 0.000141732,-0.00815354 -0.00158661,-0.0165039 -0.00532283,-0.0243858 -0.0116969,-0.0246693 -0.0452795,-0.044748 -0.106409,-0.0471299 -0.051626,0.00188189 -0.0983307,-0.0341142 -0.108331,-0.0864252zm0.275409 -0.088689c0.0630669,0.030878 0.106547,0.0780709 0.131835,0.131409 0.017811,0.0375748 0.0260354,0.0781693 0.0253228,0.118551 -0.000708661,0.0402717 -0.010248,0.0799094 -0.0279646,0.115713 -0.0284724,0.0575472 -0.0771614,0.106122 -0.143252,0.132524 0.0266024,0.0850472 0.078752,0.145118 0.124591,0.197902 0.133315,0.153516 0.23274,0.268079 0.000106299,0.54537 0.0213583,0.0273583 0.0386496,0.0532283 0.0534331,0.0830472 0.0275039,0.0554724 0.0411929,0.114354 0.0480551,0.205161 0.00437008,0.0586811 -0.0396535,0.109799 -0.0983346,0.114169 -0.00265748,0.00019685 -0.00529921,0.000291339 -0.00791732,0.000295276l0 0.000122047 -2.57348 0c-0.0589094,0 -0.106669,-0.0477598 -0.106669,-0.106669 0,-0.00461417 0.000291339,-0.00916535 0.000862205,-0.013622 0.007,-0.0875787 0.0206811,-0.145154 0.0476063,-0.199457 0.0147835,-0.0298189 0.0320748,-0.055685 0.0534331,-0.0830472 -0.232634,-0.277291 -0.133205,-0.391854 0.000106299,-0.54537 0.0463937,-0.0534252 0.0992559,-0.114311 0.125551,-0.201008 -0.107701,-0.0354803 -0.183102,-0.100201 -0.220476,-0.17063 -0.00129528,-0.00243701 -0.00248031,-0.00490157 -0.00357087,-0.00738976 -0.0198622,-0.0401535 -0.0285079,-0.0825472 -0.0253307,-0.124224 0.00358268,-0.0469646 0.0215079,-0.0913701 0.0545394,-0.129343 0.036937,-0.0424685 0.0938543,-0.0762165 0.171354,-0.0929567 -0.0994488,-0.136244 -0.204311,-0.321937 -0.284646,-0.535039 -0.0853661,-0.226441 -0.144098,-0.485843 -0.140937,-0.752996 0.00177559,-0.149043 0.0208858,-0.295425 0.0553622,-0.436492 0.0979803,-0.400874 0.320035,-0.76137 0.621453,-1.02048 0.303421,-0.260835 0.687535,-0.419453 1.10744,-0.414449 0.103866,0.00123622 0.209634,0.0124606 0.316583,0.0346024 0.0192598,-0.0212283 0.0428228,-0.048189 0.0677992,-0.0767638 0.0811929,-0.0928976 0.175449,-0.200748 0.229386,-0.230917 0.0358819,-0.0199488 0.0783189,-0.0169134 0.110358,0.00425591l5.90551e-005 -9.05512e-005c0.219606,0.145236 0.110732,0.372453 0.0274055,0.517531 0.0248583,0.0169291 0.0498937,0.0366929 0.0742402,0.0594724 0.0488228,0.045685 0.094874,0.102882 0.131181,0.172693 0.000700787,0.00135039 0.0013622,0.00270866 0.002,0.0040748 0.0401535,0.0735945 0.117929,0.163276 0.208039,0.247543 0.0977795,0.091437 0.208406,0.174602 0.30085,0.223228 0.00189764,0.001 0.00374409,0.00205118 0.00555512,0.00314567 0.144894,0.0769331 0.201866,0.155417 0.209811,0.242807 0.00799213,0.0879213 -0.0345,0.156362 -0.0868583,0.235157 -0.00112205,0.00169291 -0.0022874,0.00334252 -0.00348819,0.00495276 -0.0964094,0.142146 -0.272457,0.321327 -0.272969,0.32185 -0.0348937,0.035878 -0.0889488,0.0418583 -0.130228,0.0175118 -0.0842165,-0.0435945 -0.143823,-0.0865669 -0.196866,-0.124803 -0.112016,-0.080748 -0.186846,-0.134689 -0.467094,-0.0753976 -0.0418976,0.00883858 -0.081126,0.0138898 -0.117787,0.0156772 -0.141496,0.00690945 -0.242224,-0.0349409 -0.312264,-0.0965748 -0.0709803,-0.0624646 -0.107685,-0.144102 -0.122913,-0.21626 -0.00470472,-0.0223031 -0.00736614,-0.0441654 -0.00835827,-0.0645157 -0.000370079,-0.00783071 -0.00257874,0.0108937 -0.00690945,0.00948819 -0.00848425,-0.00275591 -0.0181693,-0.00400787 -0.0282283,-0.00340945 -0.00959449,0.000566929 -0.0194291,0.00299213 -0.0286772,0.00760236 -0.026752,0.0133346 -0.0485197,0.0495472 -0.0485197,0.120319 0,0.176173 0.0715709,0.34263 0.178031,0.494866 0.112012,0.160169 0.262378,0.305154 0.411287,0.43039 0.0527598,0.044378 0.117075,0.0893346 0.182079,0.134768 0.0532756,0.0372362 0.106996,0.0747913 0.15537,0.112272 0.223118,0.172902 0.386217,0.36998 0.232661,0.663433z"/>
  <rect class="fil1" width="6.82666" height="6.82666"/>
 </g>
</svg>
