<?xml version="1.0" encoding="UTF-8"?>
<!DOCTYPE svg PUBLIC "-//W3C//DTD SVG 1.1//EN" "http://www.w3.org/Graphics/SVG/1.1/DTD/svg11.dtd">
<!-- Creator: CorelDRAW -->
<svg xmlns="http://www.w3.org/2000/svg" xml:space="preserve" width="6.82666in" height="6.82666in" style="shape-rendering:geometricPrecision; text-rendering:geometricPrecision; image-rendering:optimizeQuality; fill-rule:evenodd; clip-rule:evenodd"
viewBox="0 0 6.82666 6.82666"
 xmlns:xlink="http://www.w3.org/1999/xlink">
 <defs>
  <style type="text/css">
   <![CDATA[
    .fil1 {fill:none}
    .fil0 {fill:#212121;fill-rule:nonzero}
   ]]>
  </style>
 </defs>
 <g id="Layer_x0020_1">
  <metadata id="CorelCorpID_0Corel-Layer"/>
  <path class="fil0" d="M3.85804 5.83458c0.0177165,0.0561457 -0.013437,0.116031 -0.0695827,0.133748 -0.0561457,0.0177165 -0.116031,-0.013437 -0.133748,-0.0695827 -0.126224,-0.398134 0.191201,-0.822232 0.527906,-1.27209 0.29789,-0.397992 0.612256,-0.818004 0.602315,-1.21083 -3.93701e-005,-0.00167323 -3.54331e-005,-0.00334252 3.93701e-006,-0.005l-3.93701e-006 0c0.00994094,-0.392827 -0.304425,-0.812839 -0.602315,-1.21083 -0.336705,-0.449854 -0.65413,-0.873953 -0.527906,-1.27209 0.0177165,-0.0561457 0.0776024,-0.0872992 0.133748,-0.0695827 0.0561457,0.0177165 0.0872992,0.0776024 0.0695827,0.133748 -0.0934567,0.29478 0.191894,0.67602 0.494575,1.08042 0.318902,0.426063 0.655386,0.875657 0.644854,1.34083 0.0105315,0.465177 -0.325953,0.914772 -0.644854,1.34083 -0.302681,0.404398 -0.588031,0.785638 -0.494575,1.08042z"/>
  <polygon class="fil0" points="3.78557,1.36615 1.88713,3.3925 1.89314,3.47104 3.79231,5.46602 3.63815,5.61269 1.7127,3.59011 1.68353,3.52469 1.67108,3.36197 1.66754,3.31561 1.69983,3.28114 3.63057,1.22031 "/>
  <polygon class="fil0" points="1.74094,3.30666 5.53833,3.30666 5.53833,3.52 1.74094,3.52 "/>
  <polygon class="fil0" points="1.53142,3.0257 1.84365,3.3379 1.91907,3.41332 1.84365,3.48874 1.53142,3.80096 1.38059,3.65013 1.61739,3.41332 1.38059,3.17653 "/>
  <polygon class="fil0" points="5.19767,2.90897 5.62662,3.3379 5.70204,3.41332 5.62662,3.48874 5.19767,3.91767 5.04683,3.76683 5.40036,3.41332 5.04683,3.05981 "/>
 </g>
 <g id="Layer_x0020_1_0">
  <metadata id="CorelCorpID_1Corel-Layer"/>
  <rect class="fil1" width="6.82666" height="6.82666"/>
 </g>
</svg>
