<?xml version="1.0" encoding="UTF-8"?>
<!DOCTYPE svg PUBLIC "-//W3C//DTD SVG 1.1//EN" "http://www.w3.org/Graphics/SVG/1.1/DTD/svg11.dtd">
<!-- Creator: CorelDRAW -->
<svg xmlns="http://www.w3.org/2000/svg" xml:space="preserve" width="6.82666in" height="6.82666in" style="shape-rendering:geometricPrecision; text-rendering:geometricPrecision; image-rendering:optimizeQuality; fill-rule:evenodd; clip-rule:evenodd"
viewBox="0 0 6.82666 6.82666"
 xmlns:xlink="http://www.w3.org/1999/xlink">
 <defs>
  <style type="text/css">
   <![CDATA[
    .fil1 {fill:none}
    .fil0 {fill:#212121;fill-rule:nonzero}
   ]]>
  </style>
 </defs>
 <g id="Layer_x0020_1">
  <metadata id="CorelCorpID_0Corel-Layer"/>
  <path class="fil0" d="M3.07891 2.28785c0.0244331,0.0190551 0.049937,0.0393189 0.0756063,0.0601457l-2.75591e-005 3.14961e-005c0.0247087,0.0201181 0.0401378,0.0510748 0.0391969,0.0853858 -0.00161024,0.0586811 -0.0504882,0.104945 -0.109169,0.103335 -0.0494291,-0.0014685 -0.084878,-0.000318898 -0.116043,0.00667323 -0.0299094,0.0067126 -0.0610433,0.020315 -0.103512,0.0440827 -0.0687992,0.0385591 -0.15285,0.076437 -0.250185,0.104543 -0.0792677,0.0228819 -0.166724,0.0390079 -0.260961,0.0432913 -0.0267953,0.00180315 -0.0542913,-0.00646457 -0.076311,-0.0253031 -0.0446417,-0.0381969 -0.0498661,-0.105358 -0.0116693,-0.15 0.0491811,-0.0574134 0.0953031,-0.111709 0.134921,-0.158567 0.0659094,-0.0779528 0.111697,-0.133311 0.112618,-0.134425l0.000153543 0.000129921 0.00151181 -0.00179528c0.071815,-0.0830551 0.14374,-0.127642 0.232496,-0.131484 0.0819606,-0.00355512 0.165846,0.0304764 0.266122,0.104161 0.0157677,0.0115945 0.0376417,0.0282677 0.065252,0.0497953zm-0.253488 0.0808189c-0.0282717,-0.0157244 -0.0507244,-0.0230512 -0.0687205,-0.0222717 -0.0224567,0.000972441 -0.047689,0.0201417 -0.0792874,0.056374l0.000125984 0.000106299c-0.000476378,0.000574803 -0.0162402,0.0196417 -0.0514646,0.0615787 0.0499685,-0.0188228 0.0951457,-0.0406063 0.13472,-0.0627874 0.0230157,-0.0128819 0.0442441,-0.0237835 0.064626,-0.033z"/>
  <path class="fil0" d="M2.08365 3.36085c-0.0483228,-0.0333661 -0.0604488,-0.0995945 -0.0270827,-0.147917 0.0333661,-0.0483228 0.0995945,-0.0604488 0.147917,-0.0270827 0.13302,0.0918504 0.27424,0.15739 0.442681,0.211614 0.172528,0.0555394 0.375681,0.0997638 0.627748,0.147941 0.276059,0.0527795 0.474673,0.155831 0.610366,0.254398 0.139091,0.101031 0.214465,0.199394 0.239831,0.235917 0.0335945,0.0483228 0.0216575,0.11474 -0.0266654,0.148335 -0.021563,0.0149921 -0.0467283,0.0209094 -0.0709724,0.0185787 -0.10578,-0.00251969 -0.224102,-0.0194094 -0.346398,-0.0368583 -0.254618,-0.0363386 -0.528488,-0.0754252 -0.634378,0.0166929 -0.0444094,0.0386575 -0.11176,0.0339921 -0.150417,-0.0104173 -0.0386575,-0.0444094 -0.0339921,-0.11176 0.0104173,-0.150417 0.179224,-0.155909 0.503185,-0.109681 0.804378,-0.0666929l0.0309567 0.00440945c-0.11502,-0.0799252 -0.279992,-0.161354 -0.507118,-0.20478 -0.258524,-0.0494094 -0.468602,-0.0953189 -0.652748,-0.154602 -0.188232,-0.0605984 -0.347154,-0.134598 -0.498516,-0.239118z"/>
  <path class="fil0" d="M1.10861 4.45172c-0.0290945,-0.0236732 -0.0517283,-0.0571457 -0.0609528,-0.0948661 -0.00343307,-0.0140984 -0.0189291,-0.0760669 -0.034622,-0.138839 -0.0209213,-0.0836969 -0.0418465,-0.167386 -0.0625433,-0.257807 -0.00356693,-0.0155709 -0.00719291,-0.0312323 -0.0108228,-0.0469606 -0.042189,-0.182575 -0.086622,-0.374846 -0.0859173,-0.569972 8.26772e-005,-0.0265394 0.00188189,-0.0536181 0.00526772,-0.080626 0.0186614,-0.148709 0.085748,-0.369409 0.182173,-0.552094 0.107087,-0.202874 0.255366,-0.364661 0.430425,-0.364098 0.00773228,2.3622e-005 0.0155039,0.000366142 0.023311,0.0010315 0.00374016,6.29921e-005 0.00751575,0.000314961 0.011311,0.000779528 0.0720669,0.0090315 0.129287,0.063315 0.20598,0.136091 0.0963268,0.0914016 0.233657,0.221709 0.433724,0.282677 0.112567,0.0342835 0.235516,0.0364528 0.350689,0.0215472 0.157004,-0.0203189 0.296634,-0.0717165 0.377295,-0.117382 0.0687047,-0.0389606 0.153657,-0.0678622 0.238697,-0.0725079 0.078,-0.00426378 0.156465,0.0114646 0.225075,0.0569882 0.0332795,0.0221102 0.0610748,0.0481299 0.0888386,0.074122 0.00432283,0.00404331 0.00870079,0.00814567 0.0156378,0.0144803 0.00200394,0.0015748 0.0039685,0.00323228 0.00588583,0.00497638 0.0210039,0.0190669 0.0422008,0.0367205 0.0634961,0.0531457l0.00137795 0.00105906c0.0231457,-0.0109961 0.0493819,-0.0172913 0.0785079,-0.0172913 0.0428425,0 0.0793425,0.0135827 0.108898,0.0356929 0.0249488,0.0186654 0.0434016,0.042874 0.0554409,0.0697362 0.0106457,0.0237598 0.0162835,0.0491772 0.0168976,0.0740669 0.00451969,0.00240157 0.00907087,0.00480315 0.0136457,0.00720866 0.00374409,0.0019685 0.00765748,0.00400787 0.0117165,0.00611417 0.0272677,-0.017252 0.0597402,-0.0275472 0.0970315,-0.0275472 0.0340748,0 0.0644173,0.00873622 0.0905984,0.0235906 0.0310787,0.0176339 0.0542402,0.0434094 0.0695,0.0731969 0.0106417,0.0207559 0.0172795,0.0430472 0.0199213,0.0653268l0.00825197 0.00366535 0.00912598 0.00402756c0.0281654,-0.0189567 0.0620118,-0.030378 0.101079,-0.030378 0.0231772,0 0.0447717,0.00408661 0.0646024,0.0113937 0.0360197,0.0132638 0.0638661,0.0365118 0.0835512,0.0652047 0.0021378,0.00285827 0.00416142,0.00585433 0.00604331,0.00897638 0.00998031,0.0165748 0.0172008,0.034563 0.0216614,0.0530669 0.166142,0.0523898 0.354354,0.0810236 0.53863,0.109055 0.423193,0.0643819 0.827421,0.125882 1.01395,0.46574 0.0144134,0.0262717 0.0277244,0.0582677 0.0369016,0.0904606 0.00862205,0.0302362 0.0140276,0.0627559 0.0140157,0.0940315l-0.000141732 0.123882 -0.000133858 0.103685c-2.75591e-005,0.0378071 -0.0135512,0.0754173 -0.0354173,0.105445 -0.0221811,0.0304331 -0.0539488,0.0549646 -0.0901772,0.0662283l-3.93701e-005 -0.000122047 -0.000374016 0.000122047c-0.0351535,0.0109252 -0.073,0.0219252 -0.113472,0.0329843 -0.0416693,0.0113898 -0.0785472,0.0209094 -0.110701,0.0285945 -0.00142913,0.000401575 -0.00287008,0.000783465 -0.00433071,0.00112992 -0.031689,0.00751575 -0.070437,0.0159213 -0.115378,0.0251024 -0.0164961,0.00337008 -0.0320827,0.00648819 -0.0467913,0.0093622l-0.0361614 0.150976c-0.00874409,0.0363622 -0.0305157,0.0683189 -0.0586496,0.0905787 -0.0285276,0.0225512 -0.0646339,0.0365157 -0.101591,0.0365157l-0.181169 0c-0.0369409,0 -0.0730709,-0.0139528 -0.101598,-0.0365157 -0.0281339,-0.0222598 -0.0499094,-0.0542087 -0.0586378,-0.0905787l-0.0185551 -0.0774488 -0.00550394 0.000433071 -0.0184488 0.0770157c-0.00874409,0.0363622 -0.0305157,0.0683189 -0.0586496,0.0905787 -0.0285276,0.0225512 -0.0646339,0.0365157 -0.101591,0.0365157l-0.181169 0c-0.0369528,0 -0.0730669,-0.0139606 -0.101591,-0.0365197 -0.0281339,-0.022252 -0.0499134,-0.0542087 -0.0586457,-0.0905748l-0.0126024 -0.0526063 -0.0120394 0.000220472 -0.0146772 0.000251969 -0.0137283 0.0572874c-0.00874409,0.0363583 -0.0305157,0.0683228 -0.0586496,0.0905827 -0.0285197,0.0225433 -0.0646299,0.0365118 -0.101591,0.0365118l-0.18115 0c-0.0369409,0 -0.0730866,-0.0139606 -0.10161,-0.0365197 -0.0281496,-0.0222717 -0.0499331,-0.0542165 -0.058626,-0.0905748l-0.0142598 -0.0595157c-0.251339,-0.0056378 -0.498244,-0.0164843 -0.745138,-0.0273307l-0.0686535 -0.00301181 -0.00730315 0.0304685c-0.00870472,0.0363307 -0.0304882,0.068311 -0.0586378,0.0905827 -0.0285157,0.022563 -0.0646457,0.0365276 -0.101598,0.0365276l-0.18115 0c-0.0369764,0 -0.0730906,-0.0139646 -0.101587,-0.0365197 -0.0281417,-0.0222598 -0.0499134,-0.0542323 -0.0586535,-0.0905906l-0.0121614 -0.0507638 -0.0103701 -0.000314961 -0.00576378 -0.000173228 -0.0110394 0.0460984c-0.0087126,0.0363543 -0.0304921,0.0683031 -0.0586299,0.0905551 -0.0285236,0.0225591 -0.0646575,0.0365197 -0.101591,0.0365197l-0.181169 0c-0.0369606,0 -0.0730709,-0.0139606 -0.101594,-0.0365079 -0.0281378,-0.0222441 -0.0499055,-0.0541929 -0.0586417,-0.0905669l-0.0146535 -0.061185 -0.0187244 -0.00057874 -0.00104724 -1.9685e-005 -0.0162244 -0.000511811 -0.0124528 0.0519724c-0.00873622,0.0363701 -0.0305118,0.0683228 -0.0586457,0.090563 -0.0285394,0.0225512 -0.0646654,0.0365079 -0.101594,0.0365079l-0.181169 0c-0.0369528,0 -0.0730748,-0.0139528 -0.101594,-0.0365039 -0.0281378,-0.0222441 -0.0499055,-0.0541929 -0.0586417,-0.0905669l-0.016622 -0.0693858c-0.0455354,-0.00155118 -0.0850709,-0.00292126 -0.116661,-0.00400787l-0.0293504 -0.00101575c-0.038815,-0.0013622 -0.0762874,-0.0166772 -0.105386,-0.0403504zm0.139287 -0.171213l0.00211811 7.48031e-005c0.0491339,0.00169291 0.117496,0.00406299 0.197752,0.00675197 0.050622,0.00158661 0.0918583,0.0383189 0.101051,0.0860512l0.0255906 0.106827 0.106087 0 0.0237795 -0.0992638c0.0118819,-0.0499567 0.0572598,-0.0832047 0.106665,-0.0816024l3.93701e-006 -6.69291e-005 0.102677 0.00323622 0.000956693 4.33071e-005 0.0994449 0.00308268c0.0506614,0.00138976 0.0920669,0.0380157 0.101398,0.0857598l0.0237402 0.0991378 0.106059 0 0.0222874 -0.093063c0.011815,-0.0496772 0.056752,-0.0828228 0.105835,-0.081622l0 -4.72441e-005c0.0323898,0.000814961 0.0629567,0.00167717 0.0922992,0.00256693 0.033748,0.00102362 0.0639449,0.00200394 0.0922717,0.00295669 0.050622,0.00158661 0.0918583,0.0383189 0.101051,0.0860512l0.0211654 0.0883465 0.106051 0 0.0189055 -0.0788701c0.0119488,-0.0502362 0.0577717,-0.0835669 0.107496,-0.0815669l3.93701e-006 -0.000102362c0.0740315,0.0031811 0.113961,0.00494094 0.1565,0.00680709 0.275807,0.0121142 0.551618,0.0242362 0.821803,0.0289882 0.0508228,0.000795276 0.0927441,0.0371496 0.102465,0.0849921l0.023752 0.099126 0.106055 0 0.0241535 -0.100791c0.0115472,-0.0485512 0.0547283,-0.0813071 0.1025,-0.0816496l0 -1.9685e-005c0.0311378,-0.000307087 0.0631457,-0.000748031 0.0962047,-0.00133858 0.030748,-0.000547244 0.0627441,-0.00126772 0.0961732,-0.00217323 0.0524094,-0.00123228 0.0968425,0.035689 0.106728,0.0854016l0.0228583 0.0954173 0.106071 0 0.0277756 -0.115953c0.0110433,-0.0464291 0.0510157,-0.0784252 0.0962677,-0.0814291l-1.5748e-005 -0.000240157c0.0234173,-0.00159843 0.051378,-0.00369685 0.0850433,-0.00640551 0.0401299,-0.00322441 0.0690315,-0.00565354 0.0845551,-0.00712992 0.0549134,-0.00518504 0.104016,0.032374 0.114331,0.0854094l0.030126 0.125748 0.106071 0 0.0434685 -0.181476c0.010122,-0.0425551 0.0445433,-0.0729764 0.0850591,-0.0800748l-5.90551e-005 -0.00034252c0.0431181,-0.00757087 0.0799764,-0.0144488 0.109768,-0.0205315 0.0299764,-0.00612205 0.0659528,-0.0141339 0.108717,-0.0242756 0.00140551,-0.000334646 0.00281102,-0.000629921 0.0042126,-0.000901575 0.0399134,-0.00948425 0.074689,-0.0182717 0.10415,-0.0263189 0.0261929,-0.00715748 0.053811,-0.0151417 0.0828425,-0.0239528l0.000102362 -0.0793898 0.000141732 -0.123882c0,-0.00896457 -0.00250787,-0.0216614 -0.00651181,-0.0357008 -0.00492126,-0.0172598 -0.0116024,-0.0335827 -0.0185709,-0.0462874 -0.13578,-0.24739 -0.489079,-0.301142 -0.858953,-0.357409 -0.219898,-0.0334488 -0.44515,-0.0677205 -0.650591,-0.144583 -0.0282638,-0.0105236 -0.0493937,-0.031811 -0.0604764,-0.0574724 -0.0221496,0.00973228 -0.0477205,0.0120118 -0.072752,0.00465748 -0.00370866,-0.00109055 -0.00731496,-0.00237008 -0.0108071,-0.00381496l-2.75591e-005 6.69291e-005c-0.029563,-0.0122756 -0.0577126,-0.0243071 -0.0842047,-0.0360354 -0.025937,-0.0114843 -0.0538268,-0.0242795 -0.0838898,-0.0385315 -0.027,-0.0127402 -0.0461496,-0.035374 -0.0551811,-0.0615315 -0.0197756,0.00683465 -0.0417598,0.00792913 -0.0634291,0.00185039 -0.00656299,-0.00184252 -0.0128031,-0.00426772 -0.0186929,-0.00718898l-5.51181e-005 0.000106299c-0.0253071,-0.012626 -0.054189,-0.027378 -0.0891024,-0.0457205 -0.0288858,-0.015185 -0.0586181,-0.0313465 -0.0893661,-0.0488268 -0.026874,-0.015252 -0.0445551,-0.0404528 -0.0510709,-0.0683425 -0.0194528,0.00470079 -0.0404449,0.00397244 -0.0606929,-0.00327953 -0.00851969,-0.00305118 -0.0164016,-0.00708268 -0.0235787,-0.0119173l-0.000169291 0.000251969c-0.025878,-0.0174449 -0.0527362,-0.0367677 -0.0807244,-0.0583583 -0.0273346,-0.0210827 -0.0530748,-0.0424134 -0.0768268,-0.0639724 -0.00208268,-0.0018937 -0.00406693,-0.00385433 -0.00596457,-0.00587008 -0.00485039,-0.0045 -0.0110276,-0.0102835 -0.0172283,-0.0160906 -0.0199764,-0.0187008 -0.0399764,-0.0374213 -0.0613425,-0.0516181 -0.0270039,-0.0179173 -0.0610984,-0.0239331 -0.0967362,-0.0219882 -0.05,0.00272835 -0.101661,0.0206929 -0.144531,0.0450039 -0.0991299,0.0561181 -0.268413,0.118988 -0.455626,0.143217 -0.141382,0.0182953 -0.294614,0.0149331 -0.439028,-0.0290512 -0.248953,-0.0758701 -0.407508,-0.226311 -0.518724,-0.331843 -0.0472323,-0.0448189 -0.0824646,-0.078252 -0.0851457,-0.0785866 -0.00203543,-0.000248031 -0.00405118,-0.000559055 -0.00604331,-0.000917323 -0.000913386,-3.54331e-005 -0.00182677,-5.51181e-005 -0.00274409,-5.90551e-005 -0.0806299,-0.000259843 -0.168398,0.111138 -0.242094,0.25076 -0.0843504,0.159811 -0.142799,0.350972 -0.158835,0.478764 -0.00287795,0.0229488 -0.0043937,0.0414291 -0.00443307,0.0547913 -0.000614173,0.169657 0.0412087,0.350626 0.0809173,0.522469 0.00362992,0.0157283 0.00725591,0.0313898 0.0108228,0.0469606 0.0184488,0.0806024 0.0400827,0.16713 0.0617087,0.253642 0.00666929,0.0266732 0.0134921,0.0539921 0.0281929,0.114161z"/>
  <rect class="fil1" width="6.82666" height="6.82666"/>
 </g>
</svg>
