<?xml version="1.0" encoding="UTF-8"?>
<!DOCTYPE svg PUBLIC "-//W3C//DTD SVG 1.1//EN" "http://www.w3.org/Graphics/SVG/1.1/DTD/svg11.dtd">
<!-- Creator: CorelDRAW -->
<svg xmlns="http://www.w3.org/2000/svg" xml:space="preserve" width="6.82666in" height="6.82666in" style="shape-rendering:geometricPrecision; text-rendering:geometricPrecision; image-rendering:optimizeQuality; fill-rule:evenodd; clip-rule:evenodd"
viewBox="0 0 6.82666 6.82666"
 xmlns:xlink="http://www.w3.org/1999/xlink">
 <defs>
  <style type="text/css">
   <![CDATA[
    .fil1 {fill:none}
    .fil0 {fill:#212121;fill-rule:nonzero}
   ]]>
  </style>
 </defs>
 <g id="Layer_x0020_1">
  <metadata id="CorelCorpID_0Corel-Layer"/>
  <g id="_319393688">
   <path id="_319394600" class="fil0" d="M1.94315 2.91292c0.0414213,-0.0416496 0.108768,-0.0418386 0.150417,-0.000417323 0.0416496,0.0414213 0.0418386,0.108768 0.000417323,0.150417l-0.878193 0.88374 4.4091 0 -0.737232 -0.805197c-0.0395787,-0.0432598 -0.0365945,-0.110425 0.00666535,-0.150004 0.0432598,-0.0395787 0.110425,-0.0365945 0.150004,0.00666535l0.893591 0.975972c0.0216457,0.0195197 0.0352598,0.0477874 0.0352598,0.0792323 0,0.0589094 -0.0477598,0.106669 -0.106669,0.106669l-4.90666 0 0 -0.000311024c-0.027122,0 -0.054252,-0.0103071 -0.075,-0.0309409 -0.0416496,-0.0414213 -0.0418386,-0.108768 -0.000417323,-0.150417l1.05872 -1.06541z"/>
   <path id="_319394744" class="fil0" d="M1.28934 3.19528c-0.0409606,0.0421102 -0.108311,0.0430433 -0.150421,0.00208268 -0.0421102,-0.0409606 -0.0430433,-0.108311 -0.00208268,-0.150421 0.0421575,-0.0434055 0.117134,-0.0751693 0.191791,-0.0760512 0.0304213,-0.000362205 0.0616614,0.00406693 0.0917323,0.0144961 0.0323937,0.0112323 0.0628543,0.0289331 0.0890591,0.054378 0.0473622,0.046 0.0796654,0.114878 0.0808307,0.212933l0 0.000417323 0.00554724 0.499039c0.00046063,0.0586811 -0.0467362,0.106626 -0.105417,0.107087 -0.0586811,0.00046063 -0.106626,-0.0467362 -0.107087,-0.105417l-0.00553937 -0.498272 -7.87402e-006 -0.000350394c-0.000405512,-0.0340945 -0.00703937,-0.0535827 -0.0166654,-0.0629331 -0.00291732,-0.00283071 -0.00630315,-0.00480709 -0.00988583,-0.00604724 -0.00590945,-0.00204724 -0.012811,-0.00290945 -0.020063,-0.00282677 -0.0191457,0.000224409 -0.0352835,0.00518504 -0.0417913,0.0118858z"/>
   <path id="_319394480" class="fil0" d="M1.57273 2.86045c-0.0409606,0.0421102 -0.108311,0.0430433 -0.150421,0.00208268 -0.0421102,-0.0409606 -0.0430433,-0.108311 -0.00208268,-0.150421 0.0421693,-0.0434331 0.117362,-0.0752008 0.192303,-0.0760551 0.0301772,-0.000338583 0.0612362,0.00409843 0.0912244,0.0145118 0.0323701,0.0112362 0.0628071,0.0289213 0.0889724,0.0543346 0.0473701,0.046 0.0796693,0.115012 0.0807874,0.213386l0.00567323 0.499035c0.00046063,0.0586811 -0.0467362,0.106626 -0.105417,0.107087 -0.0586811,0.00046063 -0.106626,-0.0467362 -0.107087,-0.105417l-0.00567323 -0.499035c-0.00038189,-0.0338307 -0.00700787,-0.0532126 -0.016622,-0.0625512 -0.00289764,-0.00281496 -0.00625591,-0.00477559 -0.00979921,-0.00600394 -0.0059252,-0.00205512 -0.0129449,-0.0029252 -0.0203898,-0.00284252 -0.0189252,0.000212598 -0.0349528,0.00517717 -0.0414685,0.0118898z"/>
   <path id="_319394648" class="fil0" d="M2.4843 3.01013c0.0184094,-0.0559173 0.0786693,-0.0863268 0.134587,-0.0679173 0.0559173,0.0184094 0.0863268,0.0786693 0.0679173,0.134587 -0.0263031,0.0794567 -0.0784961,0.146118 -0.146161,0.192768 -0.0664685,0.0458228 -0.147594,0.0722638 -0.23315,0.0722638 -0.0363661,0 -0.073374,-0.00517323 -0.109866,-0.0151929 -0.0361417,-0.00992913 -0.0705472,-0.0245197 -0.102063,-0.0434449 -0.0503937,-0.0301457 -0.066811,-0.0954449 -0.0366654,-0.145839 0.0301457,-0.0503937 0.0954449,-0.066811 0.145839,-0.0366654 0.0154567,0.00927953 0.031878,0.016315 0.0487244,0.0209409 0.0164803,0.00452362 0.0346693,0.0068622 0.0540315,0.0068622 0.042063,0 0.0811063,-0.0124173 0.112315,-0.0339331 0.0300236,-0.0206969 0.0530669,-0.0499094 0.0644921,-0.0844291z"/>
   <path id="_319394408" class="fil0" d="M3.59654 3.0768c-0.0184094,-0.0559173 0.012,-0.116177 0.0679173,-0.134587 0.0559173,-0.0184094 0.116177,0.012 0.134587,0.0679173 0.0114252,0.0345118 0.0344685,0.0637283 0.0644961,0.0844291 0.0312087,0.0215157 0.070252,0.0339331 0.112315,0.0339331 0.0420945,0 0.0811693,-0.0124409 0.112402,-0.034 0.0299803,-0.0206929 0.0529882,-0.0499528 0.0644016,-0.0845827 0.0184094,-0.0559173 0.0786693,-0.0863268 0.134587,-0.0679173 0.0559173,0.0184094 0.0863268,0.0786693 0.0679173,0.134587 -0.026189,0.0794724 -0.0783583,0.146185 -0.146071,0.192921 -0.0664449,0.0458622 -0.147602,0.0723307 -0.233236,0.0723307 -0.0855551,0 -0.166677,-0.0264409 -0.23315,-0.0722638 -0.0676693,-0.0466496 -0.119858,-0.113307 -0.146165,-0.192768z"/>
   <path id="_319394384" class="fil0" d="M4.63208 3.10254c0.0508543,-0.0292244 0.11578,-0.011685 0.145004,0.0391693 0.0292244,0.0508543 0.011685,0.11578 -0.0391693,0.145004 -0.0315197,0.0181654 -0.0649488,0.031937 -0.0992913,0.0410433 -0.035063,0.00929528 -0.0709094,0.0140787 -0.106528,0.0140787 -0.085622,0 -0.166772,-0.0264646 -0.233236,-0.0723189 -0.0677008,-0.0467047 -0.119909,-0.113425 -0.146201,-0.192933 -0.0184094,-0.0559173 0.012,-0.116177 0.0679173,-0.134587 0.0559173,-0.0184094 0.116177,0.012 0.134587,0.0679173 0.0114449,0.0346063 0.0344961,0.063874 0.0645315,0.0845945 0.0312362,0.0215472 0.0703031,0.0339882 0.112402,0.0339882 0.018374,0 0.0359882,-0.00223622 0.0523622,-0.0065748 0.0171102,-0.00453543 0.0331535,-0.0110433 0.047622,-0.0193819z"/>
   <path id="_319394912" class="fil0" d="M2.4843 3.0768c-0.0184094,-0.0559173 0.012,-0.116177 0.0679173,-0.134587 0.0559173,-0.0184094 0.116177,0.012 0.134587,0.0679173 0.0114252,0.0345157 0.0344685,0.0637283 0.0644921,0.0844252 0.0312126,0.0215157 0.0702559,0.033937 0.112315,0.033937 0.0421024,0 0.0811693,-0.0124409 0.112402,-0.0339961 0.0299843,-0.0206969 0.0529961,-0.0499567 0.0644094,-0.0845866 0.0184094,-0.0559173 0.0786693,-0.0863268 0.134587,-0.0679173 0.0559173,0.0184094 0.0863268,0.0786693 0.0679173,0.134587 -0.0261969,0.0794764 -0.0783661,0.146189 -0.146079,0.192925 -0.0664449,0.0458583 -0.147598,0.0723268 -0.233236,0.0723268 -0.0855512,0 -0.166677,-0.0264449 -0.23315,-0.0722677 -0.0676614,-0.0466496 -0.119858,-0.113303 -0.146161,-0.192764z"/>
   <path id="_319394288" class="fil0" d="M3.59654 3.01013c0.0184094,-0.0559173 0.0786693,-0.0863268 0.134587,-0.0679173 0.0559173,0.0184094 0.0863268,0.0786693 0.0679173,0.134587 -0.0262047,0.0794213 -0.0783858,0.146059 -0.146047,0.192732 -0.0664724,0.0458425 -0.147622,0.0722992 -0.233138,0.0722992 -0.0856339,0 -0.166831,-0.0264724 -0.233319,-0.0723425 -0.0677323,-0.0467244 -0.119921,-0.113433 -0.146114,-0.192909 -0.0184094,-0.0559173 0.012,-0.116177 0.0679173,-0.134587 0.0559173,-0.0184094 0.116177,0.012 0.134587,0.0679173 0.0114055,0.0346102 0.0344331,0.0638701 0.0644449,0.0845709 0.0312598,0.0215669 0.0703661,0.0340118 0.112484,0.0340118 0.0420197,0 0.0810748,-0.0124331 0.112303,-0.0339685 0.0299764,-0.0206772 0.0529882,-0.049878 0.064378,-0.0843937z"/>
   <path id="_319394816" class="fil0" d="M2.4827 3.51254c0.0184094,-0.0559173 0.0786693,-0.0863268 0.134587,-0.0679173 0.0559173,0.0184094 0.0863268,0.0786693 0.0679173,0.134587 -0.0262992,0.0794528 -0.0784961,0.146122 -0.146169,0.19278 -0.0664646,0.0458228 -0.147587,0.0722717 -0.233142,0.0722717 -0.0159173,0 -0.0323268,-0.00101181 -0.0491063,-0.00300787 -0.0149685,-0.00177953 -0.0312087,-0.00478346 -0.0486457,-0.00898819 -0.0570669,-0.0138071 -0.0921417,-0.0712677 -0.0783346,-0.128335 0.0138071,-0.0570669 0.0712677,-0.0921417 0.128335,-0.0783346 0.0063937,0.00153937 0.0142953,0.00287795 0.0236457,0.00398819 0.0074685,0.000889764 0.0155197,0.00133858 0.0241063,0.00133858 0.0420551,0 0.0810945,-0.0124213 0.112307,-0.0339409 0.0300315,-0.0207047 0.0530748,-0.0499213 0.0645,-0.0844409z"/>
   <path id="_319394768" class="fil0" d="M3.59494 3.57921c-0.0184094,-0.0559173 0.012,-0.116177 0.0679173,-0.134587 0.0559173,-0.0184094 0.116177,0.012 0.134587,0.0679173 0.0114291,0.0345157 0.0344724,0.0637362 0.0645039,0.0844409 0.0312126,0.0215197 0.070252,0.0339409 0.112307,0.0339409 0.0420906,0 0.0811614,-0.0124409 0.112394,-0.034 0.0299843,-0.0206969 0.0529961,-0.0499646 0.0644094,-0.0845866 0.0184094,-0.0559173 0.0786693,-0.0863268 0.134587,-0.0679173 0.0559173,0.0184094 0.0863268,0.0786693 0.0679173,0.134587 -0.0261969,0.0794646 -0.0783622,0.146185 -0.146079,0.192925 -0.0664449,0.0458622 -0.147598,0.0723307 -0.233228,0.0723307 -0.0855551,0 -0.166677,-0.0264449 -0.233142,-0.0722717 -0.0676693,-0.0466496 -0.119866,-0.113319 -0.146173,-0.19278z"/>
   <path id="_319394240" class="fil0" d="M4.57784 3.6255c0.0572992,-0.0133425 0.114575,0.0222874 0.127917,0.0795866 0.0133425,0.0572992 -0.0222874,0.114575 -0.0795866,0.127917 -0.0154606,0.00365354 -0.0313701,0.00643701 -0.0475984,0.00832283 -0.0167047,0.00194488 -0.0327756,0.00292913 -0.0480827,0.00292913 -0.0856181,0 -0.166764,-0.0264646 -0.233228,-0.0723189 -0.0677087,-0.0467165 -0.119909,-0.113437 -0.146209,-0.192937 -0.0184094,-0.0559173 0.012,-0.116177 0.0679173,-0.134587 0.0559173,-0.0184094 0.116177,0.012 0.134587,0.0679173 0.0114449,0.0346024 0.0345,0.0638701 0.0645394,0.0845984 0.0312362,0.0215472 0.0702992,0.0339882 0.112394,0.0339882 0.00874016,0 0.0167362,-0.000425197 0.0239173,-0.00125984 0.00764961,-0.000889764 0.0154882,-0.00227953 0.0234331,-0.00415748z"/>
   <path id="_319393832" class="fil0" d="M2.4827 3.57921c-0.0184094,-0.0559173 0.012,-0.116177 0.0679173,-0.134587 0.0559173,-0.0184094 0.116177,0.012 0.134587,0.0679173 0.0114252,0.0345197 0.0344724,0.0637362 0.0645,0.0844409 0.0312126,0.0215197 0.070252,0.0339409 0.112307,0.0339409 0.0420945,0 0.0811654,-0.0124449 0.112394,-0.034 0.0299882,-0.0206969 0.0530039,-0.0499646 0.0644173,-0.0845866 0.0184094,-0.0559173 0.0786693,-0.0863268 0.134587,-0.0679173 0.0559173,0.0184094 0.0863268,0.0786693 0.0679173,0.134587 -0.0261969,0.0794724 -0.0783661,0.146189 -0.146087,0.192925 -0.0664409,0.0458622 -0.147598,0.0723307 -0.233228,0.0723307 -0.0855551,0 -0.166677,-0.0264488 -0.233142,-0.0722717 -0.0676654,-0.0466575 -0.119866,-0.113323 -0.146169,-0.19278z"/>
   <path id="_319393616" class="fil0" d="M3.59494 3.51254c0.0184094,-0.0559173 0.0786693,-0.0863268 0.134587,-0.0679173 0.0559173,0.0184094 0.0863268,0.0786693 0.0679173,0.134587 -0.0262047,0.0794213 -0.0783898,0.146067 -0.146055,0.192744 -0.0664646,0.0458465 -0.147614,0.0723071 -0.23313,0.0723071 -0.0856339,0 -0.166831,-0.0264803 -0.233311,-0.0723465 -0.0677323,-0.0467283 -0.119925,-0.113441 -0.146122,-0.192909 -0.0184094,-0.0559173 0.012,-0.116177 0.0679173,-0.134587 0.0559173,-0.0184094 0.116177,0.012 0.134587,0.0679173 0.0114055,0.0346024 0.034437,0.0638622 0.0644528,0.0845709 0.0312559,0.021563 0.0703622,0.0340157 0.112476,0.0340157 0.0420157,0 0.0810669,-0.0124331 0.112295,-0.0339764 0.0299764,-0.0206772 0.0529961,-0.0498858 0.0643858,-0.0844055z"/>
  </g>
  <rect class="fil1" width="6.82666" height="6.82666"/>
 </g>
</svg>
