<?xml version="1.0" encoding="UTF-8"?>
<!DOCTYPE svg PUBLIC "-//W3C//DTD SVG 1.1//EN" "http://www.w3.org/Graphics/SVG/1.1/DTD/svg11.dtd">
<!-- Creator: CorelDRAW -->
<svg xmlns="http://www.w3.org/2000/svg" xml:space="preserve" width="6.82666in" height="6.82666in" style="shape-rendering:geometricPrecision; text-rendering:geometricPrecision; image-rendering:optimizeQuality; fill-rule:evenodd; clip-rule:evenodd"
viewBox="0 0 6.82666 6.82666"
 xmlns:xlink="http://www.w3.org/1999/xlink">
 <defs>
  <style type="text/css">
   <![CDATA[
    .fil1 {fill:none}
    .fil0 {fill:#212121;fill-rule:nonzero}
   ]]>
  </style>
 </defs>
 <g id="Layer_x0020_1">
  <metadata id="CorelCorpID_0Corel-Layer"/>
  <path class="fil0" d="M3.41333 4.26461c0.686,0 1.30907,0.0735787 1.76185,0.192535 0.493134,0.129559 0.79815,0.326028 0.79815,0.558685 0,0.23265 -0.30502,0.429118 -0.798157,0.558673 -0.452783,0.118953 -1.07584,0.192535 -1.76184,0.192535 -0.686,0 -1.30906,-0.0735827 -1.76184,-0.192535 -0.493138,-0.129555 -0.798157,-0.326024 -0.798157,-0.558673 0,-0.232657 0.305016,-0.429126 0.79815,-0.558685 0.452783,-0.118957 1.07585,-0.192535 1.76185,-0.192535zm1.70769 0.39837c-0.435138,-0.114319 -1.03875,-0.185031 -1.70769,-0.185031 -0.668933,0 -1.27255,0.0707126 -1.70769,0.185031 -0.394787,0.10372 -0.638976,0.229535 -0.638976,0.35285 0,0.123307 0.244189,0.249122 0.638984,0.352839 0.435138,0.114319 1.03875,0.185031 1.70768,0.185031 0.668929,0 1.27254,-0.0707126 1.70768,-0.185031 0.394795,-0.103717 0.638984,-0.229531 0.638984,-0.352839 0,-0.123315 -0.244189,-0.24913 -0.638976,-0.35285z"/>
  <polygon class="fil0" points="4.37332,5.01333 4.37332,1.19175 4.37332,1.16629 4.58666,1.16629 4.58666,1.19175 4.58666,5.01333 "/>
  <path class="fil0" d="M3.63468 1.54667l0.790736 -0.471634 0.161252 -0.0961772 0 0.187429 0 0.755406 0 0.151142 -0.142504 -0.0511417 -0.790736 -0.283772 -0.211906 -0.0760433 0.193157 -0.115209zm0.73865 -0.192953l-0.436331 0.260252 0.436331 0.156583 0 -0.416835z"/>
  <path class="fil0" d="M3.42685 4.69333c0.0883465,0 0.16835,0.0358268 0.22626,0.0937362 0.0579094,0.0579134 0.0937323,0.137921 0.0937323,0.226268 0,0.0883465 -0.0358268,0.16835 -0.0937362,0.22626 -0.0579055,0.0579094 -0.137906,0.0937362 -0.226256,0.0937362 -0.0883543,0 -0.168354,-0.0358228 -0.226268,-0.0937323 -0.0579173,-0.0579094 -0.0937402,-0.137913 -0.0937402,-0.226264 0,-0.0883504 0.0358268,-0.168358 0.0937362,-0.226268 0.0579094,-0.0579094 0.137917,-0.0937362 0.226272,-0.0937362zm0.0754252 0.244571c-0.0192913,-0.0192913 -0.0459685,-0.0312323 -0.0754252,-0.0312323 -0.0294685,0 -0.0561457,0.0119409 -0.075437,0.0312323 -0.0192913,0.0192913 -0.0312323,0.0459685 -0.0312323,0.0754331 0,0.0294567 0.0119409,0.0561339 0.0312362,0.0754291 0.0192913,0.0192913 0.0459646,0.0312283 0.0754331,0.0312283 0.0294567,0 0.0561299,-0.011937 0.0754213,-0.0312323 0.0192913,-0.0192913 0.0312323,-0.0459685 0.0312323,-0.0754252 0,-0.0294685 -0.011937,-0.0561417 -0.0312283,-0.0754331z"/>
 </g>
 <g id="Layer_x0020_1_0">
  <metadata id="CorelCorpID_1Corel-Layer"/>
  <rect class="fil1" width="6.82666" height="6.82666"/>
 </g>
</svg>
