<?xml version="1.0" encoding="UTF-8"?>
<!DOCTYPE svg PUBLIC "-//W3C//DTD SVG 1.1//EN" "http://www.w3.org/Graphics/SVG/1.1/DTD/svg11.dtd">
<!-- Creator: CorelDRAW -->
<svg xmlns="http://www.w3.org/2000/svg" xml:space="preserve" width="6.82666in" height="6.82666in" style="shape-rendering:geometricPrecision; text-rendering:geometricPrecision; image-rendering:optimizeQuality; fill-rule:evenodd; clip-rule:evenodd"
viewBox="0 0 6.82666 6.82666"
 xmlns:xlink="http://www.w3.org/1999/xlink">
 <defs>
  <style type="text/css">
   <![CDATA[
    .fil1 {fill:none}
    .fil0 {fill:#212121;fill-rule:nonzero}
   ]]>
  </style>
 </defs>
 <g id="Layer_x0020_1">
  <metadata id="CorelCorpID_0Corel-Layer"/>
  <path class="fil0" d="M3.4151 1.17221c0.132268,0 0.25228,0.0531417 0.339362,0.139039 0.0875906,0.0863937 0.141787,0.205567 0.141787,0.337004 0,0.131492 -0.054189,0.250697 -0.141768,0.337114 -0.0870787,0.0859213 -0.207102,0.139067 -0.339382,0.139067 -0.132283,0 -0.25226,-0.0531378 -0.339299,-0.139055 -0.087563,-0.0864291 -0.141724,-0.205634 -0.141724,-0.337126 0,-0.131441 0.0541693,-0.250622 0.14174,-0.337024 0.0870433,-0.0858898 0.20702,-0.13902 0.339283,-0.13902zm0.190071 0.290835c-0.0484213,-0.0477598 -0.115618,-0.077315 -0.190071,-0.077315 -0.074437,0 -0.141594,0.0295433 -0.189992,0.0772953 -0.0478898,0.047248 -0.0775118,0.112732 -0.0775118,0.185228 0,0.0725551 0.0296181,0.138071 0.0774961,0.185331 0.0484055,0.0477795 0.115571,0.0773307 0.190008,0.0773307 0.0744606,0 0.141661,-0.0295591 0.190091,-0.0773425 0.0479016,-0.0472717 0.0775394,-0.11278 0.0775394,-0.185319 0,-0.0724724 -0.0296457,-0.137949 -0.0775591,-0.185209z"/>
  <path class="fil0" d="M3.5198 4.15231l0.211413 1.47989c0.0155512,0.0554961 0.0332283,0.0893346 0.0541102,0.106728 0.0174764,0.0145551 0.0436535,0.020063 0.0780906,0.0199567 0.0223465,-6.69291e-005 0.0430354,-0.00664173 0.0566496,-0.0216535 0.0141496,-0.0156063 0.0241654,-0.0417205 0.0270551,-0.081l-0.10635 -1.59529 -0.000417323 -0.00708661 0 -1.17433 0 -0.225138 0.174315 0.142567c0.138815,0.113535 0.28835,0.130839 0.436205,0.0873071 0.199047,-0.0586142 0.400067,-0.222346 0.575291,-0.417114l0.000204724 0.000185039c0.00602362,-0.00696457 0.00640157,-0.0175551 0.0035,-0.0275079 -0.178106,0.151047 -0.393024,0.255264 -0.602724,0.277252 -0.202138,0.0212008 -0.398677,-0.0322402 -0.555516,-0.189504l-0.00382283 -0.00416929c-0.052878,-0.0461575 -0.250583,-0.0692402 -0.454965,-0.0692402 -0.204382,0 -0.402091,0.0230827 -0.454965,0.0692402l-0.00382283 0.00416929c-0.156839,0.157264 -0.353378,0.210705 -0.555516,0.189504 -0.209701,-0.0219882 -0.424618,-0.126209 -0.602724,-0.277252 -0.00290157,0.00995276 -0.00252362,0.0205433 0.0035,0.0275079l0.000204724 -0.000185039c0.175224,0.194768 0.376244,0.3585 0.575291,0.417114 0.147854,0.0435315 0.29739,0.0262283 0.436205,-0.0873071l0.174315 -0.142567 0 0.225138 0 1.17433 -0.000417323 0.00708661 -0.10635 1.59529c0.00288976,0.0392795 0.0129055,0.0653937 0.0270551,0.081 0.0136142,0.0150118 0.0343031,0.0215866 0.0566496,0.0216535 0.034437,0.000106299 0.0606142,-0.00540157 0.0780906,-0.0199567 0.0208819,-0.0173937 0.0385591,-0.0512323 0.0541102,-0.106728l0.211413 -1.47989c0.0093937,-0.0658268 0.0280787,-0.0987402 0.106961,-0.0982008l0 -0.000413386c0.0781535,0 0.0975709,0.0329291 0.106961,0.0986142zm0.00154331 1.51792l-0.108504 -0.759528 -0.108504 0.759528 -0.00250394 0.0129291c-0.0278189,0.102374 -0.0691181,0.172256 -0.125528,0.219244 -0.0604291,0.0503386 -0.130697,0.0694331 -0.214039,0.0691732 -0.079185,-0.000244094 -0.156567,-0.028063 -0.214287,-0.0917165 -0.0462835,-0.0510315 -0.0775079,-0.123004 -0.0825039,-0.21922l0 -0.0125079 0.106335 -1.59509 0 -0.983524c-0.14924,0.064126 -0.303787,0.0642205 -0.457051,0.0190945 -0.241732,-0.0711811 -0.475327,-0.258323 -0.673705,-0.478827l0 -0.000417323c-0.0662205,-0.0741024 -0.0724961,-0.169276 -0.0443661,-0.246106 0.0106299,-0.0290236 0.0266772,-0.0560866 0.0466417,-0.0788346 0.0220079,-0.0250709 0.0491299,-0.0450236 0.0797677,-0.0572283 0.0621142,-0.024748 0.1315,-0.0185276 0.195083,0.0371929 0.150126,0.131776 0.330248,0.222835 0.502047,0.24085 0.140591,0.0147441 0.276028,-0.0210551 0.382244,-0.127173 0.00474803,-0.00509449 0.00982677,-0.0100118 0.0152244,-0.0147402 0.0934567,-0.0817835 0.34765,-0.122673 0.595146,-0.122673 0.247496,0 0.501689,0.0408976 0.595146,0.122673 0.00539764,0.00472835 0.0104764,0.00964567 0.0152244,0.0147402 0.106217,0.106118 0.241654,0.141917 0.382244,0.127173 0.171799,-0.0180157 0.351921,-0.109075 0.502047,-0.24085 0.0635827,-0.0557205 0.132969,-0.0619409 0.195083,-0.0371929 0.0306378,0.0122047 0.0577598,0.0321575 0.0797677,0.0572283 0.0199646,0.0227441 0.0360118,0.049811 0.0466417,0.0788307 0.0281378,0.0768386 0.0218583,0.172016 -0.0443661,0.24611l0 0.000417323c-0.198378,0.220504 -0.431972,0.407646 -0.673705,0.478827 -0.153264,0.045126 -0.307811,0.0450315 -0.457051,-0.0190945l0 0.983524 0.106335 1.59509 0 0.0125079c-0.00499606,0.0962165 -0.0362205,0.168189 -0.0825039,0.21922 -0.0577205,0.0636535 -0.135102,0.0914724 -0.214287,0.0917165 -0.0833425,0.000259843 -0.15361,-0.0188346 -0.214039,-0.0691732 -0.0564094,-0.0469882 -0.0977087,-0.11687 -0.125528,-0.219244l-0.00250394 -0.0129291z"/>
  <path class="fil0" d="M4.8913 2.33742c-0.0989606,-0.382016 -0.284449,-0.713319 -0.55161,-0.94185 -0.241512,-0.206594 -0.551598,-0.330004 -0.92685,-0.331303 -0.375252,0.00129921 -0.685339,0.124709 -0.92685,0.331303 -0.267161,0.228531 -0.45265,0.559835 -0.55161,0.94185l-0.206008 -0.053378c0.109622,-0.423173 0.317724,-0.792421 0.619169,-1.05028 0.27861,-0.238327 0.635126,-0.380689 1.0653,-0.382181 0.430173,0.00149213 0.786689,0.143854 1.0653,0.382181 0.301445,0.257858 0.509547,0.627106 0.619169,1.05028l-0.206008 0.053378z"/>
 </g>
 <g id="Layer_x0020_1_0">
  <metadata id="CorelCorpID_1Corel-Layer"/>
  <rect class="fil1" width="6.82666" height="6.82666"/>
 </g>
</svg>
