<?xml version="1.0" encoding="UTF-8"?>
<!DOCTYPE svg PUBLIC "-//W3C//DTD SVG 1.1//EN" "http://www.w3.org/Graphics/SVG/1.1/DTD/svg11.dtd">
<!-- Creator: CorelDRAW -->
<svg xmlns="http://www.w3.org/2000/svg" xml:space="preserve" width="6.82666in" height="6.82666in" style="shape-rendering:geometricPrecision; text-rendering:geometricPrecision; image-rendering:optimizeQuality; fill-rule:evenodd; clip-rule:evenodd"
viewBox="0 0 6.82666 6.82666"
 xmlns:xlink="http://www.w3.org/1999/xlink">
 <defs>
  <style type="text/css">
   <![CDATA[
    .fil1 {fill:none}
    .fil0 {fill:#212121;fill-rule:nonzero}
   ]]>
  </style>
 </defs>
 <g id="Layer_x0020_1">
  <metadata id="CorelCorpID_0Corel-Layer"/>
  <path class="fil0" d="M4.94419 2.63018c-0.0680866,-0.0449409 -0.130925,-0.068748 -0.187902,-0.0791457 -0.00738976,-0.00129134 -0.0147126,-0.00235433 -0.0219685,-0.00320866 -0.0696929,-0.00820079 -0.13613,0.00277165 -0.198827,0.0211417 -0.00417717,0.0271496 -0.0104213,0.0566693 -0.0189213,0.0826654 -0.0177913,0.0544134 -0.0479843,0.102602 -0.0963543,0.12326 -0.00231496,0.000984252 -0.00465354,0.00187795 -0.00699606,0.00267323l1.5748e-005 3.93701e-005c-0.16585,0.0561181 -0.494236,0.178886 -0.804988,0.295055 -0.254917,0.0952953 -0.498362,0.186311 -0.622264,0.229941 -0.0515945,0.0181969 -0.108181,-0.00887795 -0.126378,-0.0604724l-0.165378 -0.468551c-0.0181969,-0.0515945 0.00887795,-0.108181 0.0604724,-0.126378 0.00133858,-0.000472441 0.0026811,-0.000905512 0.00402362,-0.0013189l1.31933 -0.494406 0.00161811 -0.000582677 -6.69291e-005 -0.000188976c0.0464213,-0.0164016 0.093122,-0.022311 0.138094,-0.0193543 0.0695866,0.0045748 0.134559,0.030185 0.187717,0.0708346 0.0530945,0.0406024 0.0946929,0.0963189 0.117606,0.161161l0.000972441 0.00279134c0.0569843,-0.0140709 0.123311,-0.0235315 0.198567,-0.0185472 0.0148819,0.000984252 0.0300433,0.00253937 0.0454685,0.00472835 0.113354,0.0154961 0.234732,0.0649764 0.364496,0.171748 0.0498583,-0.0137874 0.0998189,-0.0181417 0.148177,-0.0143031 0.0799843,0.00634252 0.155642,0.0350748 0.219315,0.0805354 0.0635866,0.0453976 0.115291,0.10765 0.147457,0.181098 0.0218268,0.0498307 0.0346614,0.104524 0.0361417,0.162272l0.0707323 0.0734882c0.0378937,0.0393937 0.0366811,0.102055 -0.0027126,0.139949l-0.243681 0.23422c-0.0356063,0.034248 -0.0902165,0.0365433 -0.12837,0.00758661 -0.0137008,0.0124567 -0.0286417,0.0229409 -0.0444409,0.0314685 -0.0399528,0.0215669 -0.0848386,0.0303504 -0.128402,0.0268425 -0.0437441,-0.00351181 -0.0867559,-0.0193425 -0.122764,-0.0469528 -0.0276339,-0.021185 -0.0509409,-0.0488465 -0.067126,-0.0826732 -0.0950709,-0.0584685 -0.159961,-0.148394 -0.189394,-0.248362 -0.0299488,-0.101713 -0.0230394,-0.214165 0.0262992,-0.314622 0.00592126,-0.0120669 0.0112874,-0.0221693 0.0160591,-0.0302087 0.0216457,-0.0364843 0.0458622,-0.067252 0.074374,-0.0942244zm-0.605642 -0.0364252l-0.00464567 -0.00151181c-0.00354724,0.000267717 -0.00633858,-7.87402e-006 -0.00573228,-0.0018622 0.0108189,-0.0330906 0.0159094,-0.0712283 0.0161024,-0.0882126 -0.000291339,-0.0042874 -0.000311024,-0.00864173 -3.54331e-005,-0.0130472 0.00140157,-0.0213189 -0.00158661,-0.0415236 -0.00806693,-0.0598701 -0.00988189,-0.0279724 -0.0279055,-0.0520669 -0.0509291,-0.0696732 -0.0229606,-0.0175551 -0.0506496,-0.0285945 -0.0799449,-0.0305197 -0.0192913,-0.00126772 -0.0395039,0.00133071 -0.0597874,0.00849606l-5.90551e-005 -0.000169291 -1.2321 0.46172 0.0999764 0.28326c0.140248,-0.0508346 0.32952,-0.121594 0.525913,-0.195012 0.310142,-0.115941 0.637449,-0.238303 0.799307,-0.293598zm0.00685827 -0.00233465c0.0031063,-0.00172835 -0.00533465,0.000358268 -0.0115039,0.000822835l0.00464567 0.00151181 0.00685827 -0.00233465zm0.919791 0.116051c-0.036437,-0.00288976 -0.0745079,0.00269291 -0.111783,0.0185315 -0.0270079,0.0131024 -0.0490709,0.0270472 -0.0675039,0.0432835 -0.0175551,0.0154606 -0.0322913,0.0336181 -0.0455197,0.0559134 -0.0042874,0.00722441 -0.00730709,0.0126299 -0.00908268,0.016248 -0.0267677,0.0545039 -0.030378,0.115992 -0.0138976,0.171961 0.0163819,0.0556535 0.0527953,0.105531 0.106165,0.137205 0.00434646,0.00257874 0.00811024,0.00474016 0.0112559,0.0064685 0.0279291,0.0115669 0.0502362,0.0357047 0.058248,0.067252 0.0022126,0.00867323 0.0062126,0.0148189 0.0110709,0.0185433 0.0050315,0.00385827 0.0113898,0.00610236 0.0180945,0.0066378 0.00688976,0.000551181 0.0135866,-0.000614173 0.0190866,-0.00358268 0.00529528,-0.00285827 0.0100236,-0.00770866 0.0133543,-0.014685 0.0109291,-0.0264252 0.0331772,-0.0479173 0.0626732,-0.0568622 0.00437402,-0.00133465 0.00910236,-0.00296063 0.0141496,-0.00484646 0.00323622,-0.0012126 0.00729134,-0.00286614 0.0121024,-0.00493701 0.0309882,-0.0145709 0.0678819,-0.0121181 0.0967953,0.00707874l0.102614 -0.0986299 -0.0266339 -0.0276693c-0.0216181,-0.0199055 -0.0342126,-0.0491811 -0.0317362,-0.080748 0.00329921,-0.0415945 -0.00376378,-0.0802677 -0.0186024,-0.11415 -0.0174961,-0.0399528 -0.0458307,-0.0739646 -0.0807795,-0.0989173 -0.0348622,-0.0248898 -0.0762874,-0.040622 -0.120071,-0.0440945z"/>
  <path class="fil0" d="M0.679228 4.42999l-0.00173228 -0.672134c0,-0.0545945 0.0442598,-0.0988543 0.0988543,-0.0988543 0.00621654,0 0.0122992,0.00057874 0.0181969,0.00167717l2.3622e-005 -0.000125984 0.92935 0.176591 0.626154 0.0380433c-0.0672047,-0.0858622 -0.136697,-0.181248 -0.200783,-0.26922 -0.0445984,-0.0612205 -0.0864685,-0.118689 -0.123575,-0.167232l-0.626126 -0.190287c-0.0522402,-0.0158425 -0.0817441,-0.0710394 -0.0659016,-0.12328 0.00138583,-0.0045748 0.00308268,-0.0089685 0.00504331,-0.0131772l-3.93701e-006 0 0.000248031 -0.000535433 0.000204724 -0.000433071 0.347189 -0.743256c0.0231181,-0.0494567 0.0819606,-0.0708031 0.131417,-0.047685 0.00609449,0.00285039 0.0117598,0.00624409 0.0169724,0.0100945 0.0771142,0.0534409 0.182402,0.158898 0.286591,0.274461 0.144681,0.160469 0.292461,0.345843 0.354161,0.431571 0.082622,0.0644528 0.238898,0.236449 0.371327,0.382205 0.0394331,0.0433976 0.0767047,0.0844213 0.108343,0.118646 0.204031,-0.164996 0.43226,-0.287654 0.672996,-0.381984 0.266622,-0.104472 0.54824,-0.174154 0.828937,-0.228343 0.00446457,-0.000854331 0.00891732,-0.00138583 0.0133346,-0.00162598 0.0468071,-0.00516929 0.089937,-0.00189764 0.129429,0.00819685 0.100114,0.0255984 0.176063,0.0925591 0.229331,0.17602 0.0487677,0.0764094 0.0781614,0.167606 0.0888189,0.250984 0.0080748,0.0632126 0.00580709,0.123484 -0.00652756,0.171736 -0.00243307,0.00958268 -0.00619291,0.0184803 -0.0110197,0.0265512 -0.0108701,0.0215748 -0.0236693,0.0416142 -0.038378,0.0596614 -0.0174134,0.0213661 -0.0370827,0.0399961 -0.0589528,0.0552165 -0.00209449,0.00145669 -0.00422441,0.0028189 -0.00638583,0.00409055 -0.126181,0.0889173 -0.237776,0.191787 -0.337055,0.306028 -0.101579,0.11689 -0.190276,0.245764 -0.268516,0.383862 -0.0641181,0.112902 -0.164394,0.149098 -0.26228,0.13476 -0.0381969,-0.00559055 -0.0753819,-0.0194055 -0.109008,-0.0396496 -0.0324449,-0.0195315 -0.0620079,-0.0454213 -0.0862205,-0.075937 -0.0690118,-0.0869724 -0.0954488,-0.210008 -0.0262638,-0.331902l0.00653543 -0.0114882c-0.021185,0.0116102 -0.042185,0.0236654 -0.0629803,0.036185 -0.114016,0.0686417 -0.220909,0.150894 -0.31848,0.251043 -0.000767717,0.000787402 -0.00154724,0.00155906 -0.00233465,0.00231496l1.1811e-005 1.1811e-005c-0.00135827,0.00131102 -0.00431496,0.0043937 -0.00779921,0.00802756 -0.0430945,0.0449331 -0.142717,0.148795 -0.313744,0.157972 -0.176461,0.0094685 -0.41128,-0.00466535 -0.640764,-0.0274882 -0.341476,-0.0339567 -0.674846,-0.0877717 -0.783067,-0.111059 -0.153909,0.0300472 -0.311988,0.065252 -0.453043,0.0966575 -0.134543,0.0299606 -0.254126,0.0565906 -0.336224,0.0715827 -0.0537362,0.00963386 -0.105114,-0.026122 -0.114748,-0.0798583 -0.00112205,-0.00626378 -0.00162205,-0.0124961 -0.00155512,-0.0186339zm0.196283 -0.552528l0.00111811 0.433079c0.0623937,-0.0132756 0.134917,-0.0294252 0.21248,-0.0466969 0.155173,-0.0345512 0.329898,-0.0734606 0.478756,-0.102146l7.87402e-006 3.54331e-005c0.0140945,-0.00270472 0.0289921,-0.00237795 0.0437953,0.00151575 0.0674331,0.017752 0.41415,0.0751693 0.775583,0.111114 0.220756,0.0219528 0.44535,0.035622 0.611299,0.0267165 0.0924016,-0.00495669 0.154362,-0.0695551 0.181161,-0.0975 0.00446063,-0.00465354 0.00829134,-0.00864173 0.0123189,-0.0125709 0.110323,-0.112976 0.229909,-0.205114 0.356598,-0.281386 0.124295,-0.0748268 0.256543,-0.134815 0.394311,-0.184602 0.0310709,-0.0128819 0.0679331,-0.00960236 0.0969173,0.0118858 0.0438898,0.0325433 0.0530906,0.0945079 0.0205472,0.138398 -0.0314291,0.0425354 -0.0629567,0.0877559 -0.0945394,0.135996 -0.0311575,0.0475945 -0.0600472,0.0946811 -0.0863189,0.141114 -0.023,0.0405197 -0.014,0.0816929 0.00920079,0.110933 0.00931496,0.0117402 0.0208071,0.0217756 0.0335039,0.0294173 0.0115118,0.00692913 0.0235945,0.0115669 0.0353465,0.0132874 0.0215276,0.00315354 0.0447008,-0.00676772 0.0614685,-0.0362953 0.0844173,-0.148996 0.180512,-0.2885 0.291004,-0.41565 0.109402,-0.12589 0.232949,-0.239622 0.37326,-0.338425 0.00212205,-0.00175197 0.00432283,-0.00343307 0.00662205,-0.0050315 0.00720866,-0.00501575 0.0134213,-0.0108189 0.0186378,-0.0172244 0.00462205,-0.00567717 0.00878346,-0.0118543 0.0124764,-0.0184449 0.00485433,-0.0246457 0.00514567,-0.0558543 0.00080315,-0.0898661 -0.00729921,-0.0570945 -0.0269685,-0.118831 -0.0593543,-0.169575 -0.0278858,-0.0436929 -0.0652165,-0.078126 -0.11148,-0.0899567 -0.017752,-0.00453543 -0.0369646,-0.00611811 -0.0576181,-0.00407087 -0.269937,0.0521417 -0.539846,0.118839 -0.793138,0.218087 -0.249114,0.0976102 -0.48248,0.226783 -0.684244,0.404854 -0.0388425,0.0371772 -0.10048,0.0365591 -0.138559,-0.00173228 -0.0435315,-0.0438701 -0.106913,-0.113626 -0.177173,-0.190957 -0.134366,-0.14789 -0.294504,-0.324138 -0.352331,-0.36389l4.33071e-005 -5.90551e-005c-0.00944094,-0.00651969 -0.0179016,-0.0147953 -0.0248543,-0.024752 -0.050563,-0.0724764 -0.199681,-0.260094 -0.349126,-0.425846 -0.0572717,-0.0635236 -0.113665,-0.12289 -0.16285,-0.1695l-0.245102 0.524709 0.545126 0.165669c0.019689,0.00546063 0.0378661,0.0170512 0.0514094,0.0343898 0.0403976,0.0516929 0.0914173,0.12172 0.14639,0.197181 0.111146,0.152563 0.23922,0.328366 0.335862,0.426567 0.0204882,0.0194016 0.0325906,0.047378 0.0308071,0.077752 -0.00320866,0.0545945 -0.0500748,0.096248 -0.104669,0.0930394l-0.864953 -0.0525512 0 -1.9685e-005c-0.00411024,-0.000248031 -0.00825197,-0.000755906 -0.0124055,-0.0015315l-0.818138 -0.155461z"/>
  <rect class="fil1" width="6.82666" height="6.82666"/>
 </g>
</svg>
