<?xml version="1.0" encoding="UTF-8"?>
<!DOCTYPE svg PUBLIC "-//W3C//DTD SVG 1.1//EN" "http://www.w3.org/Graphics/SVG/1.1/DTD/svg11.dtd">
<!-- Creator: CorelDRAW -->
<svg xmlns="http://www.w3.org/2000/svg" xml:space="preserve" width="6.82666in" height="6.82666in" style="shape-rendering:geometricPrecision; text-rendering:geometricPrecision; image-rendering:optimizeQuality; fill-rule:evenodd; clip-rule:evenodd"
viewBox="0 0 6.82666 6.82666"
 xmlns:xlink="http://www.w3.org/1999/xlink">
 <defs>
  <style type="text/css">
   <![CDATA[
    .fil1 {fill:none}
    .fil0 {fill:#212121;fill-rule:nonzero}
   ]]>
  </style>
 </defs>
 <g id="Layer_x0020_1">
  <metadata id="CorelCorpID_0Corel-Layer"/>
  <path class="fil0" d="M3.0832 1.51353c0.017563,-0.0158583 0.0350787,-0.0316772 0.0537047,-0.0454331l5.11811e-005 6.69291e-005c0.035689,-0.0264685 0.0856929,-0.0285748 0.124118,-0.00173228 0.0595354,0.0415276 0.108913,0.0635512 0.15365,0.0641024 0.042937,0.000527559 0.0898425,-0.0192677 0.146689,-0.0612087 0.0367244,-0.0283858 0.0892126,-0.0302362 0.128335,-0.00122835 0.018626,0.0137559 0.0361417,0.0295748 0.0537047,0.0454331 0.0248268,0.0224213 0.049878,0.0450472 0.0638937,0.0450472 0.036374,0 0.0777756,-0.0163701 0.107031,-0.027937 0.0152205,-0.00601575 0.028252,-0.0111732 0.0426772,-0.015311l0.000110236 0.000385827c0.0350039,-0.010063 0.0976417,-0.015815 0.160362,0.0092126 0.0410472,0.0163819 0.0823425,0.0450669 0.116295,0.0927244 0.00701969,0.0089685 0.0127087,0.0192205 0.0166654,0.0305709 0.0629252,0.181122 -0.0260591,0.27413 -0.109882,0.361744 -0.0164252,0.0171614 -0.0325276,0.034 -0.0441654,0.0500551 -0.00250787,0.00390945 -0.00529921,0.00770079 -0.00838189,0.0113425 -0.0722677,0.0853858 -0.145673,0.215319 -0.19448,0.371874 -0.0313543,0.100579 -0.0521929,0.211465 -0.0556102,0.327685 0.0454173,-0.000980315 0.0919685,-0.000937008 0.123272,0.00349213 0.095374,0.0135394 0.161217,0.0676417 0.197713,0.137461 0.0208228,0.0398268 0.0313425,0.0846063 0.0316496,0.129335 0.000307087,0.0438976 -0.00943307,0.0884134 -0.0291102,0.128614 -0.0355157,0.072563 -0.101528,0.130295 -0.197335,0.146346 -0.0474449,0.00794094 -0.100575,0.00713386 -0.14822,0.00500787 -0.014626,0.107961 0.00323622,0.253638 0.0384961,0.411843 0.0619134,0.277795 0.178181,0.587933 0.271965,0.813303 0.136075,0.023311 0.221748,0.111594 0.262425,0.215094 0.0159724,0.0406535 0.0244961,0.0841929 0.0259449,0.127165 0.00147244,0.043622 -0.00435039,0.0863189 -0.0170472,0.124642 -0.0116614,0.0352008 -0.028563,0.067311 -0.0504882,0.0944449 0.0208071,0.0214685 0.039248,0.043311 0.0552047,0.0654882 0.0474764,0.0659764 0.0731969,0.135185 0.0745748,0.206854 0.00120472,0.0630827 -0.0268031,0.163799 -0.0901772,0.241768 -0.0108858,0.0133937 -0.0227913,0.026248 -0.0357441,0.0383071 0.0185866,0.0210236 0.0354606,0.0433543 0.050374,0.0665866 0.0460827,0.0717835 0.0743465,0.153839 0.0777913,0.234098 0.000484252,0.00411811 0.000740157,0.00831102 0.000740157,0.0125591 0,0.0589094 -0.0477598,0.106669 -0.106669,0.106669l-1.92 0 0 -0.000417323 -0.00125197 0c-0.0586811,-0.000688976 -0.105689,-0.0488228 -0.105,-0.107504 0.00114961,-0.0838268 0.0298661,-0.170248 0.0781142,-0.245406 0.0149134,-0.0232323 0.0317874,-0.045563 0.050374,-0.0665866 -0.0129528,-0.0120591 -0.0248583,-0.0249134 -0.0357441,-0.0383071 -0.063374,-0.0779685 -0.0913819,-0.178685 -0.0901772,-0.241768 0.00137795,-0.0716693 0.0270984,-0.140878 0.0745748,-0.206854 0.0159764,-0.0222008 0.0344409,-0.0440669 0.0552717,-0.0655591 -0.0219724,-0.0270984 -0.0388976,-0.059189 -0.0505551,-0.094374 -0.0126969,-0.0383189 -0.0185197,-0.0810236 -0.0170472,-0.124638 0.00144882,-0.0429764 0.00996457,-0.0865118 0.0259449,-0.127169 0.0406772,-0.1035 0.12635,-0.191783 0.262425,-0.215094 0.0937835,-0.22537 0.210051,-0.535508 0.271965,-0.813303 0.0352598,-0.158205 0.053122,-0.303882 0.0384961,-0.411843 -0.0476457,0.00212598 -0.100776,0.00293307 -0.14822,-0.00500787 -0.0958071,-0.0160512 -0.161819,-0.0737835 -0.197335,-0.146343 -0.0196693,-0.0402008 -0.0294094,-0.0847126 -0.0291102,-0.128618 0.000307087,-0.0447244 0.0108268,-0.0895079 0.0316496,-0.129335 0.0364961,-0.0698228 0.102339,-0.123929 0.197713,-0.137461 0.0313031,-0.00442913 0.0778543,-0.00447244 0.123272,-0.00349213 -0.00341732,-0.11622 -0.0242559,-0.227106 -0.0556102,-0.327685 -0.0488071,-0.156555 -0.122213,-0.286488 -0.19448,-0.371874l7.87402e-005 -6.69291e-005c-0.00221654,-0.00262598 -0.00433465,-0.00538189 -0.00632677,-0.00826772 -0.0117559,-0.0169567 -0.0288465,-0.0348268 -0.0462992,-0.053063 -0.0838228,-0.0876142 -0.172807,-0.180622 -0.109882,-0.361744l0.000110236 3.93701e-005c0.00297638,-0.00851969 0.00708661,-0.0167992 0.0123898,-0.024622 0.0347047,-0.0512677 0.0777205,-0.0816535 0.120461,-0.0987126 0.0554252,-0.0221181 0.110783,-0.0201929 0.147067,-0.0125039 0.0044685,0.000673228 0.00894488,0.0016378 0.0134055,0.00290551 0.0144252,0.0041378 0.0274567,0.00929528 0.0426772,0.015311 0.0292559,0.0115669 0.0706575,0.027937 0.107031,0.027937 0.0140157,0 0.0390669,-0.022626 0.0638937,-0.0450472zm0.127051 0.17139c-0.0508465,0.0452598 -0.104996,0.0869961 -0.190945,0.0869961 -0.0767441,0 -0.140386,-0.0251614 -0.185362,-0.0429449 -0.0106063,-0.00419291 -0.0196929,-0.0077874 -0.0226772,-0.00864173 -0.00122441,-0.000346457 -0.00243701,-0.000724409 -0.00363386,-0.00111024 -0.00485039,-0.000551181 -0.0119449,-7.08661e-005 -0.0201772,0.0032126 -0.00453937,0.00181102 -0.00933858,0.0048622 -0.0141693,0.0096378 -0.00980709,0.0518819 0.0291811,0.0926496 0.0660906,0.131228 0.0227008,0.0237205 0.0449606,0.047 0.0638937,0.0731535 0.0878346,0.104614 0.17589,0.259846 0.233134,0.443457 0.047437,0.152165 0.074315,0.324969 0.0631772,0.506177 -0.00333071,0.0565866 -0.0502835,0.100232 -0.106252,0.100181l0 0.00023622c-0.0038622,0 -0.0310276,-0.000822835 -0.0609724,-0.00172441 -0.0495315,-0.00150394 -0.110693,-0.00335827 -0.13778,0.000472441 -0.0193189,0.00274016 -0.0320472,0.0125236 -0.0385472,0.0249567 -0.00490945,0.0093937 -0.00740157,0.0204449 -0.00747638,0.0318386 -8.26772e-005,0.0122205 0.00240551,0.0241654 0.00744094,0.0344528 0.00712205,0.0145512 0.0209449,0.0262323 0.0415,0.0296732 0.036315,0.0060748 0.0907598,0.00320472 0.13515,0.000866142 0.0252244,-0.00133071 0.0480118,-0.00253543 0.060689,-0.00253543 0.0494488,0 0.0910354,0.0336575 0.103118,0.0793071 0.0515906,0.151484 0.0343071,0.366059 -0.0167283,0.595047 -0.0713976,0.320339 -0.208189,0.674425 -0.308472,0.909783 -0.0172165,0.0404646 -0.0565472,0.064748 -0.0979173,0.0647677l0 0.00023622c-0.0746457,0 -0.118843,0.0386417 -0.137173,0.0852795 -0.00728346,0.0185315 -0.0111457,0.0377953 -0.0117717,0.0563346 -0.000602362,0.0178937 0.00180315,0.0354724 0.00704724,0.0512992 0.00684646,0.0206654 0.0191969,0.0359488 0.0352244,0.0359488 0.0586811,0 0.106252,0.0475709 0.106252,0.106252 0,0.0359213 -0.0178307,0.0676772 -0.045122,0.0869094l0.000122047 0.000173228c-0.0582874,0.0410472 -0.102638,0.0817953 -0.131193,0.121484 -0.0221378,0.0307638 -0.0340669,0.0596575 -0.0345748,0.0860197 -0.000476378,0.0249606 0.0128189,0.0675394 0.0426732,0.104272 0.0191142,0.0235197 0.0453937,0.0426969 0.0793465,0.048374 0.0579882,0.00966142 0.0971614,0.0645118 0.0875,0.1225 -0.00562992,0.0337835 -0.0265945,0.0611732 -0.0545827,0.076248l0 3.93701e-006c-0.0453031,0.0245472 -0.0844252,0.0628386 -0.112728,0.106933 -0.00527165,0.0082126 -0.0101299,0.0165591 -0.0145591,0.0249882l1.64706 0c-0.00442913,-0.00842913 -0.0092874,-0.0167756 -0.0145591,-0.0249882 -0.0283031,-0.0440945 -0.0674252,-0.0823858 -0.112728,-0.106933 -0.0517756,-0.0278425 -0.0711772,-0.0923937 -0.0433346,-0.144169 0.0162205,-0.0301614 0.0448976,-0.0493346 0.076252,-0.0545827 0.0339528,-0.00567717 0.0602323,-0.0248543 0.0793465,-0.048374 0.0298543,-0.0367323 0.0431496,-0.079311 0.0426732,-0.104272 -0.000507874,-0.0263622 -0.012437,-0.0552559 -0.0345748,-0.0860197 -0.0285551,-0.039689 -0.0729055,-0.080437 -0.131193,-0.121484 -0.0480906,-0.0338268 -0.0596575,-0.100244 -0.0258307,-0.148335 0.0207087,-0.0294409 0.0536299,-0.045189 0.0870827,-0.0452165l0 -0.000200787c0.016126,0 0.0284606,-0.0151063 0.0352244,-0.0355315 0.00524409,-0.0158307 0.00764961,-0.0334055 0.00704724,-0.0513031 -0.000625984,-0.0185354 -0.00449213,-0.0378031 -0.0117717,-0.0563307 -0.0183307,-0.0466378 -0.0625276,-0.0852795 -0.137173,-0.0852795 -0.0468228,0 -0.0865984,-0.0301732 -0.100949,-0.0721339 -0.0999961,-0.235339 -0.23476,-0.585524 -0.305441,-0.902654 -0.0520394,-0.2335 -0.069,-0.452024 -0.0136102,-0.603937 0.0156811,-0.0432559 0.0565039,-0.0701378 0.1,-0.0701417l0 -0.000275591c0.0126772,0 0.0354646,0.00120472 0.060689,0.00253543 0.0443898,0.00233858 0.0988346,0.00520866 0.13515,-0.000866142 0.0205551,-0.00344094 0.034378,-0.015126 0.0415,-0.0296772 0.00503543,-0.0102874 0.00752362,-0.0222323 0.00744094,-0.0344488 -7.48031e-005,-0.0113976 -0.00256693,-0.0224449 -0.00747638,-0.0318386 -0.0065,-0.0124331 -0.0192283,-0.0222165 -0.0385472,-0.0249567 -0.0270866,-0.00383071 -0.088248,-0.00197638 -0.13778,-0.000472441 -0.0299449,0.000901575 -0.0571102,0.00172441 -0.0609724,0.00172441 -0.0589094,0 -0.106669,-0.0477598 -0.106669,-0.106669l7.87402e-006 -0.000728346c-0.0100354,-0.178665 0.0167598,-0.348988 0.0635866,-0.499197 0.0572441,-0.18361 0.145299,-0.338843 0.233134,-0.443457 0.0189331,-0.0261535 0.0411929,-0.0494331 0.0638937,-0.0731535 0.0369094,-0.0385787 0.0758976,-0.0793465 0.0660906,-0.131228 -0.00483071,-0.00477559 -0.00962992,-0.00782677 -0.0141693,-0.0096378 -0.010626,-0.00424016 -0.0193622,-0.00380315 -0.023811,-0.00251969l-0.000110236 3.14961e-005 0.000110236 0.000385827c-0.00298425,0.000854331 -0.0120709,0.00444882 -0.0226772,0.00864173 -0.0449764,0.0177835 -0.108618,0.0429449 -0.185362,0.0429449 -0.085189,0 -0.139138,-0.0409961 -0.189594,-0.0857953 -0.0695394,0.0392244 -0.13639,0.0577638 -0.205531,0.0569173 -0.0680945,-0.000838583 -0.133669,-0.0206457 -0.201969,-0.0581181z"/>
  <path class="fil0" d="M3.04015 1.34281c0,-0.104764 0.0412874,-0.199898 0.108063,-0.269051 0.0678898,-0.0703071 0.161669,-0.113764 0.265264,-0.113764 0.103465,0 0.197193,0.0434803 0.265028,0.113807 0.0667165,0.0691614 0.108,0.16428 0.108,0.269008 0,0.104764 -0.0412717,0.199846 -0.107969,0.26898 -0.0678504,0.0703268 -0.161591,0.113772 -0.265059,0.113772 -0.103563,0 -0.197295,-0.0435315 -0.265165,-0.113799 -0.0668346,-0.0691929 -0.108161,-0.164374 -0.108161,-0.268953zm0.261402 -0.121547c-0.0296969,0.0307559 -0.048063,0.0737008 -0.048063,0.121547 0,0.0476929 0.0184055,0.0906417 0.0481614,0.121449 0.0286063,0.0296142 0.0681378,0.0479646 0.111827,0.0479646 0.0436181,0 0.0831339,-0.0183071 0.11172,-0.047937 0.0296299,-0.0307126 0.0479685,-0.0736181 0.0479685,-0.121476 0,-0.0478386 -0.0183504,-0.0907677 -0.048,-0.121504 -0.0285945,-0.0296417 -0.0680984,-0.0479724 -0.111689,-0.0479724 -0.0437559,0 -0.0833268,0.018311 -0.111925,0.0479291z"/>
 </g>
 <g id="Layer_x0020_1_0">
  <metadata id="CorelCorpID_1Corel-Layer"/>
  <rect class="fil1" width="6.82666" height="6.82666"/>
 </g>
</svg>
