<?xml version="1.0" encoding="UTF-8"?>
<!DOCTYPE svg PUBLIC "-//W3C//DTD SVG 1.1//EN" "http://www.w3.org/Graphics/SVG/1.1/DTD/svg11.dtd">
<!-- Creator: CorelDRAW -->
<svg xmlns="http://www.w3.org/2000/svg" xml:space="preserve" width="6.82666in" height="6.82666in" style="shape-rendering:geometricPrecision; text-rendering:geometricPrecision; image-rendering:optimizeQuality; fill-rule:evenodd; clip-rule:evenodd"
viewBox="0 0 6.82666 6.82666"
 xmlns:xlink="http://www.w3.org/1999/xlink">
 <defs>
  <style type="text/css">
   <![CDATA[
    .fil1 {fill:none}
    .fil0 {fill:#212121;fill-rule:nonzero}
   ]]>
  </style>
 </defs>
 <g id="Layer_x0020_1">
  <metadata id="CorelCorpID_0Corel-Layer"/>
  <path class="fil0" d="M4.87352 3.49919c-0.0776024,-0.0462283 -0.184504,-0.0945236 -0.275327,-0.135547 -0.0202205,-0.00913386 -0.0392283,-0.0177205 -0.081689,-0.0375315 -0.127205,-0.0593465 -0.20524,-0.119713 -0.162134,-0.212039 0.0104409,-0.0223701 0.028689,-0.090252 0.045685,-0.15348 0.00852756,-0.0317362 0.0167362,-0.0622677 0.0276929,-0.0982638 0.0727756,-0.239157 0.242748,-0.237224 0.393091,-0.191476 0.0411339,0.0125157 0.0777992,0.0280079 0.108929,0.0411535 0.00177953,0.000748031 0.0034685,0.00146457 0.0175866,0.00731496 0.0133307,0.00548031 0.0249488,0.0133661 0.0345669,0.022937l1.5748e-005 -1.9685e-005c0.0212559,0.021189 0.0458307,0.0480157 0.0699567,0.0743465 0.0462835,0.0505157 0.0904213,0.098685 0.111409,0.105732 0.0274213,0.00920472 0.0552638,0.00425197 0.0783346,-0.00932283 0.0163661,-0.00962992 0.0306299,-0.0239016 0.0411457,-0.0409843 0.00987008,-0.0160354 0.0157441,-0.0334606 0.0160315,-0.050437 0.00042126,-0.0247402 -0.0107008,-0.0518898 -0.0379803,-0.0774094 -0.0323661,-0.0302795 -0.0723819,-0.0732638 -0.113929,-0.11789 -0.0577874,-0.0620709 -0.118748,-0.127547 -0.137201,-0.139854 -0.0283898,-0.0190118 -0.00494488,-0.0653976 -0.0776614,-0.131661 -0.022252,-0.0202795 -0.0484094,-0.0397598 -0.0745039,-0.0570236 -0.00425591,0.0263425 -0.00809843,0.0498701 -0.0111063,0.0639094 -0.0117205,0.0552992 -0.0644094,0.0913898 -0.119575,0.0832717l-7.87402e-006 6.29921e-005c-0.107921,-0.0161811 -0.245449,0.0239528 -0.381209,0.0868268 -0.208917,0.0967559 -0.40574,0.243575 -0.499787,0.333555 -0.0227165,0.0217283 -0.0525748,0.0313622 -0.0816299,0.0290945l-3.93701e-005 0.000492126c-0.0407323,-0.00325591 -0.0884803,-0.0111299 -0.138858,-0.0276614 -0.0514252,-0.016878 -0.105087,-0.0425827 -0.156197,-0.0812165 -0.0447835,-0.0338071 -0.0553307,-0.0961457 -0.025437,-0.142567 0.0279882,-0.0452835 0.131004,-0.224543 0.202406,-0.371413 0.0365591,-0.0751969 0.0639173,-0.135339 0.0633071,-0.145551 -0.000976378,-0.016315 -0.0060748,-0.0308346 -0.0139764,-0.0419567 -0.00558661,-0.00786614 -0.0120787,-0.0135551 -0.0187126,-0.0161181 -0.00445276,-0.00172047 -0.00993701,-0.00184252 -0.0161142,0.000153543 -0.00887402,0.00286614 -0.0188661,0.00920866 -0.0298386,0.0197126 -0.0303425,0.0662244 -0.0913543,0.129815 -0.166055,0.190098 -0.0732953,0.0591535 -0.161587,0.117244 -0.243862,0.170783 -0.00179134,0.00116142 -0.0036063,0.00225591 -0.00543701,0.00329921l1.9685e-005 3.54331e-005c-0.092,0.0522165 -0.19378,0.157669 -0.263492,0.26915 -0.037,0.0591732 -0.0636299,0.117717 -0.0728583,0.167437 -0.00595669,0.0321102 -0.00484252,0.0572717 0.00641732,0.0697283 0.0050748,0.00561417 0.0138858,0.0107559 0.0270157,0.0152362 0.055689,0.0188661 0.0855354,0.079311 0.0666693,0.135 -0.0161102,0.0475512 -0.0625315,0.076252 -0.110425,0.0718819 -0.058752,-0.00309449 -0.124205,-0.00298425 -0.183957,0.00675197 -0.0520433,0.00848031 -0.0991575,0.0240551 -0.130161,0.0513425 -0.0190709,0.0167874 -0.0424606,0.0255197 -0.0660118,0.0264803 -0.0448031,0.00359449 -0.197866,0.00380315 -0.35428,-0.135232 -0.0839685,-0.0746417 -0.283543,-0.0345118 -0.500717,0.00915748 -0.135732,0.0272913 -0.277209,0.0557244 -0.41474,0.0614252 0.0429449,0.0275079 0.0892874,0.051874 0.137071,0.0718228 0.129138,0.0539134 0.263953,0.0736772 0.360677,0.0317717 0.0632677,-0.0274173 0.186591,-0.0455157 0.313228,-0.0489961 0.114819,-0.00315354 0.237028,0.00488583 0.323988,0.0279606 0.0568386,0.0149567 0.0907913,0.0731614 0.0758346,0.13l-0.00053937 0.00194488c-0.00555512,0.0250669 -0.0271378,0.126122 -0.0496102,0.28063 -0.0102323,0.0703819 -0.0384606,0.127933 -0.076878,0.173024 -0.0438189,0.0514331 -0.100772,0.0854803 -0.159197,0.103189 -0.0597795,0.018122 -0.108118,0.0229882 -0.153146,0.0275118 -0.0581339,0.00584252 -0.107846,0.0108465 -0.161799,0.0674567 -0.142232,0.149248 -0.250823,0.273453 -0.340004,0.375461 -0.0628189,0.0718543 -0.116394,0.133138 -0.163484,0.182823l-0.000944882 0.000968504c-0.0168898,0.017689 -0.0224409,0.0298386 -0.0204646,0.0366969 0.000598425,0.0020748 0.00262992,0.00480709 0.00573622,0.00788583 0.00475591,0.00471654 0.0111614,0.00864173 0.0186535,0.0114213 0.0218622,0.00811811 0.050374,0.00517323 0.0755039,-0.0155551l0.00182677 -0.00146457 -0.000161417 -0.000204724c0.048689,-0.0382559 0.11485,-0.111972 0.188957,-0.194535 0.202315,-0.225406 0.456157,-0.508213 0.701969,-0.471614 0.0721693,0.010748 0.165004,0.0071811 0.245402,-0.0187087 0.0551142,-0.017748 0.102602,-0.0456457 0.127421,-0.0859961 0.0308346,-0.0501654 0.0965039,-0.0658346 0.146669,-0.035 0.0275945,0.0169606 0.044748,0.0444646 0.0494685,0.074126 0.0174803,0.0910669 0.0157205,0.154992 0.0143819,0.203882 -0.00128346,0.0466457 -0.0016063,0.0586299 0.180059,0.134862 0.0529882,0.0222323 0.10413,0.0410669 0.153823,0.0593661 0.200917,0.0739764 0.382256,0.140756 0.437764,0.306961 0.0148307,0.0444016 0.0454961,0.0458346 0.0786496,0.047374 0.00925591,0.000429134 0.0187717,0.000877953 0.0200984,0.000952756 0.0304646,0.00177953 0.0384724,0.0110118 0.0407205,0.00765748 0.00019685,-0.000291339 -0.00490945,-0.0184606 -0.0140709,-0.0503661 -0.0587283,-0.204488 -0.304925,-0.31822 -0.464516,-0.391941 -0.12802,-0.0591299 -0.220201,-0.101728 -0.218228,-0.201028 0.00137795,-0.0690276 -0.00173228,-0.0764409 -0.0265394,-0.135575 -0.00084252,-0.00200787 -0.00161024,-0.00402756 -0.00232283,-0.00605512l-0.0125945 -0.0305866c-0.0223189,-0.0543071 0.00361024,-0.116433 0.0579173,-0.138752 0.0132362,-0.00544094 0.0269409,-0.00800787 0.0404173,-0.008l0 -0.000334646c0.0833858,0 0.179768,0.00597244 0.27913,0.012126 0.256898,0.0159134 0.535807,0.0331929 0.681591,-0.0579291 0.00234646,-0.00146063 0.00472835,-0.00281496 0.0071378,-0.00407087l-5.11811e-005 -9.44882e-005c0.0985276,-0.0512559 0.247453,-0.0440472 0.365878,-0.00814173 0.0450079,0.0136417 0.0867402,0.0314646 0.120638,0.0517913 0.0433976,0.0260197 0.0773898,0.0580236 0.096248,0.0942913 0.0188268,0.036189 0.0237362,0.0749094 0.0115906,0.115421l0.000267717 7.87402e-005 -0.123819 0.41463c-0.00896457,0.0300236 -0.00615354,0.0528189 0.00329134,0.0662283 0.00261417,0.00370866 0.00556693,0.00637402 0.00858268,0.00779528 0.00194488,0.000917323 0.00429134,0.00128346 0.00685433,0.000996063 0.0113701,-0.0012874 0.0259173,-0.0128268 0.0415906,-0.0379803 0.00265354,-0.00425984 0.0214134,-0.0338819 0.0404646,-0.0639646 0.114016,-0.180004 0.274335,-0.433102 0.284878,-0.624874 0.00234646,-0.0427244 -0.00299606,-0.0816378 -0.0187677,-0.114461 -0.0151811,-0.0315827 -0.0417165,-0.0602323 -0.0826102,-0.0845906zm-0.187823 -0.329713c0.0947874,0.042815 0.206366,0.0932205 0.296988,0.147209 0.0787677,0.0469173 0.132047,0.10663 0.165114,0.175425 0.0324646,0.0675591 0.0438189,0.141091 0.0396024,0.217799 -0.0135787,0.246906 -0.191114,0.527193 -0.317382,0.726535 -0.0092126,0.0145472 -0.0173898,0.027437 -0.0396299,0.0631378 -0.0539882,0.0866417 -0.126972,0.128972 -0.199094,0.137146 -0.0423504,0.00479921 -0.0837756,-0.00258661 -0.12102,-0.0201614 -0.0361811,-0.0170709 -0.0678622,-0.0436535 -0.0919134,-0.0777953 -0.0441575,-0.0626929 -0.0627559,-0.150886 -0.0332913,-0.249567l0.113331 -0.379512 -0.00261811 -0.00157087c-0.0195827,-0.0117441 -0.0449055,-0.0224055 -0.0731417,-0.0309646 -0.0727992,-0.0220709 -0.157512,-0.0301339 -0.204472,-0.00673228 -0.203291,0.123142 -0.514256,0.103902 -0.800917,0.0861417 -0.0385787,-0.00238976 -0.0766772,-0.00475197 -0.114102,-0.00668898 -0.0133701,0.0428858 -0.0141024,0.0572835 0.0979921,0.109059 0.194535,0.0898622 0.494638,0.228496 0.58035,0.526941 0.0264252,0.0920157 0.0258937,0.167138 -0.0142598,0.227028 -0.0426024,0.0635433 -0.115398,0.0931654 -0.229059,0.0865157 -0.0112835,-0.000661417 -0.0143583,-0.00080315 -0.0175945,-0.000952756 -0.109185,-0.00507087 -0.210161,-0.00977559 -0.271154,-0.192374 -0.0230512,-0.0690197 -0.158906,-0.119043 -0.309425,-0.174465 -0.0546693,-0.0201299 -0.110929,-0.0408504 -0.162996,-0.0626969 -0.296433,-0.124394 -0.3135,-0.16889 -0.310768,-0.308843 -0.0193346,0.00864961 -0.0393189,0.0162323 -0.0597283,0.0228031 -0.113287,0.0364843 -0.242106,0.0417992 -0.341236,0.0270394 -0.133709,-0.0199094 -0.344669,0.215122 -0.512803,0.402449 -0.0819646,0.0913189 -0.155146,0.172854 -0.215618,0.22037l-0.000153543 -0.000192913c-0.0897283,0.0729449 -0.197209,0.080878 -0.28285,0.0490787 -0.0359488,-0.0133465 -0.0683622,-0.0338622 -0.0944882,-0.059752 -0.0277795,-0.0275315 -0.0487244,-0.0616102 -0.0599016,-0.10039 -0.021689,-0.0752402 -0.00575591,-0.16161 0.0704803,-0.241665l0.000929134 -0.001c0.0470394,-0.0496299 0.0979528,-0.10787 0.15765,-0.176154 0.0917913,-0.104996 0.203559,-0.232835 0.345839,-0.38213 0.108331,-0.113673 0.194433,-0.122335 0.29513,-0.132457 0.0354055,-0.00355906 0.0734213,-0.00738583 0.112311,-0.0191732 0.0218504,-0.00662205 0.0430512,-0.0192402 0.0591969,-0.038189 0.0135984,-0.0159567 0.0237402,-0.0373543 0.0277126,-0.0646929 0.0111811,-0.0768701 0.0225906,-0.142724 0.0320512,-0.193181 -0.0514567,-0.00497638 -0.10887,-0.0063937 -0.165055,-0.00485039 -0.102638,0.00282283 -0.195681,0.0144961 -0.234898,0.0314921 -0.154449,0.0669173 -0.349177,0.0439331 -0.526512,-0.0301024 -0.185339,-0.077374 -0.35715,-0.213146 -0.443339,-0.359626 -0.0183031,-0.0282756 -0.0229094,-0.0647598 -0.0091378,-0.0982717 0.0223189,-0.0543071 0.0844449,-0.0802362 0.138752,-0.0579173 0.170476,0.070248 0.409657,0.0221535 0.631394,-0.0224331 0.271587,-0.0546102 0.521157,-0.104795 0.684055,0.0400079 0.075811,0.0673898 0.13813,0.081189 0.169248,0.083315 0.0593425,-0.0412126 0.130898,-0.0646063 0.20537,-0.0767402 0.0055315,-0.000901575 0.0110787,-0.00173622 0.0166339,-0.00251575 -0.00672047,-0.039063 -0.0054252,-0.0809252 0.00264567,-0.124413 0.0144606,-0.0779094 0.0512913,-0.161811 0.101189,-0.24161 0.0862756,-0.137976 0.216039,-0.270831 0.336803,-0.340193 0.076311,-0.0496772 0.15774,-0.103354 0.223472,-0.156406 0.0540236,-0.0435945 0.0951772,-0.0836654 0.106756,-0.113512 0.00423228,-0.014122 0.0114843,-0.0275827 0.0218268,-0.0394016 0.0423819,-0.0484055 0.088878,-0.0784409 0.135642,-0.0935669 0.0552126,-0.0178465 0.109311,-0.0147283 0.157783,0.00401969 0.0462874,0.0179016 0.0861102,0.0499252 0.115374,0.0911181 0.0303425,0.0427008 0.0497362,0.095689 0.0531496,0.152783 0.00307874,0.0515748 -0.033815,0.147047 -0.0841417,0.250559 -0.0488701,0.100528 -0.111602,0.21515 -0.157705,0.296331 0.00371654,0.0013622 0.00741732,0.00264961 0.0110984,0.00385827 0.0159213,0.00522441 0.0316142,0.00909449 0.0466693,0.0119331 0.115799,-0.101669 0.313138,-0.243059 0.518646,-0.33824 0.132098,-0.0611772 0.269705,-0.104461 0.396839,-0.109543 0.0075,-0.0451693 0.0163386,-0.0929961 0.0277126,-0.126559l0.000291339 9.84252e-005c0.000437008,-0.0012874 0.000889764,-0.00257087 0.00137795,-0.00385039 0.0209409,-0.0547638 0.0823189,-0.082189 0.137083,-0.061248 0.053563,0.0205984 0.175929,0.0872795 0.255594,0.159882 0.0497953,0.045378 0.0872953,0.0964803 0.0987165,0.150913 0.0375591,0.0352717 0.083937,0.0850827 0.12865,0.133106 0.0420472,0.0451654 0.0825512,0.0886693 0.103094,0.10789 0.0760157,0.0711063 0.106862,0.15476 0.105484,0.23574 -0.000984252,0.0575157 -0.0181339,0.112098 -0.0468661,0.158776 -0.0280827,0.0456299 -0.0680354,0.0848307 -0.115311,0.112646 -0.0730079,0.0429567 -0.162791,0.058063 -0.253343,0.0276614 -0.0725709,-0.0243661 -0.135051,-0.0925551 -0.200575,-0.164071 -0.0156339,-0.0170591 -0.0314921,-0.034374 -0.0492362,-0.0526142 -0.0263583,-0.0111299 -0.0572165,-0.0241102 -0.0868189,-0.0331181 -0.0507047,-0.0154291 -0.107323,-0.0184409 -0.128091,0.049815 -0.00486614,0.0159961 -0.0148346,0.0530669 -0.025189,0.0915945 -0.0189646,0.0705551 0.000251969,0.0289803 -0.0194449,0.0711811 -0.0310591,0.0665276 0.00703937,0.0407598 0.0200591,0.0468346 0.00633858,0.00295669 0.0417992,0.0189764 0.0791929,0.0358701z"/>
  <path class="fil0" d="M3.94667 1.27096c0.0883543,0 0.168358,0.0358268 0.226268,0.0937362 0.0579094,0.0579055 0.0937362,0.137909 0.0937362,0.226264 0,0.0883504 -0.0358268,0.168358 -0.0937362,0.226268 -0.0579094,0.0579094 -0.137913,0.0937362 -0.226268,0.0937362 -0.0883504,0 -0.168358,-0.0358268 -0.226268,-0.0937362 -0.0579094,-0.0579094 -0.0937362,-0.137917 -0.0937362,-0.226268 0,-0.0883543 0.0358268,-0.168358 0.0937362,-0.226264 0.0579094,-0.0579094 0.137913,-0.0937362 0.226268,-0.0937362zm0.0754331 0.244571c-0.0192913,-0.0192913 -0.0459646,-0.0312323 -0.0754331,-0.0312323 -0.0294685,0 -0.0561417,0.0119409 -0.0754331,0.0312323 -0.0192953,0.0192913 -0.0312323,0.0459724 -0.0312323,0.0754291 0,0.0294646 0.0119409,0.0561417 0.0312323,0.0754331 0.0192913,0.0192913 0.0459685,0.0312323 0.0754331,0.0312323 0.0294685,0 0.0561417,-0.0119409 0.0754331,-0.0312323 0.0192913,-0.0192913 0.0312323,-0.0459685 0.0312323,-0.0754331 0,-0.0294567 -0.011937,-0.0561378 -0.0312323,-0.0754291z"/>
  <path class="fil0" d="M5.05042 3.70708c-0.0444094,-0.0384291 -0.0492638,-0.105591 -0.0108346,-0.15 0.0384291,-0.0444094 0.105591,-0.0492638 0.15,-0.0108346l0.619303 0.537398c0.11587,0.0789055 0.15528,0.184492 0.143996,0.278516 -0.00476378,0.039689 -0.0188307,0.0769843 -0.0403465,0.109413 -0.0213504,0.0321772 -0.0501102,0.0594921 -0.0844409,0.0794803 -0.0827598,0.0482008 -0.196244,0.0536142 -0.310354,-0.0214843l-0.601075 -0.395598c-0.0490157,-0.0322165 -0.0626339,-0.0980709 -0.0304173,-0.147087 0.0322165,-0.0490157 0.0980709,-0.0626339 0.147087,-0.0304173l0.601075 0.395598c0.0369528,0.0243189 0.0677992,0.0260157 0.0870157,0.0148228 0.00551969,-0.0032126 0.0101614,-0.00762598 0.0136063,-0.0128189 0.00327953,-0.00494488 0.00543701,-0.0107165 0.0061811,-0.0169094 0.0026378,-0.0220039 -0.0126181,-0.0506929 -0.0543661,-0.0785236l0.000173228 -0.000259843c-0.00364961,-0.00243701 -0.00718504,-0.00512992 -0.0105906,-0.0080748l-0.626012 -0.54322z"/>
  <rect class="fil1" width="6.82666" height="6.82666"/>
 </g>
</svg>
