<?xml version="1.0" encoding="UTF-8"?>
<!DOCTYPE svg PUBLIC "-//W3C//DTD SVG 1.1//EN" "http://www.w3.org/Graphics/SVG/1.1/DTD/svg11.dtd">
<!-- Creator: CorelDRAW -->
<svg xmlns="http://www.w3.org/2000/svg" xml:space="preserve" width="6.82666in" height="6.82666in" style="shape-rendering:geometricPrecision; text-rendering:geometricPrecision; image-rendering:optimizeQuality; fill-rule:evenodd; clip-rule:evenodd"
viewBox="0 0 6.82666 6.82666"
 xmlns:xlink="http://www.w3.org/1999/xlink">
 <defs>
  <style type="text/css">
   <![CDATA[
    .fil1 {fill:none}
    .fil0 {fill:#212121;fill-rule:nonzero}
   ]]>
  </style>
 </defs>
 <g id="Layer_x0020_1">
  <metadata id="CorelCorpID_0Corel-Layer"/>
  <path class="fil0" d="M1.23841 1.14379c0.39248,-0.379591 1.00177,-0.356583 1.51137,-0.104748 0.179701,0.0887992 0.347406,0.206209 0.488681,0.344307 0.143303,0.140079 0.259815,0.301449 0.334898,0.476106 0.178697,0.415693 0.128134,0.900941 -0.340354,1.35039 -0.469374,0.450303 -0.960563,0.48128 -1.37214,0.285673 -0.172492,-0.0819764 -0.329622,-0.203992 -0.463898,-0.351441 -0.132673,-0.145689 -0.243693,-0.31713 -0.325547,-0.499827 -0.230256,-0.513906 -0.228476,-1.11799 0.166988,-1.50046zm1.4172 0.0860866c-0.435909,-0.215417 -0.949543,-0.242398 -1.2697,0.0672441 -0.322811,0.312205 -0.317071,0.82135 -0.120327,1.26046 0.0724213,0.161642 0.170933,0.313642 0.288886,0.443165 0.116346,0.12776 0.25098,0.232764 0.397228,0.302268 0.335913,0.15965 0.740724,0.130602 1.1338,-0.2465 0.391957,-0.376028 0.437362,-0.774799 0.292024,-1.11289 -0.0640236,-0.148933 -0.164035,-0.287185 -0.287394,-0.407768 -0.125386,-0.122567 -0.274508,-0.226909 -0.434516,-0.305976z"/>
  <polygon class="fil0" points="3.2318,3.05706 4.55266,4.42484 4.39933,4.57235 3.07846,3.20456 "/>
  <path class="fil0" d="M4.39316 4.41256c0.0630079,-0.0608346 0.145165,-0.0903701 0.226752,-0.0889488 0.0818307,0.00141732 0.163142,0.0339094 0.224146,0.0970945l0.977598 1.01233 2.3622e-005 2.75591e-005c0.0608071,0.0629764 0.0903465,0.145114 0.0889252,0.226705 -0.00141732,0.081815 -0.0339016,0.163122 -0.0970945,0.224157l-2.75591e-005 2.3622e-005c-0.0629803,0.0608189 -0.14513,0.0903504 -0.226728,0.0889291 -0.0818307,-0.00141732 -0.163146,-0.0339055 -0.224161,-0.0970866l-0.976146 -1.01085 -0.000185039 0.000185039 -1.9685e-005 -1.9685e-005 -0.00124803 -0.00166535c-0.060815,-0.0629843 -0.0903465,-0.145134 -0.0889252,-0.226728 0.00141339,-0.0811811 0.0333976,-0.161854 0.0955984,-0.222693l-0.000192913 -0.000192913 1.9685e-005 -1.9685e-005 0.00166535 -0.00124803zm0.223421 0.123555c-0.0266732,-0.00046063 -0.0535354,0.00895669 -0.0744173,0.0283622l0.000165354 0.000165354 -1.9685e-005 1.9685e-005 -0.00166535 0.00124803c-0.0208661,0.0201496 -0.0316024,0.0470551 -0.0320709,0.0741339 -0.00046063,0.0266732 0.00894882,0.0535315 0.0283346,0.0743976l0.000169291 -0.000169291 1.9685e-005 1.9685e-005 0.00124803 0.00166535 0.977579 1.01233c0.0201614,0.020878 0.0470709,0.0316181 0.0741614,0.0320866 0.027315,0.000472441 0.0548268,-0.00940945 0.0759055,-0.0297677l2.3622e-005 -1.9685e-005c0.0208819,-0.0201732 0.0316181,-0.0470748 0.0320866,-0.0741496 0.000472441,-0.027311 -0.00941732,-0.054811 -0.0297638,-0.0758819l-1.9685e-005 -2.75591e-005 -0.977591 -1.01232c-0.0201614,-0.0208858 -0.0470669,-0.031626 -0.0741457,-0.0320945zm1.05174 1.04443l-7.87402e-006 -1.1811e-005"/>
  <path class="fil0" d="M3.1934 5.50443c0.00717717,0.0179134 0.0125827,0.0361772 0.0161457,0.0545472 0.00368898,0.0190276 0.00555906,0.037811 0.00555906,0.0560945 0,0.0878701 -0.0386181,0.167173 -0.101043,0.224346 -0.0599134,0.0548661 -0.141689,0.088815 -0.231098,0.088815 -0.0894173,0 -0.171185,-0.0339409 -0.231098,-0.088811 -0.0624252,-0.0571732 -0.101043,-0.136476 -0.101043,-0.22435 0,-0.0188543 0.00190157,-0.0379685 0.00566535,-0.0570787 0.00370079,-0.0188268 0.00920866,-0.0372638 0.0164488,-0.0550512l0.0270472 -0.066437 0.0717047 0.000185039 0.422961 0.00107087 0.0721024 0.000181102 0.0266496 0.0664882zm-0.222669 0.178319c0.0101772,-0.0093189 0.0182953,-0.0204409 0.0236693,-0.0327362l-0.223118 -0.000566929c0.00537402,0.0125236 0.0135787,0.0238425 0.0239134,0.0333071 0.0216811,0.0198543 0.0526535,0.0321417 0.0877677,0.0321417 0.0351102,0 0.0660827,-0.0122874 0.0877677,-0.0321457z"/>
  <path class="fil0" d="M2.74683 5.42917l0.26676 0 0.238921 -0.974748c0.00084252,-0.00345276 0.00123622,-0.00782677 0.00123622,-0.0129016 0,-0.0142598 -0.00494094,-0.0276378 -0.0123228,-0.038126 -0.00958661,0.0189606 -0.0153898,0.0454134 -0.0153898,0.0760276l-0.213339 0c0,-0.0262953 -0.0042874,-0.0495276 -0.0115748,-0.0675748 -0.00728346,0.0180472 -0.0115669,0.0412756 -0.0115669,0.0675748l-0.213339 0c0,-0.0262913 -0.0042874,-0.0495236 -0.0115709,-0.0675709 -0.00727953,0.0180433 -0.0115669,0.0412756 -0.0115669,0.0675709l-0.213339 0c0,-0.0305591 -0.00579134,-0.0569843 -0.0153543,-0.0759449 -0.00733465,0.0105197 -0.0122283,0.0239646 -0.0122283,0.0383701 0,0.00541732 0.000350394,0.00983858 0.0011063,0.0129921l0.233567 0.974331zm0.350075 0.213339l-0.433732 0 -0.0836535 0 -0.0196811 -0.0820866 -0.253244 -1.05642c-0.00531102,-0.0221614 -0.00777559,-0.0429252 -0.00777559,-0.0621575 0,-0.061315 0.021563,-0.118717 0.053622,-0.163327 0.0343583,-0.0478071 0.0831969,-0.0826299 0.133902,-0.0947953 0.0149173,-0.0035748 0.0289488,-0.00544488 0.0418071,-0.00544488l1.9685e-005 0c0.0443189,0 0.0845354,0.0155984 0.11839,0.0430709 0.0338346,-0.0274764 0.0739409,-0.0430709 0.118071,-0.0430709l1.9685e-005 0c0.0441929,0 0.0843583,0.0156496 0.118228,0.0432047 0.0338661,-0.0275591 0.0740315,-0.0432047 0.118228,-0.0432047l1.9685e-005 0c0.0441929,0 0.0843583,0.0156496 0.118232,0.0432087 0.0338661,-0.0275591 0.0740315,-0.0432087 0.118228,-0.0432087l1.9685e-005 0c0.0134646,0 0.027748,0.00190157 0.0426102,0.00553937 0.0503937,0.0123543 0.0990354,0.047185 0.133315,0.0948504 0.0320118,0.0445157 0.0535551,0.101756 0.0535551,0.16285 0,0.0198031 -0.0025,0.0408307 -0.00790551,0.0629016l-0.258941 1.05642 -0.0200157 0.0816693 -0.0833189 0zm-0.095437 -1.25008l0.0012126 -0.000732283c-0.000259843,-5.11811e-005 -0.000759843,-7.87402e-005 -0.00155512,-7.87402e-005l-1.9685e-005 0c-0.000779528,0 -0.00127559,2.75591e-005 -0.00154331,7.48031e-005l0.00124016 0.000751969 0.000311024 9.84252e-005 0.000354331 -0.000114173zm0 0c0.00117323,-0.000370079 0.00181102,-0.00061811 0.0012126,-0.000732283l-0.0012126 0.000732283zm-0.00190551 -0.00073622c-0.000637795,0.00011811 2.75591e-005,0.000374016 0.00124016,0.000751969l-0.00124016 -0.000751969zm-0.234579 0.000740157l0.00121654 -0.00073622c-0.00026378,-5.11811e-005 -0.000755906,-7.87402e-005 -0.00155118,-7.87402e-005l-1.9685e-005 0c-0.000779528,0 -0.00127559,2.3622e-005 -0.00154331,7.48031e-005l0.00123622 0.000748031 0.000314961 9.84252e-005 0.000346457 -0.000106299zm0 0c0.00117717,-0.000366142 0.00182283,-0.00061811 0.00121654,-0.00073622l-0.00121654 0.00073622zm-0.00189764 -0.000740157c-0.000637795,0.00011811 2.3622e-005,0.000370079 0.00123622,0.000748031l-0.00123622 -0.000748031z"/>
 </g>
 <g id="Layer_x0020_1_0">
  <metadata id="CorelCorpID_1Corel-Layer"/>
  <rect class="fil1" width="6.82666" height="6.82666"/>
 </g>
</svg>
