<?xml version="1.0" encoding="UTF-8"?>
<!DOCTYPE svg PUBLIC "-//W3C//DTD SVG 1.1//EN" "http://www.w3.org/Graphics/SVG/1.1/DTD/svg11.dtd">
<!-- Creator: CorelDRAW -->
<svg xmlns="http://www.w3.org/2000/svg" xml:space="preserve" width="6.82666in" height="6.82666in" style="shape-rendering:geometricPrecision; text-rendering:geometricPrecision; image-rendering:optimizeQuality; fill-rule:evenodd; clip-rule:evenodd"
viewBox="0 0 6.82666 6.82666"
 xmlns:xlink="http://www.w3.org/1999/xlink">
 <defs>
  <style type="text/css">
   <![CDATA[
    .fil1 {fill:none}
    .fil0 {fill:#212121;fill-rule:nonzero}
   ]]>
  </style>
 </defs>
 <g id="Layer_x0020_1">
  <metadata id="CorelCorpID_0Corel-Layer"/>
  <path class="fil0" d="M4.95977 3.52037c0.279071,0 0.532354,0.113665 0.715909,0.297146 0.183776,0.183705 0.297654,0.43702 0.297654,0.716047 0,0.279035 -0.113874,0.532319 -0.297634,0.715992 -0.183559,0.183465 -0.436854,0.29711 -0.715929,0.29711 -0.279327,0 -0.532594,-0.113618 -0.716012,-0.297047 -0.183421,-0.183429 -0.297031,-0.436724 -0.297031,-0.716055 0,-0.279327 0.113618,-0.53265 0.297051,-0.71611 0.183409,-0.183445 0.436669,-0.297083 0.715992,-0.297083zm0.565909 0.44798c-0.144941,-0.144882 -0.34515,-0.234642 -0.565909,-0.234642 -0.220425,0 -0.420339,0.0897323 -0.565157,0.234579 -0.144835,0.144858 -0.234547,0.344827 -0.234547,0.565276 0,0.220449 0.0897047,0.42039 0.234528,0.56522 0.144823,0.144831 0.34474,0.234543 0.565177,0.234543 0.220772,0 0.420984,-0.0897402 0.565929,-0.234606 0.144657,-0.144587 0.234295,-0.34448 0.234295,-0.565157 0,-0.220677 -0.0896457,-0.420598 -0.234315,-0.565213z"/>
  <path class="fil0" d="M1.86639 3.52037c0.279067,0 0.532346,0.113665 0.715898,0.297146 0.183776,0.183701 0.29765,0.43702 0.29765,0.716047 0,0.279035 -0.113866,0.532319 -0.29763,0.715992 -0.183559,0.183465 -0.436846,0.29711 -0.715917,0.29711 -0.279331,0 -0.532606,-0.113618 -0.716024,-0.297043 -0.183425,-0.183433 -0.297035,-0.436724 -0.297035,-0.716059 0,-0.279327 0.113618,-0.53265 0.297051,-0.716114 0.183413,-0.183441 0.436681,-0.297079 0.716008,-0.297079zm0.565898 0.44798c-0.144941,-0.144886 -0.345142,-0.234642 -0.565898,-0.234642 -0.220433,0 -0.42035,0.0897283 -0.565173,0.234575 -0.144839,0.144862 -0.234547,0.344831 -0.234547,0.56528 0,0.220453 0.0897047,0.42039 0.234531,0.565224 0.144819,0.144827 0.344748,0.234539 0.565189,0.234539 0.220768,0 0.420976,-0.0897362 0.565917,-0.234606 0.144657,-0.144583 0.234291,-0.344484 0.234291,-0.565157 0,-0.220677 -0.0896457,-0.420606 -0.234311,-0.565213z"/>
  <path class="fil0" d="M3.58096 3.19845l-0.471039 -0.471039 -0.141165 0.211748 -0.00038189 -0.000255906c-0.0377402,0.0570354 -0.0811024,0.095 -0.133394,0.119878 -0.0489409,0.0232874 -0.102583,0.0330315 -0.164976,0.0352165l-0.00333465 0 -0.853331 -0.00108661 0 0.000417323c-0.157024,0 -0.262142,-0.0641378 -0.31202,-0.146224 -0.0230945,-0.0380157 -0.0346496,-0.0792441 -0.0346496,-0.120445 0,-0.0412008 0.0115512,-0.0824252 0.0346496,-0.120445 0.049878,-0.0820866 0.154996,-0.146224 0.31202,-0.146224l0.686665 0 0.288748 -0.481248 0.0025 -0.00416929c0.0172992,-0.0261614 0.0359331,-0.0495236 0.0556969,-0.0702087 0.080122,-0.0838543 0.175575,-0.121697 0.275374,-0.122945 0.0939646,-0.00117717 0.188957,0.0311378 0.275433,0.0883189 0.0334685,0.0221339 0.0658701,0.0481417 0.0965433,0.0774488l-0.000110236 0.00011811 0.950402 0.860602 0.00208268 0.00166929c0.00937008,0.00896063 0.0175827,0.017748 0.0246772,0.0263346 0.0689291,0.0834567 0.0979173,0.208831 0.0931732,0.328205 -0.00473622,0.11922 -0.0440709,0.238531 -0.111713,0.309386l0.000220472 0.000208661c-0.0080315,0.00839764 -0.0157717,0.0157008 -0.0231614,0.0218031l-0.0116654 0.00833465 -0.685091 0.426232 -0.000192913 0.983244 0 0.00541732c-0.00527165,0.103016 -0.0415906,0.174862 -0.0910472,0.224319 -0.0685551,0.0685591 -0.158969,0.0888622 -0.227283,0.0898504l-0.000834646 0 -0.00295276 1.9685e-005 -0.000417323 0.000417323c-0.0692717,0 -0.146811,-0.0239291 -0.207744,-0.0751063 -0.0624134,-0.0524213 -0.107295,-0.131417 -0.108862,-0.239587l0 -0.000834646 -2.75591e-005 -0.00407874 -0.000417323 -0.000417323 0 -1.06667c0,-0.298598 0.235224,-0.515437 0.444169,-0.708043 0.0147008,-0.0135512 0.0292598,-0.0269764 0.0434567,-0.0401654zm-0.412205 -0.713874l0.64 0.64 0.075311 0.075315 -0.0757283 0.0755197c-0.0412087,0.0410906 -0.0833307,0.0799252 -0.126669,0.119874 -0.176402,0.162606 -0.374996,0.345677 -0.374996,0.551374l0 1.06667 -0.000413386 0 1.9685e-005 0.00282677 3.93701e-006 0c0.00053937,0.037248 0.0141457,0.0629016 0.0330276,0.0787598 0.0203583,0.0170984 0.0469606,0.0250984 0.0710748,0.0250984l0 0.000413386 0.00170079 -1.1811e-005 0 -3.93701e-006c0.0252362,-0.000362205 0.0575433,-0.00676772 0.0789528,-0.0281811 0.0155748,-0.0155748 0.0272047,-0.0418543 0.029378,-0.0843189l0.000204724 -1.03715 7.87402e-006 -0.0593189 0.0499921 -0.0310984 0.727661 -0.452717 0.000582677 -0.000586614 0.000362205 0 0.000133858 -8.26772e-005c0.0311929,-0.032689 0.0498071,-0.0992835 0.0526575,-0.171173 0.00285827,-0.0719094 -0.0109921,-0.143063 -0.0448346,-0.184039 -0.00294488,-0.00356299 -0.0053622,-0.00626378 -0.0071811,-0.00800394l0.000110236 -0.00011811 -0.950402 -0.860602 -0.00208268 -0.00166929c-0.0215354,-0.0205748 -0.0441496,-0.038748 -0.067378,-0.0541102 -0.0520748,-0.0344331 -0.10589,-0.0539409 -0.155425,-0.0533189 -0.0436969,0.000543307 -0.0864606,0.018122 -0.123713,0.0571102 -0.0111181,0.0116378 -0.0219409,0.0252913 -0.0323583,0.0410433l-0.3175 0.529165 -0.031248 0.0520866 -0.0600039 0 -0.746665 0c-0.073378,0 -0.115724,0.018815 -0.13035,0.0428858 -0.00198425,0.00326378 -0.00298031,0.00684646 -0.00298031,0.0104449 0,0.00359843 0.000996063,0.0071811 0.00298031,0.0104449 0.014626,0.0240709 0.0569724,0.0428858 0.13035,0.0428858l0 0.000417323 0.850106 0.00108268c0.0334409,-0.00117717 0.0601339,-0.00542913 0.0807008,-0.0152126 0.0170709,-0.00812205 0.0323228,-0.0222008 0.0471063,-0.0446181l0 -0.000830709 0.213335 -0.32 0.0721693 -0.108252 0.092 0.092z"/>
  <path class="fil0" d="M2.0639 1.65332c0,0.0737244 0.0298386,0.140362 0.0780472,0.188567 0.0482756,0.0482795 0.114992,0.0781063 0.188626,0.0781063 0.0738031,0 0.140492,-0.0297795 0.188693,-0.0779803 0.0482008,-0.0482008 0.0779803,-0.11489 0.0779803,-0.188693 0,-0.0736339 -0.0298307,-0.140346 -0.0781024,-0.188614 -0.0482047,-0.0482047 -0.114843,-0.0780394 -0.188571,-0.0780394 -0.0735551,0 -0.140228,0.0298858 -0.188508,0.0781614 -0.0482756,0.0482756 -0.0781654,0.114941 -0.0781654,0.188492zm-0.0727874 0.339402c-0.086815,-0.086811 -0.140551,-0.206752 -0.140551,-0.339402 0,-0.132445 0.0537874,-0.252445 0.140669,-0.339327 0.0868898,-0.0868819 0.206906,-0.140665 0.339343,-0.140665 0.132646,0 0.252591,0.0537283 0.339406,0.140543 0.0869094,0.0869016 0.140606,0.206957 0.140606,0.339449 0,0.132685 -0.0536496,0.252685 -0.140484,0.339528 -0.0868425,0.0868346 -0.206843,0.140484 -0.339528,0.140484 -0.132488,0 -0.252551,-0.0536969 -0.339461,-0.14061z"/>
 </g>
 <g id="Layer_x0020_1_0">
  <metadata id="CorelCorpID_1Corel-Layer"/>
  <rect class="fil1" width="6.82666" height="6.82666"/>
 </g>
</svg>
