<?xml version="1.0" encoding="UTF-8"?>
<!DOCTYPE svg PUBLIC "-//W3C//DTD SVG 1.1//EN" "http://www.w3.org/Graphics/SVG/1.1/DTD/svg11.dtd">
<!-- Creator: CorelDRAW -->
<svg xmlns="http://www.w3.org/2000/svg" xml:space="preserve" width="6.82666in" height="6.82666in" style="shape-rendering:geometricPrecision; text-rendering:geometricPrecision; image-rendering:optimizeQuality; fill-rule:evenodd; clip-rule:evenodd"
viewBox="0 0 6.82666 6.82666"
 xmlns:xlink="http://www.w3.org/1999/xlink">
 <defs>
  <style type="text/css">
   <![CDATA[
    .fil1 {fill:none}
    .fil0 {fill:#212121;fill-rule:nonzero}
   ]]>
  </style>
 </defs>
 <g id="Layer_x0020_1">
  <metadata id="CorelCorpID_0Corel-Layer"/>
  <path class="fil0" d="M4.03701 1.43282l-0.000354331 8.26772e-005 -0.000413386 0c-0.103646,0.0237559 -0.192154,0.0716339 -0.260402,0.134693 -0.0603937,0.0557992 -0.104709,0.123268 -0.129228,0.195992 -0.0241535,0.0716417 -0.0292835,0.148807 -0.0117756,0.225201 0.0170512,0.0743858 0.0558858,0.148917 0.11987,0.218169 0.0503976,0.054563 0.112366,0.101264 0.180634,0.138209 0.0709803,0.0384094 0.14828,0.0660945 0.226165,0.0810039l0.0443346 0.00849213 0.0248307 0.0381732c0.104,0.159917 0.216209,0.403622 0.26737,0.645484 0.0412244,0.194898 0.0432992,0.391614 -0.0276339,0.55126l0 0.000417323c-0.0615118,0.138354 -0.194965,0.271988 -0.342504,0.361295l-0.000185039 -0.000307087c-0.0944724,0.0571614 -0.196823,0.0974055 -0.293126,0.111177l0.328012 1.43015 7.87402e-005 0.000338583 0 0.000417323c0.0200157,0.0876575 0.00255512,0.175319 -0.0419094,0.24624 -0.0446102,0.0711535 -0.11611,0.12522 -0.203953,0.145425l-0.000338583 7.87402e-005 -0.000417323 0c-0.087878,0.0199843 -0.175894,0.00265354 -0.247031,-0.0419764 -0.0707323,-0.044378 -0.124591,-0.115728 -0.144858,-0.204165l-0.341705 -1.48959c-0.133122,0.237252 -0.277008,0.940882 -0.349673,1.29628 -0.0200669,0.0981811 -0.0351299,0.171819 -0.0425433,0.200961 -0.0224331,0.088126 -0.0780354,0.158031 -0.149992,0.200791 -0.0719134,0.0427362 -0.160197,0.0578031 -0.247705,0.0361142l-0.000834646 0c-0.0875748,-0.022378 -0.157972,-0.078311 -0.200902,-0.150646 -0.0427756,-0.0720787 -0.0581102,-0.160398 -0.0357874,-0.247866 0.0545669,-0.214441 0.107311,-0.451157 0.163516,-0.703449 0.149209,-0.669724 0.322059,-1.44553 0.54352,-1.9413 0.0463268,-0.103669 0.0889331,-0.195185 0.138594,-0.280169 0.0380669,-0.0651417 0.080689,-0.127661 0.132602,-0.190402 -0.064248,-0.0923031 -0.107535,-0.191839 -0.131795,-0.294752 -0.0430709,-0.182728 -0.0250472,-0.374689 0.042811,-0.554177 0.066874,-0.176886 0.182079,-0.341646 0.334547,-0.472898 0.143787,-0.123783 0.321295,-0.218461 0.52326,-0.266134l-2.3622e-005 -9.44882e-005 0.000413386 -9.84252e-005 0.000417323 0c0.0782677,-0.0184449 0.156933,-0.00322441 0.220835,0.036248 0.0639646,0.0395118 0.112858,0.103157 0.131504,0.1815l0 0.000417323 9.84252e-005 0.000417323 8.26772e-005 0.000354331c0.0184646,0.0784173 0.00324016,0.157138 -0.0362756,0.221079 -0.0395748,0.0640276 -0.103283,0.112929 -0.181713,0.131551l-0.000417323 0zm-0.048748 -0.207504c0.0218425,-0.00518504 0.039374,-0.0184567 0.0500433,-0.0357165 0.0107283,-0.0173583 0.0147835,-0.0390906 0.0096063,-0.0610787l-8.26772e-005 -0.000354331 -3.93701e-006 -2.3622e-005 -9.44882e-005 2.3622e-005c-0.00516535,-0.0217126 -0.0184252,-0.0391772 -0.0356693,-0.0498307 -0.0171969,-0.010626 -0.0387008,-0.014685 -0.060437,-0.00966929l1.9685e-005 9.05512e-005 -0.000413386 9.84252e-005 -0.000417323 0c-0.166689,0.0392913 -0.313543,0.117713 -0.432819,0.220394 -0.125811,0.108303 -0.220339,0.242843 -0.274547,0.386228 -0.0532205,0.140772 -0.0676496,0.290087 -0.0344724,0.430846 0.0230827,0.0979134 0.0697874,0.192429 0.143209,0.277717l0.0623425 0.0724252 -0.0656772 0.0700748c-0.0677756,0.072315 -0.119169,0.144024 -0.16402,0.220772 -0.0471063,0.0806102 -0.0862795,0.164642 -0.128594,0.259335 -0.213,0.476827 -0.383232,1.24088 -0.530181,1.90046 -0.0593346,0.266339 -0.115008,0.516213 -0.16435,0.710118 -0.00785827,0.0308031 -0.00251969,0.061811 0.0124488,0.0870315 0.0148661,0.0250512 0.0394213,0.0444764 0.0700748,0.0523071l-4.72441e-005 0.000188976c0.031122,0.00749606 0.0623583,0.00212598 0.087752,-0.0129646 0.024626,-0.0146339 0.0437677,-0.0389803 0.0516535,-0.0699646 0.00935433,-0.0367677 0.022878,-0.102874 0.0408819,-0.190961 0.0856575,-0.418949 0.265039,-1.29627 0.460567,-1.47396 0.0848701,-0.0771299 0.170031,-0.0818465 0.253654,0.0101732l0.025 0.0479134 0.367992 1.60418c0.00712992,0.031122 0.0259764,0.0561654 0.050685,0.0716693 0.0247244,0.0155157 0.055563,0.0215157 0.0866339,0.0145591l-1.9685e-005 -8.66142e-005 0.000338583 -7.87402e-005c0.0310315,-0.0071378 0.0560669,-0.0258819 0.0714567,-0.0504252 0.0154685,-0.0246693 0.0215039,-0.0554882 0.0144921,-0.0866693l-8.66142e-005 1.9685e-005 -7.87402e-005 -0.000338583 -0.358287 -1.56215 -0.0382677 -0.166839 0.166185 0.0393346c0.0774528,0.0183307 0.188248,-0.0174449 0.293173,-0.0809606l0 -0.000417323c0.113823,-0.0688976 0.21476,-0.167441 0.258339,-0.265461l0.000153543 6.69291e-005c0.0503661,-0.113693 0.0463031,-0.265776 0.013315,-0.421744 -0.0416535,-0.196929 -0.128953,-0.395283 -0.214394,-0.536343 -0.0832402,-0.0202008 -0.164969,-0.0515984 -0.240811,-0.0926378 -0.0886299,-0.0479646 -0.169724,-0.109283 -0.236469,-0.181547 -0.090248,-0.0976732 -0.145626,-0.205413 -0.170705,-0.314831 -0.0265,-0.115622 -0.018811,-0.232185 0.0176102,-0.340209 0.0360551,-0.106937 0.100091,-0.20511 0.186732,-0.285157 0.094248,-0.0870787 0.215508,-0.153 0.35663,-0.185425l-4.33071e-005 -0.000185039z"/>
  <path class="fil0" d="M3.72048 3.81262c-0.00198425,0.00114567 -0.004,0.00223228 -0.00605118,0.00324803 -0.00528346,0.00352756 -0.00987402,0.0107598 -0.0132913,0.0197244 -0.0053622,0.014063 -0.00647638,0.0295787 -0.00272441,0.0426496 0.00214961,0.0075 0.00654331,0.0144173 0.0131811,0.0201575 0.00924016,0.00799213 0.0227835,0.0145866 0.0408543,0.0190748 0.0747874,0.0185748 0.188701,-0.0113976 0.295524,-0.0765433 0.0975039,-0.0594606 0.184508,-0.147059 0.226185,-0.253024 0.0214016,-0.0547638 0.0831535,-0.081815 0.137917,-0.0604134 0.0547638,0.0214016 0.081815,0.0831535 0.0604134,0.137917 -0.0600787,0.152748 -0.180358,0.275886 -0.313681,0.357189 -0.15324,0.0934567 -0.329315,0.133303 -0.457193,0.101543 -0.0520433,-0.0129291 -0.0952008,-0.0355197 -0.129185,-0.0649094 -0.0393031,-0.0339882 -0.0656614,-0.0761102 -0.0790157,-0.122661 -0.0163228,-0.0568425 -0.0126969,-0.121067 0.00855906,-0.176815 0.014937,-0.0391535 0.0387047,-0.0750315 0.0706772,-0.102866l0.178441 -0.766228c0.0133425,-0.0572992 0.0706181,-0.0929291 0.127917,-0.0795866 0.0272756,0.00635039 0.0496299,0.0226614 0.0641417,0.044185 0.199701,0.261508 0.201732,0.472744 0.122091,0.636602 -0.0760669,0.156504 -0.22626,0.259236 -0.34476,0.320756zm0.172709 -0.592783l-0.0550236 0.236276c0.0136772,-0.0178307 0.0256811,-0.0367441 0.0354055,-0.056752 0.0242205,-0.0498307 0.0341102,-0.109185 0.0196181,-0.179524z"/>
  <path class="fil0" d="M4.61212 1.43648l3.54331e-005 1.9685e-005c0.128602,0.0609961 0.220228,0.168083 0.264421,0.291913 0.0442008,0.123858 0.041122,0.264681 -0.0196772,0.393114 -0.0375157,0.0790354 -0.0927126,0.144606 -0.159276,0.193614 -0.0677087,0.0498465 -0.147327,0.0824213 -0.232142,0.0944331 -0.0791024,0.0111969 -0.165744,0.000314961 -0.245055,-0.0276417 -0.0793504,-0.0279724 -0.153299,-0.0737441 -0.207146,-0.132354 -0.0699173,-0.0760827 -0.11489,-0.17115 -0.130106,-0.271681 -0.0147756,-0.0975787 -0.00158661,-0.200575 0.0439331,-0.296642l1.9685e-005 -3.54331e-005c0.0609606,-0.12861 0.168051,-0.220268 0.291902,-0.264476 0.12385,-0.0442087 0.264673,-0.041126 0.393091,0.0197362zm-0.0908543 0.192496c-0.075185,-0.0356299 -0.157795,-0.0373701 -0.230567,-0.0113976 -0.0727677,0.0259764 -0.135547,0.0795354 -0.171079,0.1545l-1.5748e-005 3.14961e-005c-0.0266142,0.0561772 -0.0342953,0.116657 -0.0255945,0.174118 0.00895276,0.0591457 0.0352008,0.114854 0.0759409,0.159185 0.029878,0.0325236 0.0732874,0.0587559 0.121311,0.075685 0.0485748,0.017122 0.0999567,0.0240236 0.145055,0.0176417 0.049315,-0.00698425 0.0957874,-0.0260512 0.135472,-0.0552677 0.0386024,-0.0284173 0.0706929,-0.0666142 0.0926063,-0.11278 0.0355906,-0.0751811 0.0373268,-0.157807 0.0113465,-0.23061 -0.0259724,-0.0727677 -0.0795039,-0.135551 -0.154445,-0.171091l-3.14961e-005 -1.5748e-005z"/>
 </g>
 <g id="Layer_x0020_1_0">
  <metadata id="CorelCorpID_1Corel-Layer"/>
  <rect class="fil1" width="6.82666" height="6.82666"/>
 </g>
</svg>
