<?xml version="1.0" encoding="UTF-8"?>
<!DOCTYPE svg PUBLIC "-//W3C//DTD SVG 1.1//EN" "http://www.w3.org/Graphics/SVG/1.1/DTD/svg11.dtd">
<!-- Creator: CorelDRAW -->
<svg xmlns="http://www.w3.org/2000/svg" xml:space="preserve" width="6.82666in" height="6.82666in" style="shape-rendering:geometricPrecision; text-rendering:geometricPrecision; image-rendering:optimizeQuality; fill-rule:evenodd; clip-rule:evenodd"
viewBox="0 0 6.82666 6.82666"
 xmlns:xlink="http://www.w3.org/1999/xlink">
 <defs>
  <style type="text/css">
   <![CDATA[
    .fil1 {fill:none}
    .fil0 {fill:#212121;fill-rule:nonzero}
   ]]>
  </style>
 </defs>
 <g id="Layer_x0020_1">
  <metadata id="CorelCorpID_0Corel-Layer"/>
  <path class="fil0" d="M3.4118 0.853335c0.70622,0 1.34586,0.286705 1.80911,0.750232 0.462996,0.463287 0.74937,1.10315 0.74937,1.80976 0,0.706614 -0.286374,1.34648 -0.74937,1.80976 -0.463244,0.463528 -1.10289,0.750232 -1.80911,0.750232 -0.70622,0 -1.34586,-0.286705 -1.80911,-0.750232 -0.462996,-0.463287 -0.74937,-1.10315 -0.74937,-1.80976 0,-0.706614 0.286374,-1.34648 0.74937,-1.80976 0.463244,-0.463528 1.10289,-0.750232 1.80911,-0.750232zm1.65827 0.900232c-0.424134,-0.424394 -1.01041,-0.686894 -1.65827,-0.686894 -0.647862,0 -1.23414,0.2625 -1.65827,0.686894 -0.424378,0.424642 -0.686866,1.01145 -0.686866,1.65976 0,0.648311 0.262488,1.23512 0.686866,1.65976 0.424134,0.424394 1.01041,0.686894 1.65827,0.686894 0.647862,0 1.23414,-0.2625 1.65827,-0.686894 0.424378,-0.424642 0.686866,-1.01145 0.686866,-1.65976 0,-0.648311 -0.262488,-1.23512 -0.686866,-1.65976z"/>
  <path class="fil0" d="M2.03294 1.30667c0.00690157,-0.0584488 0.0598858,-0.100236 0.118335,-0.0933346 0.0584488,0.00690157 0.100236,0.0598858 0.0933346,0.118335 -0.0501063,0.413457 0.0246024,0.773583 0.223866,1.0912 0.202843,0.323327 0.535622,0.606815 0.997917,0.86135 0.0515472,0.0283031 0.0703858,0.0930394 0.0420827,0.144587 -0.0283031,0.0515472 -0.0930394,0.0703858 -0.144587,0.0420827 -0.49411,-0.272051 -0.852626,-0.579571 -1.07541,-0.934689 -0.226366,-0.360819 -0.311638,-0.766614 -0.255535,-1.22954z"/>
  <path class="fil0" d="M1.30009 2.0048c-0.000228346,-0.0586811 0.0471535,-0.106441 0.105835,-0.106669 0.0586811,-0.000228346 0.106441,0.0471535 0.106669,0.105835 0.00320866,0.452094 0.151091,0.866106 0.445291,1.25196 0.299567,0.392886 0.751008,0.757717 1.3559,1.10456 0.0510827,0.0292244 0.0688071,0.0943346 0.0395827,0.145417 -0.0292244,0.0510827 -0.0943346,0.0688071 -0.145417,0.0395827 -0.629331,-0.360854 -1.10178,-0.744055 -1.41923,-1.16039 -0.322803,-0.423366 -0.485079,-0.879815 -0.48863,-1.3803z"/>
  <path class="fil0" d="M0.895724 3.11292c-0.0174882,-0.0561457 0.0138543,-0.115843 0.07,-0.133331 0.0561457,-0.0174882 0.115843,0.0138543 0.133331,0.07 0.15987,0.507114 0.375945,0.92135 0.663661,1.25273 0.286228,0.329677 0.645181,0.579055 1.09228,0.758213 0.0545354,0.0218583 0.0810276,0.0837992 0.0591693,0.138335 -0.0218583,0.0545354 -0.0837992,0.0810276 -0.138335,0.0591693 -0.479059,-0.191965 -0.86485,-0.460531 -1.17395,-0.816551 -0.307618,-0.354307 -0.537484,-0.793531 -0.706157,-1.32857z"/>
  <path class="fil0" d="M2.23864 5.64498c-0.0545354,0.0216299 -0.116287,-0.00505118 -0.137917,-0.0595866 -0.0216299,-0.0545354 0.00505118,-0.116287 0.0595866,-0.137917 0.38711,-0.153614 0.677685,-0.397063 0.871705,-0.730331 0.196992,-0.33837 0.29676,-0.771031 0.299287,-1.29797 0.000228346,-0.0586811 0.0479882,-0.106063 0.106669,-0.105835 0.0586811,0.000228346 0.106063,0.0479882 0.105835,0.106669 -0.0027126,0.565362 -0.111929,1.0333 -0.327626,1.4038 -0.218669,0.375606 -0.544524,0.649335 -0.977539,0.821165z"/>
  <path class="fil0" d="M3.25487 5.94122c-0.051315,0.0283031 -0.115866,0.00964961 -0.144169,-0.0416654 -0.0283031,-0.051315 -0.00964961,-0.115866 0.0416654,-0.144169 0.394516,-0.218394 0.684252,-0.557043 0.879799,-1.01126 0.199535,-0.463469 0.301551,-1.04628 0.316984,-1.74351 0.00114961,-0.0586811 0.0496535,-0.105319 0.108335,-0.104169 0.0586811,0.00114961 0.105319,0.0496535 0.104169,0.108335 -0.0160669,0.725811 -0.123441,1.33524 -0.333654,1.82351 -0.214201,0.497535 -0.534622,0.870177 -0.97313,1.11293z"/>
  <path class="fil0" d="M4.41755 5.7516c-0.0407283,0.0423386 -0.108079,0.0436417 -0.150417,0.00291339 -0.0423386,-0.0407283 -0.0436417,-0.108079 -0.00291339,-0.150417 0.368638,-0.382701 0.625969,-0.77713 0.776394,-1.19493 0.149902,-0.416331 0.194402,-0.858598 0.137894,-1.33838 -0.00666929,-0.0584488 0.0353031,-0.111248 0.093752,-0.117917 0.0584488,-0.00666929 0.111248,0.0353031 0.117917,0.093752 0.0602598,0.511634 0.0119803,0.985539 -0.149563,1.43421 -0.161016,0.447213 -0.433807,0.866654 -0.823063,1.27076z"/>
  <path class="fil0" d="M5.93124 3.26189c0.0467126,0.0356654 0.0556654,0.102453 0.02,0.149165 -0.0356654,0.0467126 -0.102453,0.0556654 -0.149165,0.02 -0.331457,-0.252543 -0.685087,-0.375417 -1.06539,-0.369138 -0.385921,0.00637402 -0.80289,0.144843 -1.25547,0.414862 -0.0503937,0.0301417 -0.115693,0.0137244 -0.145835,-0.0366693 -0.0301417,-0.0503937 -0.0137244,-0.115693 0.0366693,-0.145835 0.485024,-0.289374 0.93711,-0.437854 1.36131,-0.444862 0.429811,-0.00709449 0.827409,0.130205 1.19789,0.412476z"/>
  <path class="fil0" d="M5.67272 2.26762c0.0508543,0.0292244 0.0683898,0.0941457 0.0391654,0.145 -0.0292244,0.0508543 -0.0941457,0.0683898 -0.145,0.0391654 -0.392,-0.226146 -0.827453,-0.311795 -1.31272,-0.256685 -0.493016,0.0559921 -1.03859,0.257189 -1.64317,0.603846 -0.0510827,0.0292244 -0.116193,0.0115 -0.145417,-0.0395827 -0.0292244,-0.0510827 -0.0115,-0.116193 0.0395827,-0.145417 0.62965,-0.361031 1.20259,-0.57111 1.72568,-0.630516 0.530839,-0.0602874 1.00914,0.0345394 1.44188,0.284189z"/>
  <path class="fil0" d="M4.88824 1.34328c0.0572992,0.0131142 0.0931142,0.0702047 0.08,0.127504 -0.0131142,0.0572992 -0.0702047,0.0931142 -0.127504,0.08 -0.518343,-0.118441 -0.97911,-0.14352 -1.40441,-0.0648504 -0.422957,0.0782323 -0.81363,0.259886 -1.19419,0.555291 -0.0464803,0.0358976 -0.113268,0.027315 -0.149165,-0.0191654 -0.0358976,-0.0464803 -0.027315,-0.113268 0.0191654,-0.149165 0.407728,-0.3165 0.82839,-0.511512 1.28585,-0.596126 0.45511,-0.084185 0.94389,-0.0583268 1.49024,0.0665118z"/>
 </g>
 <g id="Layer_x0020_1_0">
  <metadata id="CorelCorpID_1Corel-Layer"/>
  <rect class="fil1" width="6.82666" height="6.82666"/>
 </g>
</svg>
