<?xml version="1.0" encoding="UTF-8"?>
<!DOCTYPE svg PUBLIC "-//W3C//DTD SVG 1.1//EN" "http://www.w3.org/Graphics/SVG/1.1/DTD/svg11.dtd">
<!-- Creator: CorelDRAW -->
<svg xmlns="http://www.w3.org/2000/svg" xml:space="preserve" width="6.82666in" height="6.82666in" style="shape-rendering:geometricPrecision; text-rendering:geometricPrecision; image-rendering:optimizeQuality; fill-rule:evenodd; clip-rule:evenodd"
viewBox="0 0 6.82666 6.82666"
 xmlns:xlink="http://www.w3.org/1999/xlink">
 <defs>
  <style type="text/css">
   <![CDATA[
    .fil1 {fill:none}
    .fil0 {fill:#212121;fill-rule:nonzero}
   ]]>
  </style>
 </defs>
 <g id="Layer_x0020_1">
  <metadata id="CorelCorpID_0Corel-Layer"/>
  <path class="fil0" d="M3.30287 1.85445c-0.058374,-0.0463031 -0.10611,-0.102972 -0.141524,-0.166831 -0.0355669,-0.0641417 -0.0584488,-0.13487 -0.0669488,-0.20898l0 -0.000417323c-0.0160512,-0.141508 0.0221732,-0.277894 0.0991181,-0.386957 0.0770236,-0.109181 0.192878,-0.190969 0.331969,-0.223146 0.0215394,-0.00498425 0.0426575,-0.00863386 0.0632835,-0.0109961 0.141594,-0.0162283 0.278268,0.0223583 0.387476,0.0995079 0.109366,0.0772638 0.191366,0.193291 0.223413,0.331799 0.00484252,0.0209252 0.00851181,0.0419528 0.0109213,0.0629803l0 0.000417323c0.0181732,0.160591 -0.0295433,0.302102 -0.115543,0.410035 -0.0470945,0.0590984 -0.105622,0.107866 -0.17102,0.143909 -0.0651496,0.0359094 -0.137496,0.0592913 -0.212465,0.0677756 -0.137724,0.0155827 -0.283366,-0.0192441 -0.408681,-0.119098zm0.044311 -0.270161c0.0217598,0.0392402 0.0515039,0.0743937 0.0881929,0.103492 0.0778465,0.0620315 0.167913,0.0837087 0.252846,0.0740984 0.0466417,-0.00527559 0.0920354,-0.0200354 0.133291,-0.0427756 0.0410157,-0.0226063 0.0775945,-0.0530236 0.106854,-0.0897441 0.0526654,-0.0660945 0.0818189,-0.153575 0.0705866,-0.253787l-4.33071e-005 3.93701e-006c-0.00159449,-0.0139134 -0.0038622,-0.0271417 -0.00675591,-0.0396417 -0.0197756,-0.0854724 -0.0705827,-0.15722 -0.138413,-0.205138 -0.0679921,-0.0480315 -0.152945,-0.0720709 -0.240807,-0.0620039 -0.0136417,0.00156299 -0.0269843,0.00383465 -0.0399449,0.00683071 -0.0859409,0.0198819 -0.157598,0.0705197 -0.205307,0.138146 -0.0477874,0.0677402 -0.0715512,0.152563 -0.0616575,0.240709l4.33071e-005 -3.93701e-006c0.0053622,0.046752 0.0194134,0.0906811 0.0411142,0.129815z"/>
  <path class="fil0" d="M1.7186 5.43167c0.00429921,-0.00864173 0.0184331,-0.0295787 0.041815,-0.0642283 0.0873268,-0.129398 0.32052,-0.474937 0.470732,-0.747638 0.0664488,-0.12063 0.0587165,-0.287705 0.051563,-0.442335 -0.00435433,-0.0940157 -0.00851969,-0.184075 0.00162205,-0.265311 0.0763937,-0.612138 0.266583,-0.991291 0.379535,-1.21357 -0.0617953,0.0157756 -0.11813,0.0418031 -0.168803,0.0779252 -0.0969173,0.0690866 -0.176106,0.176783 -0.236272,0.32187 -0.0674016,0.162039 -0.1825,0.237091 -0.296535,0.246323 -0.0492441,0.00398819 -0.0978189,-0.00469291 -0.14226,-0.0243583 -0.0432598,-0.0191378 -0.082563,-0.0489528 -0.114543,-0.0877795 -0.0792559,-0.0962283 -0.112016,-0.247606 -0.0392283,-0.42272l0.000149606 6.29921e-005c0.136346,-0.329043 0.392665,-0.601429 0.703299,-0.758421 0.295744,-0.149465 0.641091,-0.195138 0.980461,-0.0871811l0.000417323 0c0.1365,0.0437244 0.259339,0.0814291 0.377555,0.0997795 0.113429,0.0176102 0.226386,0.0179252 0.350642,-0.0108268 0.29702,-0.0687244 0.385469,-0.234445 0.457185,-0.368815 0.068311,-0.127988 0.125768,-0.235634 0.282043,-0.271799 0.0832598,-0.0192598 0.166213,-0.00382283 0.233933,0.0390945 0.0655039,0.0415157 0.116043,0.108244 0.137717,0.193402l0.000417323 0.0025 0.00256299 0.0111181 0.000413386 0.0025c0.00819685,0.0396575 0.0100669,0.0830512 0.00416535,0.129386 -0.00526378,0.0412717 -0.0166102,0.084563 -0.0350827,0.129157l0 0.000417323c-0.135366,0.326661 -0.328358,0.567201 -0.558709,0.725736 -0.223846,0.154059 -0.481063,0.229709 -0.753665,0.230972 -0.0361457,0.119657 -0.0719173,0.242626 -0.107642,0.370055 -0.0360079,0.128441 -0.0702559,0.25489 -0.103055,0.380476l0.615689 0.243201 0.0108346 0.00541339c0.0410433,0.0219843 0.074815,0.0476496 0.102197,0.0759882 0.0715512,0.0740472 0.0990748,0.163362 0.0984724,0.25278 -0.000547244,0.0823031 -0.0257677,0.163665 -0.061685,0.230732 -0.0250315,0.0467323 -0.055685,0.0876654 -0.0872598,0.118173 -0.128965,0.124602 -0.296295,0.261882 -0.460331,0.396457l-0.0149528 0.0122677 0 0.000417323c-0.117185,0.0958622 -0.159551,0.131087 -0.193622,0.159413 -0.185283,0.154047 -0.215098,0.178835 -0.315713,0.210398 -0.0927087,0.0290079 -0.185492,0.0133268 -0.262327,-0.031311 -0.0530157,-0.0307992 -0.0983858,-0.0757441 -0.130366,-0.129248 -0.0322441,-0.0539409 -0.0511142,-0.116854 -0.0508701,-0.183142 0.000350394,-0.0925276 0.036878,-0.189524 0.12489,-0.274583 0.0758976,-0.073311 0.166476,-0.165453 0.256335,-0.256862 0.0282087,-0.0286969 0.0563543,-0.0573228 0.0839882,-0.085315 -0.0943701,-0.0225039 -0.197984,-0.0431693 -0.274173,-0.0578346 -0.0400866,0.275681 -0.144295,0.476996 -0.22835,0.639362l-0.0125118 0.0241929c-0.0812283,0.157465 -0.213925,0.402224 -0.345346,0.603441 -0.094378,0.1445 -0.189996,0.268449 -0.270587,0.328425 -0.0782677,0.0581535 -0.171142,0.0739173 -0.258264,0.0569606 -0.060374,-0.0117559 -0.118008,-0.0392756 -0.165657,-0.0791772 -0.0483346,-0.0404764 -0.0869488,-0.0937913 -0.108555,-0.156535 -0.029937,-0.0869567 -0.0272362,-0.190165 0.0278976,-0.299319l-0.000165354 -8.26772e-005zm0.218484 0.054937c-0.0183071,0.027126 -0.0259331,0.0366102 -0.0276496,0.040063l-0.000417323 0.000417323c-0.0265118,0.0523425 -0.0290354,0.0983504 -0.0164803,0.134819 0.00852362,0.024752 0.0240315,0.0460197 0.0435551,0.0623701 0.0202165,0.0169291 0.0442244,0.0285197 0.0689882,0.0333425 0.0319094,0.00620866 0.0649882,0.0011378 0.0915945,-0.0186299 0.0579724,-0.0431457 0.136843,-0.147752 0.218925,-0.273425 0.126098,-0.193071 0.255177,-0.431315 0.334512,-0.58511l0.0125118 -0.0241929c0.0868268,-0.167717 0.197374,-0.381264 0.217799,-0.675437l0.0092126 -0.132654 0.127039 0.0376535c0.000948819,0.000279528 0.0170512,0.00313386 0.0445945,0.00835039 0.118232,0.0223976 0.390469,0.0739803 0.531961,0.124366l0.160248 0.057063 -0.121083 0.119189c-0.0638701,0.0628701 -0.136906,0.137165 -0.210402,0.211925 -0.0912362,0.092811 -0.183201,0.186362 -0.2605,0.261028 -0.0422323,0.040815 -0.059748,0.0831496 -0.0598898,0.121252 -9.84252e-005,0.0264055 0.00764567,0.0518543 0.0208701,0.0739764 0.0134843,0.022563 0.0324685,0.0414291 0.0545315,0.054248 0.0278031,0.0161535 0.060563,0.0220827 0.0923268,0.0121457 0.0614488,-0.0192756 0.0866378,-0.0402244 0.243209,-0.170398 0.066878,-0.0556024 0.150504,-0.12513 0.194457,-0.161083l0.000204724 0.000248031 0.014748 -0.0120984c0.159799,-0.131102 0.322815,-0.264839 0.447827,-0.385622 0.0165039,-0.0159488 0.0330827,-0.038374 0.0472598,-0.0648425 0.0213819,-0.0399252 0.0363858,-0.0866496 0.036685,-0.131567 0.000251969,-0.0377913 -0.0107283,-0.074874 -0.0392992,-0.104441 -0.0111378,-0.0115276 -0.0249764,-0.0223189 -0.0418504,-0.0320827l-0.699161 -0.276173 -0.0870945 -0.0344055 0.0233425 -0.0910118c0.0439449,-0.171335 0.0862402,-0.329496 0.127429,-0.476413 0.0424803,-0.15152 0.0865315,-0.301488 0.132724,-0.451945l0.0242874 -0.0791142 0.082378 0.00411417c0.257472,0.0128583 0.499646,-0.0495 0.706083,-0.191579 0.197165,-0.135697 0.363827,-0.345126 0.482874,-0.632406l0.000145669 5.90551e-005c0.0111772,-0.027063 0.0178858,-0.0519961 0.0207717,-0.0746339 0.00268898,-0.0211142 0.00210236,-0.0404331 -0.00117323,-0.0577283l-7.48031e-005 1.5748e-005 -0.00199606 -0.00865748 -0.000149606 3.93701e-005c-0.0076063,-0.0298858 -0.0241654,-0.0525669 -0.0452126,-0.0659055 -0.020563,-0.0130315 -0.0461772,-0.017626 -0.0722638,-0.0115906 -0.0620118,0.0143504 -0.0985748,0.0828543 -0.142043,0.164295 -0.0921969,0.172744 -0.205898,0.38578 -0.597185,0.476319 -0.152657,0.0353228 -0.291378,0.0349449 -0.43065,0.0133228 -0.134488,-0.020878 -0.265421,-0.0609488 -0.410051,-0.107276l3.93701e-005 -0.00011811c-0.282437,-0.0897244 -0.571429,-0.0508701 -0.820083,0.0747953 -0.266335,0.134602 -0.485984,0.367925 -0.602614,0.64961l0 0.000417323c-0.0383976,0.0923819 -0.0273346,0.164701 0.00672441,0.206051 0.0101339,0.0123031 0.022563,0.0217402 0.0362126,0.0277795 0.0124764,0.00551969 0.0260591,0.00796457 0.0397559,0.00685433 0.0402441,-0.00325591 0.0843819,-0.038189 0.116535,-0.115488 0.0756102,-0.182323 0.179386,-0.320697 0.30961,-0.413531 0.132504,-0.0944606 0.2895,-0.139965 0.469236,-0.134921l0.13939 0.00391732 -0.0402244 0.133169c-0.0143898,0.0476496 -0.0439055,0.10572 -0.0825945,0.181846 -0.106157,0.208858 -0.288843,0.568276 -0.361539,1.1508 -0.00835039,0.0668976 -0.00464961,0.146846 -0.000787402,0.230311 0.00848031,0.183354 0.0176535,0.381453 -0.0773976,0.554004 -0.155736,0.282732 -0.392185,0.633094 -0.480732,0.764299z"/>
  <rect class="fil1" width="6.82666" height="6.82666"/>
 </g>
</svg>
