<?xml version="1.0" encoding="UTF-8"?>
<!DOCTYPE svg PUBLIC "-//W3C//DTD SVG 1.1//EN" "http://www.w3.org/Graphics/SVG/1.1/DTD/svg11.dtd">
<!-- Creator: CorelDRAW -->
<svg xmlns="http://www.w3.org/2000/svg" xml:space="preserve" width="6.82666in" height="6.82666in" style="shape-rendering:geometricPrecision; text-rendering:geometricPrecision; image-rendering:optimizeQuality; fill-rule:evenodd; clip-rule:evenodd"
viewBox="0 0 6.82666 6.82666"
 xmlns:xlink="http://www.w3.org/1999/xlink">
 <defs>
  <style type="text/css">
   <![CDATA[
    .fil1 {fill:none}
    .fil0 {fill:#212121;fill-rule:nonzero}
   ]]>
  </style>
 </defs>
 <g id="Layer_x0020_1">
  <metadata id="CorelCorpID_0Corel-Layer"/>
  <path class="fil0" d="M3.84077 3.6198c0.147417,0 0.28078,0.0596535 0.377295,0.156173 0.0965197,0.0965157 0.156173,0.229878 0.156173,0.377295 0,0.147413 -0.0596575,0.28078 -0.156177,0.377311 -0.0965118,0.0965197 -0.229878,0.156181 -0.377291,0.156181 -0.147437,0 -0.280787,-0.0596535 -0.377299,-0.156169 -0.0965197,-0.0965276 -0.156169,-0.229909 -0.156169,-0.377323 0,-0.147421 0.0596457,-0.280791 0.156165,-0.377311 0.0965079,-0.0965079 0.22987,-0.156157 0.377303,-0.156157zm0.226461 0.307008c-0.0578858,-0.0578898 -0.137933,-0.0936693 -0.226461,-0.0936693 -0.0885472,0 -0.168591,0.0357756 -0.226469,0.0936535 -0.0578898,0.0578898 -0.0936614,0.137941 -0.0936614,0.226476 0,0.0885315 0.0357756,0.168594 0.0936654,0.226488 0.0578819,0.0578858 0.137921,0.0936654 0.226465,0.0936654 0.0885236,0 0.168571,-0.0357874 0.226457,-0.0936772 0.0578898,-0.0578976 0.0936732,-0.137949 0.0936732,-0.226476 0,-0.0885276 -0.0357795,-0.168575 -0.0936693,-0.226461z"/>
  <path class="fil0" d="M2.5882 4.94259c0.068685,0.200622 0.210035,0.329957 0.382335,0.4015 0.214488,0.0890669 0.477161,0.0911024 0.71315,0.0307756 0.205551,-0.0524646 0.352803,-0.165378 0.483957,-0.265953 0.12885,-0.0988031 0.244252,-0.187291 0.39552,-0.217689 0.135772,-0.0272835 0.254154,-0.00567323 0.367043,0.0149291 0.117772,0.0214961 0.227764,0.0415551 0.321327,-0.0221929 0.147154,-0.195012 0.259193,-0.414622 0.335311,-0.64848 0.0795748,-0.244504 0.119815,-0.504996 0.119815,-0.769673 0,-0.176984 -0.0190787,-0.347335 -0.0547992,-0.509575 -0.114209,-0.518736 -0.398642,-0.955697 -0.773618,-1.2629 -0.374098,-0.306484 -0.837937,-0.483661 -1.31207,-0.483661 -0.134311,0 -0.269449,0.0142244 -0.403579,0.043752 -0.325843,0.0717402 -0.626835,0.234291 -0.882236,0.453598 -0.272547,0.234031 -0.493004,0.53211 -0.636571,0.853413 -0.0571417,0.128173 -0.117701,0.284311 -0.126654,0.426177 -0.00764173,0.121142 0.025315,0.23376 0.14226,0.305547 0.0848701,0.0520472 0.181535,0.0845039 0.277843,0.116839 0.14113,0.0473858 0.28161,0.0945591 0.409874,0.201567 0.264591,0.219949 0.241492,0.513118 0.217437,0.818433 -0.0137717,0.174811 -0.0279094,0.354276 0.0219331,0.507713 0.000637795,0.00195669 0.00120866,0.00391732 0.00172441,0.00588189zm0.300665 0.598169c-0.225543,-0.0936575 -0.410961,-0.264181 -0.50176,-0.529807 -0.00114567,-0.00273622 -0.00220079,-0.00553543 -0.00313386,-0.00840945 -0.063122,-0.194315 -0.0473228,-0.394862 -0.0319331,-0.590217 0.0196654,-0.249646 0.0385591,-0.489362 -0.140768,-0.638433 -0.0973819,-0.0812441 -0.219185,-0.122146 -0.341543,-0.163228 -0.108134,-0.0363071 -0.216661,-0.072748 -0.321173,-0.136839 -0.199461,-0.122441 -0.256213,-0.305799 -0.243929,-0.500547 0.0109803,-0.174024 0.0799961,-0.353728 0.144992,-0.499516 0.156228,-0.349638 0.39602,-0.673909 0.692406,-0.928413 0.281299,-0.241543 0.613768,-0.420791 0.974732,-0.50026 0.149484,-0.0329094 0.299969,-0.0487598 0.449413,-0.0487598 0.524059,0 1.03558,0.194882 1.44707,0.532 0.410606,0.336398 0.722012,0.81461 0.846949,1.38207 0.0389843,0.177067 0.0598071,0.362748 0.0598071,0.555409 0,0.28613 -0.043878,0.568894 -0.13065,0.835508 -0.084815,0.260587 -0.210705,0.505394 -0.376768,0.7225 -0.00587795,0.00802362 -0.0129882,0.0153543 -0.0212953,0.0216969 -0.170453,0.129693 -0.328689,0.100815 -0.498583,0.0698071 -0.0936969,-0.0170984 -0.191961,-0.0350354 -0.28787,-0.0157638 -0.101913,0.0204803 -0.199291,0.0951496 -0.308024,0.178524 -0.147673,0.11324 -0.313465,0.240374 -0.560618,0.303457 -0.276642,0.0707165 -0.588244,0.066811 -0.847323,-0.0407756z"/>
  <path class="fil0" d="M2.45458 4.10606c0.0579882,-0.00897244 0.11228,0.0307598 0.121252,0.088748 0.00897244,0.0579882 -0.0307598,0.11228 -0.088748,0.121252l-0.28885 0.0454606 -0.19061 1.34042 -3.14961e-005 -3.93701e-006c-0.00586614,0.0410945 -0.0356378,0.0766929 -0.0783031,0.0879213 -0.180961,0.0476457 -0.399425,0.0506575 -0.591213,-0.0105669 -0.16928,-0.0540354 -0.318724,-0.157213 -0.408248,-0.322409 -0.0469764,-0.086689 -0.0791693,-0.165224 -0.0997992,-0.242339 -0.0211457,-0.0790276 -0.0300394,-0.155098 -0.0300394,-0.235303l0.000417323 0 1.5748e-005 -0.521122c-0.000488189,-0.0519213 0.0371772,-0.0977008 0.09,-0.105874l1.1896 -0.187228c0.00479921,-0.00110236 0.00970079,-0.00188976 0.014689,-0.00231496l0.35987 -0.0566378zm-0.47637 0.290091l-0.965287 0.151925 -1.1811e-005 0.431161 0.000417323 0c0,0.0626339 0.00667323,0.121016 0.0225354,0.180303 0.016374,0.0611969 0.0426457,0.124862 0.0814685,0.196504 0.0604882,0.111622 0.165094,0.182496 0.284909,0.22074 0.129035,0.041189 0.274587,0.0453543 0.404929,0.0221575l0.171039 -1.20279z"/>
  <path class="fil0" d="M0.922079 4.98664c-0.0582165,0.00851181 -0.112323,-0.0317835 -0.120835,-0.09 -0.00851181,-0.0582165 0.0317835,-0.112323 0.09,-0.120835 0.0834213,-0.0124803 1.49079,-0.241913 1.49503,-0.242787 0.0575276,-0.0117362 0.113681,0.0253858 0.125417,0.0829134 0.0117362,0.0575276 -0.0253858,0.113681 -0.0829134,0.125417 -0.00426772,0.00088189 -1.42472,0.233028 -1.5067,0.245291z"/>
  <path class="fil0" d="M0.978476 5.35588c-0.0582165,0.00851181 -0.112323,-0.0317835 -0.120835,-0.09 -0.00851181,-0.0582165 0.0317835,-0.112323 0.09,-0.120835 0.0776417,-0.0116299 0.977165,-0.164213 0.979957,-0.164705 0.0579882,-0.010122 0.113213,0.0286772 0.123335,0.0866654 0.010122,0.0579882 -0.0286772,0.113213 -0.0866654,0.123335 -0.0027874,0.000488189 -0.898055,0.152398 -0.985791,0.165539z"/>
  <path class="fil0" d="M1.57882 5.65728c0.00183858,0.0586811 -0.0442362,0.107748 -0.102917,0.109587 -0.0586811,0.00183858 -0.107748,-0.0442362 -0.109587,-0.102917l-0.0430748 -1.28566c-0.00183858,-0.0586811 0.0442362,-0.107748 0.102917,-0.109587 0.0586811,-0.00183858 0.107748,0.0442362 0.109587,0.102917l0.0430748 1.28566z"/>
 </g>
 <g id="Layer_x0020_1_0">
  <metadata id="CorelCorpID_1Corel-Layer"/>
  <rect class="fil1" width="6.82666" height="6.82666"/>
 </g>
</svg>
