<?xml version="1.0" encoding="UTF-8"?>
<!DOCTYPE svg PUBLIC "-//W3C//DTD SVG 1.1//EN" "http://www.w3.org/Graphics/SVG/1.1/DTD/svg11.dtd">
<!-- Creator: CorelDRAW -->
<svg xmlns="http://www.w3.org/2000/svg" xml:space="preserve" width="6.82666in" height="6.82666in" style="shape-rendering:geometricPrecision; text-rendering:geometricPrecision; image-rendering:optimizeQuality; fill-rule:evenodd; clip-rule:evenodd"
viewBox="0 0 6.82666 6.82666"
 xmlns:xlink="http://www.w3.org/1999/xlink">
 <defs>
  <style type="text/css">
   <![CDATA[
    .fil1 {fill:none}
    .fil0 {fill:#212121;fill-rule:nonzero}
   ]]>
  </style>
 </defs>
 <g id="Layer_x0020_1">
  <metadata id="CorelCorpID_0Corel-Layer"/>
  <path class="fil0" d="M1.89024 3.52389c0,0.145811 -0.0592283,0.278071 -0.154996,0.373933 -0.0959567,0.0960512 -0.228205,0.155504 -0.374024,0.155504 -0.146256,0 -0.278567,-0.0592795 -0.374343,-0.155047 -0.0958465,-0.0958543 -0.155094,-0.228264 -0.155094,-0.37439 0,-0.146134 0.0592441,-0.278543 0.155091,-0.37439 0.0957756,-0.0957756 0.228087,-0.155047 0.374346,-0.155047 0.145823,0 0.278071,0.0594488 0.374028,0.155504 0.0957638,0.0958583 0.154992,0.228114 0.154992,0.373933zm-0.305831 0.223933c0.0571457,-0.0572008 0.0924921,-0.136394 0.0924921,-0.223933 0,-0.0875472 -0.0353465,-0.166736 -0.0924882,-0.223933 -0.0568701,-0.0569291 -0.13576,-0.0921654 -0.223193,-0.0921654 -0.0873504,0 -0.16635,0.0353819 -0.223512,0.0925433 -0.0572165,0.0572165 -0.0925866,0.136283 -0.0925866,0.223555 0,0.0872677 0.0353701,0.166335 0.0925906,0.223555 0.0571654,0.0571614 0.136165,0.0925433 0.223508,0.0925433 0.0874291,0 0.166319,-0.0352402 0.223189,-0.0921654z"/>
  <path class="fil0" d="M5.4824 4.3018c-0.56387,0.236575 -0.907906,0.341256 -1.16358,0.355539 -0.270835,0.015126 -0.437087,-0.066122 -0.640803,-0.19985 -0.0111299,-0.00585827 -0.0208819,-0.0114606 -0.029252,-0.0167795 -0.0480748,-0.0305472 -0.0859764,-0.0692441 -0.109067,-0.108925 -0.0330157,-0.056748 -0.0388031,-0.1175 -0.0105512,-0.17211 0.00278346,-0.00537795 0.0050748,-0.00948031 0.00687795,-0.0123189 0.00164567,-0.00259055 0.00338583,-0.00508661 0.00520866,-0.00748425l0.0454094 -0.0724843 0.000188976 -0.000295276 -0.000188976 -0.00011811c0.0291732,-0.0463386 0.0367638,-0.100091 0.0254764,-0.149602 -0.0110197,-0.0483504 -0.040315,-0.0926614 -0.0853228,-0.121937l-2.75591e-005 4.72441e-005 -0.728461 -0.433445c-0.00185433,-0.00109449 -0.00365354,-0.00224016 -0.00541732,-0.00342913 -0.0325591,-0.0189685 -0.0801535,-0.0232126 -0.124839,-0.027185 -0.144969,-0.0128976 -0.273579,-0.0243583 -0.301004,-0.25298 -0.000125984,-0.00105906 -0.000232283,-0.00211811 -0.000322835,-0.00317717l-0.0163937 -0.140303 -0.575504 -0.824839c-0.000866142,-0.00123622 -0.00169291,-0.00248819 -0.00249606,-0.00375197l-3.93701e-006 0 -0.000181102 -0.000283465c-0.0213189,-0.0334055 -0.0542323,-0.0550315 -0.0901614,-0.0629921 -0.0359961,-0.00797638 -0.074937,-0.00230315 -0.108228,0.0188819l-0.000283465 0.000181102 -0.000972441 0.000602362 0.000141732 0.000232283 -0.00574409 0.00358268c-0.00126772,0.000791339 -0.00254724,0.00154331 -0.00383858,0.00227165 -0.0308937,0.0214094 -0.0509646,0.0529803 -0.0585669,0.0873228 -0.00776772,0.0350591 -0.00259843,0.0729488 0.0172126,0.105835l0.530661 0.767858c0.00190157,0.00275197 0.00364567,0.00556693 0.00525197,0.0084252l0.000165354 -9.05512e-005c0.0327953,0.0582165 0.0775787,0.14415 0.1145,0.244756 0.0381417,0.103945 0.0677244,0.223024 0.0677244,0.343709 0,0.0133976 -0.00247244,0.0262126 -0.00698425,0.0380236 -0.0624173,0.186614 -0.145307,0.319232 -0.192925,0.395406 -0.0122717,0.0196339 -0.0218976,0.0350276 -0.0255118,0.0420079l-0.000141732 0.000267717 -0.000287402 0.000559055 1.1811e-005 3.93701e-006 -0.000141732 0.000267717 -0.000149606 0.000275591c-0.0134646,0.0265197 -0.0154213,0.0517087 -0.00555906,0.0736575 0.0139528,0.0310591 0.0487323,0.062437 0.105118,0.0917874 0.00516535,0.00268504 0.0100157,0.00574016 0.0145433,0.0091063 0.304287,0.208465 0.65589,0.402209 1.03345,0.536138 0.317165,0.112508 0.652071,0.182854 0.991555,0.184118 0.166441,0.000606299 0.588138,-0.0690827 0.964457,-0.191768 0.250035,-0.0815157 0.474807,-0.184248 0.575984,-0.300272 0.0305512,-0.0350197 0.0444528,-0.0671811 0.0453504,-0.0946575 0.000641732,-0.019689 -0.00566535,-0.0381732 -0.0172283,-0.0540512 -0.0138307,-0.0189882 -0.0355945,-0.0352835 -0.0631024,-0.0471693 -0.0476181,-0.0205669 -0.109232,-0.0258937 -0.176047,-0.00856299zm-1.17525 0.143035c0.229669,-0.0128268 0.554028,-0.113445 1.09802,-0.341913l6.69291e-005 0.000161417c0.00400394,-0.00167323 0.00814961,-0.00312598 0.0124331,-0.00432677 0.1195,-0.0337402 0.234043,-0.0234882 0.324941,0.0157717 0.061878,0.0267323 0.113823,0.0675079 0.150606,0.118004 0.0390512,0.0536142 0.0602992,0.117063 0.058063,0.18572 -0.00243701,0.0745787 -0.0324882,0.153067 -0.0978543,0.227988 -0.129783,0.148831 -0.388551,0.270972 -0.67015,0.362776 -0.396051,0.129118 -0.848295,0.202433 -1.03029,0.201768 -0.366744,-0.0013622 -0.725173,-0.0761654 -1.06239,-0.195787 -0.395421,-0.140264 -0.762461,-0.342114 -1.07958,-0.559067 -0.0980591,-0.0519094 -0.163559,-0.118012 -0.196862,-0.19213 -0.0374685,-0.083374 -0.0337717,-0.171307 0.0102126,-0.25715 0.000433071,-0.000877953 0.000874016,-0.00174803 0.00133071,-0.00261811l0.000141732 -0.000267717 1.1811e-005 7.87402e-006c0.00859449,-0.0164921 0.0195276,-0.0339764 0.0334134,-0.056185 0.0415236,-0.0664252 0.113008,-0.180783 0.167154,-0.337508 -0.00261024,-0.0872598 -0.0253307,-0.175299 -0.0541339,-0.253795 -0.0313189,-0.0853425 -0.0699921,-0.159858 -0.0988504,-0.21128l-0.526921 -0.762445 9.44882e-005 -6.69291e-005c-0.000740157,-0.0010748 -0.00147244,-0.00215748 -0.00217717,-0.00326772 -0.0529016,-0.0831417 -0.0671693,-0.179819 -0.0474409,-0.26889 0.0191378,-0.0864252 0.0702441,-0.165783 0.149063,-0.218835 0.00266535,-0.00202756 0.00544094,-0.00395669 0.00834252,-0.00575984l0.00574409 -0.00358268 0.000137795 0.000224409c0.0826929,-0.0523661 0.178874,-0.0664449 0.267543,-0.0467913 0.0882559,0.0195591 0.169209,0.0725039 0.222185,0.154311l0.585606 0.839319c0.0125079,0.0152874 0.0209134,0.0342205 0.0233189,0.0552992l0.0193937 0.165957c0.000145669,0.000980315 0.000275591,0.00197244 0.000393701,0.00296457 0.00687795,0.0573346 0.0542598,0.0615591 0.107665,0.066311 0.0695079,0.00618504 0.143551,0.0127795 0.217429,0.0573465 0.000948819,0.000523622 0.00188976,0.00105118 0.00282677,0.0016063l0.728461 0.433445 -6.29921e-005 0.000106299c0.000858268,0.000507874 0.0017126,0.00102362 0.00256299,0.00155906 0.096063,0.0605118 0.158618,0.154209 0.182024,0.256886 0.023315,0.10228 0.00751969,0.2135 -0.0529803,0.309602l-0.000185039 -0.00011811 -0.0347126 0.0554134c0.0073189,0.00805118 0.0178622,0.0166457 0.031185,0.0251102 0.00619685,0.00393701 0.0115787,0.00710236 0.0160354,0.00940945l-9.05512e-005 0.000173228c0.0032874,0.00169685 0.00651575,0.00358268 0.00967323,0.00565748 0.170248,0.112213 0.306012,0.18076 0.518602,0.168886z"/>
  <path class="fil0" d="M2.88745 1.72355c0.015185,-0.0568386 0.0735787,-0.0906024 0.130417,-0.0754173 0.0568386,0.015185 0.0906024,0.0735787 0.0754173,0.130417 -0.0428543,0.159976 -0.0642874,0.338783 -0.0642874,0.536398 0,0.201311 0.0219882,0.420177 0.0659528,0.656579 0.0105827,0.0577559 -0.0276614,0.113165 -0.0854173,0.123748 -0.0577559,0.0105827 -0.113165,-0.0276614 -0.123748,-0.0854173 -0.046748,-0.251362 -0.070126,-0.483 -0.070126,-0.694909 0,-0.215606 0.0239331,-0.412748 0.0717913,-0.591398z"/>
  <path class="fil0" d="M4.02874 2.0789c0.0365866,-0.0460236 0.103563,-0.0536693 0.149587,-0.0170827 0.0460236,0.0365866 0.0536693,0.103563 0.0170827,0.149587 -0.0786102,0.0990433 -0.138972,0.222969 -0.181083,0.371752 -0.0437283,0.15452 -0.0677913,0.334476 -0.0721693,0.539846 -0.00114961,0.0586811 -0.0496535,0.105319 -0.108335,0.104169 -0.0586811,-0.00114961 -0.105319,-0.0496535 -0.104169,-0.108335 0.00479134,-0.224713 0.0313543,-0.422445 0.0796732,-0.593185 0.0499409,-0.176453 0.123083,-0.325382 0.219413,-0.446752z"/>
  <path class="fil0" d="M5.47854 3.15809c0.0467126,-0.0356654 0.1135,-0.0267126 0.149165,0.02 0.0356654,0.0467126 0.0267126,0.1135 -0.02,0.149165 -0.0473386,0.0362244 -0.091311,0.0966614 -0.13189,0.181276 -0.0444291,0.0926496 -0.0835591,0.212429 -0.117366,0.359311 -0.0131142,0.0572992 -0.0702047,0.0931142 -0.127504,0.08 -0.0572992,-0.0131142 -0.0931142,-0.0702047 -0.08,-0.127504 0.0370945,-0.161169 0.0815,-0.295665 0.133201,-0.403476 0.055563,-0.115858 0.12037,-0.202122 0.194394,-0.258772z"/>
 </g>
 <g id="Layer_x0020_1_0">
  <metadata id="CorelCorpID_1Corel-Layer"/>
  <rect class="fil1" width="6.82666" height="6.82666"/>
 </g>
</svg>
