<?xml version="1.0" encoding="UTF-8"?>
<!DOCTYPE svg PUBLIC "-//W3C//DTD SVG 1.1//EN" "http://www.w3.org/Graphics/SVG/1.1/DTD/svg11.dtd">
<!-- Creator: CorelDRAW -->
<svg xmlns="http://www.w3.org/2000/svg" xml:space="preserve" width="6.82666in" height="6.82666in" style="shape-rendering:geometricPrecision; text-rendering:geometricPrecision; image-rendering:optimizeQuality; fill-rule:evenodd; clip-rule:evenodd"
viewBox="0 0 6.82666 6.82666"
 xmlns:xlink="http://www.w3.org/1999/xlink">
 <defs>
  <style type="text/css">
   <![CDATA[
    .fil1 {fill:none}
    .fil0 {fill:#212121;fill-rule:nonzero}
   ]]>
  </style>
 </defs>
 <g id="Layer_x0020_1">
  <metadata id="CorelCorpID_0Corel-Layer"/>
  <path class="fil0" d="M3.55886 0.991728c-0.00505906,-0.0584488 0.0382205,-0.109941 0.0966693,-0.115 0.0584488,-0.00505906 0.109941,0.0382205 0.115,0.0966693 0.017126,0.191287 0.214453,0.423654 0.434146,0.682362 0.329055,0.387488 0.704024,0.829098 0.685878,1.37017 0.0181457,0.541067 -0.356823,0.982677 -0.685878,1.37017 -0.219693,0.258709 -0.41702,0.491075 -0.434146,0.682362 -0.00505906,0.0584488 -0.0565512,0.101728 -0.115,0.0966693 -0.0584488,-0.00505906 -0.101728,-0.0565512 -0.0966693,-0.115 0.0232598,-0.259787 0.240949,-0.516134 0.483311,-0.801535 0.305031,-0.359197 0.652756,-0.768673 0.635783,-1.22891 -8.66142e-005,-0.00248425 -9.05512e-005,-0.00498425 0,-0.00750394 0.0169724,-0.460236 -0.330752,-0.869713 -0.635783,-1.22891 -0.242362,-0.285402 -0.460051,-0.541748 -0.483311,-0.801535z"/>
  <path class="fil0" d="M4.8904 3.0325c-0.00298819,0.0586811 -0.0529882,0.103823 -0.111669,0.100835 -0.0586811,-0.00298819 -0.103823,-0.0529882 -0.100835,-0.111669l6.29921e-005 -0.00116142c0.00298819,-0.0586811 0.0529882,-0.103823 0.111669,-0.100835 0.0586811,0.00298819 0.103823,0.0529882 0.100835,0.111669l-6.29921e-005 0.00116142z"/>
  <path class="fil0" d="M2.59512 3.08958c-0.0589094,0 -0.106669,-0.0477598 -0.106669,-0.106669 0,-0.0589094 0.0477598,-0.106669 0.106669,-0.106669l2.8299 0c0.0589094,0 0.106669,0.0477598 0.106669,0.106669 0,0.0589094 -0.0477598,0.106669 -0.106669,0.106669l-2.8299 0z"/>
  <path class="fil0" d="M5.2188 3.33997c-0.0416496,0.0416496 -0.109185,0.0416496 -0.150835,0 -0.0416496,-0.0416496 -0.0416496,-0.109185 0,-0.150835l0.20622 -0.206224 -0.205059 -0.205067c-0.0416496,-0.0416496 -0.0416496,-0.109185 0,-0.150835 0.0416496,-0.0416496 0.109185,-0.0416496 0.150835,0l0.280476 0.280484c0.0416496,0.0416496 0.0416496,0.109185 0,0.150835l-0.281638 0.281642z"/>
  <path class="fil0" d="M3.57644 1.00189c0.026,-0.0526969 0.0898031,-0.0743346 0.1425,-0.0483346 0.0526969,0.026 0.0743346,0.0898031 0.0483346,0.1425l-0.937075 1.88686 0.142476 0.286787 -0.222795 0.0298268 -0.133264 -0.26824 -0.000314961 -0.000629921 -0.000322835 -0.000653543c-0.0141142,-0.0286457 -0.0152283,-0.063315 0,-0.0941654l0.960461 -1.93395zm-0.189283 3.10211l0.398492 0.80211c0.026,0.0526969 0.0043622,0.1165 -0.0483346,0.1425 -0.0526969,0.026 -0.1165,0.0043622 -0.1425,-0.0483346l-0.422677 -0.850791 0.21502 -0.0454843z"/>
  <path class="fil0" d="M4.57598 3.14919c0.105224,0.0389173 0.163783,0.111697 0.186429,0.206732 0.0211181,0.0886339 0.00609843,0.194055 -0.0329055,0.305012 -0.0819134,0.232984 -0.156563,0.281028 -0.260508,0.244484 -0.042626,-0.0149843 -0.0705591,-0.043248 -0.104346,-0.0774409 -0.0351614,-0.0355827 -0.0819409,-0.0829094 -0.145307,-0.0916102 -0.00171654,-0.00023622 -0.0030748,-0.000397638 -0.00414567,-0.0005l0.000826772 0.00268898c0.0044685,0.00238583 0.010063,0.00578346 0.0025,0.00812992 -0.216386,0.0671732 -1.12669,0.349783 -1.54414,0.364071 -0.0732323,0.00250787 -0.137972,0.00787795 -0.175531,0.0317323 -0.0279409,0.017748 -0.0451969,0.0569606 -0.0451969,0.135173l0 0.629c0,0.0589094 -0.0477598,0.106669 -0.106669,0.106669l-0.880165 0c-0.0571024,0 -0.103724,-0.044874 -0.106535,-0.101276l-0.103996 -0.777787c-0.00498031,-0.0372638 -0.0893268,-0.0370118 -0.193937,-0.0366969 -0.138429,0.000417323 -0.2985,0.000893701 -0.446508,-0.0799488 -0.0829409,-0.0453071 -0.147331,-0.133917 -0.173528,-0.227602 -0.0105906,-0.0378661 -0.0153307,-0.0771063 -0.0130197,-0.115346 0.00250787,-0.0414646 0.0132126,-0.0820748 0.0335236,-0.119256 0.0334094,-0.0611575 0.0901693,-0.109839 0.175524,-0.133705l0.599531 -0.167646c0.0437913,-0.0121024 0.0887598,0.0050315 0.114122,0.0396181l4.72441e-005 -3.54331e-005 0.0882087 0.119681 1.01308 0c0.481937,0 1.00215,-0.100087 1.53562,-0.202717l0.044378 -0.00853543c0.0299724,-0.00575984 0.0669528,-0.0151417 0.105984,-0.0250354 0.140276,-0.0355669 0.303732,-0.0770157 0.436657,-0.0278543zm-0.0210748 0.255898c-0.00600787,-0.0252205 -0.0223898,-0.0448543 -0.0522559,-0.0558976 -0.0713819,-0.0264016 -0.200689,0.00638976 -0.311657,0.0345236 -0.0411457,0.0104331 -0.0801339,0.0203189 -0.117654,0.0275315l-0.044378 0.00853543c-0.544449,0.104744 -1.07537,0.20689 -1.57562,0.20689l-1.06667 0 0 -0.000244094c-0.0327283,-2.75591e-005 -0.0650039,-0.0150906 -0.0858346,-0.0435079l-0.0767598 -0.104146 -0.529059 0.147941c-0.0240906,0.00673622 -0.0385591,0.017622 -0.0455236,0.030374 -0.00452756,0.00829134 -0.00699606,0.018622 -0.00768898,0.0300906 -0.000889764,0.0147008 0.00111811,0.0304449 0.00551575,0.0461732 0.011689,0.0417992 0.0378189,0.0799173 0.0701969,0.0976024 0.100413,0.0548504 0.231488,0.0544567 0.344839,0.0541142 0.207602,-0.000625984 0.374984,-0.00112598 0.404772,0.221697l0.092689 0.693228 0.680504 0 0 -0.522331c0,-0.164169 0.0551181,-0.258476 0.14437,-0.315173 0.0796417,-0.0505827 0.176945,-0.0606063 0.283028,-0.0642362 0.387902,-0.0132756 1.27697,-0.289291 1.4883,-0.354898 0.0434449,-0.0134882 0.0681772,-0.0210276 0.0916535,-0.0178228 0.135555,0.0186102 0.211531,0.0954803 0.268646,0.15328 0.014752,0.0149291 0.0184134,0.0242717 0.0226772,0.0257717 0.0299449,0.0105276 -0.0371417,-0.0373819 -0.0103268,-0.11365 0.0260512,-0.0741063 0.0373425,-0.13922 0.0262362,-0.185846zm-0.339709 0.33078c-0.00575591,-0.000547244 -0.00284646,0.000728346 0.000826772,0.00268898l-0.000826772 -0.00268898z"/>
  <path class="fil0" d="M1.91601 2.55999c0.117807,0 0.224476,0.0477638 0.301693,0.124976 0.0772165,0.0772165 0.12498,0.183886 0.12498,0.301693 0,0.117811 -0.0477677,0.22448 -0.12498,0.301689 -0.0772165,0.0772165 -0.183886,0.12498 -0.301693,0.12498 -0.117811,0 -0.22448,-0.0477677 -0.301689,-0.12498 -0.0772165,-0.0772165 -0.12498,-0.183886 -0.12498,-0.301689 0,-0.117807 0.0477638,-0.224476 0.124976,-0.301693 0.0772165,-0.0772126 0.183886,-0.124976 0.301693,-0.124976zm0.150858 0.275811c-0.0385984,-0.0385945 -0.0919409,-0.0624724 -0.150858,-0.0624724 -0.0589173,0 -0.11226,0.023878 -0.150858,0.0624724 -0.0385945,0.0385984 -0.0624724,0.0919409 -0.0624724,0.150858 0,0.0589173 0.023878,0.112256 0.0624764,0.150854 0.0385945,0.0385984 0.091937,0.0624764 0.150854,0.0624764 0.0589173,0 0.11226,-0.023878 0.150858,-0.0624764 0.0385945,-0.0385906 0.0624764,-0.091937 0.0624764,-0.150854 0,-0.0589173 -0.023878,-0.11226 -0.0624764,-0.150858z"/>
  <rect class="fil1" width="6.82666" height="6.82666"/>
 </g>
</svg>
