<?xml version="1.0" encoding="UTF-8"?>
<!DOCTYPE svg PUBLIC "-//W3C//DTD SVG 1.1//EN" "http://www.w3.org/Graphics/SVG/1.1/DTD/svg11.dtd">
<!-- Creator: CorelDRAW -->
<svg xmlns="http://www.w3.org/2000/svg" xml:space="preserve" width="6.82666in" height="6.82666in" style="shape-rendering:geometricPrecision; text-rendering:geometricPrecision; image-rendering:optimizeQuality; fill-rule:evenodd; clip-rule:evenodd"
viewBox="0 0 6.82666 6.82666"
 xmlns:xlink="http://www.w3.org/1999/xlink">
 <defs>
  <style type="text/css">
   <![CDATA[
    .fil1 {fill:none}
    .fil0 {fill:#212121;fill-rule:nonzero}
   ]]>
  </style>
 </defs>
 <g id="Layer_x0020_1">
  <metadata id="CorelCorpID_0Corel-Layer"/>
  <path class="fil0" d="M5.56908 2.48693c-0.0630315,-0.143634 -0.136445,-0.277547 -0.220421,-0.402028 -0.083126,-0.123228 -0.176693,-0.236783 -0.280874,-0.340953 -0.104492,-0.104504 -0.218386,-0.196933 -0.341429,-0.277858 -0.124717,-0.0820236 -0.26002,-0.153496 -0.405591,-0.214925 -0.144043,-0.060878 -0.291028,-0.107102 -0.441469,-0.138098 -0.149224,-0.0307441 -0.303051,-0.0463976 -0.462024,-0.0463976l-0.0293425 0c-0.159516,0 -0.314543,0.0166299 -0.465205,0.0488819 -0.151559,0.0324449 -0.299098,0.0805394 -0.442701,0.143272 -0.143791,0.0630157 -0.27802,0.137118 -0.402528,0.222169 -0.124173,0.0848228 -0.238315,0.180354 -0.342272,0.286469 -0.103508,0.105252 -0.195594,0.220547 -0.276886,0.345638 -0.0814173,0.125287 -0.152346,0.261079 -0.213386,0.407087 -0.0601142,0.143748 -0.105008,0.290598 -0.13487,0.440953 -0.0298465,0.150283 -0.0446732,0.304461 -0.0446732,0.462957l0 0.0134646c0,0.158492 0.0157835,0.312913 0.0472087,0.462878 0.031622,0.150902 0.0790472,0.298323 0.142122,0.441874 0.0623858,0.141965 0.135791,0.274602 0.219618,0.397756 0.0845984,0.124283 0.1795,0.238469 0.284102,0.342421 0.104996,0.104358 0.219598,0.197083 0.34348,0.278614 0.124689,0.0820591 0.259366,0.153311 0.403681,0.214169 0.145248,0.0613937 0.292937,0.107681 0.443803,0.138614 0.149539,0.0306654 0.303441,0.0461142 0.462472,0.0461142l0.0268346 0c0.159528,0 0.314559,-0.016622 0.465516,-0.0488622 0.152547,-0.0325827 0.300843,-0.0806614 0.445315,-0.143252 0.144465,-0.0627165 0.278602,-0.136925 0.403256,-0.222335 0.123787,-0.084815 0.237291,-0.180331 0.341398,-0.286283 0.103437,-0.105465 0.195949,-0.220555 0.277433,-0.345433 0.081937,-0.125579 0.152917,-0.261154 0.212839,-0.406878 0.057937,-0.141417 0.102118,-0.286579 0.132016,-0.435957 0.0296496,-0.148157 0.044748,-0.299677 0.044748,-0.455l0 -0.026811c0,-0.15648 -0.0163543,-0.309193 -0.0479843,-0.457614 -0.032374,-0.151921 -0.0808268,-0.300205 -0.144189,-0.444232l0 -0.000413386zm-0.0437598 -0.521193c0.0902795,0.133827 0.169748,0.279008 0.238598,0.435846l0.000153543 -6.69291e-005c0.0690669,0.156996 0.122,0.319177 0.157528,0.485894 0.0349252,0.163886 0.0529843,0.331362 0.0529843,0.50178l0 0.026811c0,0.169295 -0.0165039,0.334693 -0.0489213,0.496669 -0.0321772,0.16076 -0.0805472,0.318992 -0.144512,0.475122 -0.0650433,0.158185 -0.142138,0.305417 -0.231169,0.44187 -0.0894921,0.13715 -0.190894,0.263343 -0.304102,0.378772 -0.113984,0.116008 -0.238012,0.220417 -0.373059,0.312945 -0.134169,0.0919291 -0.280205,0.17252 -0.439091,0.2415 -0.158862,0.0688228 -0.320512,0.12139 -0.485315,0.156591 -0.166402,0.0355394 -0.336165,0.0538622 -0.509681,0.0538622l-0.0268346 0c-0.171154,0 -0.339213,-0.017122 -0.504969,-0.0511142 -0.164433,-0.0337165 -0.325425,-0.0841772 -0.483803,-0.151118 -0.155957,-0.0657677 -0.302024,-0.14311 -0.437846,-0.2325 -0.13663,-0.0899213 -0.262358,-0.191528 -0.376811,-0.305283 -0.114547,-0.113835 -0.218087,-0.238303 -0.309937,-0.373248 -0.0909055,-0.133555 -0.170713,-0.277854 -0.238783,-0.432756 -0.0689409,-0.156902 -0.120819,-0.318224 -0.155461,-0.483543 -0.034752,-0.16585 -0.0522087,-0.334728 -0.0522087,-0.506209l0 -0.0134646c0,-0.171693 0.0162087,-0.339469 0.0488465,-0.503791 0.032622,-0.164252 0.0816772,-0.324697 0.147366,-0.48178 0.0656575,-0.157055 0.142669,-0.30422 0.231717,-0.441252 0.0891811,-0.137232 0.190138,-0.26365 0.303555,-0.378976 0.113894,-0.116256 0.238594,-0.220677 0.373933,-0.31313 0.134921,-0.0921614 0.280819,-0.172657 0.437528,-0.241335 0.157213,-0.0686772 0.318366,-0.121252 0.483535,-0.15661 0.166075,-0.0355512 0.335843,-0.0538819 0.50937,-0.0538819l0.0293425 0c0.171213,0 0.339209,0.0173425 0.50452,0.0513976 0.164098,0.033811 0.324402,0.0842165 0.481469,0.150602 0.157197,0.0663346 0.30389,0.143902 0.439756,0.233256 0.137547,0.0904646 0.26287,0.191791 0.375594,0.304528 0.113346,0.113335 0.21552,0.237433 0.306709,0.372614z"/>
  <path class="fil0" d="M5.70173 3.94011c0.0101102,-0.0436299 0.0189685,-0.0876063 0.026563,-0.131933 0.0218543,-0.127583 0.0329567,-0.258213 0.0329567,-0.392181l0 -0.026811c0,-0.139744 -0.0129291,-0.276047 -0.0380197,-0.408547 -0.00946063,-0.0499567 -0.0206339,-0.0994961 -0.0334843,-0.148594l-0.248709 0.527469 0 0.000417323c-0.00595669,0.0125118 -0.00952362,0.0242205 -0.0107913,0.0351417 -0.00128346,0.0110709 -0.000641732,0.0217717 0.00184252,0.0320787 0.00114961,0.00476378 0.00269685,0.00977953 0.00480709,0.0151378 0.00116929,0.00296457 0.0024685,0.00563386 0.00391339,0.00788976l0.00416929 0.0075 0.256752 0.482433zm0.236555 -0.0960984c-0.0238622,0.139291 -0.0596732,0.276496 -0.107051,0.411906l-0.080185 0.229161 -0.113976 -0.214161 -0.376504 -0.707441c-0.00886614,-0.0140669 -0.0160787,-0.0286811 -0.0220039,-0.0436929 -0.00521654,-0.0132283 -0.00950394,-0.027563 -0.0131378,-0.0426339 -0.00856693,-0.0355315 -0.0109331,-0.0709685 -0.00684252,-0.106244 0.00404331,-0.0347717 0.0139488,-0.0690118 0.0299567,-0.102638l0.000161417 7.48031e-005 0.362909 -0.769673 0.105551 -0.223854 0.0898622 0.230937c0.055126,0.141677 0.0972126,0.287079 0.125362,0.43572 0.0278465,0.147047 0.0421929,0.296449 0.0421929,0.447713l0 0.026811c0,0.144925 -0.0122244,0.287504 -0.0362953,0.428016z"/>
  <path class="fil0" d="M4.63156 1.40787c-0.0380512,-0.0230669 -0.0769449,-0.0451654 -0.116697,-0.0662835 -0.114886,-0.0610394 -0.235409,-0.112555 -0.361937,-0.154291l-0.0254528 -0.00840551c-0.132811,-0.043811 -0.266197,-0.0742402 -0.399563,-0.091878 -0.0505118,-0.0066811 -0.101224,-0.0115906 -0.152102,-0.0147559l0.42311 0.401579c0.00994094,0.0095 0.0200472,0.0165866 0.0302835,0.0213346 0.00949606,0.00440157 0.0199213,0.00703937 0.0312165,0.0079685l-3.93701e-006 3.14961e-005c0.00633465,0.000507874 0.0117165,0.000720472 0.0156654,0.000496063 0.00383858,-0.000216535 0.00695669,-0.000586614 0.00911417,-0.00114173l0.00833071 -0.00208268 0.538035 -0.0925709zm-0.0166969 -0.254614c0.123516,0.065622 0.242543,0.142728 0.357425,0.231016l0.192579 0.148 -0.239244 0.0411614 -0.796264 0.137 -1.1811e-005 -7.48031e-005c-0.0142677,0.00318898 -0.0281063,0.0050315 -0.0415984,0.00580315 -0.0159055,0.000909449 -0.0305866,0.000606299 -0.0444134,-0.000527559l-0.000413386 0c-0.0357165,-0.00294882 -0.0700433,-0.0119094 -0.102886,-0.0271339 -0.0314843,-0.0146024 -0.0607874,-0.0347008 -0.0877795,-0.0605l-0.617472 -0.586051 -0.179484 -0.17035 0.247398 -0.0129803c0.151283,-0.00793307 0.302421,-0.00230709 0.452709,0.0175669 0.148701,0.0196654 0.295197,0.0528622 0.438728,0.100209l0.0254528 0.00840551c0.138339,0.0456339 0.269961,0.101878 0.395276,0.168457z"/>
  <path class="fil0" d="M1.84677 1.66477c-0.138252,0.125106 -0.259992,0.264205 -0.364154,0.415567 -0.102346,0.148724 -0.187622,0.309236 -0.254815,0.479898l0.499783 -0.284051 0.000417323 -0.000417323c0.012311,-0.00693307 0.0220276,-0.0144567 0.0292283,-0.0225197 0.00653937,-0.00732283 0.0119528,-0.0164843 0.0162677,-0.0273819 0.00255512,-0.00647244 0.00437795,-0.011563 0.00511811,-0.014622 0.000775591,-0.00321654 0.00127165,-0.00615354 0.00137795,-0.00870866l0.000417323 -0.00875197 0.0663583 -0.529012zm-0.539146 0.29474c0.165193,-0.240055 0.37152,-0.45202 0.61539,-0.630063l0.198937 -0.145236 -0.0306063 0.243984 -0.0992717 0.791421 -0.000110236 -1.1811e-005c-0.00111417,0.014315 -0.0034252,0.0281654 -0.00668504,0.0416378 -0.00395669,0.0163543 -0.00850787,0.0304409 -0.0134488,0.0429528 -0.0130433,0.0329488 -0.0317283,0.0632402 -0.0562677,0.0907126 -0.0234449,0.026252 -0.0511929,0.0485472 -0.0833937,0.066685l-7.48031e-005 -0.000137795 -0.739657 0.420382 -0.222551 0.126488 0.0675551 -0.246902c0.0798386,-0.291799 0.204441,-0.561063 0.370185,-0.801913z"/>
  <path class="fil0" d="M1.2698 4.37204c0.0185512,0.0411181 0.0382598,0.0815787 0.0591457,0.121382 0.0599921,0.114323 0.130531,0.224772 0.212055,0.331366l0.0162874 0.0212835c0.0861299,0.11261 0.182,0.217496 0.286248,0.312303 0.0359094,0.0326535 0.0727756,0.0640669 0.110528,0.0941535l-0.12439 -0.577949 0 -0.000417323c-0.00281102,-0.0133031 -0.00708661,-0.0246811 -0.012748,-0.034185 -0.0055,-0.00923622 -0.0126378,-0.0173622 -0.0213071,-0.0243898 -0.00347244,-0.00281102 -0.00758268,-0.00572047 -0.0125906,-0.00873622 -0.00335039,-0.00201969 -0.0061378,-0.00348819 -0.00815354,-0.00421654l-0.00791732 -0.00333071 -0.497157 -0.227264zm-0.129185 0.219713c-0.0663386,-0.126425 -0.121366,-0.25711 -0.165559,-0.392102l-0.0754843 -0.230563 0.220898 0.10098 0.730161 0.333776c0.0155118,0.00583465 0.0295315,0.0127598 0.0423976,0.0205118 0.0121024,0.00729134 0.024378,0.0162165 0.0367559,0.0262402 0.0279646,0.0226732 0.0512638,0.0493661 0.0696378,0.0802165 0.0178189,0.0299134 0.0307362,0.0630945 0.0384961,0.099622l8.66142e-005 -1.9685e-005 0.181299 0.842378 0.0520197 0.241689 -0.211598 -0.128776c-0.127858,-0.077815 -0.248161,-0.168571 -0.35952,-0.269835 -0.113413,-0.103142 -0.217941,-0.217547 -0.312083,-0.340634l-0.0162874 -0.0212835c-0.0878976,-0.114929 -0.164823,-0.235673 -0.23122,-0.362201z"/>
  <path class="fil0" d="M3.56555 5.7513c0.0446654,-0.003 0.0893583,-0.00729134 0.134083,-0.0128898 0.130232,-0.0163071 0.258398,-0.0433898 0.384602,-0.0816299l0.0256614 -0.00778346c0.132878,-0.0402638 0.259524,-0.0922283 0.37976,-0.155043 0.0449488,-0.0234803 0.089126,-0.0485906 0.132528,-0.0752795l-0.576724 -0.0850039 -0.000417323 0c-0.0143228,-0.00216929 -0.0267283,-0.00225591 -0.0372559,-0.000358268 -0.0103465,0.00186614 -0.0203268,0.00566535 -0.0299252,0.0113031 -0.00489764,0.00287402 -0.00922835,0.00570079 -0.0127126,0.00842913l0.000161417 0.000200787c-0.00290945,0.00230709 -0.00530709,0.00448819 -0.00700787,0.00648031l-0.00583465 0.00624803 -0.386917 0.385327zm0.159917 0.198772c-0.139512,0.0174685 -0.281012,0.0229449 -0.424646,0.0168701l-0.242921 -0.0102756 0.172091 -0.171386 0.569437 -0.567098c0.0104921,-0.0118898 0.021685,-0.0223189 0.0333858,-0.0315984l0.000417323 0c0.0121378,-0.00961024 0.0245551,-0.0179173 0.0371339,-0.0252992 0.0310669,-0.0182402 0.0643701,-0.0307087 0.0999252,-0.0371299 0.0347441,-0.00626772 0.0702244,-0.00679134 0.106421,-0.00131102l-7.87402e-006 5.90551e-005 0.841811 0.124079 0.245394 0.0361693 -0.19498 0.152992c-0.118717,0.0931496 -0.245744,0.175516 -0.380941,0.246142 -0.131937,0.0689252 -0.270807,0.125917 -0.416429,0.170043l-0.0256614 0.00778346c-0.140705,0.0426339 -0.280776,0.0724764 -0.420429,0.0899606z"/>
  <path class="fil0" d="M3.71745 2.5829c-0.00740945,-0.00981102 -0.0145,-0.0164882 -0.021248,-0.0201181 -0.00455906,-0.00244882 -0.0102362,-0.00365354 -0.0169803,-0.00365354l0 -0.000417323c-0.00448031,-3.93701e-006 -0.00875984,0.000291339 -0.0127047,0.00100787 -0.00277165,0.000503937 -0.00547244,0.00127953 -0.00805906,0.00240157l-0.00916535 0.00375197 -0.933921 0.306157c-0.0150512,0.00492126 -0.0248976,0.0108307 -0.0296457,0.0176929 -0.0055748,0.00805512 -0.00821654,0.021126 -0.00800787,0.0390669l0.0118504 0.984531c0.000200787,0.0150512 0.00437402,0.0289606 0.0118858,0.0392913 0.00407087,0.00560236 0.00945276,0.00964961 0.0157362,0.0110157l0.00958268 0.00291732 0.921685 0.294248 0.0104173 0.00375197c0.00162205,0.000704724 0.00412205,0.00132677 0.00722835,0.00187008 0.00358661,0.000625984 0.00808268,0.000870079 0.0131181,0.000870079 0.00740157,0 0.0134921,-0.00118898 0.0180906,-0.00365354 0.00608661,-0.00325591 0.0125315,-0.00938583 0.0193031,-0.0185748l0.000417323 -0.000417323 0.590248 -0.79889c0.00547638,-0.00991732 0.00972047,-0.0195236 0.0125591,-0.0286181 0.00214961,-0.00688583 0.00329528,-0.0132756 0.00329528,-0.0189764 0,-0.00341732 -0.000952756,-0.00779921 -0.00273228,-0.0130591 -0.00285433,-0.00843307 -0.00679921,-0.0172126 -0.0117047,-0.0263465l-0.590835 -0.775433 -0.000413386 -0.000417323zm0.0795787 -0.207614c0.0340551,0.018311 0.0642559,0.0446496 0.0904134,0.0792835l-5.90551e-005 4.72441e-005 0.594177 0.779823 0.00749606 0.0116693c0.0142205,0.0246535 0.0253898,0.0481732 0.0330079,0.0706575 0.00939764,0.0277283 0.0144016,0.0547874 0.0144016,0.0813898 0,0.0268937 -0.00461417,0.0545079 -0.0132953,0.0823071 -0.00794488,0.0254606 -0.0194961,0.0510197 -0.0341142,0.0761496l-0.00666535 0.01 -0.594185 0.80422 7.08661e-005 5.11811e-005c-0.0259173,0.0351772 -0.0564488,0.0617638 -0.0909646,0.0802441 -0.0371496,0.0198937 -0.076689,0.0294882 -0.118091,0.0294882 -0.0159291,0 -0.0324213,-0.00116535 -0.0497874,-0.00420866 -0.0166024,-0.00291339 -0.0337441,-0.00774409 -0.0515787,-0.0151732l-0.907146 -0.289606c-0.0600709,-0.0134488 -0.108114,-0.0477402 -0.141752,-0.0940157 -0.032878,-0.0452283 -0.0510906,-0.102445 -0.0518858,-0.161795l-0.0118504 -0.984531c-0.000740157,-0.0630709 0.0142756,-0.117268 0.0455118,-0.16239 0.0320591,-0.0463228 0.0781969,-0.0795433 0.138803,-0.0993622l0.933878 -0.306142c0.015248,-0.00590157 0.0304528,-0.010063 0.0456063,-0.0128307 0.0170079,-0.00309843 0.0337244,-0.0043622 0.0502008,-0.00434646l0 -0.000417323c0.0417047,0 0.0810197,0.00970079 0.117807,0.0294882z"/>
  <polygon class="fil0" points="3.62731,2.39952 3.91147,1.5408 4.11396,1.60746 3.82981,2.46618 "/>
  <polygon class="fil0" points="4.43865,3.29965 5.34311,3.30815 5.34144,3.52065 4.43698,3.51215 "/>
  <polygon class="fil0" points="3.81644,4.35247 4.06829,5.20547 3.86413,5.26547 3.61228,4.41247 "/>
  <polygon class="fil0" points="2.68091,4.10307 1.95668,4.64914 1.82835,4.47915 2.55258,3.93308 "/>
  <polygon class="fil0" points="2.51407,2.91276 1.77396,2.39277 1.89646,2.21861 2.63657,2.73861 "/>
 </g>
 <g id="Layer_x0020_1_0">
  <metadata id="CorelCorpID_1Corel-Layer"/>
  <rect class="fil1" width="6.82666" height="6.82666"/>
 </g>
</svg>
