<?xml version="1.0" encoding="UTF-8"?>
<!DOCTYPE svg PUBLIC "-//W3C//DTD SVG 1.1//EN" "http://www.w3.org/Graphics/SVG/1.1/DTD/svg11.dtd">
<!-- Creator: CorelDRAW -->
<svg xmlns="http://www.w3.org/2000/svg" xml:space="preserve" width="6.82666in" height="6.82666in" style="shape-rendering:geometricPrecision; text-rendering:geometricPrecision; image-rendering:optimizeQuality; fill-rule:evenodd; clip-rule:evenodd"
viewBox="0 0 6.82666 6.82666"
 xmlns:xlink="http://www.w3.org/1999/xlink">
 <defs>
  <style type="text/css">
   <![CDATA[
    .fil1 {fill:none}
    .fil0 {fill:#212121;fill-rule:nonzero}
   ]]>
  </style>
 </defs>
 <g id="Layer_x0020_1">
  <metadata id="CorelCorpID_0Corel-Layer"/>
  <path class="fil0" d="M4.06361 1.65306c0.0399843,0 0.0762165,-0.00684646 0.108681,-0.0205157 0.0328976,-0.0138504 0.064185,-0.035622 0.0938465,-0.0652835l0.000417323 0c0.0289606,-0.0289409 0.0504567,-0.0603465 0.0644685,-0.0941969 0.0139567,-0.0337165 0.020937,-0.0714567 0.020937,-0.113197 0,-0.0417402 -0.00698031,-0.0794843 -0.020937,-0.113201 -0.0140118,-0.0338504 -0.0355079,-0.0652559 -0.0644685,-0.0941969l-0.000417323 -0.000417323c-0.0291811,-0.0292008 -0.0604528,-0.0508268 -0.0938031,-0.0648701 -0.0324724,-0.0136732 -0.0687244,-0.0205118 -0.108724,-0.0205118 -0.0399882,0 -0.0762283,0.00683858 -0.108697,0.0205118 -0.0333425,0.0140433 -0.0646181,0.0356732 -0.0937953,0.0648701l-0.000417323 0.000417323c-0.0289567,0.0289331 -0.0504449,0.0603386 -0.0644528,0.094185 -0.0139528,0.0337126 -0.0209291,0.0714567 -0.0209291,0.113213 0,0.041752 0.00697638,0.0795 0.0209291,0.113209 0.0140079,0.0338465 0.0354961,0.065252 0.0644528,0.094185l0.000417323 0c0.0296654,0.0296654 0.0609606,0.0514409 0.0938543,0.0652953 0.0331142,0.0139488 0.0693386,0.0209252 0.108638,0.0209213l0 -0.000417323zm0.191185 0.175319c-0.0601693,0.0253386 -0.123906,0.0380197 -0.191185,0.0380197l0 -0.000417323c-0.0679134,7.87402e-006 -0.131646,-0.0125276 -0.191142,-0.0375906 -0.0597677,-0.0251732 -0.113843,-0.0619528 -0.162185,-0.110295l0.000208661 -0.000208661c-0.0489724,-0.0489843 -0.0859488,-0.103657 -0.110913,-0.163976 -0.0250669,-0.0605669 -0.0375984,-0.125256 -0.0375984,-0.194043 0,-0.0687874 0.0125315,-0.13348 0.0375984,-0.194047 0.0249291,-0.0602323 0.0618386,-0.114835 0.110705,-0.163768l0.000208661 -0.000208661 0.000208661 -0.000208661c0.048689,-0.0486299 0.102606,-0.0853898 0.161709,-0.110287 0.0601772,-0.0253425 0.123925,-0.0380157 0.191201,-0.0380157 0.0672913,0 0.131043,0.0126693 0.191228,0.0380157 0.0591102,0.0248937 0.113024,0.0616614 0.161717,0.110287l0.000208661 0.000208661 0.000208661 0.000208661c0.048874,0.048937 0.0857835,0.103539 0.11072,0.16378 0.0250709,0.0605591 0.0376063,0.125248 0.0376063,0.194035 0,0.0687874 -0.0125354,0.133472 -0.0376063,0.194031 -0.0249724,0.0603268 -0.0619528,0.115 -0.110929,0.163988l0.000208661 0.000208661c-0.0483386,0.0483386 -0.102409,0.0851142 -0.162177,0.110283z"/>
  <path class="fil0" d="M5.67928 5.47133l-0.643681 -0.760693 -0.023748 -0.0504173c-0.0160236,-0.0915787 -0.0374409,-0.216295 -0.0588386,-0.340909 -0.0934843,-0.544488 -0.187031,-1.08932 -0.319843,-1.62204l-0.0606575 -0.243295 0.217327 0.125795c0.282854,0.163724 0.357992,0.330339 0.466445,0.570843 0.0325669,0.0722165 0.068374,0.151614 0.110783,0.232803l0.000834646 0.00166535c0.0189488,0.0378543 0.0544291,0.0520472 0.0888661,0.049126 0.015622,-0.00132677 0.0306102,-0.00544882 0.0438346,-0.0119409 0.0129724,-0.00636614 0.0245551,-0.0149449 0.0336457,-0.0252992 0.0196811,-0.0224134 0.0262323,-0.0572441 0.00544882,-0.10024l-0.000149606 7.87402e-005c-0.00511024,-0.00968504 -0.0325906,-0.0633425 -0.067622,-0.131748 -0.107587,-0.210106 -0.298957,-0.583807 -0.348417,-0.655059l-0.605067 -0.302528 -0.00015748 0.000338583c-0.0107756,-0.00502362 -0.0191142,-0.0087126 -0.0250433,-0.0110827 -0.116098,-0.0464055 -0.256602,-0.0530472 -0.380831,-0.0217795 -0.115382,0.0290394 -0.213594,0.090622 -0.256425,0.182465l-0.000413386 0c-0.00198425,0.00425984 -0.00376772,0.00835039 -0.00532677,0.0122559l-0.00625197 0.0133346 -0.393358 0.695079 -0.0216496 0.0382559 -0.0429331 0.0117441 -0.56026 0.153283 -0.0179173 0.00333465c-0.0446732,0.00427165 -0.0687047,0.0274213 -0.0764567,0.0551417 -0.0046378,0.0165787 -0.0050748,0.0353898 -0.00181102,0.0542638 0.00325984,0.0188543 0.0102087,0.0367598 0.0203346,0.0515827 0.0162402,0.0237677 0.0435433,0.0385709 0.078437,0.0298583l3.54331e-005 0.000133858 0.725508 -0.200429 0.234736 -0.367902 0.193748 0.035c0.0455709,0.213791 0.0707283,0.330307 0.0863898,0.400362 0.019374,0.0866457 0.0321575,0.140134 0.0493701,0.211587l0.0136535 0.0566732 -0.0407362 0.0420748 -0.594913 0.614398 -0.005 0.005c-0.0232283,0.0208898 -0.0399843,0.0411024 -0.050252,0.0606142 -0.00790945,0.0150276 -0.0118661,0.0301929 -0.0118661,0.0454803l0 1.24838c0,0.0639567 0.0346811,0.104453 0.0790591,0.121783 0.0192717,0.00752756 0.0408465,0.0112913 0.0629724,0.0112913 0.022122,0 0.0437008,-0.00376378 0.0629724,-0.0112913 0.044378,-0.0173307 0.0790551,-0.0578189 0.0790551,-0.121783l0 -1.04354 0 -0.0463465 0.0350039 -0.0319882c0.135283,-0.12363 0.269713,-0.272035 0.38826,-0.402909 0.0776929,-0.0857677 0.149028,-0.16452 0.202843,-0.218335l0.121524 -0.121528 0.0547283 0.163193c0.00487795,0.0145512 0.0110197,0.0412244 0.0184055,0.0799803 0.00688189,0.0360984 0.0151654,0.0831299 0.0248386,0.141087l0 0.000417323c0.0113937,0.0685394 0.0262323,0.153606 0.0429173,0.247583 0.0263071,0.148157 0.0363189,0.203638 0.0439488,0.245551 0.00437402,0.0190945 0.0106732,0.0363504 0.0188819,0.051748 0.00792126,0.0148543 0.0179291,0.0283307 0.0300118,0.0404094l0.0316693 0.0316535 0 0.0437638c0,0.0226457 0.0557323,0.031685 0.167189,0.162902 0.13224,0.155685 0.324701,0.380661 0.577402,0.674965l-5.11811e-005 4.33071e-005c0.045315,0.0511811 0.0976772,0.0613189 0.141031,0.0469252 0.0184016,-0.00611024 0.0360551,-0.0165591 0.0517205,-0.0301772 0.0153425,-0.0133425 0.0281654,-0.0295787 0.0372835,-0.0475748 0.021185,-0.041815 0.0200945,-0.0949921 -0.0210197,-0.142988l-0.000417323 -0.000413386zm-0.462354 -0.875953l0.624858 0.738449 -3.93701e-005 3.54331e-005c0.105394,0.123366 0.106051,0.264031 0.0489724,0.376705 -0.0216339,0.0427047 -0.0519291,0.0811102 -0.0881181,0.112575 -0.0358583,0.0311772 -0.0781811,0.0557283 -0.124217,0.0710118 -0.118929,0.0394882 -0.257331,0.0174449 -0.368484,-0.109472l-0.000834646 -0.000834646c-0.260906,-0.303862 -0.453673,-0.529146 -0.578236,-0.675791 -0.0861732,-0.101449 -0.146799,-0.177937 -0.181882,-0.229484l-0.00447244 0.00449606c-0.0269291,-0.0269173 -0.049437,-0.0573386 -0.0675157,-0.0912441 -0.0175512,-0.0329173 -0.0306378,-0.0687835 -0.039252,-0.107559l-0.000830709 -0.00416535c-0.0224724,-0.123445 -0.0426614,-0.234354 -0.0452441,-0.248906 -0.0126181,-0.0710709 -0.0264409,-0.151028 -0.0424803,-0.247449 -0.0180787,0.0198228 -0.0364606,0.040122 -0.0552717,0.0608858 -0.111594,0.123197 -0.236913,0.261543 -0.367429,0.384571l0 0.997713c0,0.166189 -0.094252,0.273008 -0.21489,0.320114 -0.0448937,0.0175315 -0.0929685,0.0262992 -0.140476,0.0262992 -0.0475079,0 -0.0955827,-0.00876772 -0.140476,-0.0262992 -0.120638,-0.0471142 -0.214894,-0.153933 -0.214894,-0.320114l0 -1.24838c0,-0.0497126 0.0122874,-0.097937 0.036874,-0.144646 0.0219961,-0.0418031 0.0536102,-0.0813583 0.094815,-0.118638l0.550476 -0.568508c-0.0118543,-0.0496535 -0.022685,-0.0960276 -0.0365866,-0.158201 -0.0100551,-0.0449685 -0.0206732,-0.0931299 -0.0327677,-0.148713l-0.117512 0.184177 -0.061248 0.0454173 -0.767217 0.211953 -0.0025 0.000834646c-0.136102,0.0339843 -0.242579,-0.0237913 -0.305941,-0.116528 -0.0275276,-0.0402953 -0.0461339,-0.0873661 -0.0545,-0.135748 -0.0083622,-0.0483583 -0.00652362,-0.0990906 0.00681102,-0.146768 0.0293661,-0.104988 0.109539,-0.192094 0.251933,-0.209102l0.508933 -0.13924 0.368854 -0.651787c0.00224016,-0.0053189 0.00452756,-0.0104724 0.00685433,-0.0154724l-0.000338583 -0.00015748c0.0722598,-0.154945 0.223937,-0.255303 0.398087,-0.299134 0.165307,-0.0416063 0.35402,-0.0320709 0.511665,0.0309449 0.0147008,0.00587795 0.0267008,0.0109803 0.035878,0.0152559l0.0025 0.00166535 0.627882 0.313933 0.0279173 0.02c0.054752,0.0548189 0.274413,0.483783 0.394508,0.718311 0.0261929,0.0511457 0.0467047,0.0912008 0.0667874,0.129252l0.000834646 0.00208268c0.0673819,0.134693 0.038563,0.254083 -0.0344646,0.337244 -0.0278425,0.0317087 -0.0623307,0.0574843 -0.100315,0.0761339 -0.0377362,0.0185236 -0.0786614,0.0301299 -0.119661,0.0336102 -0.113606,0.00964567 -0.231201,-0.0380984 -0.29552,-0.164972l-1.5748e-005 7.87402e-006c-0.0493819,-0.0945394 -0.0845866,-0.172606 -0.116618,-0.24363 -0.0480709,-0.106598 -0.0884252,-0.196051 -0.14798,-0.275654 0.097374,0.438689 0.17315,0.879965 0.248874,1.32102 0.0163465,0.0952205 0.0326811,0.19035 0.0539134,0.311902z"/>
  <path class="fil0" d="M1.06559 1.49963c0.201047,-0.194437 0.508693,-0.184854 0.764295,-0.0585394 0.088437,0.0437047 0.171035,0.101547 0.240673,0.169622 0.0716693,0.0700591 0.130016,0.150945 0.167724,0.238665 0.0916457,0.213201 0.0668622,0.460969 -0.170472,0.688654 -0.237685,0.228031 -0.488181,0.24289 -0.698953,0.142724 -0.0868701,-0.0412795 -0.165626,-0.102311 -0.232575,-0.175831 -0.0653504,-0.0717598 -0.120087,-0.156319 -0.160496,-0.246512 -0.115547,-0.257886 -0.112709,-0.562917 0.0898031,-0.758783zm0.67013 0.132295c-0.181913,-0.0898976 -0.393906,-0.103453 -0.522626,0.0210354 -0.129854,0.125594 -0.125177,0.335689 -0.0431417,0.518783 0.0309764,0.0691417 0.0732126,0.13426 0.123835,0.18985 0.0490157,0.0538268 0.105283,0.0978504 0.165906,0.126657 0.135106,0.0642047 0.299228,0.0512795 0.460614,-0.103551 0.160807,-0.154268 0.180429,-0.315559 0.122142,-0.451157 -0.0266535,-0.0620039 -0.0685,-0.119768 -0.12022,-0.170327 -0.053752,-0.0525433 -0.117768,-0.0973189 -0.186508,-0.131291z"/>
  <polygon class="fil0" points="2.06798,2.3857 2.86008,3.1877 2.70841,3.33687 1.91631,2.53487 "/>
  <path class="fil0" d="M1.57978 3.13494c0.101398,0 0.193224,0.0411181 0.259689,0.107583 0.0664646,0.0664646 0.107579,0.158291 0.107579,0.259689 0,0.101398 -0.0411181,0.193224 -0.107583,0.259689 -0.0664646,0.0664646 -0.158287,0.107579 -0.259685,0.107579 -0.101398,0 -0.193224,-0.0411142 -0.259689,-0.107579 -0.0664646,-0.0664646 -0.107583,-0.158291 -0.107583,-0.259689 0,-0.101406 0.0411181,-0.193228 0.107583,-0.259689 0.0664606,-0.0664646 0.15828,-0.107583 0.259689,-0.107583zm0.108854 0.258417c-0.0278465,-0.0278465 -0.0663386,-0.0450787 -0.108854,-0.0450787 -0.0425157,0 -0.0810079,0.0172283 -0.108854,0.0450787 -0.0278504,0.0278465 -0.0450787,0.0663386 -0.0450787,0.108854 0,0.0425157 0.0172323,0.0810079 0.0450787,0.108854 0.0278465,0.0278465 0.0663386,0.0450748 0.108854,0.0450748 0.0425157,0 0.0810039,-0.0172283 0.10885,-0.0450748 0.0278465,-0.0278465 0.0450787,-0.0663386 0.0450787,-0.108854 0,-0.0425157 -0.0172283,-0.0810079 -0.0450748,-0.108854z"/>
  <rect class="fil1" width="6.82666" height="6.82666"/>
 </g>
</svg>
