<?xml version="1.0" encoding="utf-8"?>
<!-- Generator: Adobe Illustrator 24.3.0, SVG Export Plug-In . SVG Version: 6.00 Build 0)  -->
<svg version="1.1" id="Layer_1" xmlns="http://www.w3.org/2000/svg" xmlns:xlink="http://www.w3.org/1999/xlink" x="0px" y="0px"
	 viewBox="0 0 32 32" enable-background="new 0 0 32 32" xml:space="preserve">
<g>
	<g>
		<path d="M24.252,26.172c-0.116,0-0.231-0.04-0.326-0.121L6.401,10.99c-0.686-0.575-1.104-1.424-1.143-2.324S5.563,6.885,6.2,6.248
			c1.371-1.375,3.621-1.227,4.789,0.164l15.057,17.52c0.171,0.198,0.159,0.495-0.025,0.68l-1.415,1.414
			C24.508,26.123,24.38,26.172,24.252,26.172z M8.521,6.261c-0.594,0-1.151,0.231-1.571,0.651C6.461,7.4,6.23,7.993,6.258,8.623
			s0.309,1.2,0.791,1.605L24.227,24.99l0.759-0.758L10.228,7.06C9.8,6.551,9.179,6.261,8.521,6.261z"/>
	</g>
	<g>
		<path d="M25.105,28.738c-0.476,0-0.923-0.186-1.259-0.521c-0.354-0.354-0.54-0.801-0.54-1.276s0.186-0.923,0.521-1.259
			l1.848-1.848c0.672-0.672,1.846-0.672,2.518,0c0.713,0.713,0.713,1.842,0.019,2.536l-1.848,1.847
			C26.028,28.553,25.581,28.738,25.105,28.738z M26.935,24.312c-0.208,0-0.404,0.081-0.552,0.229l-1.848,1.848
			c-0.147,0.147-0.229,0.344-0.229,0.552s0.081,0.404,0.229,0.552c0.332,0.33,0.827,0.312,1.122,0.018l1.848-1.847
			c0.147-0.147,0.229-0.344,0.229-0.552s-0.081-0.404-0.229-0.552C27.339,24.394,27.143,24.312,26.935,24.312z"/>
	</g>
</g>
</svg>
