<?xml version="1.0" encoding="UTF-8"?>
<!DOCTYPE svg PUBLIC "-//W3C//DTD SVG 1.1//EN" "http://www.w3.org/Graphics/SVG/1.1/DTD/svg11.dtd">
<!-- Creator: CorelDRAW -->
<svg xmlns="http://www.w3.org/2000/svg" xml:space="preserve" width="6.82666in" height="6.82666in" style="shape-rendering:geometricPrecision; text-rendering:geometricPrecision; image-rendering:optimizeQuality; fill-rule:evenodd; clip-rule:evenodd"
viewBox="0 0 6.82666 6.82666"
 xmlns:xlink="http://www.w3.org/1999/xlink">
 <defs>
  <style type="text/css">
   <![CDATA[
    .fil1 {fill:none}
    .fil0 {fill:#212121;fill-rule:nonzero}
   ]]>
  </style>
 </defs>
 <g id="Layer_x0020_1">
  <metadata id="CorelCorpID_0Corel-Layer"/>
  <path class="fil0" d="M4.25776 1.51378c0,0.235642 -0.0955354,0.449012 -0.249988,0.603461 -0.154445,0.154449 -0.367819,0.249988 -0.603461,0.249988 -0.235295,0 -0.448634,-0.0957047 -0.603303,-0.250417 -0.154409,-0.154453 -0.249933,-0.367677 -0.249933,-0.603031 0,-0.235559 0.0955315,-0.44887 0.249945,-0.603283 0.154413,-0.154413 0.367732,-0.249941 0.603291,-0.249941l2.3622e-005 0c0.235354,0 0.448575,0.0955276 0.60302,0.249937 0.154449,0.154409 0.249984,0.367717 0.249988,0.603264l0.000417323 0 0 2.3622e-005zm-0.400823 0.452626c0.115835,-0.115831 0.187484,-0.275866 0.187484,-0.452626l0 -2.3622e-005 0.000417323 0c0,-0.17665 -0.0716535,-0.33663 -0.187484,-0.452429 -0.115823,-0.115795 -0.275988,-0.187433 -0.45302,-0.187433l-2.3622e-005 0c-0.176677,0 -0.336657,0.0716378 -0.452457,0.187437 -0.115799,0.115799 -0.187441,0.275776 -0.187441,0.452449 0,0.177039 0.0716339,0.337205 0.187429,0.453031 0.115547,0.115579 0.275516,0.187079 0.452469,0.187079 0.17676,0 0.336795,-0.0716496 0.452626,-0.187484z"/>
  <path class="fil0" d="M2.77334 3.94666l0 0.746665c0,0.0579173 -0.0461614,0.105051 -0.103701,0.106626 -0.0763071,0.00574016 -0.158445,0.00982677 -0.236185,0.0136929 -0.158783,0.00789764 -0.297484,0.0147992 -0.402079,0.0415433 -0.0570669,0.0144961 -0.115091,-0.0200157 -0.129587,-0.0770827 -0.0120748,-0.0475315 0.00985827,-0.0957205 0.0504921,-0.118874 0.127961,-0.0874843 0.240843,-0.205378 0.341728,-0.33576 0.105787,-0.13672 0.197984,-0.286311 0.280579,-0.429728 0.0292244,-0.0508543 0.0941457,-0.0683898 0.145,-0.0391654 0.0341457,0.019622 0.0532717,0.0553386 0.0533031,0.0920827l0.000448819 0zm-0.213339 0.647161l0 -0.274677c-0.0313031,0.045626 -0.063815,0.0905827 -0.0976614,0.134327 -0.0407874,0.0527126 -0.0835591,0.103768 -0.128547,0.152272 0.0291811,-0.00159449 0.0590748,-0.00308268 0.0896614,-0.00460236 0.0433189,-0.00215354 0.0881614,-0.00438189 0.136547,-0.0073189z"/>
  <path class="fil0" d="M4.24883 4.31915l0 0.274677c0.0483858,0.00293701 0.0932283,0.00516535 0.136547,0.0073189 0.0305866,0.00151969 0.0604803,0.00300787 0.0896614,0.00460236 -0.0449882,-0.0485039 -0.0877598,-0.0995591 -0.128547,-0.152272 -0.0338465,-0.0437441 -0.0663583,-0.0887008 -0.0976614,-0.134327zm-0.213339 0.374181l0 -0.746665 0.000448819 0c3.14961e-005,-0.0367441 0.0191575,-0.0724606 0.0533031,-0.0920827 0.0508543,-0.0292244 0.115776,-0.011689 0.145,0.0391654 0.0825945,0.143417 0.174791,0.293008 0.280579,0.429728 0.100886,0.130382 0.213768,0.248276 0.341728,0.33576 0.0406339,0.0231535 0.0625669,0.0713425 0.0504921,0.118874 -0.0144961,0.0570669 -0.0725197,0.0915787 -0.129587,0.0770827 -0.104594,-0.0267441 -0.243295,-0.0336457 -0.402079,-0.0415433 -0.0777402,-0.00386614 -0.159878,-0.00795276 -0.236185,-0.0136929 -0.0575394,-0.0015748 -0.103701,-0.0487087 -0.103701,-0.106626z"/>
  <path class="fil0" d="M2.96057 2.74009c-0.262535,0.156874 -0.436087,0.46963 -0.619795,0.800709l-0.00046063 0.000826772c-0.107236,0.193496 -0.216299,0.390248 -0.342516,0.553831 -0.134256,0.173992 -0.286976,0.309094 -0.474657,0.362874 -0.0409094,0.0117205 -0.0745197,0.0350906 -0.0980236,0.0650866 -0.023689,0.0302283 -0.0375945,0.0671063 -0.0388189,0.1055l0.000362205 0 0 0.0107362c0,0.00183071 -4.72441e-005,0.00364961 -0.000137795,0.00545276 0.000338583,0.00562598 0.000952756,0.0113346 0.00185827,0.0170945 0.00101969,0.00650394 0.00292913,0.0144488 0.00576378,0.0238622 0.0118189,0.0393661 0.0362323,0.0720354 0.0677874,0.0950906 0.0327008,0.0238898 0.0732913,0.0374094 0.115827,0.0374094 0.00359449,0 0.00714567,0.000181102 0.0106457,0.000527559 0.0262598,0.000228346 0.0451299,-0.000547244 0.0608504,-0.00240551 0.0134843,-0.00159055 0.0234646,-0.00412205 0.0345945,-0.00769685 0.0281969,-0.00904724 0.0564724,-0.0267402 0.0939724,-0.0502047l0.00215748 -0.00134646c0.0406969,-0.0270118 0.0885079,-0.0547441 0.144689,-0.083063 0.010937,-0.00558661 0.0224488,-0.0113189 0.0345945,-0.0172008 0.0529252,-0.0255433 0.116543,-0.00334252 0.142087,0.0495827 0.0255433,0.0529252 0.00334252,0.116543 -0.0495827,0.142087 -0.0723465,0.0350315 -0.121598,0.0658504 -0.161441,0.0907756l-0.00641732 0.00401181c-0.0351614,0.0244724 -0.0618583,0.0475157 -0.0819921,0.0691378 -0.0336181,0.0361024 -0.0448543,0.0650472 -0.0477756,0.0885 -0.00662205,0.0534843 -0.00148425,0.106181 0.0146496,0.155654 0.0165039,0.0505984 0.0441929,0.0982244 0.0822756,0.140382l0.000181102 0.000208661 0.000232283 -0.000208661c0.00264173,0.00292913 0.00566535,0.00592913 0.00905118,0.00898031 0.178299,0.160819 0.857547,0.241232 1.54388,0.241232 0.686335,0 1.36558,-0.0804134 1.54388,-0.241232 0.00338583,-0.00305118 0.00640945,-0.00605118 0.00905118,-0.00898031 0.00165748,-0.00184252 0.00337402,-0.00361024 0.00512598,-0.00531102 0.0356575,-0.0408307 0.061748,-0.0865827 0.077563,-0.135071 0.0161339,-0.0494724 0.0212717,-0.102169 0.0146496,-0.155654 -0.00292126,-0.0234528 -0.0141575,-0.0523976 -0.0477756,-0.0885 -0.0201339,-0.021622 -0.0468307,-0.0446654 -0.0819921,-0.0691378l-0.00641732 -0.00401181c-0.0398425,-0.0249252 -0.0890945,-0.0557441 -0.161441,-0.0907756l7.87402e-005 -0.000165354c-0.0526811,-0.0254213 -0.0749173,-0.0886929 -0.0496614,-0.141504 0.025311,-0.0529252 0.0887441,-0.075311 0.141669,-0.05l0.000338583 0.000161417 7.87402e-005 -0.000161417c0.0121457,0.00588189 0.0236575,0.0116142 0.0345945,0.0172008 0.0561811,0.0283189 0.103988,0.0560472 0.144689,0.083063l0.00215748 0.00134646c0.0375,0.0234646 0.0657756,0.0411575 0.0939724,0.0502047 0.0111299,0.0035748 0.0211102,0.0061063 0.0345945,0.00769685 0.0174567,0.00206299 0.0387992,0.00279528 0.0698307,0.00229528l0.00166535 -3.93701e-006 0 -0.000413386c0.0425354,0 0.083126,-0.0135197 0.115827,-0.0374094 0.0315551,-0.0230551 0.0559685,-0.0557244 0.0677874,-0.0950906 0.00283465,-0.00941339 0.00474409,-0.0173583 0.00576378,-0.0238622 0.00119685,-0.00762992 0.00188976,-0.0151614 0.00209843,-0.0225472l-0.000377953 0 0 -0.0107362c0,-0.00172047 4.33071e-005,-0.0034252 0.000125984,-0.00512598 -0.00224409,-0.0365394 -0.0159488,-0.0714961 -0.0385827,-0.100374 -0.0235039,-0.0299961 -0.0571142,-0.0533661 -0.0980236,-0.0650866 -0.187681,-0.0537795 -0.340402,-0.188882 -0.474657,-0.362874 -0.126217,-0.163583 -0.23528,-0.360335 -0.342516,-0.553831l-0.00046063 -0.000826772c-0.183709,-0.331079 -0.35726,-0.643835 -0.619795,-0.800709 -0.0841811,-0.050626 -0.261854,-0.075937 -0.443843,-0.075937 -0.181988,0 -0.359661,0.025311 -0.443843,0.075937zm-0.80563 0.697378c0.197949,-0.356744 0.384961,-0.693748 0.696465,-0.879882 0.118358,-0.0711811 0.337843,-0.106772 0.553008,-0.106772 0.215165,0 0.43465,0.0355906 0.553008,0.106772 0.311504,0.186134 0.498516,0.523138 0.696465,0.879882l0.00046063 0.000826772c0.10335,0.186488 0.208457,0.376102 0.325012,0.527161 0.108524,0.140646 0.227236,0.248496 0.364657,0.287874 0.0853386,0.0244528 0.156453,0.0744882 0.207197,0.139252 0.0497953,0.0635472 0.0795472,0.141406 0.0834961,0.223291 0.000523622,0.00427559 0.000795276,0.00862598 0.000795276,0.0130433l0 0.0107362 -0.000413386 0 -3.93701e-006 0.00166535c-0.000330709,0.0178071 -0.00185433,0.0356457 -0.00464173,0.0533858 -0.00296063,0.0188465 -0.00681496,0.036315 -0.0115984,0.0521929 -0.0257283,0.085689 -0.0783268,0.156394 -0.146118,0.205925 -0.0620866,0.0453661 -0.136756,0.0730315 -0.214961,0.0781929 0.00407087,0.015311 0.00680709,0.0301299 0.00858661,0.0444173 0.0104213,0.084189 0.00207874,0.167929 -0.023815,0.247323 -0.024626,0.0755039 -0.0654331,0.146776 -0.121323,0.210366 -0.00174016,0.00227953 -0.00358661,0.00451575 -0.00553937,0.00668504 -0.00766535,0.00849606 -0.0159685,0.0167756 -0.024878,0.0248071 -0.218957,0.197492 -0.95622,0.29624 -1.68639,0.29624 -0.730165,0 -1.46743,-0.098748 -1.68639,-0.29624 -0.00890945,-0.0080315 -0.0172126,-0.016311 -0.024878,-0.0248071l0.000228346 -0.000204724c-0.0588583,-0.0652126 -0.101626,-0.138768 -0.127091,-0.216846 -0.0258937,-0.0793937 -0.0342362,-0.163134 -0.023815,-0.247323 0.00177953,-0.0142874 0.00451575,-0.0291102 0.00858661,-0.0444173 -0.0782047,-0.00516142 -0.152874,-0.0328268 -0.214961,-0.0781929 -0.0677913,-0.0495315 -0.12039,-0.120236 -0.146118,-0.205925 -0.00478346,-0.015878 -0.0086378,-0.0333465 -0.0115984,-0.0521929 -0.00219685,-0.0139803 -0.0036063,-0.0280236 -0.00426772,-0.042063 -0.000515748,-0.00425591 -0.000791339,-0.00859055 -0.000791339,-0.0129882l0 -0.0107362 0.000401575 0 1.5748e-005 -0.00208268c0.0017126,-0.0858898 0.0318622,-0.167874 0.083874,-0.234252 0.0507441,-0.0647638 0.121858,-0.114799 0.207197,-0.139252 0.137421,-0.039378 0.256134,-0.147228 0.364657,-0.287874 0.116555,-0.151059 0.221661,-0.340673 0.325012,-0.527161l0.00046063 -0.000826772z"/>
  <rect class="fil1" width="6.82666" height="6.82666"/>
 </g>
</svg>
