<?xml version="1.0" encoding="UTF-8"?>
<!DOCTYPE svg PUBLIC "-//W3C//DTD SVG 1.1//EN" "http://www.w3.org/Graphics/SVG/1.1/DTD/svg11.dtd">
<!-- Creator: CorelDRAW -->
<svg xmlns="http://www.w3.org/2000/svg" xml:space="preserve" width="6.82666in" height="6.82666in" style="shape-rendering:geometricPrecision; text-rendering:geometricPrecision; image-rendering:optimizeQuality; fill-rule:evenodd; clip-rule:evenodd"
viewBox="0 0 6.82666 6.82666"
 xmlns:xlink="http://www.w3.org/1999/xlink">
 <defs>
  <style type="text/css">
   <![CDATA[
    .fil1 {fill:none}
    .fil0 {fill:#212121;fill-rule:nonzero}
   ]]>
  </style>
 </defs>
 <g id="Layer_x0020_1">
  <metadata id="CorelCorpID_0Corel-Layer"/>
  <path class="fil0" d="M5.72366 2.20462c0.0326457,-0.284382 0.0414882,-0.537969 0.0343228,-0.734378 -0.0074685,-0.204634 -0.0252441,-0.334031 -0.0464488,-0.355031 -0.0259173,-0.0258583 -0.189449,-0.0456417 -0.442776,-0.0487402 -0.22937,-0.00280315 -0.521169,0.0144331 -0.842299,0.0619173 -0.435925,0.0644213 -0.903866,0.184909 -1.33317,0.373402 -0.362677,0.159244 -0.697606,0.366929 -0.961433,0.630157 -0.179705,0.180126 -0.33137,0.389106 -0.458717,0.613953 -0.144421,0.254996 -0.25765,0.530799 -0.345102,0.808492l-0.000830709 0.00208661c-0.0442953,0.132492 -0.0891614,0.311846 -0.127823,0.495217 -0.0433937,0.205815 -0.0786811,0.41602 -0.0964094,0.57035 -0.0326457,0.284378 -0.0414882,0.537969 -0.0343228,0.734374 0.0074685,0.204638 0.0252402,0.334035 0.0464449,0.355035 0.0259173,0.0258583 0.189449,0.0456417 0.442776,0.0487402 0.22937,0.00280315 0.521169,-0.0144331 0.842299,-0.0619173 0.435689,-0.0647835 0.904378,-0.185618 1.33422,-0.374484 0.361988,-0.159051 0.696433,-0.366587 0.959622,-0.629776l0.000417323 0c0.265606,-0.265165 0.48435,-0.636693 0.652705,-1.04212 0.19763,-0.475909 0.324724,-0.996461 0.376528,-1.44728zm0.246827 -0.741882c0.00756693,0.207413 -0.00144488,0.472402 -0.0351575,0.766047 -0.0538543,0.46865 -0.186008,1.00987 -0.391528,1.50478 -0.178043,0.42876 -0.411984,0.824287 -0.699165,1.11107l0.000208661 0.000208661c-0.282461,0.282461 -0.639685,0.504441 -1.02546,0.673941 -0.448831,0.197213 -0.936307,0.323098 -1.38838,0.390319 -0.330366,0.0488504 -0.634331,0.0665354 -0.875638,0.0635866 -0.308433,-0.00377165 -0.528535,-0.048811 -0.590272,-0.110409 -0.0574803,-0.0569173 -0.0995157,-0.239799 -0.108949,-0.498366 -0.00756693,-0.207413 0.00144488,-0.472402 0.0351575,-0.766043 0.018252,-0.158874 0.0547598,-0.376126 0.099748,-0.589516 0.0399134,-0.189323 0.0867559,-0.376161 0.133776,-0.517264l-0.000122047 -3.93701e-005c0.0915394,-0.290669 0.210701,-0.580496 0.363433,-0.850161 0.136291,-0.240638 0.299268,-0.464937 0.493122,-0.659193l0.000417323 -0.000417323c0.283665,-0.283079 0.641047,-0.505209 1.02661,-0.6745 0.448358,-0.196858 0.935063,-0.322402 1.38733,-0.389236 0.330366,-0.0488504 0.634331,-0.0665354 0.875638,-0.0635866 0.308433,0.00377165 0.528539,0.048811 0.590272,0.110409 0.0574764,0.0569134 0.0995197,0.239799 0.108953,0.498362z"/>
 </g>
 <g id="Layer_x0020_1_0">
  <metadata id="CorelCorpID_1Corel-Layer"/>
  <g id="_319407680">
   <path id="_319408232" class="fil0" d="M4.39237 2.35826c0.0414921,-0.0414921 0.0414921,-0.108768 0,-0.15026 -0.0414961,-0.0414961 -0.108772,-0.0414961 -0.150264,0l-2.03412 2.03414c-0.0414921,0.0414961 -0.0414921,0.108772 0,0.150264 0.0414921,0.0414961 0.108768,0.0414961 0.150264,0l2.03412 -2.03414z"/>
   <path id="_319408640" class="fil0" d="M4.61864 2.58453c0.0414921,-0.0414961 0.0414921,-0.108772 0,-0.150264 -0.0414961,-0.0414961 -0.108768,-0.0414961 -0.150264,0l-2.03414 2.03413c-0.0414921,0.0414921 -0.0414921,0.108768 0,0.15026 0.0414961,0.0414961 0.108772,0.0414961 0.150264,0l2.03414 -2.03413z"/>
   <path id="_319408832" class="fil0" d="M2.90509 4.35715c0.0414961,0.0414921 0.108772,0.0414921 0.150264,0 0.0414961,-0.0414961 0.0414961,-0.108772 0,-0.150264l-0.435559 -0.435634c-0.0414961,-0.0414961 -0.108772,-0.0414961 -0.150264,0 -0.0414961,0.0414921 -0.0414961,0.108768 0,0.150264l0.435559 0.435634z"/>
   <path id="_319408376" class="fil0" d="M3.339 3.92324c0.0414921,0.0414961 0.108768,0.0414961 0.150264,0 0.0414921,-0.0414921 0.0414921,-0.108768 0,-0.150264l-0.435555 -0.435634c-0.0414921,-0.0414961 -0.108768,-0.0414961 -0.150264,0 -0.0414921,0.0414921 -0.0414921,0.108768 0,0.150264l0.435555 0.435634z"/>
   <path id="_319408688" class="fil0" d="M3.77292 3.48932c0.0414921,0.0414961 0.108768,0.0414961 0.15026,0 0.0414961,-0.0414921 0.0414961,-0.108768 0,-0.15026l-0.435551 -0.435634c-0.0414961,-0.0414921 -0.108768,-0.0414921 -0.150264,0 -0.0414921,0.0414961 -0.0414921,0.108772 0,0.150264l0.435555 0.43563z"/>
   <path id="_319408160" class="fil0" d="M4.20682 3.05542c0.0414921,0.0414961 0.108768,0.0414961 0.15026,0 0.0414961,-0.0414921 0.0414961,-0.108768 0,-0.15026l-0.435555 -0.435634c-0.0414921,-0.0414961 -0.108768,-0.0414961 -0.150264,0 -0.0414921,0.0414921 -0.0414921,0.108768 0,0.150264l0.435559 0.43563z"/>
  </g>
  <rect class="fil1" width="6.82666" height="6.82666"/>
 </g>
</svg>
