<?xml version="1.0" encoding="UTF-8"?>
<!DOCTYPE svg PUBLIC "-//W3C//DTD SVG 1.1//EN" "http://www.w3.org/Graphics/SVG/1.1/DTD/svg11.dtd">
<!-- Creator: CorelDRAW -->
<svg xmlns="http://www.w3.org/2000/svg" xml:space="preserve" width="6.82666in" height="6.82666in" style="shape-rendering:geometricPrecision; text-rendering:geometricPrecision; image-rendering:optimizeQuality; fill-rule:evenodd; clip-rule:evenodd"
viewBox="0 0 6.82666 6.82666"
 xmlns:xlink="http://www.w3.org/1999/xlink">
 <defs>
  <style type="text/css">
   <![CDATA[
    .fil1 {fill:none}
    .fil0 {fill:#212121;fill-rule:nonzero}
   ]]>
  </style>
 </defs>
 <g id="Layer_x0020_1">
  <metadata id="CorelCorpID_0Corel-Layer"/>
  <path class="fil0" d="M5.6152 4.25096c0.0254016,0.0335354 0.0459134,0.0717835 0.0603583,0.113571 0.0147598,0.0427087 0.0227874,0.0876654 0.0227874,0.133484 0,0.113 -0.0458071,0.215303 -0.11987,0.289362 -0.0740591,0.0740551 -0.17637,0.119858 -0.289374,0.119858 -0.172925,0 -0.500984,-0.00133071 -0.829142,-0.00265354 -0.55298,-0.00223622 -1.10665,-0.00447638 -1.65779,0.00223622l-0.00125197 0.000417323c-0.113004,0 -0.215315,-0.0458031 -0.289374,-0.119858 -0.074063,-0.0740591 -0.11987,-0.176362 -0.11987,-0.289362 0,-0.0365669 0.00494094,-0.0722992 0.0141969,-0.106543 0.00964567,-0.0356929 0.0237402,-0.0691417 0.0415906,-0.0996811l0.000358268 0.000208661 1.22651 -2.12878c0.0319134,-0.0720039 0.0837165,-0.132957 0.148295,-0.175732 0.0649291,-0.0430079 0.14252,-0.0680551 0.225638,-0.0680551 0.0764646,0 0.148366,0.0213307 0.210102,0.0584055 0.0635157,0.0381457 0.115823,0.0930984 0.150787,0.158701l0.000417323 0c0.254579,0.478472 0.529508,0.949929 0.803154,1.41919 0.134012,0.229811 0.26772,0.459094 0.402472,0.69524zm-0.140476 0.182736c-0.00694882,-0.0200984 -0.0176614,-0.0392638 -0.0314173,-0.0567559l-0.00875197 -0.0133346c-0.13002,-0.227953 -0.267858,-0.464319 -0.406,-0.701217 -0.277161,-0.47528 -0.555614,-0.952787 -0.807319,-1.42585l0.000322835 -0.000173228c-0.0167677,-0.0313858 -0.0418661,-0.0577126 -0.0723622,-0.0760236 -0.0291417,-0.0175 -0.0636496,-0.0275709 -0.100929,-0.0275709 -0.0402362,0 -0.0773976,0.0118622 -0.108134,0.0322205 -0.0322047,0.0213307 -0.0576772,0.0515669 -0.0726732,0.0869803l-0.00583071 0.0116654 -1.22999 2.13483 0 0.000834646c-0.00874409,0.0149606 -0.0155079,0.030811 -0.0199291,0.0471772 -0.0043622,0.0161417 -0.00669291,0.0334173 -0.00669291,0.0515433 0,0.0541102 0.0219252,0.103091 0.0573661,0.138528 0.035437,0.035437 0.0844213,0.0573543 0.138539,0.0573543l0 0.000401575c0.551555,-0.00670472 1.10606,-0.00446063 1.65987,-0.00222047 0.224937,0.000905512 0.449657,0.0018189 0.828307,0.0018189 0.0541181,0 0.103102,-0.0219173 0.138539,-0.0573543 0.0354409,-0.035437 0.0573661,-0.0844173 0.0573661,-0.138528 0,-0.0234449 -0.00362598,-0.0450512 -0.0102835,-0.0643189z"/>
 </g>
 <g id="Layer_x0020_1_0">
  <metadata id="CorelCorpID_1Corel-Layer"/>
  <path class="fil0" d="M4.04501 2.55999c0.0961339,0 0.183181,0.0389764 0.246197,0.101988 0.0630118,0.0630118 0.101988,0.150063 0.101988,0.246197 0,0.0961339 -0.0389764,0.183181 -0.101988,0.246193 -0.0630157,0.0630157 -0.150063,0.101992 -0.246197,0.101992 -0.0961417,0 -0.183189,-0.0389803 -0.246201,-0.101984 -0.0630118,-0.0630157 -0.101988,-0.150063 -0.101988,-0.246201 0,-0.0961378 0.0389724,-0.183189 0.101988,-0.246201 0.0630118,-0.0630039 0.150059,-0.101984 0.246201,-0.101984zm0.0953622 0.252823c-0.0243937,-0.0243937 -0.0581142,-0.0394843 -0.0953622,-0.0394843 -0.0372559,0 -0.0709764,0.0150906 -0.0953661,0.0394803 -0.0243937,0.0243937 -0.0394843,0.0581142 -0.0394843,0.0953661 0,0.037252 0.0150906,0.0709724 0.0394843,0.0953661 0.0243898,0.0243898 0.0581102,0.0394803 0.0953661,0.0394803 0.037248,0 0.0709646,-0.0150906 0.0953622,-0.0394882 0.0243937,-0.0243937 0.0394843,-0.0581102 0.0394843,-0.0953583 0,-0.037248 -0.0150906,-0.0709685 -0.0394843,-0.0953622z"/>
  <path class="fil0" d="M3.24491 3.86953c0.0961339,0 0.183185,0.0389764 0.246197,0.101988 0.0630118,0.0630118 0.101988,0.150063 0.101988,0.246197 0,0.0961457 -0.0389764,0.183197 -0.101988,0.246213 -0.0630079,0.0630157 -0.150055,0.101992 -0.246197,0.101992 -0.0961417,0 -0.183189,-0.0389764 -0.246201,-0.101988 -0.0630118,-0.0630157 -0.101984,-0.150075 -0.101984,-0.246217 0,-0.0961378 0.0389724,-0.183189 0.101988,-0.246201 0.0630039,-0.0630039 0.150055,-0.101984 0.246197,-0.101984zm0.0953622 0.252823c-0.0243937,-0.0243937 -0.0581142,-0.0394843 -0.0953622,-0.0394843 -0.0372559,0 -0.0709764,0.0150945 -0.0953622,0.0394803 -0.0243937,0.0243937 -0.0394843,0.0581142 -0.0394843,0.0953661 0,0.0372638 0.0150866,0.0709882 0.0394803,0.0953819 0.0243937,0.0243937 0.0581102,0.0394843 0.0953661,0.0394843 0.037248,0 0.0709685,-0.0150945 0.0953622,-0.0394882 0.0243937,-0.0243937 0.0394843,-0.0581181 0.0394843,-0.095378 0,-0.037248 -0.0150906,-0.0709685 -0.0394843,-0.0953622z"/>
  <path class="fil0" d="M4.045 3.86953c0.0961378,0 0.183185,0.0389764 0.246197,0.101988 0.0630118,0.0630118 0.101988,0.150063 0.101988,0.246197 0,0.0961457 -0.0389764,0.183197 -0.101988,0.246213 -0.0630079,0.0630157 -0.150055,0.101992 -0.246197,0.101992 -0.0961417,0 -0.183189,-0.0389764 -0.246197,-0.101992 -0.0630118,-0.0630157 -0.101988,-0.150067 -0.101988,-0.246213 0,-0.0961339 0.0389764,-0.183185 0.101988,-0.246197 0.0630118,-0.0630118 0.150063,-0.101988 0.246197,-0.101988zm0.0953622 0.252823c-0.0243937,-0.0243937 -0.0581102,-0.0394843 -0.0953622,-0.0394843 -0.037248,0 -0.0709685,0.0150906 -0.0953622,0.0394843 -0.0243937,0.0243937 -0.0394843,0.0581142 -0.0394843,0.0953622 0,0.0372598 0.0150906,0.0709843 0.0394843,0.095378 0.0243937,0.0243937 0.0581142,0.0394882 0.0953622,0.0394882 0.037248,0 0.0709685,-0.0150906 0.0953622,-0.0394882 0.0243937,-0.0243937 0.0394843,-0.0581181 0.0394843,-0.095378 0,-0.037248 -0.0150906,-0.0709685 -0.0394843,-0.0953622z"/>
  <path class="fil0" d="M4.84512 3.86953c0.0961339,0 0.183181,0.0389764 0.246197,0.101988 0.0630118,0.0630118 0.101988,0.150063 0.101988,0.246197 0,0.0961457 -0.0389764,0.183197 -0.101988,0.246209 -0.0630079,0.0630197 -0.150063,0.101996 -0.246197,0.101996 -0.0961457,0 -0.183197,-0.0389764 -0.246213,-0.101992 -0.0630157,-0.0630079 -0.101992,-0.150063 -0.101992,-0.246213 0,-0.0961417 0.0389764,-0.183189 0.101992,-0.246197 0.0630157,-0.0630118 0.150067,-0.101988 0.246213,-0.101988zm0.0953622 0.252823c-0.0243937,-0.0243937 -0.0581142,-0.0394843 -0.0953622,-0.0394843 -0.0372598,0 -0.0709843,0.0150906 -0.095378,0.0394843 -0.0243937,0.0243937 -0.0394882,0.0581142 -0.0394882,0.0953622 0,0.0372559 0.0150906,0.0709843 0.0394882,0.095378 0.0243976,0.0243976 0.0581181,0.0394882 0.095378,0.0394882 0.0372441,0 0.0709685,-0.0150945 0.0953622,-0.0394921 0.0243937,-0.0243937 0.0394843,-0.0581142 0.0394843,-0.095374 0,-0.037248 -0.0150906,-0.0709685 -0.0394843,-0.0953622z"/>
  <path class="fil0" d="M3.61834 3.19999c0.0961417,0 0.183189,0.0389764 0.246201,0.101988 0.0630157,0.0630197 0.101984,0.150079 0.101984,0.246217 0,0.0961378 -0.0389724,0.183189 -0.101988,0.246201 -0.0630039,0.0630039 -0.150055,0.101984 -0.246197,0.101984 -0.0961339,0 -0.183185,-0.0389764 -0.246197,-0.101988 -0.0630118,-0.0630118 -0.101988,-0.150059 -0.101988,-0.246197 0,-0.0961378 0.0389764,-0.183197 0.101988,-0.246213 0.0630079,-0.0630157 0.150055,-0.101992 0.246197,-0.101992zm0.0953661 0.252823c-0.0243937,-0.0243937 -0.0581102,-0.0394843 -0.0953661,-0.0394843 -0.037248,0 -0.0709685,0.0150945 -0.0953622,0.0394882 -0.0243937,0.0243937 -0.0394843,0.0581181 -0.0394843,0.095378 0,0.037252 0.0150906,0.0709685 0.0394843,0.0953622 0.0243937,0.0243937 0.0581142,0.0394843 0.0953622,0.0394843 0.0372559,0 0.0709764,-0.0150945 0.0953622,-0.0394803 0.0243937,-0.0243937 0.0394843,-0.0581142 0.0394843,-0.0953661 0,-0.0372638 -0.0150906,-0.0709921 -0.0394803,-0.0953819z"/>
  <path class="fil0" d="M4.47167 3.19999c0.0961496,0 0.183189,0.0389764 0.246201,0.101988 0.0630157,0.0630197 0.101984,0.150079 0.101984,0.246217 0,0.0961378 -0.0389724,0.183189 -0.101984,0.246201 -0.0630118,0.0630118 -0.150059,0.101984 -0.246201,0.101984 -0.0961339,0 -0.183181,-0.0389764 -0.246197,-0.101988 -0.0630118,-0.0630118 -0.101988,-0.150063 -0.101988,-0.246197 0,-0.0961378 0.0389764,-0.183193 0.101988,-0.246209 0.0630079,-0.0630197 0.150063,-0.101996 0.246197,-0.101996zm0.0953661 0.252823c-0.0243937,-0.0243937 -0.0581102,-0.0394843 -0.0953661,-0.0394843 -0.0372441,0 -0.0709685,0.0150945 -0.0953622,0.0394921 -0.0243937,0.0243937 -0.0394843,0.0581142 -0.0394843,0.095374 0,0.037248 0.0150906,0.0709685 0.0394843,0.0953622 0.0243937,0.0243937 0.0581102,0.0394843 0.0953622,0.0394843 0.0372559,0 0.0709764,-0.0150906 0.0953661,-0.0394803 0.0243898,-0.0243898 0.0394803,-0.0581142 0.0394803,-0.0953661 0,-0.0372638 -0.0150906,-0.0709921 -0.0394803,-0.0953819z"/>
  <path class="fil0" d="M1.72434 4.79563l-0.0739409 -0.029878 -0.422681 1.04616 -3.14961e-005 7.48031e-005c-0.00409449,0.0101811 -0.00366142,0.021126 0.000334646,0.0305394 0.00404331,0.00952756 0.0114921,0.0174449 0.0213504,0.0214252l7.87402e-005 3.14961e-005c0.0102087,0.00411024 0.0211614,0.00368898 0.0305709,-0.00030315 0.00101969,-0.000433071 0.00204331,-0.00084252 0.00306693,-0.00124409 0.00805512,-0.00414567 0.0147283,-0.0110748 0.0183661,-0.0200748l7.87402e-006 -1.9685e-005 0.422878 -1.04671zm-0.0931457 -0.26713l0.27122 0.109591c0.0545354,0.0218583 0.0810276,0.0837992 0.0591693,0.138335l-0.462618 1.14508 -7.87402e-006 1.9685e-005c-0.0250118,0.0618583 -0.0720787,0.108555 -0.12852,0.134661 -0.00230315,0.00118504 -0.00466535,0.00229528 -0.00708661,0.00332677 -0.0595709,0.0252795 -0.128732,0.0279724 -0.19311,0.00195669l-1.9685e-005 -7.87402e-006 -1.5748e-005 -7.87402e-006c-0.0647362,-0.0261496 -0.11278,-0.0761339 -0.13802,-0.135598 -0.0252874,-0.0595591 -0.0279803,-0.12872 -0.00198031,-0.193094l7.87402e-006 -1.5748e-005 0.462646 -1.14508c0.0218583,-0.0545354 0.0837992,-0.0810276 0.138335,-0.0591693z"/>
  <path class="fil0" d="M2.99417 1.1815c0.0214016,-0.0547638 0.0831535,-0.081815 0.137917,-0.0604134 0.0547638,0.0214016 0.081815,0.0831535 0.0604134,0.137917l-1.35011 3.44979c-0.0214016,0.0547638 -0.0831535,0.081815 -0.137917,0.0604134 -0.0547638,-0.0214016 -0.081815,-0.0831535 -0.0604134,-0.137917l1.35011 -3.44979z"/>
  <rect class="fil1" width="6.82666" height="6.82666"/>
 </g>
</svg>
