<?xml version="1.0" encoding="UTF-8"?>
<!DOCTYPE svg PUBLIC "-//W3C//DTD SVG 1.1//EN" "http://www.w3.org/Graphics/SVG/1.1/DTD/svg11.dtd">
<!-- Creator: CorelDRAW -->
<svg xmlns="http://www.w3.org/2000/svg" xml:space="preserve" width="6.82666in" height="6.82666in" style="shape-rendering:geometricPrecision; text-rendering:geometricPrecision; image-rendering:optimizeQuality; fill-rule:evenodd; clip-rule:evenodd"
viewBox="0 0 6.82666 6.82666"
 xmlns:xlink="http://www.w3.org/1999/xlink">
 <defs>
  <style type="text/css">
   <![CDATA[
    .fil1 {fill:none}
    .fil0 {fill:#212121;fill-rule:nonzero}
   ]]>
  </style>
 </defs>
 <g id="Layer_x0020_1">
  <metadata id="CorelCorpID_0Corel-Layer"/>
  <path class="fil0" d="M5.79848 4.14048c0.0213504,0.00825984 0.0407874,0.0211929 0.0568071,0.0382205l0.000417323 0.000417323c0.0150906,0.0161772 0.0265787,0.0355039 0.0339016,0.0565039 0.00714173,0.0204724 0.0102677,0.0422835 0.00885827,0.0640197 -0.0124646,0.193406 -0.219213,0.371205 -0.500524,0.527988 -0.25776,0.143661 -0.581114,0.274772 -0.86311,0.381819l5.11811e-005 0.000137795c-0.00890551,0.0033937 -0.0188031,0.006 -0.0295236,0.00777165 -0.0096378,0.00158661 -0.0196181,0.00220472 -0.0297953,0.0018189 -0.00824409,-0.000314961 -0.0146772,-0.000523622 -0.0192874,-0.000614173l0 -7.87402e-006c-0.00672835,-0.00011811 0.00118504,0.000224409 -0.018748,0.000224409 -0.152854,0 -0.260732,0.0487795 -0.364051,0.0954921 -0.115299,0.0521339 -0.225941,0.102161 -0.384638,0.102161 -0.163028,0 -0.272972,-0.0505276 -0.387213,-0.103024 -0.100894,-0.0463661 -0.205913,-0.0946299 -0.361437,-0.0946299 -0.163173,0 -0.261559,0.0481024 -0.35539,0.0939803 -0.089626,0.0438189 -0.175929,0.0860157 -0.302091,0.098878 -0.14226,0.0145079 -0.532575,-0.0991102 -0.848587,-0.253835 -0.251752,-0.12326 -0.465945,-0.278961 -0.502047,-0.433232 -0.00497638,-0.0211929 -0.00554331,-0.0431063 -0.00194882,-0.0642441 0.00364961,-0.0215315 0.0117087,-0.0424646 0.0239055,-0.061252 0.0126457,-0.0194528 0.0290472,-0.0355118 0.0478543,-0.047311 0.0198425,-0.0124449 0.0424843,-0.020311 0.0664488,-0.0226535l0.00124803 -0.000417323 4.66115 -0.39815 2.3622e-005 0.000299213c0.0232087,-0.00205906 0.0462795,0.00133858 0.0677205,0.0096378zm-0.133291 0.209661l-4.49295 0.38378c0.0614252,0.0724882 0.198087,0.156118 0.355213,0.233047 0.285854,0.139961 0.623016,0.244362 0.734421,0.233 0.0884055,-0.00901181 0.157665,-0.042878 0.229594,-0.0780433 0.116299,-0.0568622 0.238244,-0.116484 0.44872,-0.116484 0.200311,0 0.327543,0.0584685 0.449768,0.114638 0.0920551,0.0422992 0.18065,0.0830157 0.298882,0.0830157 0.113598,0 0.203472,-0.0406378 0.297134,-0.0829882 0.124063,-0.0560945 0.253602,-0.114665 0.451555,-0.114665 0.00638189,0 0.00114567,0.000208661 0.0224961,0.00061811l0.000417323 0 0.00991732 0.000220472c0.272476,-0.103646 0.581874,-0.229398 0.824252,-0.364484 0.179201,-0.0998701 0.319417,-0.200488 0.370579,-0.291654z"/>
  <path class="fil0" d="M4.60947 3.84905c-0.129547,-0.452783 -0.398236,-1.13849 -0.705929,-1.71863 -0.215803,-0.406886 -0.447815,-0.758323 -0.657957,-0.931083l0.0658465 2.76059 1.29804 -0.110878zm-0.517598 -1.8178c0.34439,0.649335 0.641654,1.43033 0.757039,1.88733l0.0306457 0.121386 -0.125228 0.0107008 -1.53769 0.131346 -0.112299 0.00959055 -0.00270472 -0.113343 -0.0707126 -2.96455c-0.00371654,-0.0244134 -0.00176378,-0.0491772 0.00523622,-0.0721654 0.00870079,-0.0285039 0.0250157,-0.0544724 0.0479134,-0.0742126 0.0246299,-0.0212126 0.0541929,-0.0335472 0.0848386,-0.0366063 0.0306732,-0.0030748 0.0621142,0.00335827 0.0904646,0.0196614 0.272209,0.156996 0.568189,0.582504 0.8325,1.08085zm-1.32878 1.97551l-0.060815 -2.03667c-0.176945,0.196425 -0.31128,0.476878 -0.411724,0.774516 -0.167264,0.495646 -0.238894,1.0332 -0.258433,1.32459l0.730972 -0.062437zm0.147634 -2.17837l0.067874 2.27311 0.00300394 0.100583 -0.100504 0.00858661 -0.952024 0.0813189 -0.11739 0.0100236 0.00238583 -0.118358c0.00504331,-0.25026 0.0732244,-0.909217 0.274811,-1.50656 0.128189,-0.37985 0.311114,-0.737689 0.567862,-0.960134 0.0220157,-0.0190472 0.0483307,-0.0310354 0.0760354,-0.0354921 0.0277953,-0.00445669 0.0567047,-0.00105906 0.0837717,0.0106772l0.000417323 0c0.0258228,0.0112638 0.0476969,0.0293346 0.0639173,0.0518701 0.0153071,0.0212598 0.0255157,0.0466614 0.0290039,0.0739567l0.000834646 0.0104173z"/>
  <path class="fil0" d="M1.44294 5.85111c-0.0589094,0 -0.106669,-0.0477598 -0.106669,-0.106669 0,-0.0589094 0.0477598,-0.106669 0.106669,-0.106669 0.182768,0 0.263772,0.042752 0.36635,0.0968898l4.72441e-005 2.3622e-005c0.128283,0.0677756 0.25565,0.101665 0.38224,0.101665 0.126598,0 0.253965,-0.0338898 0.382256,-0.101665 0.124315,-0.0656063 0.244409,-0.0984331 0.36635,-0.0984409 0.121945,-3.93701e-006 0.242035,0.0328031 0.366354,0.0984409 0.128835,0.0680315 0.256224,0.102067 0.382303,0.102071 0.126079,3.93701e-006 0.253457,-0.0340118 0.382272,-0.102071 0.12435,-0.0656614 0.244457,-0.0984567 0.366409,-0.0984409 0.121957,1.5748e-005 0.242059,0.0328543 0.366409,0.0984409 0.0467283,0.024685 0.0965748,0.0510039 0.154571,0.0694173 0.0581417,0.0184606 0.130311,0.0312677 0.227732,0.0312677 0.0589094,0 0.106669,0.0477598 0.106669,0.106669 0,0.0589094 -0.0477598,0.106669 -0.106669,0.106669 -0.120067,0 -0.21361,-0.0172441 -0.291898,-0.0421024 -0.0784488,-0.0249055 -0.135811,-0.0551929 -0.189571,-0.0835906 -0.093815,-0.0494803 -0.181472,-0.0742559 -0.267244,-0.0742677 -0.0857756,-1.1811e-005 -0.173433,0.0247323 -0.267244,0.0742677 -0.159327,0.0841811 -0.319744,0.126252 -0.481437,0.126244 -0.161689,-7.87402e-006 -0.322122,-0.0421024 -0.481469,-0.126244 -0.0937913,-0.0495197 -0.181429,-0.0742677 -0.267189,-0.0742677 -0.0857559,3.93701e-006 -0.173398,0.0247717 -0.267185,0.0742677 -0.15985,0.0844488 -0.32026,0.126673 -0.481421,0.126673 -0.161146,0 -0.321539,-0.0422165 -0.48137,-0.126654l-8.26772e-005 -4.33071e-005c-0.0761063,-0.0401654 -0.136201,-0.0718819 -0.267185,-0.0718819zm3.74528 -0.303461c0.0589094,0 0.106669,0.0477598 0.106669,0.106669 0,0.0589094 -0.0477598,0.106669 -0.106669,0.106669 -0.0891024,0 -0.156437,-0.0109134 -0.215579,-0.0289488 -0.0591654,-0.0180472 -0.103843,-0.0409724 -0.152815,-0.0668504 -0.128953,-0.0680157 -0.256276,-0.102043 -0.382291,-0.102047 -0.126024,0 -0.253343,0.0340079 -0.382303,0.102047 -0.124799,0.0659331 -0.244921,0.0989094 -0.366366,0.0989094 -0.121437,0 -0.241559,-0.0329724 -0.366378,-0.0989094 -0.128933,-0.0679961 -0.256264,-0.102039 -0.38228,-0.102047 -0.126016,-7.87402e-006 -0.253335,0.0340079 -0.382252,0.102102 -0.124287,0.0656063 -0.244406,0.098437 -0.366378,0.0984409l0 0.000417323c-0.121445,0 -0.241567,-0.0329567 -0.366346,-0.0989134l-9.44882e-005 -5.11811e-005 -0.000728346 -0.000385827 -1.1811e-005 2.3622e-005 -9.44882e-005 -5.11811e-005 -0.00105512 -0.000586614c-0.0889094,-0.0469134 -0.190193,-0.0996496 -0.380303,-0.0996496 -0.0589094,0 -0.106669,-0.0477598 -0.106669,-0.106669 0,-0.0589094 0.0477598,-0.106669 0.106669,-0.106669 0.241815,0 0.368311,0.0660079 0.479409,0.12463 0.000933071,0.000468504 0.00185827,0.000944882 0.00278346,0.00144094l9.44882e-005 5.11811e-005 -1.1811e-005 1.9685e-005c0.0929252,0.0489882 0.180303,0.0734724 0.266358,0.0734724l0 0.000417323c0.0857795,0 0.173445,-0.0247717 0.267213,-0.0742677 0.159441,-0.0842165 0.319787,-0.126287 0.481417,-0.126276 0.161618,1.1811e-005 0.321969,0.0421142 0.481445,0.12622 0.0932559,0.0492638 0.180902,0.0739016 0.267213,0.0739016 0.0863071,0 0.173953,-0.0246378 0.267201,-0.0739016 0.159508,-0.0841575 0.31985,-0.126224 0.481469,-0.12622 0.161614,7.87402e-006 0.321961,0.0420945 0.481457,0.12622 0.0403504,0.0213228 0.0766417,0.0400551 0.115319,0.0518504 0.0386969,0.0117992 0.0861142,0.0189409 0.153909,0.0189409z"/>
 </g>
 <g id="Layer_x0020_1_0">
  <metadata id="CorelCorpID_1Corel-Layer"/>
  <rect class="fil1" width="6.82666" height="6.82666"/>
 </g>
</svg>
