<?xml version="1.0" encoding="UTF-8"?>
<!DOCTYPE svg PUBLIC "-//W3C//DTD SVG 1.1//EN" "http://www.w3.org/Graphics/SVG/1.1/DTD/svg11.dtd">
<!-- Creator: CorelDRAW -->
<svg xmlns="http://www.w3.org/2000/svg" xml:space="preserve" width="6.82666in" height="6.82666in" style="shape-rendering:geometricPrecision; text-rendering:geometricPrecision; image-rendering:optimizeQuality; fill-rule:evenodd; clip-rule:evenodd"
viewBox="0 0 6.82666 6.82666"
 xmlns:xlink="http://www.w3.org/1999/xlink">
 <defs>
  <style type="text/css">
   <![CDATA[
    .fil1 {fill:none}
    .fil0 {fill:#212121;fill-rule:nonzero}
   ]]>
  </style>
 </defs>
 <g id="Layer_x0020_1">
  <metadata id="CorelCorpID_0Corel-Layer"/>
  <path class="fil0" d="M3.41335 3.75265c0.323996,0 0.617331,0.131335 0.829665,0.343669 0.212335,0.212335 0.343669,0.505677 0.343669,0.829665 0,0.324 -0.131331,0.617335 -0.343665,0.829669 -0.212335,0.212335 -0.505673,0.343665 -0.829669,0.343665 -0.324004,0 -0.617343,-0.131335 -0.829673,-0.343661 -0.212327,-0.212331 -0.343661,-0.505669 -0.343661,-0.829673 0,-0.323996 0.131331,-0.617335 0.343665,-0.829669 0.212335,-0.212335 0.505669,-0.343665 0.829669,-0.343665zm0.678831 0.494504c-0.173717,-0.173717 -0.41372,-0.281165 -0.678831,-0.281165 -0.265114,0 -0.505118,0.107445 -0.678835,0.281161 -0.173717,0.173717 -0.281161,0.413724 -0.281161,0.678835 0,0.265118 0.107445,0.505126 0.281157,0.678839 0.173713,0.173713 0.41372,0.281157 0.678839,0.281157 0.26511,0 0.505118,-0.107445 0.678835,-0.281161 0.173717,-0.173717 0.281161,-0.41372 0.281161,-0.678835 0,-0.265106 -0.107449,-0.505114 -0.281165,-0.678831z"/>
  <path class="fil0" d="M3.41335 4.07263c0.235622,0 0.448957,0.0955236 0.603382,0.249953 0.154425,0.154429 0.249945,0.367772 0.249945,0.603398 0,0.235638 -0.0955157,0.448972 -0.249941,0.603402 -0.154425,0.154429 -0.36776,0.249949 -0.603386,0.249949 -0.235638,0 -0.44898,-0.0955157 -0.603406,-0.249945 -0.154429,-0.154429 -0.249945,-0.367768 -0.249945,-0.603406 0,-0.23563 0.0955197,-0.448972 0.249949,-0.603402 0.154429,-0.154429 0.367764,-0.249949 0.603402,-0.249949zm0.452547 0.400787c-0.115807,-0.115811 -0.275811,-0.187449 -0.452547,-0.187449 -0.176752,0 -0.336756,0.0716339 -0.452567,0.187445 -0.115811,0.115811 -0.187445,0.275823 -0.187445,0.452567 0,0.176752 0.0716299,0.33676 0.187441,0.452571 0.115807,0.115811 0.275819,0.187441 0.452571,0.187441 0.17674,0 0.336744,-0.0716339 0.452551,-0.187445 0.115807,-0.115811 0.187437,-0.275815 0.187437,-0.452567 0,-0.17674 -0.0716339,-0.336752 -0.187441,-0.452563z"/>
  <polygon class="fil0" points="3.5146,4.62691 3.55024,4.73733 3.6665,4.7371 3.99593,4.73644 3.729,4.9296 3.63496,4.99766 3.67107,5.10806 3.77338,5.4209 3.50731,5.22681 3.41335,5.15826 3.31938,5.22681 3.05331,5.4209 3.15563,5.10806 3.19174,4.99765 3.0977,4.9296 2.83077,4.73644 3.1602,4.7371 3.27646,4.73733 3.3121,4.62691 3.41335,4.3132 "/>
  <polygon class="fil0" points="2.77332,3.94666 2.77332,3.62666 2.77332,3.51999 2.87999,3.51999 3.94667,3.51999 4.05334,3.51999 4.05334,3.62666 4.05334,3.94666 3.84,3.94666 3.84,3.73333 2.98666,3.73333 2.98666,3.94666 "/>
  <path class="fil0" d="M1.58721 0.846571l2.09789 2.38919 0.155126 0.176669 -0.235126 0 -0.783728 0 -0.0480354 0 -0.0319646 -0.036252 -1.64927 -1.95073 -0.0577244 -0.0654685 0.0531417 -0.0695315 0.405831 -0.542984 0.0938661 0.0991102zm1.78276 2.35252l-1.85698 -2.11483 -0.203169 0.265819 1.55958 1.84901 0.500563 0z"/>
  <path class="fil0" d="M5.31788 1.08302l-1.5265 1.72928 0.262193 0.28022 1.464 -1.7431 -0.199693 -0.266398zm-0.0728622 -0.238602l0.0862992 -0.0977638 0.0782835 0.104429 0.329961 0.440189 0.0519882 0.0693583 -0.0574055 0.064811 -1.60111 1.89789 -0.0797047 0.0899882 -0.545457 -0.601 1.73714 -1.96791z"/>
  <path class="fil0" d="M1.49335 0.747461l3.83999 -1.9685e-005 0 0.212504 -3.83999 1.9685e-005 0 -0.212504zm3.35891 0.745453l-2.97483 -0.000330709 0 -0.212504 3.11719 0.000330709 -0.142362 0.212504z"/>
 </g>
 <g id="Layer_x0020_1_0">
  <metadata id="CorelCorpID_1Corel-Layer"/>
  <rect class="fil1" width="6.82666" height="6.82666"/>
 </g>
</svg>
