<?xml version="1.0" encoding="UTF-8"?>
<!DOCTYPE svg PUBLIC "-//W3C//DTD SVG 1.1//EN" "http://www.w3.org/Graphics/SVG/1.1/DTD/svg11.dtd">
<!-- Creator: CorelDRAW -->
<svg xmlns="http://www.w3.org/2000/svg" xml:space="preserve" width="6.82666in" height="6.82666in" style="shape-rendering:geometricPrecision; text-rendering:geometricPrecision; image-rendering:optimizeQuality; fill-rule:evenodd; clip-rule:evenodd"
viewBox="0 0 6.82666 6.82666"
 xmlns:xlink="http://www.w3.org/1999/xlink">
 <defs>
  <style type="text/css">
   <![CDATA[
    .fil1 {fill:none}
    .fil0 {fill:#212121;fill-rule:nonzero}
   ]]>
  </style>
 </defs>
 <g id="Layer_x0020_1">
  <metadata id="CorelCorpID_0Corel-Layer"/>
  <path class="fil0" d="M2.77313 1.65341c0,0.0739016 0.0297047,0.140524 0.0777087,0.1885 0.0482677,0.0482402 0.115122,0.0780787 0.189079,0.0780787 0.0739331,0 0.14078,-0.0298425 0.189047,-0.0780866 0.0479961,-0.0479764 0.0777008,-0.114594 0.0777008,-0.188492 0,-0.0736378 -0.029874,-0.140331 -0.0781457,-0.188598 -0.0482756,-0.0482756 -0.114972,-0.0781496 -0.188602,-0.0781496 -0.0736575,0 -0.140358,0.0298701 -0.188638,0.0781378 -0.0482756,0.0482717 -0.0781496,0.114965 -0.0781496,0.18861zm-0.0722913 0.339335c-0.0871299,-0.0870866 -0.141047,-0.207075 -0.141047,-0.339335 0,-0.132535 0.0537638,-0.252563 0.140654,-0.339445 0.0868976,-0.0868819 0.206933,-0.140642 0.339472,-0.140642 0.132516,0 0.252547,0.0537638 0.339437,0.140654 0.0868858,0.0868819 0.14065,0.206902 0.14065,0.339433 0,0.132256 -0.0539094,0.25224 -0.141039,0.339327 -0.0869055,0.0868661 -0.206815,0.140591 -0.339047,0.140591 -0.132256,0 -0.252169,-0.0537205 -0.339079,-0.140583z"/>
  <path class="fil0" d="M1.07161 2.34981c0.083252,-0.0276417 0.169846,-0.0189488 0.242579,0.0174685 0.0724134,0.0362677 0.131063,0.0998228 0.159039,0.182201l0.000133858 -4.72441e-005 0.246882 0.693953 0.581602 1.63496 1.20863 0c-0.167457,-0.324937 -0.246803,-0.515854 -0.281134,-0.635236 -0.0449567,-0.156331 -0.022752,-0.215524 -0.00290551,-0.268283l0.000137795 5.11811e-005 0.00114567 -0.00312992 -2.75591e-005 -1.1811e-005c-0.000425197,0.00100394 -0.00193307,0.00483465 -0.000204724,-7.08661e-005 0.0135906,-0.0384685 0.037815,-0.106992 0.312067,-0.394941 -0.0473898,-0.0838346 -0.11615,-0.206823 -0.185886,-0.331555 -0.081563,-0.145886 -0.164441,-0.294122 -0.213984,-0.381315 -0.0677638,0.0105039 -0.139409,0.0204094 -0.208839,0.0279331 -0.0785118,0.00850787 -0.153303,0.0139961 -0.215563,0.0139961 -0.15135,0 -0.286783,-0.0629724 -0.407189,-0.150929 -0.111441,-0.0814134 -0.207957,-0.182953 -0.291465,-0.272689l-9.05512e-005 -0.000181102 -3.93701e-005 3.93701e-005c-0.0512598,-0.0550787 -0.0752874,-0.12576 -0.0727638,-0.195508 0.00252756,-0.069815 0.031622,-0.13863 0.0865709,-0.18989l0.000448819 -0.000224409 -9.44882e-005 -0.000102362c0.0550945,-0.0512323 0.125736,-0.0752323 0.195437,-0.0726969 0.0697913,0.0025315 0.138567,0.031622 0.189807,0.0865394l0 0.000397638 0.00019685 -0.000185039c0.0600433,0.064374 0.127933,0.128126 0.1865,0.176913 0.0471732,0.0392913 0.0835748,0.0669961 0.0975512,0.0733937 0.0192874,0.00238976 0.0692835,-0.000854331 0.136559,-0.00779921 0.0737165,-0.00761417 0.164197,-0.0200039 0.257539,-0.0348701 0.0170787,-0.0299528 0.036626,-0.0577717 0.0583898,-0.0832598 0.034811,-0.0407638 0.0755551,-0.0756732 0.121161,-0.103906 0.0812283,-0.0502756 0.273854,-0.0936142 0.471697,-0.121913 0.229807,-0.0328701 0.477094,-0.0472756 0.564083,-0.0289173l0.000417323 0c0.0867677,0.0183898 0.179972,0.0716496 0.26739,0.136543 0.125591,0.0932283 0.241685,0.211563 0.301677,0.27611 0.0885354,0.0952441 0.0925236,0.205531 0.05,0.295693 -0.0155157,0.0329016 -0.0380276,0.063 -0.0653346,0.0883031 -0.0268465,0.0248701 -0.0585669,0.0448976 -0.0930039,0.0581496 -0.0934094,0.035937 -0.203618,0.0240709 -0.291327,-0.0705079 -0.0596299,-0.0641417 -0.127157,-0.127579 -0.185543,-0.17624 -0.0476732,-0.0397283 -0.0846102,-0.067752 -0.0988622,-0.0741378 -0.0120512,-0.00108661 -0.0376496,-0.000129921 -0.0729094,0.00240945 -0.00761417,0.000547244 -0.0154961,0.00117323 -0.0236142,0.00186614l0.0306063 0.0513228c0.232992,0.390488 0.560189,0.93887 0.717366,1.28473 0.0252126,0.0196102 0.091748,0.0502677 0.18015,0.0844173 0.110665,0.042752 0.247988,0.0851417 0.380799,0.115071 0.115075,0.0257992 0.186295,0.100323 0.217539,0.188909 0.0157953,0.0447874 0.0207953,0.0928622 0.0155827,0.1395 -0.00522835,0.0467677 -0.0206535,0.0925472 -0.0456811,0.132606 -0.0501929,0.0803189 -0.136354,0.138079 -0.253776,0.138079 -0.0100945,0 -0.0212638,-0.000669291 -0.0335551,-0.00206693 -0.0111181,-0.00126378 -0.022315,-0.00316929 -0.0335433,-0.00577165l3.93701e-005 -0.000177165c-0.176346,-0.0395551 -0.429201,-0.108705 -0.63228,-0.213051l8.66142e-005 -0.000169291c-0.154437,-0.0794055 -0.282878,-0.180827 -0.339161,-0.309063 -0.0179528,-0.0408583 -0.0474291,-0.0989331 -0.0822362,-0.164193 -0.0214528,-0.0402205 -0.0454528,-0.0840866 -0.070378,-0.128949 -0.0500512,0.0547244 -0.109941,0.114965 -0.168323,0.173693 -0.0525709,0.052878 -0.103807,0.104425 -0.143134,0.147165 0.0200315,0.0497874 0.0479921,0.113094 0.080248,0.182528 0.0515472,0.110953 0.111799,0.233035 0.167429,0.339205 0.0345394,0.0659724 0.042311,0.138925 0.027185,0.206374l1.54133 0c0.088,0 0.167638,0.0356339 0.225283,0.0932795 0.0576457,0.0576457 0.0932795,0.137283 0.0932795,0.225287 0,0.0876575 -0.0358031,0.167272 -0.0937126,0.225122 -0.0576614,0.0576024 -0.137157,0.0932283 -0.22485,0.0932283l-3.81706 0c-0.0876063,0 -0.167134,-0.0356457 -0.224823,-0.0932756 -0.0578976,-0.0578386 -0.0937402,-0.137429 -0.0937402,-0.225075 0,-0.0582244 0.016063,-0.113134 0.0440197,-0.160705 0.0132165,-0.0224882 0.0290354,-0.0431693 0.0470157,-0.0616378l-0.739941 -2.22222 -0.000125984 4.33071e-005c-0.0278189,-0.0833307 -0.0191732,-0.170063 0.0172756,-0.242965 0.0364449,-0.0729016 0.100602,-0.131858 0.183799,-0.159626l0.000417323 0zm0.147579 0.207469c-0.024126,-0.0120787 -0.0528622,-0.0149921 -0.0805315,-0.00592126l3.93701e-005 0.000122047c-0.0278622,0.00929921 -0.0492559,0.0288583 -0.0613031,0.0529567 -0.0120236,0.0240512 -0.0148465,0.0527756 -0.0056063,0.0804606l0 0.000417323 0.763594 2.29325 0.027748 0.0833268 -0.0765 0.0429252c-0.0168228,0.00943701 -0.0307244,0.0228976 -0.0401299,0.0389016 -0.00889764,0.0151378 -0.0140118,0.0332795 -0.0140118,0.0532008 0,0.029248 0.011626,0.0554843 0.0304016,0.0742402 0.0190315,0.0190118 0.0454882,0.0307717 0.0748228,0.0307717l3.81706 0c0.0293976,0 0.0558465,-0.0117402 0.0748504,-0.0307244 0.0187677,-0.018748 0.030374,-0.045 0.030374,-0.0742874 0,-0.0291181 -0.0117598,-0.055437 -0.0307756,-0.0744528 -0.0190157,-0.0190157 -0.0453346,-0.0307756 -0.0744488,-0.0307756l-1.74294 0 -0.0508346 -0.200004c0.0217047,-0.0117953 0.0366732,-0.0311732 0.0433189,-0.0530236 0.00667717,-0.0219606 0.0050748,-0.0464567 -0.00638976,-0.0683543 -0.0598268,-0.114177 -0.121866,-0.239535 -0.172429,-0.34837 -0.0491063,-0.105701 -0.0894803,-0.199925 -0.109866,-0.259886l-0.0190551 -0.0560472 0.0373898 -0.0456181c0.0430709,-0.0525551 0.118622,-0.128555 0.196913,-0.207307 0.105693,-0.106323 0.21687,-0.218154 0.239654,-0.262476l0.0897835 -0.174646 0.0972992 0.170898c0.0492874,0.0865669 0.103189,0.183146 0.150303,0.27148 0.0379291,0.0711181 0.0700827,0.134476 0.0897323,0.179193 0.0339094,0.0772559 0.126492,0.146146 0.241161,0.205067l0.000417323 0c0.184114,0.0946063 0.417949,0.158256 0.581406,0.19489l0.000834646 0c0.00309843,0.000716535 0.00623228,0.00125197 0.00937008,0.0016063 0.0023622,0.000267717 0.00581102,0.000397638 0.0102244,0.000397638 0.0348189,0 0.0594055,-0.0155827 0.0729409,-0.0372441 0.00810236,-0.0129685 0.0131181,-0.0279724 0.0148465,-0.0434331 0.00174409,-0.0155945 0.000224409,-0.0312402 -0.00474803,-0.0453346 -0.00847638,-0.0240394 -0.0291063,-0.0445591 -0.063374,-0.0522402 -0.142827,-0.032185 -0.291008,-0.0779685 -0.410799,-0.124244 -0.130768,-0.0505197 -0.234358,-0.106402 -0.273787,-0.153272l-0.0158307 -0.025c-0.148594,-0.332882 -0.479374,-0.887256 -0.713732,-1.28004 -0.0523976,-0.0878228 -0.100839,-0.169008 -0.115209,-0.193291l-0.0815866 -0.137866 0.159087 -0.0217165c0.0760079,-0.010374 0.144811,-0.0181339 0.19822,-0.0219843 0.0572913,-0.00412992 0.103449,-0.00406299 0.131949,0.00146457l0.00708268 0.00166535c0.0412402,0.0109528 0.109728,0.0562283 0.183575,0.117772 0.0663465,0.0552953 0.141323,0.125492 0.205543,0.194571 0.0192717,0.0207835 0.0415827,0.0241299 0.0596575,0.0171772 0.00885433,-0.00340551 0.0172835,-0.00880709 0.0246732,-0.0156535 0.00692126,-0.00641339 0.0127756,-0.0143504 0.0169961,-0.0233031 0.008,-0.0169606 0.00609055,-0.0389646 -0.0133307,-0.0598583 -0.0551811,-0.059374 -0.161287,-0.167713 -0.272512,-0.250276 -0.0655157,-0.0486339 -0.131382,-0.0877087 -0.184886,-0.0990472l1.5748e-005 -7.87402e-005c-0.0656181,-0.0136063 -0.281102,0.00157087 -0.49035,0.0315 -0.173937,0.024878 -0.336134,0.0585551 -0.390028,0.0919134 -0.0263346,0.0163031 -0.0502638,0.0369331 -0.0711614,0.0614016 -0.0208031,0.0243622 -0.0383661,0.0524488 -0.052063,0.0837717l-0.0231732 0.0529921 -0.0568268 0.00950787c-0.114484,0.0191575 -0.230429,0.0355433 -0.323866,0.0451969 -0.0913386,0.00943307 -0.164846,0.0121575 -0.202177,0.00481102l-0.00624803 -0.00166535c-0.0414764,-0.0108504 -0.109673,-0.0558465 -0.183189,-0.117079 -0.0664803,-0.055378 -0.141803,-0.125886 -0.2065,-0.195244l0 -0.000397638 -0.00019685 0.000185039c-0.0112717,-0.0120827 -0.0263031,-0.0184843 -0.0414764,-0.0190354 -0.0152677,-0.000555118 -0.0307913,0.00473622 -0.0429331,0.0160276l-0.000417323 0 -0.000129921 0.00011811 0.000192913 0.000208661c-0.0121063,0.0112953 -0.0185197,0.0263543 -0.0190669,0.0415591 -0.000551181,0.0152835 0.00476772,0.0308307 0.0160945,0.0430039l9.05512e-005 0.000181102 3.93701e-005 -3.93701e-005c0.0768661,0.0825984 0.165343,0.175799 0.261465,0.24602 0.0871614,0.0636732 0.181913,0.10926 0.281354,0.10926 0.0571417,0 0.123913,-0.00483071 0.193059,-0.0123268 0.0896693,-0.00971654 0.184772,-0.0239016 0.269476,-0.0380433l0.0719606 -0.0120157 0.0372047 0.0628504c0.0274921,0.0464409 0.141197,0.249815 0.25252,0.448929 0.0967362,0.17302 0.191701,0.342878 0.223768,0.398524l0.0400315 0.0694685 -0.0558622 0.0576142c-0.293575,0.302756 -0.310094,0.349512 -0.319118,0.375055 -0.000732283,0.0020748 -0.000165354,0.000456693 -3.93701e-005,-1.5748e-005l-3.54331e-005 -1.1811e-005c-0.000188976,0.000409449 -0.000854331,0.00212205 -0.00264567,0.00693701l0 0.000417323c-0.00803543,0.0213661 -0.0170236,0.0453622 0.00874016,0.134953 0.0338386,0.117665 0.117685,0.315575 0.30324,0.669862 0.00390157,0.00743307 0.00908268,0.0142874 0.0152205,0.0204646 0.00664567,0.00668898 0.0141378,0.0122323 0.0221181,0.0165748l-0.0508346 0.200004 -1.49731 0 -0.0750709 0 -0.0253465 -0.071252 -0.606949 -1.70622 -0.246882 -0.693953 -0.000417323 -0.00166535c-0.00929921,-0.0278701 -0.0288465,-0.0492638 -0.0529213,-0.0613228zm2.00854 1.41447c0.000122047,-0.000346457 8.26772e-005,-0.000279528 -2.75591e-005,-1.1811e-005l2.75591e-005 1.1811e-005zm0.200563 0.0707362c3.54331e-005,-0.000133858 3.54331e-005,-0.000173228 -3.54331e-005,-1.1811e-005l3.54331e-005 1.1811e-005z"/>
  <path class="fil0" d="M3.98898 5.09237c-0.115083,0 -0.099248,-5.90551e-005 -0.10348,-3.93701e-005 -0.0974606,0.000476378 -0.218059,0.00106693 -0.281965,-0.000377953l0.00416535 -0.212504c0.0630118,0.0014252 0.181339,0.00084252 0.276965,0.000377953 0.0855472,-0.000413386 0.0425118,-0.000795276 0.104315,-0.000795276l0 0.213339z"/>
 </g>
 <g id="Layer_x0020_1_0">
  <metadata id="CorelCorpID_1Corel-Layer"/>
  <path class="fil0" d="M2.66667 2.98667c0.0589094,0 0.106669,0.0477598 0.106669,0.106669 0,0.0589094 -0.0477598,0.106669 -0.106669,0.106669l-1.11307 0c-0.0589094,0 -0.106669,-0.0477598 -0.106669,-0.106669 0,-0.0589094 0.0477598,-0.106669 0.106669,-0.106669l1.11307 0z"/>
  <rect class="fil1" width="6.82666" height="6.82666"/>
 </g>
</svg>
