<?xml version="1.0" encoding="UTF-8"?>
<!DOCTYPE svg PUBLIC "-//W3C//DTD SVG 1.1//EN" "http://www.w3.org/Graphics/SVG/1.1/DTD/svg11.dtd">
<!-- Creator: CorelDRAW -->
<svg xmlns="http://www.w3.org/2000/svg" xml:space="preserve" width="6.82666in" height="6.82666in" style="shape-rendering:geometricPrecision; text-rendering:geometricPrecision; image-rendering:optimizeQuality; fill-rule:evenodd; clip-rule:evenodd"
viewBox="0 0 6.82666 6.82666"
 xmlns:xlink="http://www.w3.org/1999/xlink">
 <defs>
  <style type="text/css">
   <![CDATA[
    .fil1 {fill:none}
    .fil0 {fill:#212121;fill-rule:nonzero}
   ]]>
  </style>
 </defs>
 <g id="Layer_x0020_1">
  <metadata id="CorelCorpID_0Corel-Layer"/>
  <path class="fil0" d="M3.81815 2.96863l0 -0.210406c0,-0.0588189 0.047689,-0.106508 0.106512,-0.106508 0.0350866,0 0.0662047,0.0169646 0.0856142,0.0431378l0.0843858 0.0994843c0.00733858,0.00865748 0.0180433,0.0136063 0.0293622,0.0145866 0.0114055,0.000992126 0.0229961,-0.00212598 0.0320039,-0.00959055l0.00190551 -0.0015315c0.00769291,-0.00712598 0.0120512,-0.0163858 0.0128898,-0.025811 0.000901575,-0.0101535 -0.00213386,-0.0207717 -0.00931496,-0.0294449 -0.000732283,-0.00088189 -0.00144488,-0.00178346 -0.00214173,-0.00268504l-0.000129921 -0.000161417c-0.0215354,-0.0254843 -0.0462913,-0.0563425 -0.0730354,-0.0896772 -0.13574,-0.169185 -0.329693,-0.410929 -0.488213,-0.410929l-0.164886 0 -0.0144016 0 -0.0144016 0 -0.164886 0c-0.158524,0 -0.352472,0.241736 -0.488209,0.410925 -0.0274213,0.0341732 -0.0527598,0.0657559 -0.0746654,0.0916102l3.54331e-005 2.75591e-005 -0.000720472 0.000858268 3.93701e-005 3.14961e-005c-0.0071811,0.00867323 -0.0102165,0.0192913 -0.00931496,0.0294449 0.000874016,0.00981496 0.00557087,0.0194567 0.0138661,0.026685l2.75591e-005 -3.14961e-005 0.000870079 0.000728346 3.14961e-005 -3.93701e-005c0.00900787,0.00746457 0.0206024,0.0105827 0.0320039,0.00959055 0.0113189,-0.000980315 0.0220197,-0.00592913 0.0293583,-0.0145866l0.0888701 -0.104764c0.0379134,-0.0448071 0.104976,-0.0503937 0.149783,-0.0124803 0.0248307,0.0210079 0.0376102,0.0509685 0.037622,0.0811299l0.000240157 0 0 0.210402 0.195681 -0.129008c0.00142126,-0.000933071 0.00285433,-0.0018189 0.00430315,-0.00267717l-0.000137795 -0.000232283c0.0269685,-0.0159409 0.0579173,-0.0281732 0.0909724,-0.0366929 0.0317283,-0.00817323 0.0653307,-0.0126417 0.0988858,-0.0133937l0.00155512 -1.1811e-005 0.00693701 -0.000106299 0.0025 3.93701e-006 0 -3.93701e-006 0.00766535 0.00011811 0.000830709 1.9685e-005 0 -1.9685e-005c0.0335551,0.000751969 0.0671575,0.00522047 0.0988858,0.0133937 0.0330551,0.00851969 0.064,0.020752 0.0909685,0.0366929 0.00372441,0.00220079 0.00725591,0.00459449 0.0106063,0.00715748l0.189244 0.124764zm0.213024 0.0345472l0 0.162697 -0.00046063 0c1.9685e-005,0.0200236 -0.00561417,0.0402677 -0.0174291,0.058248 -0.0321693,0.0489449 -0.0979252,0.0625433 -0.14687,0.030374l-0.354366 -0.233626 -0.00191732 -0.00110236c-0.0104685,-0.00618898 -0.0224528,-0.0109331 -0.0352283,-0.0142244 -0.0158898,-0.00409055 -0.0331024,-0.00633858 -0.0506181,-0.00673228l0 -1.1811e-005 -0.00558268 -8.66142e-005 -0.00479921 7.48031e-005 -0.000783465 2.3622e-005c-0.0175157,0.000393701 -0.0347283,0.00264173 -0.0506181,0.00673228 -0.0127756,0.00329134 -0.0247598,0.00803543 -0.0352323,0.0142244l-7.08661e-005 -0.00011811 -0.347854 0.229339c-0.0182402,0.0146339 -0.0413976,0.0233976 -0.0666024,0.0233976 -0.0588228,0 -0.106512,-0.047689 -0.106512,-0.106512l0 -0.162693c-0.0239252,0.0097126 -0.0490906,0.0157165 -0.0745472,0.017937 -0.0648268,0.0056378 -0.132035,-0.013189 -0.185941,-0.0578622l3.93701e-005 -4.72441e-005 -0.000456693 -0.000366142 -0.00131496 -0.0011063 3.54331e-005 -3.93701e-005 -0.000452756 -0.000374016c-0.0527323,-0.0446929 -0.0826457,-0.106736 -0.0883661,-0.171028 -0.0057126,-0.064126 0.0127598,-0.130264 0.056748,-0.183382l4.72441e-005 3.93701e-005 0.000366142 -0.000452756 0.00109843 -0.00131102 3.93701e-005 3.54331e-005 0.000374016 -0.000452756c0.0223189,-0.0263189 0.0460394,-0.0558819 0.0717165,-0.0878858 0.162126,-0.202083 0.393783,-0.490815 0.653799,-0.490815l0.164886 0 0.0144016 0 0.0144016 0 0.164886 0c0.260008,0 0.491673,0.288736 0.653803,0.490819 0.0249449,0.0310906 0.0480276,0.0598701 0.0697913,0.0856102l0.000795276 0.000897638c0.00103543,0.00114567 0.00205906,0.00231496 0.00305118,0.00351575 0.0439882,0.0531102 0.0624606,0.11926 0.056748,0.183382 -0.00561024,0.0629528 -0.0343937,0.123728 -0.0850827,0.168193l-0.00189764 0.00170472c-0.00115354,0.00103937 -0.00232283,0.00206693 -0.00353543,0.00306299 -0.0539134,0.0446732 -0.121114,0.0635 -0.185941,0.0578622 -0.0254567,-0.00222047 -0.050626,-0.00822441 -0.0745472,-0.0179409z"/>
  <path class="fil0" d="M3.51104 3.01968c-0.0238898,-0.0136929 -0.0574173,-0.0205433 -0.0925906,-0.0205433 -0.0351772,0 -0.0687008,0.00685039 -0.0925906,0.0205433l-1.01446 0.680516c-0.00140945,0.000944882 -0.00283858,0.00184646 -0.00427559,0.00271654l0.00011811 0.00019685c-0.0222913,0.0134724 -0.0410315,0.0374921 -0.0521457,0.0649921 -0.00972047,0.0240551 -0.0129528,0.0487008 -0.00643307,0.0679685 0.0546181,0.159976 0.175028,0.389362 0.425244,0.551094 0.175665,0.113543 0.416421,0.19478 0.745421,0.19815 0.328429,0.00330315 0.568823,-0.0755118 0.744268,-0.188807 0.251295,-0.162272 0.371323,-0.396874 0.42539,-0.55924l0.000129921 -0.000374016 -0.000129921 -4.33071e-005c0.00637008,-0.019063 0.00295276,-0.043811 -0.00692913,-0.0681457 -0.0113386,-0.0279213 -0.0301575,-0.0521929 -0.0523071,-0.0655945 -0.00351181,-0.00211417 -0.00685039,-0.00440157 -0.0100236,-0.00684252l-1.00868 -0.676587zm-0.0925906 -0.233567c0.0717795,0 0.145311,0.0174803 0.203449,0.0524213l-3.93701e-006 7.87402e-006c0.00154331,0.000925197 0.00307087,0.00189764 0.00457874,0.00290551l1.01167 0.678583 0.00144094 0.000846457c0.0616929,0.0373268 0.111811,0.099311 0.139685,0.167945 0.0276457,0.0680827 0.0345512,0.145232 0.0110906,0.215429l-0.000125984 -4.33071e-005c-0.0648583,0.194563 -0.209075,0.475713 -0.511807,0.671201 -0.206244,0.133185 -0.48513,0.225874 -0.860764,0.222094 -0.37426,-0.00382677 -0.652528,-0.0990787 -0.858587,-0.232272 -0.301972,-0.195185 -0.446508,-0.46974 -0.511787,-0.660933 -0.0236811,-0.0699921 -0.0169606,-0.147067 0.0105945,-0.215248 0.0278386,-0.068878 0.077878,-0.130917 0.13952,-0.168173l5.11811e-005 8.66142e-005 1.01184 -0.678756c0.00185433,-0.00127559 0.00375197,-0.0025 0.00570866,-0.00367323 0.0581339,-0.0349449 0.131669,-0.0524213 0.203453,-0.0524213z"/>
  <path class="fil0" d="M3.94489 1.49553c0,0.146902 -0.0595669,0.279843 -0.155787,0.376083 -0.0962874,0.0962992 -0.229295,0.155846 -0.376067,0.155846 -0.146661,0 -0.279606,-0.0595276 -0.375953,-0.155799 -0.0965551,-0.0964921 -0.156287,-0.229472 -0.156287,-0.37613 0,-0.146618 0.0597362,-0.279583 0.156299,-0.376051 0.0963465,-0.0962559 0.229283,-0.15578 0.375941,-0.15578 0.14676,0 0.279768,0.0595433 0.376059,0.155827 0.0962244,0.0962165 0.155795,0.229146 0.155795,0.376004zm-0.306398 0.225472c0.0576693,-0.057685 0.093374,-0.137386 0.093374,-0.225472 0,-0.0880354 -0.0357087,-0.16772 -0.0933819,-0.225394 -0.0577205,-0.0577165 -0.137461,-0.0934134 -0.225449,-0.0934134 -0.0884606,0 -0.168417,0.0356772 -0.226161,0.0933661 -0.0574921,0.057437 -0.0930551,0.137118 -0.0930551,0.225441 0,0.088374 0.0355591,0.168075 0.0930433,0.22552 0.057748,0.0577047 0.137713,0.0933858 0.226173,0.0933858 0.0879882,0 0.167732,-0.0357008 0.225457,-0.0934331z"/>
  <path class="fil0" d="M1.70414 4.82021c0.0183858,-0.0558346 0.0785551,-0.0862008 0.13439,-0.0678189 0.0558346,0.0183819 0.0862008,0.0785551 0.067815,0.13439 -0.0438386,0.132579 -0.131087,0.243921 -0.244295,0.321984 -0.112016,0.0772362 -0.249173,0.121803 -0.394209,0.121803 -0.0624094,0 -0.125173,-0.00867323 -0.186402,-0.0254843 -0.0608701,-0.0167126 -0.118945,-0.041374 -0.172311,-0.0734488 -0.0503228,-0.0300984 -0.0667126,-0.0952992 -0.0366181,-0.145618 0.0300984,-0.0503189 0.0952992,-0.0667126 0.145622,-0.0366142 0.0373543,0.0224488 0.0774764,0.0395709 0.119059,0.0509843 0.0412165,0.0113189 0.0851969,0.0171575 0.13065,0.0171575 0.10161,0 0.196748,-0.0305591 0.273555,-0.0835236 0.0755984,-0.0521299 0.133736,-0.126083 0.162744,-0.213811z"/>
  <path class="fil0" d="M3.854 4.88678c-0.0183819,-0.0558346 0.0119803,-0.116008 0.067815,-0.13439 0.0558346,-0.0183819 0.116008,0.0119843 0.13439,0.0678189 0.0290079,0.0877283 0.0871457,0.161681 0.162748,0.213811 0.0768071,0.0529685 0.171937,0.0835236 0.273555,0.0835236 0.101681,0 0.196882,-0.0306063 0.273732,-0.0836417 0.0756024,-0.0521732 0.133728,-0.12622 0.162701,-0.214083 0.0183858,-0.0558346 0.0785551,-0.0862008 0.13439,-0.067815 0.0558346,0.0183819 0.0861969,0.0785512 0.067815,0.134386 -0.0437402,0.132646 -0.13098,0.244083 -0.244252,0.322256 -0.112028,0.0773071 -0.249248,0.121921 -0.394386,0.121921 -0.145039,0 -0.282197,-0.044563 -0.394209,-0.121803 -0.113213,-0.078063 -0.200461,-0.189402 -0.244299,-0.321984z"/>
  <path class="fil0" d="M5.8102 5.05372c0.0507795,-0.0291811 0.115602,-0.0116732 0.144783,0.0391063 0.0291811,0.0507795 0.0116732,0.115606 -0.0391063,0.144787 -0.0528819,0.0305276 -0.109343,0.0537598 -0.167677,0.0692323 -0.0590551,0.0156654 -0.119839,0.0237244 -0.180634,0.0237244 -0.14513,0 -0.28235,-0.0446142 -0.39437,-0.121925 -0.113268,-0.0781654 -0.200512,-0.189602 -0.244256,-0.322252 -0.0183819,-0.0558346 0.0119843,-0.116004 0.0678189,-0.134386 0.0558346,-0.0183858 0.116004,0.0119803 0.134386,0.067815 0.0289724,0.0878583 0.0871024,0.161906 0.162705,0.214079 0.0768465,0.0530394 0.172043,0.0836457 0.273717,0.0836457 0.0435709,0 0.0861496,-0.00551575 0.126551,-0.0162323 0.0410906,-0.0109016 0.080189,-0.026874 0.116083,-0.0475945z"/>
  <path class="fil0" d="M1.70414 4.88678c-0.0183819,-0.0558346 0.0119843,-0.116008 0.0678189,-0.13439 0.0558346,-0.0183819 0.116004,0.0119843 0.134386,0.0678189 0.0290157,0.0877323 0.0871496,0.161685 0.162752,0.213815 0.0768031,0.0529646 0.171937,0.0835197 0.273551,0.0835197 0.101673,0 0.19687,-0.0306063 0.273717,-0.0836457 0.0756063,-0.0521732 0.133732,-0.12622 0.162705,-0.214079 0.0183819,-0.0558346 0.0785551,-0.0862008 0.13439,-0.067815 0.0558346,0.0183819 0.0861969,0.0785512 0.067815,0.134386 -0.0437402,0.13265 -0.130988,0.244087 -0.244252,0.322252 -0.112024,0.077311 -0.24924,0.121925 -0.394374,0.121925 -0.145043,0 -0.282205,-0.044563 -0.394205,-0.121799 -0.113213,-0.078063 -0.200457,-0.189402 -0.244303,-0.321988z"/>
  <path class="fil0" d="M3.854 4.82021c0.0183819,-0.0558346 0.0785512,-0.0862008 0.134386,-0.0678189 0.0558346,0.0183819 0.0862008,0.0785551 0.0678189,0.13439 -0.0438307,0.132579 -0.131075,0.243917 -0.24428,0.321984 -0.112008,0.0772362 -0.249169,0.121803 -0.394209,0.121803 -0.145146,0 -0.282366,-0.0446142 -0.394394,-0.121921 -0.113268,-0.0781732 -0.200508,-0.18961 -0.244252,-0.322256 -0.0183819,-0.0558346 0.0119843,-0.116004 0.0678189,-0.134386 0.0558346,-0.0183858 0.116004,0.0119803 0.134386,0.067815 0.0289724,0.0878622 0.0870984,0.161909 0.162705,0.214083 0.0768504,0.0530354 0.172047,0.0836417 0.273736,0.0836417 0.101618,0 0.196748,-0.030563 0.273551,-0.0835236 0.0756024,-0.0521299 0.133732,-0.126079 0.162732,-0.213811z"/>
  <path class="fil0" d="M1.70414 5.45926c0.0183858,-0.0558346 0.0785551,-0.0861969 0.13439,-0.067815 0.0558346,0.0183819 0.0862008,0.0785512 0.067815,0.134386 -0.0438386,0.132583 -0.131087,0.243925 -0.244295,0.321984 -0.112016,0.0772362 -0.249173,0.121807 -0.394209,0.121807 -0.0274016,0 -0.0552913,-0.00168898 -0.0834724,-0.00504331 -0.0263425,-0.00312992 -0.0538465,-0.00815748 -0.082315,-0.0150433 -0.0569843,-0.0137874 -0.0920039,-0.0711614 -0.0782205,-0.128146 0.0137874,-0.0569803 0.0711654,-0.0920039 0.128146,-0.0782165 0.0175039,0.00423228 0.0366732,0.00759055 0.0573543,0.0100512 0.0188622,0.00224016 0.0384094,0.00337402 0.0585079,0.00337402 0.10161,0 0.196748,-0.030563 0.273555,-0.0835236 0.0755984,-0.0521299 0.133736,-0.126087 0.162744,-0.213815z"/>
  <path class="fil0" d="M3.854 5.52583c-0.0183819,-0.0558346 0.0119803,-0.116004 0.067815,-0.134386 0.0558346,-0.0183819 0.116008,0.0119803 0.13439,0.067815 0.0290079,0.0877283 0.0871457,0.161685 0.162748,0.213815 0.0768071,0.0529646 0.171937,0.0835236 0.273555,0.0835236 0.101681,0 0.196882,-0.0306102 0.273732,-0.0836417 0.0756102,-0.0521732 0.133728,-0.12622 0.162701,-0.214079 0.0183858,-0.0558346 0.0785551,-0.0862008 0.13439,-0.0678189 0.0558346,0.0183819 0.0861969,0.0785551 0.067815,0.13439 -0.0437402,0.13265 -0.13098,0.244087 -0.244252,0.322248 -0.112028,0.0773071 -0.249244,0.121925 -0.394386,0.121925 -0.145039,0 -0.282197,-0.0445669 -0.394209,-0.121807 -0.113213,-0.0780591 -0.200461,-0.189398 -0.244299,-0.321984z"/>
  <path class="fil0" d="M5.68128 5.74338c0.0572165,-0.0135551 0.114591,0.0218346 0.128146,0.0790512 0.0135551,0.0572126 -0.0218386,0.114591 -0.0790512,0.128146 -0.0260354,0.00617323 -0.0531142,0.0109055 -0.0810551,0.0141614 -0.0278386,0.00325197 -0.0551535,0.00488583 -0.0817559,0.00488583 -0.145126,0 -0.28235,-0.044622 -0.39437,-0.121925 -0.113264,-0.0781614 -0.200512,-0.189598 -0.244256,-0.322248 -0.0183819,-0.0558346 0.0119843,-0.116008 0.0678189,-0.13439 0.0558346,-0.0183819 0.116004,0.0119843 0.134386,0.0678189 0.0289724,0.0878622 0.0871024,0.161906 0.162705,0.214079 0.0768465,0.0530276 0.172039,0.0836417 0.273717,0.0836417 0.0200394,0 0.0392874,-0.00107874 0.0576299,-0.00321654 0.0182087,-0.00212205 0.0369528,-0.0054685 0.0560866,-0.0100039z"/>
  <path class="fil0" d="M1.70414 5.52583c-0.0183819,-0.0558346 0.0119843,-0.116004 0.0678189,-0.134386 0.0558346,-0.0183819 0.116004,0.0119803 0.134386,0.067815 0.0290157,0.0877323 0.0871496,0.161689 0.162752,0.213819 0.0768031,0.0529606 0.171937,0.0835197 0.273551,0.0835197 0.101677,0 0.19687,-0.0306142 0.273717,-0.0836417 0.0756063,-0.0521732 0.133732,-0.12622 0.162705,-0.214079 0.0183819,-0.0558346 0.0785551,-0.0862008 0.13439,-0.0678189 0.0558346,0.0183819 0.0861969,0.0785551 0.067815,0.13439 -0.0437402,0.13265 -0.130988,0.244087 -0.244252,0.322248 -0.112024,0.0773031 -0.249244,0.121925 -0.394374,0.121925 -0.145043,0 -0.282205,-0.0445669 -0.394205,-0.121803 -0.113213,-0.0780591 -0.200457,-0.189398 -0.244303,-0.321988z"/>
  <path class="fil0" d="M3.854 5.45926c0.0183819,-0.0558346 0.0785512,-0.0861969 0.134386,-0.067815 0.0558346,0.0183819 0.0862008,0.0785512 0.0678189,0.134386 -0.0438307,0.132583 -0.131075,0.243921 -0.24428,0.321984 -0.112008,0.0772362 -0.249169,0.121807 -0.394209,0.121807 -0.145146,0 -0.282366,-0.0446181 -0.394394,-0.121925 -0.113268,-0.0781614 -0.200508,-0.189598 -0.244252,-0.322248 -0.0183819,-0.0558346 0.0119843,-0.116008 0.0678189,-0.13439 0.0558346,-0.0183819 0.116004,0.0119843 0.134386,0.0678189 0.0289724,0.0878583 0.0870906,0.161906 0.162705,0.214079 0.0768504,0.0530315 0.172047,0.0836417 0.273736,0.0836417 0.101618,0 0.196748,-0.0305669 0.273551,-0.0835236 0.0756024,-0.0521299 0.133732,-0.126083 0.162732,-0.213815z"/>
 </g>
 <g id="Layer_x0020_1_0">
  <metadata id="CorelCorpID_1Corel-Layer"/>
  <path class="fil0" d="M2.56154 2.7935c0.0484843,-0.0330827 0.114614,-0.0206063 0.147697,0.027878 0.0330866,0.0484803 0.0206102,0.114614 -0.027874,0.147697l-0.761051 0.517878c-0.0122598,0.108988 -0.0314528,0.274457 -0.108626,0.354142 -0.000673228,0.000708661 -0.00135039,0.00140551 -0.00204331,0.00209843l-0.000185039 0.000188976 -0.000417323 0.000417323c-0.0521811,0.0511693 -0.135461,0.130799 -0.22372,0.206673 -0.0888189,0.0763583 -0.184051,0.149783 -0.262571,0.190429 -0.0019252,0.00112205 -0.00388976,0.00220472 -0.00590551,0.00322441 -0.0365394,0.0184803 -0.0816417,0.0247205 -0.124157,0.0214055 -0.0402677,-0.00314173 -0.0822913,-0.0152559 -0.114528,-0.0337953 -0.00205906,-0.00111417 -0.00409449,-0.00229528 -0.0061063,-0.00355906 -0.0420157,-0.0263504 -0.0925197,-0.0661378 -0.134528,-0.122555 -0.0327008,-0.0439173 -0.0598425,-0.0970945 -0.0735591,-0.16061l0.000173228 -3.93701e-005 -0.000173228 -0.000795276c-0.00271654,-0.012937 -0.004,-0.0251929 -0.004,-0.0367047l0.000417323 0c-7.87402e-006,-0.0129291 0.000948819,-0.0245433 0.00274016,-0.0348189l0.00019685 3.54331e-005c0.00019685,-0.00111811 0.000405512,-0.00224016 0.000637795,-0.00335827l0.00155906 -0.00752362 8.26772e-005 1.5748e-005c0.000232283,-0.00111417 0.000476378,-0.00222835 0.000748031,-0.00334252 0.00664961,-0.0275 0.0185748,-0.0544134 0.0335551,-0.0777638 0.015811,-0.0246457 0.0358425,-0.0468543 0.0576102,-0.0632835l0.433862 -0.32752 5.11811e-005 6.69291e-005c0.121787,-0.093063 0.242098,-0.0828465 0.367413,-0.072185 0.00976378,0.000830709 0.0195669,0.00166142 0.0286772,0.00240945l0.774024 -0.526705zm-0.860047 0.733291c-0.0693976,-0.00487402 -0.134067,-0.00393701 -0.181559,0.0324528l-0.000468504 0.000350394 5.11811e-005 6.69291e-005 -0.433862 0.32752c-0.0018937,0.00142913 -0.00429921,0.00438976 -0.00685039,0.00836614 -0.00241732,0.00377165 -0.00430709,0.00741732 -0.00541339,0.0105787 0.00711811,0.0287165 0.0197362,0.0528976 0.0347165,0.0730118 0.0230394,0.0309449 0.0523465,0.0537756 0.0771102,0.0693031l0.000374016 0.000240157c0.00450787,0.00220472 0.0129094,0.00388583 0.0229055,0.00466142 0.00766535,0.000598425 0.0125669,0.0011063 0.0126535,0.00106299 0.00173622,-0.000874016 0.00348031,-0.00168898 0.00523622,-0.00246457 0.0603425,-0.0313858 0.141953,-0.0951024 0.220807,-0.162898 0.083752,-0.0719961 0.162866,-0.147634 0.212583,-0.196378 0.0198661,-0.0200079 0.0327126,-0.0954016 0.0417165,-0.165874z"/>
  <path class="fil0" d="M4.15604 2.96908c-0.0484843,-0.0330827 -0.0609606,-0.0992165 -0.027874,-0.147697 0.0330827,-0.0484843 0.0992126,-0.0609606 0.147697,-0.027878l0.774024 0.526705c0.00911024,-0.000748031 0.0189134,-0.00157874 0.0286772,-0.00240945 0.125315,-0.0106614 0.245626,-0.020878 0.367413,0.072185l5.11811e-005 -6.69291e-005 0.433862 0.32752c0.0217717,0.0164291 0.0417992,0.0386378 0.0576102,0.0632835 0.0149803,0.0233504 0.0269055,0.0502638 0.0335551,0.0777638 0.000271654,0.00111417 0.000515748,0.00222835 0.000748031,0.00334252l8.26772e-005 -1.5748e-005 0.00156299 0.00752362c0.000228346,0.00111811 0.000437008,0.00224016 0.000633858,0.00335827l0.00019685 -3.54331e-005c0.00179528,0.0102756 0.00274803,0.0218898 0.00274016,0.0348189l0.000417323 0c0,0.0115118 -0.00128346,0.0237677 -0.00399606,0.0367047l-0.000177165 0.000795276 0.000177165 3.93701e-005c-0.0137205,0.0635157 -0.0408622,0.116693 -0.073563,0.16061 -0.0420079,0.0564173 -0.0925118,0.0962047 -0.134528,0.122555 -0.00200787,0.00126378 -0.00404724,0.00244882 -0.0061063,0.00355906 -0.0322362,0.0185394 -0.0742598,0.0306535 -0.114528,0.0337953 -0.0425157,0.00331496 -0.0876181,-0.0029252 -0.124157,-0.0214055 -0.00201575,-0.00101969 -0.00398031,-0.00210236 -0.00590551,-0.00322441 -0.0785197,-0.0406457 -0.173752,-0.114071 -0.262571,-0.190429 -0.0882598,-0.075874 -0.171539,-0.155504 -0.22372,-0.206673l-0.000417323 -0.000417323 -0.000185039 -0.000188976c-0.000688976,-0.000688976 -0.00137402,-0.00138976 -0.00204331,-0.00209843 -0.0771732,-0.079685 -0.0963622,-0.245154 -0.108626,-0.354142l-0.761051 -0.517878zm1.16143 0.590169c-0.0474921,-0.0363898 -0.112161,-0.0373268 -0.181559,-0.0324528 0.00900394,0.0704724 0.0218504,0.145866 0.0417165,0.165874 0.0497165,0.0487441 0.128831,0.124382 0.212583,0.196378 0.0788543,0.0677953 0.160469,0.131512 0.220807,0.162898 0.00175591,0.000775591 0.00350394,0.00159055 0.00523622,0.00246457 8.66142e-005,4.33071e-005 0.00498819,-0.000464567 0.0126535,-0.00106299 0.00999606,-0.000775591 0.0183976,-0.00245669 0.0229055,-0.00466142l0.000374016 -0.000240157c0.0247638,-0.0155276 0.0540709,-0.0383583 0.0771102,-0.0693031 0.0149803,-0.0201142 0.0275984,-0.0442953 0.0347165,-0.0730118 -0.0011063,-0.00316142 -0.00299606,-0.00680709 -0.00541339,-0.0105787 -0.00255118,-0.00397638 -0.00495669,-0.00693701 -0.00685039,-0.00836614l-0.433862 -0.32752 5.11811e-005 -6.69291e-005 -0.000468504 -0.000350394z"/>
  <rect class="fil1" width="6.82666" height="6.82666"/>
 </g>
</svg>
