<?xml version="1.0" encoding="UTF-8"?>
<!DOCTYPE svg PUBLIC "-//W3C//DTD SVG 1.1//EN" "http://www.w3.org/Graphics/SVG/1.1/DTD/svg11.dtd">
<!-- Creator: CorelDRAW -->
<svg xmlns="http://www.w3.org/2000/svg" xml:space="preserve" width="6.82666in" height="6.82666in" style="shape-rendering:geometricPrecision; text-rendering:geometricPrecision; image-rendering:optimizeQuality; fill-rule:evenodd; clip-rule:evenodd"
viewBox="0 0 6.82666 6.82666"
 xmlns:xlink="http://www.w3.org/1999/xlink">
 <defs>
  <style type="text/css">
   <![CDATA[
    .fil1 {fill:none}
    .fil0 {fill:#212121;fill-rule:nonzero}
   ]]>
  </style>
 </defs>
 <g id="Layer_x0020_1">
  <metadata id="CorelCorpID_0Corel-Layer"/>
  <path class="fil0" d="M3.45478 0.722866c0.13574,0 0.258724,0.0551063 0.347752,0.144134 0.0890315,0.0890354 0.144134,0.212016 0.144134,0.347756 0,0.135902 -0.055063,0.258835 -0.144039,0.347815 -0.0890472,0.0890512 -0.212067,0.144091 -0.347846,0.144091 -0.135945,0 -0.258909,-0.0549961 -0.347909,-0.143996 -0.089,-0.089 -0.143996,-0.211972 -0.143996,-0.347909 0,-0.13578 0.0550394,-0.258799 0.144091,-0.34785 0.0889803,-0.0889764 0.211913,-0.144039 0.347815,-0.144039zm0.196925 0.294961c-0.0504213,-0.0504213 -0.120063,-0.0816299 -0.196925,-0.0816299 -0.0769961,0 -0.146618,0.0311693 -0.196988,0.0815354 -0.0504213,0.0504213 -0.0815866,0.120098 -0.0815866,0.197024 0,0.0770591 0.0311299,0.14672 0.0814921,0.197083 0.0503622,0.0503622 0.120024,0.0814921 0.197083,0.0814921 0.0769213,0 0.146602,-0.0311654 0.19702,-0.0815866 0.0503661,-0.0503701 0.0815354,-0.119992 0.0815354,-0.196988 0,-0.0768583 -0.0312087,-0.146504 -0.0816299,-0.196929z"/>
  <path class="fil0" d="M2.95769 5.41595c0.155106,-0.224496 0.191961,-0.415346 0.229323,-0.60885 0.0528898,-0.273913 0.106713,-0.55263 0.444283,-0.934681 0.0388858,-0.0439488 0.106047,-0.0480551 0.149996,-0.00916929 0.0180945,0.0160118 0.0294331,0.0368189 0.0337992,0.0588228l0.000366142 -7.48031e-005c0.106815,0.534138 0.282445,0.976472 0.474421,1.45999 0.0426693,0.107465 0.0861024,0.216835 0.125028,0.317197 0.0197323,0.0294331 0.0489764,0.0489685 0.0809843,0.0569094 0.0341535,0.00847638 0.0715157,0.00394882 0.103949,-0.0156024l0.000322835 -0.000188976 0 -3.93701e-006c0.0215354,-0.0130236 0.0380669,-0.0303504 0.0490827,-0.0498661 0.011437,-0.0202598 0.0174567,-0.0438465 0.0174567,-0.0683228 0,-0.0132205 -0.00153937,-0.025689 -0.00469685,-0.0370669 -0.00326378,-0.0117598 -0.0082126,-0.0233622 -0.0149094,-0.0345512 -0.00341339,-0.00570472 -0.00622441,-0.0116063 -0.00846063,-0.0176181l-0.462441 -1.06996c-0.000669291,-0.00154724 -0.00129134,-0.00309843 -0.00187795,-0.00465748l-0.000204724 7.48031e-005c-0.0703701,-0.187122 -0.0202205,-0.324272 0.0462402,-0.506028 0.0997205,-0.272709 0.243098,-0.664803 -0.0397008,-1.55627 -0.0177165,-0.0561457 0.013437,-0.116031 0.0695827,-0.133748 0.0425787,-0.013437 0.0873031,0.00124409 0.114161,0.0336063l0.578276 0.612118c0.00154724,0.00164567 0.00302362,0.00333071 0.00444882,0.00504724 0.0498189,0.0507756 0.0944882,0.0673346 0.127039,0.0607205 0.00969291,-0.0019685 0.0186575,-0.00673622 0.0262756,-0.0136614 0.00866535,-0.00787795 0.0154173,-0.018185 0.0195866,-0.0302008 0.0145394,-0.0418976 0.00334646,-0.102327 -0.0486535,-0.167335l-0.00143307 -0.00184646 -0.00023622 0.000181102c-0.0917244,-0.119638 -0.187598,-0.225843 -0.283457,-0.332043 -0.0974409,-0.107945 -0.19489,-0.215898 -0.292909,-0.343571 -0.0789646,-0.087126 -0.203646,-0.150461 -0.339783,-0.180709 -0.136949,-0.0304291 -0.282976,-0.0264764 -0.403504,0.0212165 -0.0618228,0.0244567 -0.11139,0.0622402 -0.136232,0.122476 -0.0291929,0.0707756 -0.0311102,0.175713 0.00802362,0.329252 0.0115157,0.0453307 -0.00789764,0.0912598 -0.0449764,0.1155l-0.495051 0.392209c-0.00195276,0.00154331 -0.00394488,0.00299606 -0.0059685,0.00438189l0.000137795 0.000200787c-0.0895472,0.0610591 -0.125909,0.122272 -0.125043,0.169409 0.000220472,0.0121378 0.00358661,0.0231929 0.00952362,0.0324528 0.00594094,0.00926772 0.0150669,0.0171811 0.0267795,0.0230236 0.0414173,0.0206614 0.107898,0.0154843 0.188114,-0.0326457l0.480945 -0.288571c0.0503937,-0.0301417 0.115689,-0.0137283 0.145831,0.0366654 0.012622,0.0211024 0.0170748,0.044815 0.0142953,0.0674646l0.000287402 3.54331e-005c-0.00694094,0.0552717 -0.0494724,0.163146 -0.0755433,0.229272 -0.00859843,0.0218189 -0.0150472,0.0380354 -0.0153465,0.0388622 -0.0039252,0.0109606 -0.00947244,0.020874 -0.0162677,0.0295748 -0.00126378,0.00188583 -0.00362205,0.00549213 -0.00597638,0.00910236l3.14961e-005 1.9685e-005 -0.000425197 0.000720472 0.000125984 8.26772e-005 -0.00180315 0.00275591c-0.0923701,0.156315 -0.19361,0.30685 -0.296035,0.459138 -0.0919213,0.136677 -0.18485,0.27485 -0.276681,0.426835 -0.112815,0.186874 -0.13711,0.351622 -0.16102,0.513811 -0.0299764,0.203339 -0.0594409,0.403169 -0.233138,0.644909l0.000275591 0.00019685c-0.0183189,0.0255433 -0.0266693,0.0528976 -0.0267992,0.0789921 -0.000110236,0.0225591 0.00540157,0.0447205 0.0155276,0.0645394 0.00990945,0.0193858 0.0246654,0.0366969 0.0432598,0.0500315 0.0217992,0.0156339 0.048622,0.0251693 0.078689,0.0253189 0.0173071,9.05512e-005 0.040437,-0.0060315 0.0639331,-0.0179803 0.0192362,-0.00977953 0.0366063,-0.0226024 0.0481811,-0.0378898l-7.87402e-006 -7.87402e-006zm0.43848 -0.56885c-0.0415945,0.215429 -0.082626,0.427902 -0.263488,0.689677l-5.11811e-005 -3.54331e-005 -0.00119685 0.00170472c-0.033374,0.0462913 -0.0782441,0.0814921 -0.125256,0.105394 -0.0530276,0.0269685 -0.111866,0.0407441 -0.161429,0.0404843 -0.0777047,-0.000389764 -0.1465,-0.0246654 -0.20202,-0.0644843 -0.0457362,-0.0327992 -0.0826693,-0.0766457 -0.108252,-0.126701 -0.0253543,-0.0496181 -0.0391496,-0.105236 -0.0388661,-0.162035 0.000346457,-0.069185 0.0208976,-0.13948 0.0659646,-0.202323l0.000279528 0.000200787 0.000137795 -0.000200787c0.142909,-0.198823 0.168709,-0.37376 0.194949,-0.551776 0.0270315,-0.183346 0.0544882,-0.369587 0.18935,-0.592976 0.0897795,-0.148587 0.186673,-0.292654 0.282516,-0.435165 0.0910827,-0.135425 0.181193,-0.269413 0.266433,-0.410732l-0.210724 0.126437c-0.150094,0.0900591 -0.291917,0.0910472 -0.39228,0.0409764 -0.0463661,-0.0231299 -0.0841772,-0.057122 -0.110937,-0.0988504 -0.0267598,-0.0417402 -0.0418819,-0.0908189 -0.0428622,-0.144122 -0.00205906,-0.112091 0.0609646,-0.241669 0.217177,-0.348319l0.44411 -0.351846c-0.0337323,-0.167839 -0.0233701,-0.296047 0.0174252,-0.394953 0.0504488,-0.122327 0.142346,-0.195579 0.254563,-0.239972 0.16048,-0.0635039 0.351185,-0.0695945 0.527669,-0.0303819 0.177709,0.0394882 0.343559,0.125827 0.452492,0.246681 0.0032874,0.00329921 0.00640945,0.00685039 0.00931496,0.0106575 0.0917008,0.119598 0.187547,0.225776 0.283382,0.331941 0.0978976,0.108457 0.195807,0.216917 0.294291,0.345374l-0.000220472 0.000169291c0.10185,0.128409 0.118134,0.263642 0.0822047,0.367161 -0.0162992,0.0469843 -0.0428661,0.0874291 -0.0770827,0.118531 -0.0352598,0.0320512 -0.0787953,0.0545157 -0.127937,0.0644961 -0.0976575,0.0198425 -0.214228,-0.0118268 -0.321524,-0.121819 -0.00227953,-0.00203937 -0.00449213,-0.00418504 -0.00662598,-0.00645276l-0.293161 -0.310319c0.145815,0.679634 0.0186693,1.02738 -0.0741732,1.28128 -0.0511102,0.139772 -0.0896772,0.245248 -0.0470748,0.358531l-8.66142e-005 3.14961e-005 0.459618 1.06343c0.0150748,0.0262126 0.0264252,0.0535866 0.0341969,0.0815906 0.00875984,0.0315827 0.0130354,0.0630394 0.0130354,0.0937283 0,0.0597992 -0.0157874,0.119331 -0.0457953,0.172488 -0.0290197,0.0514173 -0.070874,0.0960236 -0.124075,0.128197l-3.93701e-006 -3.93701e-006 -0.000318898 0.00019685c-0.0826417,0.049815 -0.177791,0.0613622 -0.264783,0.0397677 -0.087185,-0.0216378 -0.166146,-0.0763898 -0.216177,-0.159106l0.000181102 -0.000110236c-0.00320866,-0.0052874 -0.00598819,-0.0109213 -0.00829528,-0.0168819 -0.0467126,-0.12065 -0.0879331,-0.224465 -0.128382,-0.326339 -0.169689,-0.427394 -0.326894,-0.823362 -0.437319,-1.27682 -0.180024,0.255276 -0.21976,0.460906 -0.258894,0.663598z"/>
  <path class="fil0" d="M1.97948 4.12475c0.135626,0 0.258476,0.0550276 0.347417,0.143965 0.0889331,0.0889252 0.143965,0.211772 0.143965,0.347402 0,0.135496 -0.0550039,0.258197 -0.143894,0.34711 -0.0892047,0.0892283 -0.21211,0.144378 -0.347488,0.144378 -0.135697,0 -0.258594,-0.0549882 -0.347555,-0.143953 -0.0889055,-0.0889134 -0.143913,-0.211752 -0.143913,-0.347535 0,-0.135358 0.0551969,-0.258228 0.144402,-0.347413 0.0889567,-0.0889252 0.211685,-0.143953 0.347067,-0.143953zm0.196591 0.294791c-0.0503228,-0.0503228 -0.119843,-0.0814606 -0.196591,-0.0814606 -0.0770669,0 -0.146744,0.0311339 -0.197075,0.0814488 -0.0500787,0.0500669 -0.081063,0.119563 -0.081063,0.196587 0,0.0768858 0.0311181,0.146413 0.0814094,0.196709 0.0503307,0.0503346 0.119898,0.0814488 0.196728,0.0814488 0.077063,0 0.146594,-0.0309567 0.196661,-0.0810394 0.0502756,-0.0502913 0.0813898,-0.119957 0.0813898,-0.197118 0,-0.076748 -0.0311417,-0.14626 -0.0814606,-0.196575z"/>
  <rect class="fil1" width="6.82666" height="6.82666"/>
 </g>
</svg>
