<?xml version="1.0" encoding="UTF-8"?>
<!DOCTYPE svg PUBLIC "-//W3C//DTD SVG 1.1//EN" "http://www.w3.org/Graphics/SVG/1.1/DTD/svg11.dtd">
<!-- Creator: CorelDRAW -->
<svg xmlns="http://www.w3.org/2000/svg" xml:space="preserve" width="6.82666in" height="6.82666in" style="shape-rendering:geometricPrecision; text-rendering:geometricPrecision; image-rendering:optimizeQuality; fill-rule:evenodd; clip-rule:evenodd"
viewBox="0 0 6.82666 6.82666"
 xmlns:xlink="http://www.w3.org/1999/xlink">
 <defs>
  <style type="text/css">
   <![CDATA[
    .fil1 {fill:none}
    .fil0 {fill:#212121;fill-rule:nonzero}
   ]]>
  </style>
 </defs>
 <g id="Layer_x0020_1">
  <metadata id="CorelCorpID_0Corel-Layer"/>
  <path class="fil0" d="M2.62876 2.56791c0.0651772,-0.0263268 0.114346,-0.0751378 0.141488,-0.133 0.0264449,-0.056378 0.0319252,-0.121248 0.010685,-0.181697l-0.462268 -1.1442c-0.0218583,-0.0545354 0.00463386,-0.116476 0.0591693,-0.138335l0.270854 -0.109433c0.0545354,-0.0218583 0.116476,0.00463386 0.138335,0.0591693l0.46237 1.14441c0.0266772,0.0575433 0.0754409,0.0999724 0.133374,0.122094 0.0600787,0.022937 0.12965,0.0239803 0.194961,-0.00240945 0.0545354,-0.0218583 0.116476,0.00463386 0.138335,0.0591693 0.136551,0.337988 0.3805,0.940441 0.62461,1.54331 0.166575,0.411382 0.333406,0.823386 0.62124,1.5358 0.0312205,0.0772795 0.0268543,0.16052 -0.00529134,0.23235 -0.0316024,0.0706142 -0.0902835,0.130232 -0.168358,0.161787l-0.577551 0.233339 -1.5748e-005 7.87402e-006c-0.0777756,0.0314173 -0.161142,0.0292795 -0.232768,0.000511811 -0.0730984,-0.0293583 -0.134193,-0.0864331 -0.165598,-0.164146l-1.5748e-005 -4.72441e-005c-0.212118,-0.525016 -0.417606,-1.03472 -0.623,-1.54422 -0.204496,-0.507268 -0.408917,-1.01435 -0.619724,-1.53612 -0.0218583,-0.0545354 0.00463386,-0.116476 0.0591693,-0.138335zm0.333992 -0.043c-0.034937,0.0744764 -0.0896929,0.140559 -0.160358,0.189547 0.198366,0.491094 0.391362,0.969835 0.584425,1.44874 0.205398,0.509508 0.41089,1.01923 0.623012,1.54426l3.93701e-006 1.1811e-005c0.00862598,0.0213465 0.0260906,0.0373071 0.0472598,0.0458071 0.0226142,0.00908268 0.0492323,0.00964961 0.0743701,-0.000484252l8.26772e-005 -3.54331e-005 0.577551 -0.233339c0.0248583,-0.0100472 0.0434528,-0.0288189 0.0533583,-0.0509528 0.00934252,-0.0208819 0.010748,-0.0447402 0.00195276,-0.0665157 -0.13413,-0.331976 -0.377681,-0.933453 -0.62124,-1.53496 -0.161575,-0.399035 -0.323118,-0.797984 -0.589035,-1.4561 -0.0849961,0.0139921 -0.170358,0.00453543 -0.247201,-0.0248031 -0.0876772,-0.0334803 -0.164492,-0.0928898 -0.217587,-0.17302l-0.44898 -1.1217 -0.098748 0.0395827 0.46311 1.157c0.00770472,0.0817559 -0.00750787,0.16348 -0.0419764,0.236965zm0.849575 3.26171l-1.1811e-005 -3.54331e-005"/>
  <path class="fil0" d="M2.45332 4.58667c0.176724,0 0.336728,0.0716417 0.452551,0.187457 0.115823,0.115815 0.187465,0.275819 0.187465,0.452535 0,0.176724 -0.0716378,0.336728 -0.187461,0.452551 -0.115823,0.115823 -0.275831,0.187461 -0.452555,0.187461 -0.176713,0 -0.336717,-0.0716417 -0.452531,-0.187465 -0.115819,-0.115819 -0.187457,-0.275823 -0.187457,-0.452547 0,-0.176713 0.0716417,-0.336713 0.187457,-0.452535 0.115819,-0.115819 0.275819,-0.187457 0.452531,-0.187457zm0.301717 0.338291c-0.0772008,-0.0772008 -0.183878,-0.124953 -0.301717,-0.124953 -0.117827,0 -0.2245,0.0477559 -0.301697,0.124953 -0.0772008,0.0772008 -0.124953,0.183874 -0.124953,0.301701 0,0.117839 0.0477559,0.224516 0.124953,0.301713 0.0772008,0.0772008 0.18387,0.124961 0.301697,0.124961 0.117839,0 0.224516,-0.047752 0.30172,-0.124957 0.0772047,-0.0772047 0.124957,-0.183878 0.124957,-0.301717 0,-0.117831 -0.0477598,-0.2245 -0.124961,-0.301701z"/>
 </g>
 <g id="Layer_x0020_1_0">
  <metadata id="CorelCorpID_1Corel-Layer"/>
  <rect class="fil1" width="6.82666" height="6.82666"/>
 </g>
</svg>
