<?xml version="1.0" encoding="UTF-8"?>
<!DOCTYPE svg PUBLIC "-//W3C//DTD SVG 1.1//EN" "http://www.w3.org/Graphics/SVG/1.1/DTD/svg11.dtd">
<!-- Creator: CorelDRAW -->
<svg xmlns="http://www.w3.org/2000/svg" xml:space="preserve" width="6.82666in" height="6.82666in" style="shape-rendering:geometricPrecision; text-rendering:geometricPrecision; image-rendering:optimizeQuality; fill-rule:evenodd; clip-rule:evenodd"
viewBox="0 0 6.82666 6.82666"
 xmlns:xlink="http://www.w3.org/1999/xlink">
 <defs>
  <style type="text/css">
   <![CDATA[
    .fil1 {fill:none}
    .fil0 {fill:#212121;fill-rule:nonzero}
   ]]>
  </style>
 </defs>
 <g id="Layer_x0020_1">
  <metadata id="CorelCorpID_0Corel-Layer"/>
  <g id="_319192448">
   <path id="_319192400" class="fil0" d="M4.76861 3.00286l-0.549744 -0.483181 -0.236138 0.10785 0.993205 0.701748c0.0480906,0.0338268 0.0596575,0.100244 0.0258307,0.148335 -0.0029685,0.00422441 -0.00619685,0.00815748 -0.00963386,0.011811 -0.0622795,0.0740433 -0.140016,0.134437 -0.22813,0.176067 -0.0874921,0.0413346 -0.184898,0.0644606 -0.287272,0.0644606 -0.128126,0 -0.248185,-0.0360669 -0.350598,-0.0986457 -0.0574803,-0.035122 -0.109311,-0.0787165 -0.153791,-0.129071 -0.0557087,0.0634016 -0.121213,0.113425 -0.192402,0.150094 -0.0975197,0.0502323 -0.205811,0.0752874 -0.314138,0.075252 -0.108043,-3.54331e-005 -0.216252,-0.0251654 -0.313913,-0.0752953 -0.0760039,-0.0390157 -0.145528,-0.0928819 -0.203587,-0.161531 -0.0360709,0.0344646 -0.076185,0.0654055 -0.119213,0.0923504 -0.112437,0.0704134 -0.245531,0.113957 -0.378335,0.122051 -0.136346,0.00831102 -0.273791,-0.0204094 -0.391114,-0.0950945 -0.0706929,-0.045 -0.133406,-0.106476 -0.183394,-0.186299 -0.0213071,-0.0340866 -0.0208937,-0.0755906 -0.00249606,-0.108331l-3.93701e-006 -3.93701e-006c0.0577402,-0.102335 0.164165,-0.261528 0.270406,-0.420441 0.0990866,-0.14822 0.198024,-0.296209 0.253063,-0.391295 0.00323228,-0.00558268 0.0068937,-0.0107638 0.0109213,-0.0155197 0.0500039,-0.0661181 0.100626,-0.119051 0.151665,-0.160122 0.0532953,-0.0428898 0.107598,-0.073437 0.162634,-0.0929921 0.324417,-0.156461 1.27654,-0.577272 1.2793,-0.578488 0.00205118,-0.000901575 0.00411024,-0.00172835 0.00618504,-0.00248819 0.132823,-0.0584803 0.278433,-0.0689921 0.414228,-0.0376732 0.137075,0.0316102 0.264744,0.105701 0.359728,0.215898l0.650232 0.597358c0.00437402,0.00402362 0.00832283,0.00833465 0.0118701,0.0128661 0.078122,0.0935 0.110799,0.209142 0.101,0.321173 -0.00988976,0.113102 -0.0630433,0.222831 -0.15637,0.302512 -0.00337795,0.0028937 -0.00688976,0.0055315 -0.0105039,0.0079252l2.75591e-005 4.33071e-005c-0.0975669,0.0649331 -0.212839,0.0892874 -0.323217,0.0753228 -0.106827,-0.0135118 -0.209071,-0.0630787 -0.286303,-0.146646zm-0.460567 -0.688587l0.603799 0.530693 -0.000200787 0.000228346c0.00327165,0.00288976 0.00640157,0.00600394 0.00936614,0.00935433 0.0425039,0.0480236 0.100118,0.0764764 0.160575,0.084122 0.0589449,0.00745669 0.120618,-0.00501575 0.173713,-0.0385394 0.0459331,-0.0414685 0.0721496,-0.0972638 0.0771772,-0.15476 0.00500787,-0.0572638 -0.0109528,-0.115972 -0.0493307,-0.163449l-0.650028 -0.597169 7.87402e-006 -7.87402e-006c-0.0032126,-0.00296457 -0.00628346,-0.00615354 -0.00917717,-0.0095748 -0.0652047,-0.077311 -0.153886,-0.129252 -0.249303,-0.15126 -0.0926299,-0.0213622 -0.191083,-0.0146732 -0.280008,0.0242323 -0.00229528,0.00121654 -0.00465354,0.0023622 -0.00706693,0.0034252 -0.00277953,0.00122835 -0.96715,0.427445 -1.2776,0.577551l-3.14961e-005 -6.29921e-005c-0.00399606,0.00192126 -0.00815354,0.00361811 -0.0124685,0.00506299 -0.0337283,0.0113583 -0.0685,0.0309213 -0.104339,0.0597638 -0.0377598,0.0303819 -0.0759016,0.0703465 -0.114354,0.120953 -0.057437,0.0985276 -0.157618,0.24839 -0.257957,0.39848 -0.0853543,0.127669 -0.170827,0.25552 -0.227575,0.348031 0.0242283,0.0278819 0.0513543,0.0509567 0.0805591,0.0695472 0.0768189,0.0489016 0.170004,0.0675118 0.264445,0.0617559 0.0979803,-0.00597244 0.195894,-0.0379213 0.278335,-0.0895472 0.060248,-0.0377283 0.111831,-0.0857677 0.148409,-0.141465 0.00985039,-0.0174606 0.0247283,-0.0323425 0.0438819,-0.0422126 0.0522362,-0.0269213 0.116413,-0.00640551 0.143335,0.0458307 0.046815,0.0908898 0.116457,0.156854 0.196346,0.197862 0.0673898,0.0345906 0.142283,0.0519331 0.217244,0.0519567 0.0746772,2.3622e-005 0.149358,-0.0172598 0.216634,-0.0519134 0.0795827,-0.0409921 0.148717,-0.10648 0.194961,-0.196535 0.00980709,-0.0192677 0.025563,-0.0357323 0.0462874,-0.0463228 0.0522362,-0.0266929 0.116224,-0.00598819 0.142917,0.046248 0.0387047,0.075374 0.0979016,0.138803 0.170366,0.183083 0.0695315,0.0424882 0.151606,0.0669764 0.239764,0.0669764 0.0706535,0 0.137228,-0.0156535 0.196437,-0.043626 0.0263425,-0.0124449 0.0512953,-0.0272835 0.0745748,-0.0442205l-1.03876 -0.733937 0.000102362 -0.000149606c-0.0149409,-0.0104882 -0.0273819,-0.0249606 -0.0355157,-0.0427677 -0.0243898,-0.0533858 -0.000885827,-0.116441 0.0525,-0.140831l0.459898 -0.210047c0.0382913,-0.0212126 0.0873465,-0.0173386 0.122083,0.0132402z"/>
   <path id="_319192256" class="fil0" d="M1.84274 2.69789c0.0674528,-0.0976929 0.0894134,-0.214154 0.0710315,-0.32328 -0.0183819,-0.10913 -0.0771929,-0.210457 -0.171201,-0.277579 -0.00312205,-0.00223622 -0.00505906,-0.0036063 -0.00593307,-0.0042126 -0.0930748,-0.0642323 -0.207193,-0.0864173 -0.315177,-0.0689724 -0.106941,0.0172795 -0.207248,0.0737559 -0.273976,0.167031l0 0.000417323c-0.00793701,0.0110827 0.000358268,-0.00109843 -0.00417323,0.00546063 -0.0672953,0.0977598 -0.0892323,0.214339 -0.0708307,0.32363 0.0183465,0.108965 0.0771811,0.210315 0.171437,0.27778l-5.11811e-005 7.48031e-005 0.000468504 0.000338583c0.00697638,0.00505118 0.00754331,0.00556693 0.00864567,0.00632283 0.0956339,0.0657992 0.208213,0.0873543 0.313705,0.0693031 0.105091,-0.0179843 0.203043,-0.0755157 0.269933,-0.167953 0.00497638,-0.00688189 0.0051811,-0.00699213 0.00612205,-0.0083622zm0.281031 -0.35828c0.0271535,0.161189 -0.00565748,0.333736 -0.106031,0.479114l-0.00861811 0.0125276c-0.10074,0.139217 -0.248283,0.225862 -0.406602,0.252953 -0.157902,0.0270157 -0.326677,-0.00543701 -0.470374,-0.104303l-0.0123346 -0.00848819 -5.90551e-005 8.26772e-005c-0.141539,-0.101307 -0.229827,-0.25311 -0.257272,-0.41611 -0.0271535,-0.16128 0.00565354,-0.333933 0.105831,-0.479465 0.00783858,-0.0113504 0.00128346,-0.0024252 0.00584252,-0.00879134l0.000200787 0.000141732c0.101543,-0.141776 0.252949,-0.227441 0.413776,-0.253425 0.15989,-0.0258307 0.329764,0.00764567 0.469343,0.103972 0.00392913,0.0027126 0.00679528,0.0047126 0.00842913,0.00588189 0.141882,0.101303 0.230437,0.253067 0.25787,0.415909zm-0.879854 0.458555l-0.0130906 -0.00937008 0.0130394 0.00944488 5.11811e-005 -7.48031e-005z"/>
   <path id="_319191992" class="fil0" d="M5.68961 4.6806c0.0572992,-0.0135748 0.11476,0.0218701 0.128335,0.0791693 0.0135748,0.0572992 -0.0218701,0.11476 -0.0791693,0.128335 -0.025378,0.00601181 -0.0517756,0.010622 -0.0790236,0.0137953 -0.0271535,0.00316142 -0.0537598,0.00475984 -0.0796496,0.00475984 -0.141449,0 -0.275201,-0.0434961 -0.384409,-0.118854 -0.051815,-0.0357559 -0.0980433,-0.0786575 -0.136933,-0.127484 -0.0388858,0.0488307 -0.0851181,0.0917283 -0.136933,0.127488 -0.109201,0.0753583 -0.242953,0.11885 -0.384409,0.11885 -0.141358,0 -0.275051,-0.0434488 -0.38424,-0.118736 -0.0518189,-0.0357362 -0.0980591,-0.0786181 -0.136965,-0.127441 -0.0389055,0.0488228 -0.0851457,0.0917047 -0.136965,0.127441 -0.109197,0.0752913 -0.24289,0.118736 -0.384244,0.118736 -0.141457,0 -0.275217,-0.0434961 -0.384425,-0.118854 -0.051811,-0.0357559 -0.0980394,-0.0786535 -0.136921,-0.12748 -0.0388858,0.0488268 -0.0851181,0.0917244 -0.136929,0.12748 -0.109205,0.0753583 -0.242961,0.118854 -0.384406,0.118854 -0.141354,0 -0.275047,-0.0434449 -0.384244,-0.118736 -0.0518228,-0.0357362 -0.0980669,-0.078622 -0.136969,-0.127445 -0.0389094,0.0488268 -0.0851535,0.0917165 -0.13698,0.127449 -0.109193,0.0752913 -0.242882,0.118732 -0.384244,0.118732 -0.0266929,0 -0.0538858,-0.00164567 -0.081374,-0.00490945 -0.0256299,-0.00304724 -0.0524173,-0.00794488 -0.0802008,-0.0146654 -0.0570669,-0.0138071 -0.0921417,-0.0712677 -0.0783346,-0.128335 0.0138071,-0.0570669 0.0712677,-0.0921417 0.128335,-0.0783346 0.0167953,0.00406299 0.0352441,0.00729134 0.0552008,0.00966535 0.0181417,0.00215354 0.0369764,0.00324016 0.056374,0.00324016 0.097874,0 0.189476,-0.0294173 0.263409,-0.0803937 0.0727362,-0.0501496 0.128661,-0.12128 0.156567,-0.205661 0.0102323,-0.0310039 0.0345276,-0.0569252 0.0679173,-0.0679173 0.0559173,-0.0184094 0.116177,0.012 0.134587,0.0679173 0.0278976,0.084378 0.0838189,0.155508 0.156547,0.205657 0.073937,0.0509803 0.165543,0.0803976 0.263409,0.0803976 0.0979252,0 0.189594,-0.0294646 0.263571,-0.0805157 0.0727323,-0.0501929 0.12865,-0.121421 0.15652,-0.205925 0.0102323,-0.0310039 0.0345276,-0.0569252 0.0679173,-0.0679173 0.0559173,-0.0184094 0.116177,0.012 0.134587,0.0679173 0.0278583,0.0845079 0.0837717,0.155736 0.156496,0.205925 0.0739803,0.0510512 0.16565,0.0805157 0.263591,0.0805157 0.0978661,0 0.189472,-0.0294173 0.263409,-0.0803976 0.0727283,-0.0501496 0.12865,-0.12128 0.156547,-0.205657 0.0102323,-0.0310039 0.0345276,-0.0569252 0.0679173,-0.0679173 0.0559173,-0.0184094 0.116177,0.012 0.134587,0.0679173 0.0278976,0.084378 0.0838189,0.155508 0.156547,0.205657 0.0739331,0.0509764 0.165535,0.0803976 0.263406,0.0803976 0.0979331,0 0.189602,-0.0294606 0.263575,-0.0805118 0.0727323,-0.0501929 0.128646,-0.121421 0.156516,-0.205929 0.0102323,-0.0310039 0.0345276,-0.0569252 0.0679173,-0.0679173 0.0559173,-0.0184094 0.116177,0.012 0.134587,0.0679173 0.0278701,0.0845039 0.0837835,0.155732 0.156516,0.205925 0.0739803,0.0510512 0.165642,0.0805157 0.263575,0.0805157 0.0193268,0 0.0378583,-0.00103937 0.0554843,-0.00309055 0.0175236,-0.00204331 0.0355709,-0.00525984 0.0540236,-0.00962992z"/>
   <path id="_319192712" class="fil0" d="M1.06026 4.27687c-0.0503937,-0.0301417 -0.066811,-0.0954409 -0.0366693,-0.145835 0.0301417,-0.0503937 0.0954409,-0.066811 0.145835,-0.0366693 0.0359843,0.0216299 0.0746181,0.038122 0.114638,0.0491102 0.0396614,0.0108937 0.0820157,0.0165118 0.125831,0.0165118 0.097874,0 0.189472,-0.0294213 0.263406,-0.0803976 0.0727402,-0.0501575 0.128661,-0.121287 0.156571,-0.205673 0.0184094,-0.0559173 0.0786693,-0.0863268 0.134587,-0.0679173 0.0333898,0.0109921 0.057685,0.0369134 0.0679173,0.0679173 0.0278976,0.084378 0.0838228,0.155516 0.156555,0.205665 0.073937,0.0509882 0.165539,0.0804055 0.263402,0.0804055 0.0979213,0 0.189587,-0.0294646 0.263563,-0.0805197 0.0727362,-0.0501929 0.128654,-0.121417 0.156528,-0.205921 0.0184094,-0.0559173 0.0786693,-0.0863268 0.134587,-0.0679173 0.0333898,0.0109921 0.057685,0.0369134 0.0679173,0.0679173 0.0278583,0.0845039 0.0837717,0.155728 0.156504,0.205921 0.0739803,0.0510551 0.16565,0.0805197 0.263583,0.0805197 0.0978661,0 0.189469,-0.0294173 0.263402,-0.0804016 0.0727362,-0.0501535 0.128657,-0.121291 0.156555,-0.205669 0.0184094,-0.0559173 0.0786693,-0.0863268 0.134587,-0.0679173 0.0333898,0.0109921 0.057685,0.0369134 0.0679173,0.0679173 0.0278976,0.084378 0.0838189,0.155516 0.156551,0.205669 0.0739331,0.0509843 0.165539,0.0804016 0.263402,0.0804016 0.097937,0 0.189594,-0.0294646 0.263567,-0.0805157 0.0727362,-0.0501929 0.128657,-0.121425 0.156524,-0.205925 0.0184094,-0.0559173 0.0786693,-0.0863268 0.134587,-0.0679173 0.0333898,0.0109921 0.057685,0.0369134 0.0679173,0.0679173 0.0278661,0.0844961 0.0837874,0.155728 0.156524,0.205921 0.0739764,0.0510551 0.165642,0.0805197 0.263567,0.0805197 0.0419724,0 0.0829606,-0.00531102 0.121843,-0.015626 0.0395906,-0.0105039 0.0772402,-0.0258858 0.111795,-0.0458268 0.0508543,-0.0292244 0.115776,-0.011689 0.145,0.0391654 0.0292244,0.0508543 0.011689,0.115776 -0.0391654,0.145 -0.0515748,0.0297638 -0.10661,0.0524134 -0.163465,0.0674961 -0.0575512,0.0152677 -0.116776,0.0231299 -0.176008,0.0231299 -0.141445,0 -0.275197,-0.0434921 -0.384402,-0.118858 -0.0518189,-0.0357559 -0.0980512,-0.0786614 -0.136937,-0.127488 -0.0388937,0.0488307 -0.085126,0.0917362 -0.136945,0.127492 -0.109201,0.0753583 -0.242945,0.118854 -0.384402,0.118854 -0.141354,0 -0.275043,-0.0434449 -0.384236,-0.11874 -0.0518189,-0.0357362 -0.098063,-0.078622 -0.136969,-0.127445 -0.0389055,0.0488268 -0.0851496,0.0917087 -0.136972,0.127445 -0.109193,0.0752953 -0.242878,0.11874 -0.384236,0.11874 -0.141457,0 -0.275213,-0.0434961 -0.384417,-0.118858 -0.051815,-0.0357598 -0.0980433,-0.0786614 -0.136929,-0.127488 -0.0388858,0.0488307 -0.085122,0.0917323 -0.136937,0.127488 -0.109205,0.0753661 -0.242957,0.118858 -0.384398,0.118858 -0.141354,0 -0.275043,-0.0434449 -0.384236,-0.118744 -0.0518268,-0.0357362 -0.0980709,-0.078622 -0.13698,-0.127449 -0.0389094,0.0488307 -0.0851535,0.0917205 -0.13698,0.127457 -0.109189,0.0752874 -0.242878,0.118736 -0.38424,0.118736 -0.0607992,0 -0.121972,-0.00845669 -0.181665,-0.0248504 -0.0593504,-0.0162992 -0.115953,-0.0403425 -0.167969,-0.0716063z"/>
  </g>
  <rect class="fil1" width="6.82666" height="6.82666"/>
 </g>
</svg>
