<?xml version="1.0" encoding="UTF-8"?>
<!DOCTYPE svg PUBLIC "-//W3C//DTD SVG 1.1//EN" "http://www.w3.org/Graphics/SVG/1.1/DTD/svg11.dtd">
<!-- Creator: CorelDRAW -->
<svg xmlns="http://www.w3.org/2000/svg" xml:space="preserve" width="6.82666in" height="6.82666in" style="shape-rendering:geometricPrecision; text-rendering:geometricPrecision; image-rendering:optimizeQuality; fill-rule:evenodd; clip-rule:evenodd"
viewBox="0 0 6.82666 6.82666"
 xmlns:xlink="http://www.w3.org/1999/xlink">
 <defs>
  <style type="text/css">
   <![CDATA[
    .fil1 {fill:none}
    .fil0 {fill:#212121;fill-rule:nonzero}
   ]]>
  </style>
 </defs>
 <g id="Layer_x0020_1">
  <metadata id="CorelCorpID_0Corel-Layer"/>
  <path class="fil0" d="M3.58267 2.03882c-0.284831,0.143055 -0.655563,0.362102 -1.04625,0.666732 -0.00712598,0.00555512 -0.0142559,0.0111457 -0.0213937,0.0167598 0.302295,-0.00523228 0.606984,0.0439843 0.872256,0.146933 0.41074,0.159409 0.72924,0.445106 0.811567,0.855268 0.205236,-0.262118 0.429248,-0.579055 0.680906,-0.964713l0.178331 0.115835c-0.317559,0.486646 -0.592787,0.866787 -0.842843,1.16727 -0.00217717,0.0257244 -0.0048189,0.050878 -0.00790551,0.0754488 -0.0678583,0.540287 -0.359142,0.945118 -0.749165,1.20512 -0.385646,0.257087 -0.868295,0.371083 -1.32489,0.33272 -0.0280866,-0.00235827 -0.0557874,-0.00525591 -0.0830512,-0.00867717 -0.33463,-0.0420315 -0.639087,-0.155154 -0.851921,-0.339717 -0.110315,-0.0956654 -0.196173,-0.210441 -0.249488,-0.344476 -0.0533189,-0.134047 -0.0735276,-0.285134 -0.0524488,-0.452965 0.00812205,-0.0646693 0.0224291,-0.131988 0.0433583,-0.201921 -0.120307,-0.486469 0.0164331,-0.862457 0.292531,-1.12846 0.228858,-0.220492 0.554114,-0.360732 0.905681,-0.422106 0.089689,-0.0775748 0.179146,-0.150823 0.267642,-0.219823 0.40313,-0.314331 0.78685,-0.540945 1.08209,-0.689228l0.095 0.19zm-1.35073 0.919169c-0.199756,0.176039 -0.400106,0.37439 -0.592524,0.59628 -0.248528,0.286598 -0.401331,0.539575 -0.477839,0.759693 0.0188858,0.0663858 0.0431929,0.135236 0.0734331,0.20663 0.0949488,0.224181 0.313587,0.395409 0.596807,0.472638 0.272031,0.0741772 0.602071,0.0612953 0.941031,-0.0734094 0.309366,-0.122965 0.599984,-0.302866 0.928492,-0.627878 0.0977992,-0.0967598 0.198906,-0.20628 0.30474,-0.330752 0.00833071,-0.436783 -0.289898,-0.736209 -0.695472,-0.893614 -0.312878,-0.121425 -0.687831,-0.160165 -1.04083,-0.114799 -0.0126457,0.00162598 -0.0252559,0.00337402 -0.0378346,0.0052126zm-0.753358 0.457114c0.105142,-0.121248 0.212591,-0.235697 0.321039,-0.343547 -0.161535,0.0644213 -0.305535,0.15161 -0.419858,0.261752 -0.155287,0.149614 -0.255264,0.344728 -0.267874,0.586382 0.0909921,-0.157862 0.211913,-0.326102 0.366693,-0.504587zm-0.37137 1.31758c0.0070315,0.0542244 0.0202835,0.104984 0.0391102,0.152311 0.0400354,0.100646 0.105866,0.188016 0.19115,0.261972 0.179362,0.155539 0.443748,0.251846 0.738591,0.288882 0.0251024,0.00314961 0.0500276,0.00577165 0.0747205,0.00784252 0.410972,0.0345315 0.844488,-0.0674685 1.18988,-0.29772 0.275327,-0.183543 0.494343,-0.449598 0.599728,-0.793807 -0.0299764,0.0313189 -0.0596535,0.0615276 -0.0890512,0.0906102 -0.351587,0.347843 -0.665004,0.541331 -1.00016,0.674547 -0.38424,0.152701 -0.761693,0.166394 -1.0752,0.0809055 -0.291524,-0.0794921 -0.528945,-0.244949 -0.668772,-0.465543z"/>
  <path class="fil0" d="M4.70595 1.40965l-7.87402e-006 -4.33071e-005c-0.00624803,-0.0141063 -0.0177362,-0.0243976 -0.031185,-0.0295906 -0.0134134,-0.0051811 -0.028937,-0.0052126 -0.043315,0.00114961l-1.9685e-005 7.87402e-006 -1.02723 0.454709 -2.75591e-005 7.87402e-006 0 3.93701e-006c-0.0141181,0.00625197 -0.0244094,0.0177362 -0.0296063,0.031189 -0.00518504,0.0134213 -0.00521654,0.0289488 0.00114567,0.0433268l3.14961e-005 9.84252e-005c0.00625197,0.0140945 0.0177362,0.0243701 0.0311772,0.029563 0.0134252,0.00518504 0.0289685,0.00521654 0.043378,-0.00116142l1.0272 -0.454701c0.0141181,-0.00624803 0.0244134,-0.0177402 0.0296142,-0.0312047 0.00518504,-0.0134213 0.00521654,-0.0289606 -0.00115748,-0.0433543zm0.195051 -0.0857205c0.0298622,0.0675276 0.0293346,0.141295 0.00443701,0.205744 -0.0248976,0.0644646 -0.0742756,0.1195 -0.14211,0.149535l-1.0272 0.454701c-0.0675669,0.0299094 -0.141386,0.0294055 -0.205882,0.00449213 -0.0644646,-0.0248937 -0.1195,-0.0742717 -0.149528,-0.142106l-1.1811e-005 -5.11811e-005c-0.0298937,-0.0675433 -0.0293898,-0.141346 -0.00447638,-0.205831 0.0248937,-0.0644528 0.0742677,-0.119476 0.142102,-0.14952l2.75591e-005 -7.87402e-006 0 -3.93701e-006 1.02723 -0.454709 1.9685e-005 -7.87402e-006c0.0675394,-0.0299016 0.141335,-0.0293898 0.205819,-0.00448031 0.0644488,0.0248937 0.11948,0.0742638 0.149516,0.142091l5.90551e-005 0.000153543zm-0.195059 0.0856811l0 -3.93701e-006"/>
  <path class="fil0" d="M5.77238 1.74194l-2.75591e-005 -2.75591e-005c-0.0124173,-0.00926772 -0.0276181,-0.0125984 -0.0420906,-0.0105039 -0.014126,0.00204331 -0.0275236,0.00951181 -0.0367638,0.0218858l-3.14961e-005 0 1.9685e-005 1.5748e-005 -0.672205 0.900059 -2.3622e-005 3.14961e-005c-0.00925984,0.0124134 -0.0125984,0.0276102 -0.0105,0.0420866 0.00204724,0.0141299 0.00950787,0.0275276 0.021874,0.0367638l0.000129921 0.000110236c0.0124016,0.00922047 0.0275709,0.0125354 0.0420197,0.0104409 0.0141339,-0.00204724 0.0275433,-0.00952362 0.0368031,-0.0219213l0.672189 -0.900039c0.00927165,-0.0124173 0.0126102,-0.027626 0.0105118,-0.0421063 -0.00204724,-0.0141378 -0.00951969,-0.0275472 -0.0219055,-0.0367953zm0.127504 -0.170835c0.0594252,0.044374 0.0953031,0.109102 0.105236,0.17763 0.00988189,0.068185 -0.00616142,0.140217 -0.0505118,0.19961l-0.672189 0.900039c-0.0443819,0.0594331 -0.109106,0.0953189 -0.177638,0.105252 -0.068185,0.00988976 -0.140213,-0.00615748 -0.199614,-0.0505079l-3.93701e-005 -4.33071e-005c-0.0594016,-0.0443661 -0.0952795,-0.109083 -0.105205,-0.177598 -0.00988189,-0.0681693 0.00616535,-0.140197 0.0505,-0.199594l2.75591e-005 -3.14961e-005 0.672201 -0.900055 3.14961e-005 0 -1.9685e-005 -1.5748e-005c0.0443622,-0.0594173 0.109083,-0.0952913 0.177598,-0.105217 0.0681732,-0.00987795 0.140189,0.00616142 0.199594,0.0505039l0 6.29921e-005 2.75591e-005 -3.54331e-005zm-1.04944 0.95476l3.93701e-006 -3.93701e-006"/>
 </g>
 <g id="Layer_x0020_1_0">
  <metadata id="CorelCorpID_1Corel-Layer"/>
  <rect class="fil1" width="6.82666" height="6.82666"/>
 </g>
</svg>
