<?xml version="1.0" encoding="UTF-8"?>
<!DOCTYPE svg PUBLIC "-//W3C//DTD SVG 1.1//EN" "http://www.w3.org/Graphics/SVG/1.1/DTD/svg11.dtd">
<!-- Creator: CorelDRAW -->
<svg xmlns="http://www.w3.org/2000/svg" xml:space="preserve" width="6.82666in" height="6.82666in" style="shape-rendering:geometricPrecision; text-rendering:geometricPrecision; image-rendering:optimizeQuality; fill-rule:evenodd; clip-rule:evenodd"
viewBox="0 0 6.82666 6.82666"
 xmlns:xlink="http://www.w3.org/1999/xlink">
 <defs>
  <style type="text/css">
   <![CDATA[
    .fil1 {fill:none}
    .fil0 {fill:#212121;fill-rule:nonzero}
   ]]>
  </style>
 </defs>
 <g id="Layer_x0020_1">
  <metadata id="CorelCorpID_0Corel-Layer"/>
  <path class="fil0" d="M3.41334 0.853331c0.706937,0 1.34694,0.286535 1.8102,0.749795 0.463264,0.463272 0.749791,1.10328 0.749791,1.81021 0,0.706929 -0.286528,1.34693 -0.749795,1.8102 -0.46326,0.46326 -1.10326,0.749791 -1.81019,0.749791 -0.706937,0 -1.34694,-0.286531 -1.8102,-0.749795 -0.463272,-0.463264 -0.749803,-1.10327 -0.749803,-1.81019 0,-0.706937 0.286531,-1.34694 0.749799,-1.81021 0.463268,-0.463268 1.10327,-0.749799 1.81021,-0.749799zm1.65937 0.900622c-0.424642,-0.424642 -1.01132,-0.687291 -1.65937,-0.687291 -0.648055,0 -1.23473,0.262646 -1.65938,0.687295 -0.42465,0.42465 -0.687295,1.01133 -0.687295,1.65938 0,0.648047 0.262646,1.23472 0.687299,1.65937 0.42465,0.424646 1.01133,0.687291 1.65938,0.687291 0.648051,0 1.23472,-0.262646 1.65937,-0.687287 0.42465,-0.42465 0.687291,-1.01132 0.687291,-1.65937 0,-0.648055 -0.262642,-1.23473 -0.687287,-1.65939z"/>
  <path class="fil0" d="M1.55152 4.95886c-0.0707362,0.0392992 -0.0745787,0.13889 -0.00664173,0.183197 0.0331969,0.0211693 0.0744488,0.022815 0.109075,0.00392913l0.014185 -0.00773622 0.0141929 -0.0076811 0.014185 -0.00761811 0.0141693 -0.00755118 0.0141654 -0.00749213 0.0141693 -0.00743307 0.0141614 -0.00737008 0.0141496 -0.00730709 0.0141378 -0.00724409 0.0141457 -0.0071811 0.005 -0.00251969c0.0308228,-0.0158071 0.0499567,-0.043378 0.0562205,-0.0734331 0.0278858,0.0140512 0.061748,0.0157756 0.0929016,0.00147244l0.00107087 -0.000492126 0.0140787 -0.00645276 0.0140591 -0.00638189 0.014063 -0.00632283 0.0140551 -0.00625984 0.0140591 -0.00620472 0.0140512 -0.00614173 0.0140276 -0.0060748 0.0140433 -0.00601969 0.0140433 -0.00596063 0.0140157 -0.0058937 0.00963386 -0.00400787c0.0320945,-0.0135551 0.0529291,-0.0395551 0.0612913,-0.0688504 0.0274685,0.0165669 0.061126,0.0201969 0.0922205,0.00863386l0.00470866 -0.00174409 0.0139409 -0.00509449 0.0139567 -0.00504331 0.0139449 -0.00498031 0.0139252 -0.00491339 0.0139252 -0.00485433 0.0139291 -0.00479528 0.0139252 -0.00473622 0.0139094 -0.00467323 0.0139134 -0.00461417 0.0139094 -0.00455512 0.0117205 -0.0037874c0.0327402,-0.0108504 0.0557126,-0.0349016 0.0665669,-0.0633386 0.0263465,0.0189528 0.059,0.0251693 0.0907717,0.0165236l0.0111654 -0.00303543 0.0138228 -0.00370079 0.0138228 -0.0036378 0.0138228 -0.00358661 0.0138031 -0.00351575 0.0137953 -0.00345669 0.013811 -0.00339764 0.0137992 -0.00334252 0.0137795 -0.00327559 0.0137835 -0.00321654 0.0137795 -0.00315354 0.0103858 -0.00233465c0.0338701,-0.00772441 0.0587008,-0.0296142 0.0719921,-0.0568307 0.0239331,0.0210591 0.0560472,0.0306024 0.0887402,0.0249331l0.00753937 -0.00130709 0.0136969 -0.00231102 0.0136969 -0.00224803 0.0137047 -0.00218898 0.0137008 -0.00213386 0.013689 -0.00207087 0.0136772 -0.00201181 0.0136693 -0.00194488 0.0136772 -0.0018937 0.0136772 -0.00183071 0.0136535 -0.00177165 0.0136535 -0.00170472 0.00391732 -0.000472441c0.0343465,-0.00434252 0.0613425,-0.0235512 0.0773622,-0.0492795 0.0220472,0.0235669 0.0528898,0.0359409 0.0855276,0.0337008l0.0103228 -0.000704724 0.0135984 -0.000870079 0.0135945 -0.000811024 0.0135787 -0.000748031 0.0135709 -0.000688976 0.0135669 -0.000629921 0.0135787 -0.000566929 0.0135748 -0.000507874 0.0135748 -0.000452756 0.0135472 -0.000389764 0.0135472 -0.000326772 0.0135551 -0.000271654 0.00377165 -5.51181e-005c0.0342953,-0.000783465 0.0632638,-0.0169291 0.082,-0.0408386 0.0184173,0.0244961 0.0473543,0.0411496 0.0814803,0.0425157l0.0085315 0.000326772 0.0135 0.000566929 0.0134843 0.000625984 0.0134803 0.000688976 0.0134685 0.000748031 0.0134882 0.000811024 0.0134843 0.000870079 0.0134646 0.000925197 0.0134764 0.000992126 0.0134724 0.00104331 0.0134528 0.0011063 0.0134488 0.00116929 0.00638583 0.000582677c0.0331457,0.00284252 0.0641929,-0.00955512 0.0858622,-0.0317913 0.0162126,0.0272638 0.0438071,0.0462559 0.0765157,0.0509843l0.00587008 0.000854331 0.0134055 0.00200787 0.0134173 0.00206693 0.0134094 0.00212992 0.0134094 0.00218504 0.0133858 0.00224409 0.0133898 0.00230315 0.0133819 0.00236614 0.0134016 0.00243307 0.0133898 0.00248425 0.013374 0.00254724 0.0133898 0.0026063 0.00792913 0.00157874c0.0339055,0.00650394 0.0655118,-0.00322047 0.088748,-0.0225945 0.0132913,0.0288976 0.038815,0.0507087 0.070815,0.0588031l0.00620079 0.0015748 0.0133307 0.00344488 0.0133386 0.00351181 0.0133465 0.00357087 0.0133346 0.00362992 0.0133268 0.00368898 0.0133228 0.00375197 0.0133307 0.00381102 0.0133307 0.00387402 0.0133189 0.00392913 0.013311 0.00399213 0.0133228 0.00405512 0.00479528 0.00148031c0.033374,0.0101299 0.0657835,0.00346063 0.0908031,-0.0135236 0.0100945,0.0293701 0.0328976,0.0540787 0.0645748,0.0655945l0.0127323 0.0046378 0.0132835 0.00490157 0.0132874 0.00496457 0.0132874 0.00501969 0.0132717 0.00508268 0.0132677 0.0051378 0.0132795 0.00520866 0.0132717 0.00526378 0.0132795 0.00533071 0.0132638 0.00538583 0.0132598 0.00544488 0.00775591 0.00322047c0.0319252,0.0130079 0.0650551,0.00957874 0.0918071,-0.00503937 0.00754724,0.0311457 0.0286772,0.0576102 0.0587205,0.0715906l0.000751969 0.000354331 0.0132283 0.00623622 0.0132402 0.00629921 0.0132244 0.00635827 0.0132323 0.00642913 0.0132441 0.00648819 0.0132165 0.00653937 0.0132283 0.00661024 0.0132362 0.00667323 0.0132205 0.00672441 0.0132126 0.0067874 0.0132244 0.00685433 0.00101969 0.000531496c0.0297441,0.015252 0.0634173,0.0157795 0.0922913,0.00301969 0.00474016,0.0304252 0.0225906,0.0588622 0.0523701,0.0761024l0.0127874 0.00735433 0.0132008 0.00764961 0.013185 0.00770866c0.031937,0.0186142 0.070752,0.0196693 0.103531,0.00248819 0.0740354,-0.0390748 0.0765157,-0.143992 0.00445276,-0.186465l-0.0138465 -0.00809449 -0.0138465 -0.00802756 -0.0134252 -0.00772441c-0.0301378,-0.017248 -0.0657323,-0.0184213 -0.0960709,-0.00503543 -0.00496063,-0.0319291 -0.0242795,-0.0615551 -0.0561102,-0.078189l-0.00101969 -0.000531496 -0.0139173 -0.00721654 -0.013937 -0.00715748 -0.013937 -0.00709449 -0.0139291 -0.00701969 -0.013937 -0.00696457 -0.0139646 -0.00690945 -0.0139449 -0.00683465 -0.0139567 -0.00677559 -0.0139803 -0.00672047 -0.0139724 -0.00665354 -0.0139843 -0.00659055 -0.00148425 -0.000692913c-0.0330394,-0.0151693 -0.0680039,-0.0122165 -0.0960197,0.00314173 -0.0079685,-0.0327441 -0.0308819,-0.0601339 -0.0629094,-0.073378l-0.00775591 -0.00322047 -0.0140551 -0.00577559 -0.0140591 -0.00570079 -0.0140591 -0.00564567 -0.0140669 -0.00557874 -0.0140669 -0.00551575 -0.0140866 -0.00546063 -0.0140906 -0.00538976 -0.0140827 -0.00532677 -0.0140906 -0.00526378 -0.0141024 -0.00520079 -0.0135669 -0.00494488c-0.033378,-0.0119331 -0.0686299,-0.00652362 -0.0958622,0.0117874 -0.0113031,-0.0324606 -0.0366024,-0.0569488 -0.069563,-0.0672126l-0.00479528 -0.00148031 -0.0141732 -0.00431496 -0.014185 -0.00425197 -0.0141929 -0.00418898 -0.0141811 -0.00411811 -0.014189 -0.00406299 -0.0142126 -0.00399606 -0.0142087 -0.00393307 -0.0142087 -0.00386614 -0.0142126 -0.00380709 -0.0142205 -0.00374016 -0.0142362 -0.0036811 -0.0070748 -0.00179528c-0.0354291,-0.00875197 -0.0694409,0.000826772 -0.0941575,0.0213937 -0.0142205,-0.030815 -0.0420591,-0.0532756 -0.0762244,-0.0600276l-0.00792913 -0.00157874 -0.0142874 -0.0027874 -0.0143031 -0.00272047 -0.0143031 -0.00265748 -0.0142992 -0.00259055 -0.0143189 -0.0025315 -0.0143268 -0.0024685 -0.0143307 -0.00240157 -0.0143228 -0.00233465 -0.0143228 -0.00227165 -0.0143307 -0.00220866 -0.0143425 -0.00214961 -0.00682283 -0.000988189c-0.036122,-0.00498031 -0.0689764,0.0080748 -0.0914331,0.0311417 -0.0167835,-0.0281732 -0.0463661,-0.0483504 -0.0821811,-0.0516417l-0.00638583 -0.000582677 -0.0144094 -0.00124803 -0.0144134 -0.00118504 -0.0144016 -0.00112205 -0.0144055 -0.00105512 -0.0144252 -0.000996063 -0.0144134 -0.000925197 -0.0144173 -0.000866142 -0.014437 -0.00080315 -0.0144409 -0.00073622 -0.0144449 -0.000673228 -0.0144291 -0.000606299 -0.0094685 -0.000358268c-0.0349724,-0.00120079 -0.0671535,0.0145315 -0.0877205,0.0407756 -0.0202717,-0.0269685 -0.0521654,-0.0431535 -0.0870984,-0.0425551l-0.00377165 5.51181e-005 -0.0144843 0.000287402 -0.0145 0.000350394 -0.0145079 0.00042126 -0.0144961 0.000476378 -0.0144961 0.000547244 -0.0145 0.000606299 -0.0145197 0.000669291 -0.0145236 0.00073622 -0.0145236 0.00080315 -0.0145157 0.000866142 -0.0145197 0.000925197 -0.0112677 0.000775591c-0.0368858,0.00274016 -0.0659528,0.0226772 -0.0828543,0.0498661 -0.0232756,-0.0249094 -0.0563976,-0.0374055 -0.0910433,-0.0332244l-0.00391732 0.000472441 -0.0145748 0.00182283 -0.0145748 0.00188976 -0.0145669 0.00194882 -0.0145669 0.00201181 -0.0145827 0.00207874 -0.0145906 0.00214567 -0.0145787 0.00220472 -0.0145748 0.00226772 -0.0145787 0.00233071 -0.0146024 0.00239764 -0.0146024 0.00246063 -0.00843701 0.00146457c-0.0358268,0.00645669 -0.0629606,0.0290276 -0.0771772,0.0578386 -0.0258819,-0.0225787 -0.0600354,-0.0313898 -0.0939409,-0.0238543l-0.0103858 0.00233465 -0.014622 0.00335039 -0.0146339 0.00341339 -0.0146457 0.00348031 -0.014626 0.00353937 -0.0146299 0.00360236 -0.0146535 0.00366929 -0.0146457 0.00373622 -0.0146417 0.00379134 -0.0146417 0.00385827 -0.0146496 0.00392126 -0.012 0.00326378c-0.0355236,0.00987795 -0.0600669,0.0349685 -0.0713661,0.0647913 -0.0273386,-0.0198228 -0.0623346,-0.0258465 -0.0955709,-0.0151024l-0.0117205 0.0037874 -0.0146732 0.00480709 -0.0146772 0.00486614 -0.014689 0.00493307 -0.0146811 0.00499606 -0.014685 0.00505512 -0.0146969 0.00512205 -0.0147047 0.00518898 -0.014685 0.00524803 -0.014689 0.00530315 -0.0147126 0.00537795 -0.00546457 0.00201969c-0.0338543,0.0127992 -0.0563701,0.0397402 -0.0652362,0.0704488 -0.0290669,-0.0174882 -0.064122,-0.0203622 -0.0962205,-0.00709055l-0.00963386 0.00400787 -0.0147323 0.00619291 -0.0147126 0.00625197 -0.0147283 0.00631102 -0.0147441 0.00638189 -0.0147283 0.00644094 -0.0147283 0.00649606 -0.0147402 0.00656693 -0.014748 0.00662992 -0.014752 0.00669685 -0.0147402 0.00675197 -0.00172441 0.000799213c-0.0315906,0.0147047 -0.0528346,0.0430236 -0.0595157,0.075 -0.029815,-0.0150197 -0.0651614,-0.0154606 -0.0960787,9.44882e-005l-0.005 0.00251969 -0.0147677 0.00750394 -0.0147756 0.00756693 -0.0147795 0.00762992 -0.0147677 0.00769291 -0.0147756 0.00774803 -0.0147795 0.00781496 -0.0147913 0.00788189 -0.0147756 0.00794094 -0.0147835 0.00799606 -0.0147913 0.00806693z"/>
  <path class="fil0" d="M1.48014 4.68826c-0.0707362,0.0392992 -0.0745787,0.13889 -0.00664173,0.183197 0.0331969,0.0211693 0.0744488,0.022815 0.109075,0.00392913l0.0149173 -0.00813386 0.0149016 -0.00806693 0.0149094 -0.00800394 0.0149094 -0.00794882 0.0148819 -0.00787402 0.014878 -0.00780315 0.0148898 -0.00774803 0.014874 -0.0076811 0.0148701 -0.00761811 0.0128858 -0.00654724c0.0298228,-0.0152953 0.0496732,-0.0427047 0.0560079,-0.0735118 0.0289134,0.0144646 0.0629213,0.0151457 0.092937,0.00117717l0.00135827 -0.000633858 0.0147913 -0.00683858 0.0147992 -0.00677953 0.0147835 -0.0067126 0.0147717 -0.0066378 0.0147874 -0.00658661 0.0147717 -0.00652362 0.0147638 -0.00644882 0.0147677 -0.0063937 0.014748 -0.00632677 0.0147402 -0.00625591 0.00182283 -0.00076378c0.0320472,-0.0137362 0.0528583,-0.0399567 0.0611102,-0.0694134 0.0278976,0.0165354 0.0613858,0.0197402 0.0923819,0.00801969l0.00654331 -0.00247638 0.0146772 -0.00549213 0.0146772 -0.0054252 0.0146654 -0.0053622 0.0146654 -0.00529921 0.0146575 -0.00523622 0.0146339 -0.00516535 0.0146496 -0.00510236 0.0146496 -0.00504724 0.0146339 -0.00498031 0.014622 -0.00490945 0.00216142 -0.000716535c0.0330866,-0.0111614 0.055748,-0.0356063 0.0662323,-0.0642126 0.026626,0.0187874 0.0596339,0.0243898 0.0913898,0.0153189l0.000751969 -0.000220472 0.0145591 -0.00414567 0.0145394 -0.00408268 0.0145512 -0.00401575 0.0145551 -0.00396063 0.0145354 -0.00388976 0.0145236 -0.00382677 0.0145276 -0.00376378 0.0145354 -0.00370472 0.0145039 -0.00363386 0.0145118 -0.00357087 0.0129488 -0.00313386c0.0338307,-0.00835827 0.0582835,-0.0306575 0.0711063,-0.0580551 0.0245551,0.0208307 0.0569409,0.0295394 0.0895197,0.0232913l0.000114173 -2.3622e-005 0.0144528 -0.00275197 0.014437 -0.00268504 0.0144213 -0.00261811 0.0144213 -0.00255906 0.0144173 -0.00249213 0.0144173 -0.00242913 0.0144134 -0.00237008 0.0144016 -0.00230315 0.0143976 -0.00224016 0.0143976 -0.00217717 0.0143858 -0.00211417 0.00283858 -0.000401575c0.0344764,-0.0051811 0.0609882,-0.0250512 0.076378,-0.0511024 0.022437,0.0230118 0.0536614,0.0347126 0.0865866,0.031685l0.00645669 -0.000614173 0.0143268 -0.00129528 0.0143228 -0.00122835 0.014311 -0.00116535 0.014311 -0.00110236 0.0143071 -0.00104331 0.0142992 -0.000976378 0.0142992 -0.000913386 0.0142913 -0.000850394 0.0142835 -0.000787402 0.0142677 -0.000724409 0.0141693 -0.000653543c0.0344213,-0.00177165 0.0627283,-0.0188189 0.0806299,-0.0432047 0.0201535,0.0251732 0.0501654,0.0399291 0.0828661,0.0401181l0.00760236 5.11811e-005 0.0142244 0.000161417 0.0142165 0.000216535 0.0141969 0.000287402 0.0142244 0.000346457 0.0142047 0.000409449 0.014185 0.000468504 0.0141969 0.00053937 0.0142087 0.000598425 0.014189 0.00065748 0.0141654 0.000724409 0.0142559 0.000791339c0.0342598,0.00175984 0.0642165,-0.0122559 0.0845591,-0.034748 0.0167047,0.0259724 0.0445709,0.0446614 0.0783661,0.0483504l0.0068622 0.000751969 0.0141299 0.0016063 0.0141417 0.00167323 0.014126 0.00172835 0.0141063 0.00179134 0.0141181 0.0018622 0.0141142 0.00192126 0.0141142 0.00198425 0.0141024 0.00204724 0.0141102 0.00211024 0.0140984 0.00217323 0.0144724 0.00229528c0.034,0.00530709 0.0651811,-0.00572047 0.0876772,-0.0260315 0.0144291,0.0285039 0.040748,0.0490827 0.0730945,0.0560787l0.00777953 0.00165748 0.0140433 0.00305512 0.0140512 0.00312205 0.0140709 0.00318504 0.0140354 0.00324409 0.0140433 0.00331102 0.0140433 0.00337402 0.0140236 0.00343701 0.0140512 0.00350394 0.0140354 0.00356299 0.0140157 0.00362598 0.0114213 0.00300394c0.0334055,0.00864567 0.065622,0.000728346 0.0900551,-0.0173228 0.0111299,0.028622 0.0345079,0.0525827 0.0672205,0.0629646l0.0134646 0.00428346 0.0139921 0.00451969 0.0139961 0.00457874 0.0139921 0.00464567 0.0139843 0.00470472 0.0139843 0.00476772 0.0139764 0.00483465 0.0139724 0.0048937 0.0139803 0.00496457 0.0139843 0.0050315 0.0139685 0.00508661 0.00220472 0.000811024c0.0311102,0.011311 0.0645591,0.0076063 0.0917126,-0.00876772 0.00837008,0.0292913 0.0292126,0.0553071 0.0613504,0.068878l0.0122008 0.00512992 0.0139449 0.00591732 0.0139213 0.00597638 0.0139409 0.00605118 0.0139488 0.00611811 0.0139291 0.00617323 0.0139213 0.00623622 0.0139252 0.00630315 0.0139409 0.00637795 0.0139134 0.0064252 0.0132441 0.0061811c0.031689,0.0145472 0.0648268,0.0124173 0.0920079,-0.00105906 0.00629134,0.0317283 0.0263425,0.0586457 0.0557008,0.0739882l0.00594488 0.00308268 0.0138937 0.00727165 0.0139016 0.00733858 0.0138937 0.0073937 0.013878 0.00745669 0.0138858 0.00752362 0.0138858 0.00759055 0.0138819 0.00765748 0.0138898 0.00772441 0.0138661 0.00777559 0.0138661 0.00784646 8.26772e-005 4.72441e-005c0.0422362,0.0237402 0.0941575,0.0166732 0.128425,-0.0175945 0.0494016,-0.050248 0.0380984,-0.132898 -0.0230472,-0.167894l-8.26772e-005 -4.72441e-005 -0.0145512 -0.00823228 -0.0145591 -0.00816142 -0.0145433 -0.00808661 -0.0145591 -0.00802756 -0.014563 -0.00796063 -0.0145709 -0.00790157 -0.0145866 -0.00783465 -0.0145787 -0.00776378 -0.0145787 -0.00769291 -0.0145945 -0.00763386 -0.00666929 -0.00346063c-0.0324055,-0.0166181 -0.0674055,-0.0149606 -0.0959921,-0.000814961 -0.00670079,-0.0333858 -0.0283307,-0.0614291 -0.059685,-0.0760197l-0.0132441 -0.0061811 -0.014685 -0.00677953 -0.0146575 -0.00670079 -0.0146811 -0.00664961 -0.0147008 -0.00658268 -0.0146929 -0.00651181 -0.014689 -0.00644094 -0.0146969 -0.00638189 -0.0147244 -0.00632283 -0.0147165 -0.00624803 -0.0129803 -0.00545276c-0.0319921,-0.0132323 -0.0670197,-0.010378 -0.0961063,0.0070748 -0.00892913,-0.0309685 -0.0317717,-0.0579921 -0.065752,-0.0706339l-0.00220472 -0.000811024 -0.0147874 -0.00538583 -0.0147874 -0.00531496 -0.0147992 -0.00525591 -0.014815 -0.00519291 -0.014811 -0.00511811 -0.0148189 -0.00505906 -0.0148268 -0.00498819 -0.0148268 -0.00492126 -0.0148307 -0.00485433 -0.0148346 -0.0047874 -0.0143228 -0.00455906c-0.0333858,-0.0103976 -0.0683622,-0.00405906 -0.0952598,0.015748 -0.0123819,-0.0316811 -0.0387362,-0.0554173 -0.0724016,-0.0643819l-0.0114213 -0.00300394 -0.0149291 -0.0038622 -0.0149173 -0.00378346 -0.0149094 -0.00372441 -0.0149449 -0.00365748 -0.0149331 -0.00358661 -0.0149409 -0.00352362 -0.0149646 -0.00345669 -0.0149291 -0.00338189 -0.0149567 -0.00332677 -0.0149724 -0.00325197 -0.00866142 -0.00184646c-0.0356417,-0.00746063 -0.0692205,0.00351181 -0.0931457,0.0250157 -0.0153819,-0.0303898 -0.044374,-0.0515354 -0.0786575,-0.0570866l-0.0144724 -0.00229528 -0.0150276 -0.00231496 -0.0150315 -0.00225197 -0.0150394 -0.0021811 -0.0150433 -0.00211811 -0.0150433 -0.00204724 -0.0150551 -0.00198031 -0.0150669 -0.00191732 -0.015063 -0.00184646 -0.0150472 -0.00177559 -0.0150748 -0.00171654 -0.00782283 -0.000854331c-0.0349528,-0.00361417 -0.0680118,0.0098189 -0.090252,0.0342717 -0.0182913,-0.0284646 -0.048937,-0.0467795 -0.0839803,-0.0487795l-0.0142559 -0.000791339 -0.0151417 -0.000771654 -0.0151339 -0.000704724 -0.015122 -0.000637795 -0.0151417 -0.000570866 -0.0151614 -0.000507874 -0.0151496 -0.000433071 -0.0151378 -0.000370079 -0.0151732 -0.00030315 -0.0151614 -0.000232283 -0.0151614 -0.000169291 -0.00854724 -5.90551e-005c-0.0368937,0 -0.0673465,0.017622 -0.086252,0.0433819 -0.0212835,-0.0266378 -0.0535276,-0.0416496 -0.0885118,-0.0400512l-0.0141693 0.000653543 -0.0152283 0.000771654 -0.0152205 0.00084252 -0.0152205 0.000905512 -0.0152283 0.000976378 -0.0152283 0.00103937 -0.0152283 0.0011063 -0.0152402 0.00117323 -0.0152402 0.00124409 -0.0152362 0.00130709 -0.015248 0.00137402 -0.00737795 0.000700787c-0.0363858,0.00355512 -0.0650354,0.0240866 -0.0813622,0.0517047 -0.0238307,-0.0243465 -0.0575787,-0.0359961 -0.091626,-0.0310748l-0.00283858 0.000401575 -0.0152835 0.00224803 -0.0152874 0.00231102 -0.0152953 0.00238189 -0.0152913 0.00244488 -0.0152953 0.00251181 -0.0152992 0.00257874 -0.0153071 0.00264961 -0.0153031 0.00270866 -0.0153189 0.00278346 -0.015311 0.00285039 -0.0153031 0.00290945 -0.000988189 0.00019685c-0.0357126,0.00705906 -0.062189,0.030122 -0.0757913,0.0590669 -0.0260866,-0.0221102 -0.0608583,-0.0302835 -0.094252,-0.0222323l-0.0129488 0.00313386 -0.0153465 0.00377559 -0.0153622 0.00385433 -0.0153386 0.00390945 -0.0153543 0.00397638 -0.015374 0.00404724 -0.0153622 0.00411811 -0.0153504 0.00417323 -0.0153622 0.00424409 -0.0153819 0.00431102 -0.0153701 0.00438189 -0.00154724 0.000448819c-0.0351063,0.0104488 -0.0592126,0.0356969 -0.0701496,0.0654724 -0.0277441,-0.019563 -0.0626575,-0.0249488 -0.0953701,-0.0141142l-0.00216142 0.000716535 -0.0154016 0.00517717 -0.0154055 0.00524016 -0.0153898 0.00529921 -0.0154055 0.00537008 -0.0154213 0.00544094 -0.0154055 0.00550394 -0.0154134 0.00556693 -0.0154134 0.0056378 -0.0154173 0.00570079 -0.0154173 0.00576772 -0.00728346 0.00275197c-0.0341024,0.0131024 -0.0562008,0.040189 -0.0647283,0.0708268 -0.0290039,-0.0171811 -0.0641063,-0.0199134 -0.0959213,-0.00655906l-0.00182283 0.00076378 -0.0154567 0.00656299 -0.0154567 0.00662598 -0.015437 0.00668504 -0.0154567 0.00675591 -0.0154567 0.00682283 -0.0154488 0.00687795 -0.0154724 0.00696063 -0.0154606 0.00701969 -0.0154606 0.00707874 -0.0154764 0.00715354 -0.00199606 0.000933071c-0.0327913,0.0155669 -0.0528583,0.0440433 -0.0591969,0.0751102 -0.0289843,-0.0145039 -0.0643425,-0.015752 -0.0961969,0.00038189l-0.0128858 0.00654724 -0.0154921 0.00793307 -0.0154961 0.00800394 -0.0154882 0.00806299 -0.0155079 0.00813386 -0.0155118 0.00820472 -0.0154921 0.00825591 -0.0155079 0.00832677 -0.0155157 0.00839764 -0.0155079 0.00845669z"/>
  <path class="fil0" d="M1.65395 1.68065c-0.0728622,-0.0397441 -0.161335,0.0152598 -0.157791,0.0982795 0.00185039,0.0377047 0.022378,0.0705236 0.0553583,0.0888465l0.0147913 0.00806693 0.0147835 0.00799606 0.0147756 0.00794094 0.0147913 0.00788189 0.0147795 0.00781496 0.0147756 0.00774803 0.0147677 0.00769291 0.0147795 0.00762992 0.0147756 0.00756693 0.0147677 0.00750394 0.005 0.00251969c0.0309646,0.0155787 0.0663071,0.0150945 0.0960866,8.26772e-005 0.00693701,0.0330472 0.0287008,0.0606772 0.0594961,0.0750079l0.00173622 0.000807087 0.014752 0.00675197 0.0147402 0.00669291 0.014748 0.00662992 0.0147283 0.00656299 0.0147402 0.00650394 0.0147402 0.00644094 0.0147205 0.00637402 0.0147402 0.0063189 0.0147244 0.00625197 0.0147205 0.00618898 0.00963386 0.00400787c0.0341417,0.014122 0.0689134,0.00945276 0.0961575,-0.0070748 0.00888583,0.0308346 0.0316024,0.0576929 0.0652992,0.0704331l0.00546457 0.00201969 0.0147008 0.00537402 0.0147008 0.00531102 0.0146969 0.00524803 0.0146929 0.00518504 0.014685 0.00511811 0.0146811 0.00505906 0.0146969 0.005 0.014689 0.00493307 0.014689 0.00487008 0.0146732 0.00480315 0.0117205 0.0037874c0.0350354,0.0113268 0.0695787,0.00379134 0.0955591,-0.0151417 0.0113858,0.0299409 0.0361142,0.0550236 0.071378,0.0648307l0.0119882 0.00325984 0.0146378 0.00391732 0.0146535 0.00386614 0.0146535 0.00379134 0.0146339 0.00373228 0.0146417 0.00366535 0.0146417 0.00361024 0.0146417 0.00353937 0.0146142 0.00347244 0.0146378 0.00342126 0.0146339 0.00335039 0.0103819 0.00233465c0.0358189,0.00796063 0.0696654,-0.00262205 0.0938937,-0.0238937 0.0151654,0.0305827 0.0431772,0.0517362 0.0772402,0.057878l0.0084252 0.00146063 0.0145906 0.00245669 0.0145984 0.00240157 0.0145945 0.00233465 0.0145748 0.00226772 0.0145945 0.00220866 0.0145748 0.0021378 0.0145669 0.00207874 0.0145827 0.00201575 0.0145787 0.00195276 0.014563 0.00188189 0.0145591 0.00182677 0.00391732 0.000472441c0.0365945,0.00441732 0.0691535,-0.00953937 0.0910394,-0.033189 0.0182126,0.0289094 0.0481575,0.047252 0.0828701,0.0498307l0.0112717 0.000775591 0.0145197 0.000925197 0.0145276 0.000866142 0.0145276 0.000799213 0.0144921 0.00073622 0.0145197 0.000673228 0.0145157 0.000606299 0.0144961 0.000547244 0.0145118 0.000480315 0.0144921 0.000413386 0.0144843 0.000354331 0.0145 0.000287402 0.00377165 5.51181e-005c0.0365433,0.000625984 0.0676535,-0.0166339 0.0870866,-0.0425748 0.0213583,0.0269213 0.0532362,0.0419764 0.0877323,0.0407953l0.0094685 -0.000358268 0.0144449 -0.000606299 0.0144449 -0.000677165 0.0144134 -0.00073622 0.0144331 -0.000795276 0.0144331 -0.000870079 0.0144134 -0.000925197 0.0144252 -0.000996063 0.0144055 -0.00105512 0.0144173 -0.00112205 0.0144134 -0.00118898 0.014378 -0.00124803 0.00638583 -0.00057874c0.0367756,-0.00338189 0.0657047,-0.0239606 0.0821496,-0.0517087 0.0222874,0.0229882 0.0549449,0.036248 0.0914921,0.0312087l0.00681102 -0.000992126 0.0143268 -0.00214173 0.0143465 -0.0022126 0.0143228 -0.00227165 0.0143386 -0.00233858 0.0143268 -0.00240551 0.014315 -0.00246457 0.0143031 -0.00252756 0.0142992 -0.00259055 0.0143189 -0.00265748 0.0143031 -0.00272047 0.0142992 -0.0027874 0.00792913 -0.00157874c0.0362165,-0.00716142 0.0627638,-0.0307126 0.0761772,-0.060063 0.0262913,0.0217598 0.0605197,0.029752 0.0941929,0.0214291l0.00709055 -0.00180315 0.0142205 -0.00367717 0.0142087 -0.00373622 0.0142244 -0.00380709 0.0142244 -0.00387402 0.0141929 -0.00392913 0.0141969 -0.00399213 0.0142047 -0.00406299 0.0141929 -0.00412598 0.0141693 -0.0041811 0.014185 -0.00424803 0.014185 -0.0043189 0.00479528 -0.00148031c0.0353268,-0.011 0.0591614,-0.0369764 0.0695079,-0.0672795 0.0283622,0.0190984 0.0635669,0.0234134 0.0959291,0.0118425l0.0135551 -0.00493701 0.0140906 -0.00519685 0.0141024 -0.00526378 0.0140945 -0.00533465 0.0140787 -0.00538583 0.0140866 -0.00546063 0.0140669 -0.00551575 0.0140551 -0.0055748 0.0140709 -0.00564567 0.0140709 -0.0057126 0.0140433 -0.00576772 0.00775591 -0.00322047c0.0338307,-0.0139921 0.055315,-0.0420748 0.0628583,-0.0733622 0.0284606,0.0155591 0.0637244,0.0179764 0.0960669,0.00312598l0.0015 -0.000700787 0.0139724 -0.00658268 0.0139724 -0.00665354 0.0139685 -0.00671654 0.0139685 -0.00677559 0.0139567 -0.00684646 0.0139409 -0.00689764 0.0139488 -0.00696457 0.013937 -0.0070315 0.0139291 -0.00708661 0.013937 -0.00715748 0.0139173 -0.00721654 0.00101575 -0.000531496c0.0320945,-0.0167717 0.0511693,-0.0464409 0.0560827,-0.0782126 0.0312205,0.0136063 0.0663307,0.0120276 0.0961024,-0.00501181l0.0134252 -0.00772441 0.0138465 -0.00802756 0.0138465 -0.00809449c0.0698819,-0.041189 0.0701969,-0.141886 0.000606299,-0.183642 -0.0337913,-0.0198937 -0.0746772,-0.0200984 -0.108591,-0.000334646l-0.013185 0.00770866 -0.0132008 0.00764961 -0.0127874 0.00735433c-0.0304213,0.0176142 -0.047752,0.0460787 -0.0523307,0.0761535 -0.0291535,-0.0129291 -0.062685,-0.0122362 -0.0923346,0.0029685l-0.00101575 0.000531496 -0.0132244 0.00685433 -0.0132126 0.0067874 -0.0132283 0.00673228 -0.0132283 0.00666929 -0.0132165 0.00660236 -0.0132402 0.00655118 -0.0132323 0.00648425 -0.0132205 0.00642126 -0.0132362 0.0063622 -0.0132402 0.00629921 -0.0132402 0.00624409 -0.000744094 0.000346457c-0.0304449,0.0141693 -0.0512835,0.0409843 -0.0587362,0.0715276 -0.0280551,-0.0153386 -0.0612205,-0.0174291 -0.0917874,-0.00497638l-0.00775591 0.00322047 -0.0132717 0.00545276 -0.013252 0.00538189 -0.0132677 0.00532283 -0.0132835 0.00526772 -0.0132795 0.00520866 -0.0132677 0.0051378 -0.0132835 0.00508661 -0.0132756 0.00501969 -0.0132756 0.00495669 -0.0132953 0.00490551 -0.012752 0.00464567c-0.0328031,0.0119291 -0.0547362,0.0368543 -0.0644921,0.0655945 -0.0267441,-0.0179803 -0.0596457,-0.0230039 -0.0908661,-0.0135276l-0.00479528 0.00148031 -0.013311 0.00405118 -0.013311 0.00398819 -0.0133425 0.00393701 -0.0133189 0.00387402 -0.013315 0.00380315 -0.0133386 0.00375591 -0.0133425 0.00369291 -0.0133189 0.00362992 -0.0133346 0.00356299 -0.0133504 0.00351575 -0.0133465 0.00344882 -0.00618504 0.0015748c-0.0337283,0.0085315 -0.0581339,0.0311339 -0.0707795,0.058811 -0.024563,-0.0204409 -0.0567559,-0.028748 -0.0887953,-0.0226024l-0.00792913 0.00157874 -0.013378 0.0026063 -0.013374 0.00254724 -0.013374 0.00248425 -0.0134016 0.0024252 -0.0133976 0.00237008 -0.0134016 0.00230709 -0.0133898 0.00224803 -0.0133937 0.0021811 -0.0134094 0.00212992 -0.0134016 0.00206299 -0.0134213 0.00200787 -0.00588976 0.000858268c-0.0325197,0.00469685 -0.0600118,0.0234213 -0.0765039,0.0510236 -0.0222402,-0.0228386 -0.0532992,-0.034622 -0.0858386,-0.0318307l-0.00638583 0.00057874 -0.0134803 0.00116929 -0.0134528 0.00111024 -0.0134567 0.00104331 -0.0134764 0.000992126 -0.0134646 0.000925197 -0.0134843 0.000870079 -0.0134724 0.000807087 -0.0134724 0.000748031 -0.0135079 0.000688976 -0.0134843 0.000629921 -0.0134843 0.000566929 -0.0085315 0.000326772c-0.0349685,0.00139764 -0.0634134,0.0183031 -0.0814646,0.0425236 -0.0194449,-0.0249094 -0.0489016,-0.0400866 -0.0820157,-0.0408465l-0.00377165 -5.51181e-005 -0.0135394 -0.000271654 -0.013563 -0.000330709 -0.013563 -0.000389764 -0.0135591 -0.000448819 -0.0135748 -0.000507874 -0.013563 -0.000566929 -0.0135669 -0.000633858 -0.0136024 -0.000688976 -0.0135748 -0.000744094 -0.0135827 -0.000811024 -0.0135984 -0.000870079 -0.0103268 -0.000704724c-0.0347087,-0.00237795 -0.0648937,0.0114173 -0.0855039,0.0337087 -0.0168819,-0.0270118 -0.0447795,-0.0451654 -0.0773661,-0.0492874l-0.00391732 -0.000472441 -0.0136693 -0.00170866 -0.0136654 -0.00177165 -0.0136654 -0.00182677 -0.0136614 -0.00188976 -0.013685 -0.00195276 -0.0136929 -0.00201181 -0.0136732 -0.00206693 -0.0137008 -0.00213386 -0.013689 -0.00218504 -0.0137008 -0.00225197 -0.0137087 -0.00231496 -0.00755906 -0.00131102c-0.0343543,-0.00595669 -0.065874,0.00476772 -0.088689,0.0249252 -0.0140709,-0.0285315 -0.0401102,-0.0495354 -0.0720276,-0.056815l-0.0103819 -0.00233465 -0.0137677 -0.00315354 -0.0137795 -0.00321654 -0.013811 -0.00328346 -0.0137835 -0.00333465 -0.0137992 -0.00339764 -0.0138071 -0.00346063 -0.013815 -0.00351969 -0.013811 -0.00357874 -0.013811 -0.0036378 -0.0138346 -0.00370472 -0.0111772 -0.00303937c-0.031748,-0.00864173 -0.0647441,-0.00233071 -0.0907323,0.0164882 -0.0114882,-0.0300197 -0.0354055,-0.0529646 -0.0666063,-0.0633031l-0.0117205 -0.0037874 -0.0139094 -0.00455118 -0.0139016 -0.00461024 -0.0139094 -0.00467323 -0.0139094 -0.00473228 -0.0139331 -0.00479921 -0.013937 -0.00485827 -0.013937 -0.00491732 -0.0139331 -0.00497244 -0.0139449 -0.00504331 -0.0139528 -0.00509843 -0.00470866 -0.00174409c-0.0311457,-0.0115827 -0.0649528,-0.00781496 -0.0922047,0.00858661 -0.00903543,-0.0311417 -0.0312008,-0.0560866 -0.0613071,-0.0688031l-0.00963386 -0.00400787 -0.0140276 -0.00589764 -0.0140315 -0.00595276 -0.0140315 -0.00601969 -0.0140512 -0.00608268 -0.0140394 -0.00613386 -0.0140472 -0.00620472 -0.0140669 -0.00626378 -0.014063 -0.00632283 -0.0140709 -0.00638583 -0.0140669 -0.00644488 -0.00105906 -0.000492126c-0.032126,-0.014748 -0.0655748,-0.0123307 -0.0928622,0.00151575 -0.00622441,-0.0300669 -0.0253701,-0.0576339 -0.0562717,-0.0734803l-0.005 -0.00251969 -0.0141457 -0.0071811 -0.0141378 -0.00724409 -0.0141496 -0.00730709 -0.0141614 -0.00737008 -0.0141693 -0.00743307 -0.0141654 -0.00749213 -0.0141693 -0.00755118 -0.014185 -0.00761811 -0.0141929 -0.0076811 -0.014185 -0.00773622z"/>
  <path class="fil0" d="M1.58257 1.95125c-0.0728622,-0.0397441 -0.161335,0.0152598 -0.157791,0.0982795 0.00185039,0.0377047 0.022378,0.0705236 0.0553583,0.0888465l0.0155079 0.00845669 0.0155157 0.00839764 0.0155079 0.00832677 0.0154921 0.00825591 0.0155118 0.00820472 0.0155079 0.00813386 0.0154882 0.00806299 0.0154961 0.00800394 0.0154921 0.00793307 0.0128858 0.00654724c0.0307795,0.0155866 0.0660472,0.0154331 0.0961929,0.000358268 0.00664173,0.0325748 0.0279055,0.0602795 0.0592008,0.0751339l0.00199606 0.000933071 0.0154764 0.00715354 0.0154606 0.00707874 0.0154606 0.00701969 0.0154724 0.00696063 0.0154488 0.00687795 0.0154567 0.00682283 0.0154567 0.00675591 0.015437 0.00668504 0.0154567 0.00662598 0.0154567 0.00656299 0.00182283 0.00076378c0.0334331,0.0140354 0.0683622,0.0098622 0.0959134,-0.00655512 0.00904331,0.0322165 0.0324724,0.0584252 0.0647362,0.0708228l0.00728346 0.00275197 0.0154173 0.00576772 0.0154173 0.00570079 0.0154134 0.0056378 0.0154134 0.00556693 0.0154055 0.00550394 0.0154213 0.00544094 0.0154055 0.00537008 0.0153898 0.00529921 0.0154055 0.00524016 0.0154016 0.00517717 0.00216142 0.000716535c0.033063,0.0109528 0.0682047,0.00511024 0.095311,-0.0140394 0.0119016,0.0319488 0.0373937,0.0556299 0.0702087,0.0653976l0.00154724 0.000448819 0.0153701 0.00438189 0.0153819 0.00431102 0.0153622 0.00424409 0.0153504 0.00417323 0.0153622 0.00411811 0.015374 0.00404724 0.0153543 0.00397638 0.0153386 0.00390945 0.0153622 0.00385433 0.0153465 0.00377559 0.0129488 0.00313386c0.0359646,0.00867323 0.0697756,-0.00148425 0.094185,-0.0222874 0.0145787,0.0306693 0.0422795,0.0524843 0.0758583,0.059122l0.000988189 0.00019685 0.0153031 0.00290945 0.015311 0.00285039 0.0153189 0.00278346 0.0153031 0.00270866 0.0153071 0.00264961 0.0152992 0.00257874 0.0152953 0.00251181 0.0152913 0.00244488 0.0152953 0.00238189 0.0152874 0.00231102 0.0152835 0.00224803 0.00283858 0.000401575c0.0360906,0.00521654 0.0690472,-0.00788976 0.0915748,-0.0310866 0.0171496,0.0288898 0.0468661,0.0483425 0.0814134,0.0517165l0.00737795 0.000700787 0.015248 0.00137402 0.0152362 0.00130709 0.0152402 0.00124409 0.0152402 0.00117323 0.0152283 0.0011063 0.0152283 0.00103937 0.0152283 0.000976378 0.0152205 0.000905512 0.0152205 0.00084252 0.0152283 0.000771654 0.0141693 0.000653543c0.0369528,0.00168898 0.0683976,-0.0147559 0.0884567,-0.0399961 0.0193268,0.0262087 0.0504646,0.0433268 0.0863071,0.0433268l0.00854724 -5.90551e-005 0.0151614 -0.000169291 0.0151614 -0.000232283 0.0151732 -0.00030315 0.0151378 -0.000370079 0.0151496 -0.000433071 0.0151614 -0.000507874 0.0151417 -0.000570866 0.015122 -0.000637795 0.0151339 -0.000704724 0.0151417 -0.000771654 0.0142559 -0.000791339c0.0360669,-0.00205906 0.0662795,-0.021252 0.084,-0.0487598 0.022189,0.024378 0.0552008,0.037878 0.0902323,0.034252l0.00782283 -0.000854331 0.0150748 -0.00171654 0.0150472 -0.00177559 0.015063 -0.00184646 0.0150669 -0.00191732 0.0150551 -0.00198031 0.0150433 -0.00204724 0.0150433 -0.00211811 0.0150394 -0.0021811 0.0150315 -0.00225197 0.0150276 -0.00231496 0.0144724 -0.00229528c0.0367126,-0.00594094 0.0640472,-0.0284331 0.0785276,-0.0571063 0.0252126,0.022622 0.0594882,0.0321063 0.0932756,0.0250354l0.00866142 -0.00184646 0.0149724 -0.00325197 0.0149567 -0.00332677 0.0149291 -0.00338189 0.0149646 -0.00345669 0.0149409 -0.00352362 0.0149331 -0.00358661 0.0149449 -0.00365748 0.0149094 -0.00372441 0.0149173 -0.00378346 0.0149291 -0.0038622 0.0114213 -0.00300394c0.0354961,-0.00945276 0.0606654,-0.0344094 0.0723622,-0.0644252 0.0274685,0.0201417 0.0622441,0.0260827 0.0952992,0.0157913l0.0143228 -0.00455906 0.0148346 -0.0047874 0.0148307 -0.00485433 0.0148268 -0.00492126 0.0148268 -0.00498819 0.0148189 -0.00505906 0.014811 -0.00511811 0.014815 -0.00519291 0.0147992 -0.00525591 0.0147874 -0.00531496 0.0147874 -0.00538583 0.00220472 -0.000811024c0.0341378,-0.0126969 0.0568858,-0.0397087 0.0657677,-0.0706142 0.0293937,0.0174843 0.0641417,0.0202677 0.0960906,0.00705512l0.0129803 -0.00545276 0.0147165 -0.00624803 0.0147244 -0.00632283 0.0146969 -0.00638189 0.014689 -0.00644094 0.0146929 -0.00651181 0.0147008 -0.00658268 0.0146811 -0.00664961 0.0146575 -0.00670079 0.014685 -0.00677953 0.0132441 -0.0061811c0.0331929,-0.0154488 0.0534409,-0.0443937 0.0596378,-0.075937 0.0295197,0.0145551 0.0649764,0.0150315 0.0960394,-0.000897638l0.00666929 -0.00346063 0.0145945 -0.00763386 0.0145787 -0.00769291 0.0145787 -0.00776378 0.0145866 -0.00783465 0.0145709 -0.00790157 0.014563 -0.00796063 0.0145591 -0.00802756 0.0145433 -0.00808661 0.0145591 -0.00816142 0.0145512 -0.00823228 8.26772e-005 -4.72441e-005c0.039248,-0.0224646 0.0600433,-0.0664094 0.0524331,-0.110992 -0.0129724,-0.0729134 -0.0933465,-0.110728 -0.157811,-0.0744961l-8.26772e-005 4.72441e-005 -0.0138661 0.00784646 -0.0138661 0.00777559 -0.0138898 0.00772441 -0.0138819 0.00765748 -0.0138858 0.00759055 -0.0138858 0.00752362 -0.013878 0.00745669 -0.0138937 0.0073937 -0.0139016 0.00733858 -0.0138937 0.00727165 -0.00594488 0.00308268c-0.0304213,0.0158976 -0.0496614,0.0435984 -0.0557165,0.0739803 -0.0287047,-0.0141417 -0.0620472,-0.0147953 -0.0919921,-0.00105118l-0.0132441 0.0061811 -0.0139134 0.0064252 -0.0139409 0.00637795 -0.0139252 0.00630315 -0.0139213 0.00623622 -0.0139291 0.00617323 -0.0139488 0.00611811 -0.0139409 0.00605118 -0.0139213 0.00597638 -0.0139449 0.00591732 -0.0122008 0.00512992c-0.0322913,0.0136378 -0.0530315,0.0396654 -0.0613504,0.0688976 -0.0272165,-0.0164331 -0.0605748,-0.0201102 -0.0917126,-0.0087874l-0.00220472 0.000811024 -0.0139685 0.00508661 -0.0139843 0.0050315 -0.0139803 0.00496457 -0.0139724 0.0048937 -0.0139764 0.00483465 -0.0139843 0.00476772 -0.0139843 0.00470472 -0.0139921 0.00464567 -0.0139961 0.00457874 -0.0139921 0.00451969 -0.0134646 0.00428346c-0.0331772,0.0105276 -0.0562165,0.0345276 -0.0671929,0.0629055 -0.025622,-0.0188465 -0.0583937,-0.0254685 -0.0900827,-0.0172638l-0.0114213 0.00300394 -0.0140157 0.00362598 -0.0140354 0.00356299 -0.0140512 0.00350394 -0.0140236 0.00343701 -0.0140433 0.00337402 -0.0140433 0.00331102 -0.0140354 0.00324409 -0.0140709 0.00318504 -0.0140512 0.00312205 -0.0140433 0.00305512 -0.00777953 0.00165748c-0.0339764,0.00735039 -0.0592992,0.0289449 -0.0730354,0.0560787 -0.0238898,-0.021374 -0.0557087,-0.0310315 -0.0877362,-0.0260315l-0.0144724 0.00229528 -0.0140984 0.00217323 -0.0141102 0.00211024 -0.0141024 0.00204724 -0.0141142 0.00198425 -0.0141142 0.00192126 -0.0141181 0.0018622 -0.0141063 0.00179134 -0.014126 0.00172835 -0.0141417 0.00167323 -0.0141299 0.0016063 -0.0068622 0.000751969c-0.0336929,0.0036811 -0.0616102,0.022315 -0.0783465,0.048311 -0.0209449,-0.023 -0.0515827,-0.0364055 -0.0845787,-0.0347087l-0.0142559 0.000791339 -0.0141654 0.000724409 -0.014189 0.00065748 -0.0142087 0.000598425 -0.0141969 0.00053937 -0.014185 0.000468504 -0.0142047 0.000409449 -0.0142244 0.000346457 -0.0141969 0.000287402 -0.0142165 0.000216535 -0.0142244 0.000161417 -0.00760236 5.11811e-005c-0.0333622,0.000188976 -0.0633425,0.0156496 -0.0828819,0.0400906 -0.0189488,-0.0256457 -0.0480039,-0.0415 -0.0806142,-0.0431772l-0.0141693 -0.000653543 -0.0142677 -0.000724409 -0.0142835 -0.000787402 -0.0142913 -0.000850394 -0.0142992 -0.000913386 -0.0142992 -0.000976378 -0.0143071 -0.00104331 -0.014311 -0.00110236 -0.014311 -0.00116535 -0.0143228 -0.00122835 -0.0143268 -0.00129528 -0.00645669 -0.000614173c-0.0344803,-0.00316929 -0.065248,0.00979134 -0.086563,0.0316693 -0.016126,-0.0272598 -0.0435906,-0.0461535 -0.0764016,-0.0510866l-0.00283858 -0.000401575 -0.0143858 -0.00211417 -0.0143976 -0.00217717 -0.0143976 -0.00224016 -0.0144016 -0.00230315 -0.0144134 -0.00237008 -0.0144173 -0.00242913 -0.0144173 -0.00249213 -0.0144213 -0.00255906 -0.0144213 -0.00261811 -0.014437 -0.00268504 -0.0144528 -0.00275197 -0.000114173 -2.3622e-005c-0.0344961,-0.00661811 -0.0662874,0.00356299 -0.0894803,0.0233307 -0.0137953,-0.029122 -0.0394252,-0.0502559 -0.0711457,-0.0580945l-0.0129488 -0.00313386 -0.0145118 -0.00357087 -0.0145039 -0.00363386 -0.0145354 -0.00370472 -0.0145276 -0.00376378 -0.0145236 -0.00382677 -0.0145354 -0.00388976 -0.0145551 -0.00396063 -0.0145512 -0.00401575 -0.0145394 -0.00408268 -0.0145591 -0.00414567 -0.000751969 -0.000220472c-0.0338858,-0.0096811 -0.0664803,-0.0023189 -0.0913307,0.0153543 -0.0106417,-0.0289055 -0.0337283,-0.0532638 -0.0662913,-0.064248l-0.00216142 -0.000716535 -0.014622 -0.00490945 -0.0146339 -0.00498031 -0.0146496 -0.00504724 -0.0146496 -0.00510236 -0.0146339 -0.00516535 -0.0146575 -0.00523622 -0.0146654 -0.00529921 -0.0146654 -0.0053622 -0.0146772 -0.0054252 -0.0146772 -0.00549213 -0.00654331 -0.00247638c-0.0326299,-0.0123346 -0.0659134,-0.00775984 -0.092315,0.00799606 -0.00859843,-0.0307598 -0.0305394,-0.0562598 -0.0611772,-0.0693898l-0.00182283 -0.00076378 -0.0147402 -0.00625591 -0.014748 -0.00632677 -0.0147677 -0.0063937 -0.0147638 -0.00644882 -0.0147717 -0.00652362 -0.0147874 -0.00658661 -0.0147717 -0.0066378 -0.0147835 -0.0067126 -0.0147992 -0.00677953 -0.0147913 -0.00683858 -0.00135827 -0.000633858c-0.0316181,-0.0147165 -0.0653504,-0.0126378 -0.0929803,0.00124016 -0.00607874,-0.0300079 -0.0249409,-0.0576654 -0.0559646,-0.0735748l-0.0128858 -0.00654724 -0.0148701 -0.00761811 -0.014874 -0.0076811 -0.0148898 -0.00774803 -0.014878 -0.00780315 -0.0148819 -0.00787402 -0.0149094 -0.00794882 -0.0149094 -0.00800394 -0.0149016 -0.00806693 -0.0149173 -0.00813386z"/>
 </g>
 <g id="Layer_x0020_1_0">
  <metadata id="CorelCorpID_1Corel-Layer"/>
  <rect class="fil1" width="6.82666" height="6.82666"/>
 </g>
</svg>
