<?xml version="1.0" encoding="UTF-8"?>
<!DOCTYPE svg PUBLIC "-//W3C//DTD SVG 1.1//EN" "http://www.w3.org/Graphics/SVG/1.1/DTD/svg11.dtd">
<!-- Creator: CorelDRAW -->
<svg xmlns="http://www.w3.org/2000/svg" xml:space="preserve" width="6.82666in" height="6.82666in" style="shape-rendering:geometricPrecision; text-rendering:geometricPrecision; image-rendering:optimizeQuality; fill-rule:evenodd; clip-rule:evenodd"
viewBox="0 0 6.82666 6.82666"
 xmlns:xlink="http://www.w3.org/1999/xlink">
 <defs>
  <style type="text/css">
   <![CDATA[
    .fil1 {fill:none}
    .fil0 {fill:#212121;fill-rule:nonzero}
   ]]>
  </style>
 </defs>
 <g id="Layer_x0020_1">
  <metadata id="CorelCorpID_0Corel-Layer"/>
  <path class="fil0" d="M4.48838 1.55564c-0.000401575,-0.00338976 -0.000649606,-0.00683071 -0.000728346,-0.010311 -0.000818898,-0.01 -0.00191732,-0.0197244 -0.0032874,-0.0291496 -0.0155039,-0.106831 -0.066878,-0.196004 -0.14048,-0.256146 -0.0349606,-0.0285709 -0.0751339,-0.0507559 -0.119043,-0.0653386 0.0117362,0.0240945 0.0226693,0.0491732 0.0326024,0.0751732 0.0337165,0.088252 0.0564291,0.188287 0.0604764,0.29785l7.48031e-005 0.00154724c0.00423228,0.114728 -0.0269567,0.22422 -0.0767205,0.324339 -0.0123031,0.024752 -0.0257598,0.048937 -0.0400906,0.0724921 0.0748898,-0.0222756 0.140126,-0.0655 0.189453,-0.122453 0.0665039,-0.0767953 0.104189,-0.178689 0.0977441,-0.288004zm0.212173 -0.0200433c0.0121024,0.169402 -0.0457677,0.327921 -0.149083,0.447213 -0.103394,0.119382 -0.252193,0.199358 -0.421831,0.211539l-0.000145669 7.87402e-006c-0.0285197,0.00204331 -0.0566772,0.00194094 -0.0843543,1.1811e-005 -0.0280984,-0.00195276 -0.0550315,-0.00564173 -0.0808031,-0.0107323 -0.0577559,-0.0112756 -0.0954409,-0.0672441 -0.0841654,-0.125 0.00429921,-0.0220157 0.0150945,-0.0411102 0.0300079,-0.0556929 0.0526142,-0.060189 0.103394,-0.129335 0.14026,-0.203504 0.0354961,-0.0714173 0.0578386,-0.147142 0.0550512,-0.222669l-2.3622e-005 -0.00109055c-0.00298425,-0.0833386 -0.0207402,-0.160748 -0.047189,-0.229976 -0.0312874,-0.0818937 -0.0739961,-0.150673 -0.118484,-0.2035 -0.0377402,-0.044874 -0.0319567,-0.111846 0.0129173,-0.149587 0.0157992,-0.0132874 0.0343386,-0.0211732 0.053378,-0.0238622l-4.33071e-005 -0.00030315c0.0161102,-0.00233465 0.0319213,-0.00405906 0.0474094,-0.00516535 0.16152,-0.0115866 0.310126,0.0382008 0.424594,0.131748 0.114268,0.0933701 0.193709,0.22963 0.21715,0.391146 0.00237402,0.0163504 0.00416535,0.0327638 0.00534252,0.0491929l1.1811e-005 0.000224409z"/>
  <path class="fil0" d="M3.98137 1.05835c0.0559173,-0.0159724 0.115803,0.0114213 0.133752,0.061189 0.0179488,0.0497677 -0.0128346,0.103067 -0.068752,0.119039 -0.101512,0.0289134 -0.19828,0.0768228 -0.26528,0.142413 -0.0522047,0.0511063 -0.0858937,0.113543 -0.0873504,0.186366 -0.00144094,0.0722047 0.0297323,0.137858 0.0805551,0.193138 0.0616339,0.0670354 0.151142,0.118913 0.248291,0.150165 0.0552283,0.017815 0.0837677,0.0721142 0.063748,0.121264 -0.0200197,0.0491496 -0.0810236,0.0745512 -0.136252,0.0567362 -0.131795,-0.0423976 -0.254516,-0.114185 -0.340787,-0.208016 -0.0809094,-0.088 -0.13048,-0.195161 -0.128059,-0.316256 0.00248425,-0.123909 0.0573622,-0.227768 0.14235,-0.310965 0.0933701,-0.0914094 0.223469,-0.156819 0.357783,-0.195075z"/>
  <path class="fil0" d="M3.51972 1.56574c-0.0375079,-0.0403465 -0.0311654,-0.100118 0.0141654,-0.1335 0.0453307,-0.0333819 0.112492,-0.0277362 0.15,0.0126102 0.0328386,0.0353661 0.0851063,0.0565827 0.156772,0.0636299 0.0872835,0.00858661 0.199335,-0.00326378 0.33611,-0.0355512 0.0568386,-0.013311 0.115043,0.0169094 0.13,0.0674921 0.0149567,0.0505827 -0.0189961,0.102386 -0.0758346,0.115697 -0.162335,0.0383228 -0.300217,0.0519055 -0.413606,0.040748 -0.129004,-0.012689 -0.22822,-0.0564055 -0.297606,-0.131126z"/>
  <path class="fil0" d="M2.75657 2.42781c0.050622,0.0299134 0.0674134,0.0952087 0.0375,0.145831 -0.0299134,0.050622 -0.0952087,0.0674134 -0.145831,0.0375l-1.74241 -1.03634c-0.050622,-0.0299134 -0.0674134,-0.0952087 -0.0375,-0.145831 0.0299134,-0.050622 0.0952087,-0.0674134 0.145831,-0.0375l1.74241 1.03634z"/>
  <path class="fil0" d="M3.15805 2.47051l0.28037 0.188642c0.123201,-0.17076 0.274067,-0.28835 0.449295,-0.347988 0.200492,-0.0682323 0.428823,-0.0589843 0.679709,0.0350079l0.00122835 0.000476378 2.3622e-005 -5.90551e-005 0.323252 0.124717 -0.0785157 -0.651154c-0.000137795,-0.00117323 -0.000248031,-0.00234252 -0.000350394,-0.00351181 -0.00871654,-0.0797953 0.0152913,-0.155878 0.0614449,-0.214665 0.0466457,-0.0594173 0.115992,-0.101031 0.19713,-0.110846l0.000665354 -7.87402e-005c0.00122441,-0.000145669 0.00244488,-0.000259843 0.00366535,-0.000362205 0.0796339,-0.00847244 0.155535,0.0155354 0.214291,0.0616181 0.059874,0.0469528 0.101693,0.116461 0.111457,0.197614l0.137031 1.13956 5.11811e-005 -7.87402e-006c0.00630315,0.0510512 -0.000850394,0.0997992 -0.0181614,0.143547 -0.0198819,0.0502323 -0.0531299,0.0935 -0.0946575,0.12576 -0.0416614,0.0323543 -0.0919528,0.0538819 -0.14576,0.0605315 -0.0463307,0.00572441 -0.095,0.00042126 -0.142713,-0.0184606 -0.00222047,-0.000877953 -0.00438976,-0.00182677 -0.00651575,-0.00283465l-0.338189 -0.130433c0.242476,0.80778 0.309874,0.903563 0.68561,1.43713 0.112098,0.159189 0.251417,0.357024 0.437512,0.633791l0.000192913 -0.000129921c0.0185787,0.0274961 0.0326457,0.0576732 0.0423504,0.0894173 0.00975984,0.0319055 0.0144961,0.0647126 0.0144409,0.0972913 -9.44882e-005,0.0546339 -0.0135669,0.108697 -0.0393858,0.157024 -0.0249685,0.0467402 -0.0613268,0.0881654 -0.10813,0.119642l0.000129921 0.000192913c-0.027689,0.0186693 -0.0576496,0.0327087 -0.0888307,0.0422756 -0.032626,0.0100118 -0.0654528,0.0149134 -0.0974094,0.0149134 -0.0546693,0 -0.108866,-0.0134055 -0.157417,-0.0392008 -0.0466102,-0.0247638 -0.0881024,-0.0612913 -0.119866,-0.108709l-0.921295 -1.37026 -0.588563 0.327724 0.30485 0.658028 0.000259843 0.000559055c0.0385512,0.0835551 0.039685,0.17474 0.0103543,0.254677 -0.0293465,0.0799803 -0.0892992,0.148827 -0.17287,0.18765l-0.000559055 0.000259843c-0.0836102,0.0387717 -0.175031,0.0399764 -0.255256,0.0105709 -0.0802126,-0.0293937 -0.149264,-0.0895236 -0.188165,-0.173406l-0.41189 -0.88889c-0.0290236,-0.0627244 -0.0372795,-0.131071 -0.0262126,-0.196087 0.011122,-0.0653346 0.0415945,-0.12737 0.0899528,-0.17713l0.508811 -0.523957 -0.0574488 -0.277079c-0.0194843,0.00922047 -0.0400551,0.016378 -0.0613504,0.0212362l-0.00128346 0.000271654 3.14961e-005 0.000141732c-0.00988976,0.00209843 -0.0205669,0.00374016 -0.0318504,0.00491732 -0.0123504,0.00128346 -0.0229685,0.0019252 -0.031752,0.0019252 -0.0282441,0 -0.0571614,-0.00447244 -0.0859055,-0.0131929 -0.028,-0.00848819 -0.0545394,-0.0208543 -0.0787756,-0.0368504 -0.00164173,-0.00108661 -0.00324409,-0.0022126 -0.00480315,-0.00337402l-0.594815 -0.400555c-0.0617402,-0.0415512 -0.128744,-0.0968189 -0.168209,-0.166854 -0.0489055,-0.0867874 -0.0574252,-0.186283 0.0208976,-0.294571 0.0868504,-0.120051 0.197638,-0.137906 0.308323,-0.109752 0.0877283,0.0223189 0.169807,0.0765236 0.233272,0.123055l0.00030315 0.000228346zm0.250902 0.425102l-0.369543 -0.248642c-0.00254331,-0.00155906 -0.00504724,-0.00322441 -0.00749606,-0.00501969 -0.047185,-0.0345945 -0.106531,-0.0744685 -0.159941,-0.0880551 -0.0304567,-0.00774803 -0.0605748,-0.00335039 -0.083315,0.0280827 -0.0186142,0.0257402 -0.0176772,0.0474606 -0.00756693,0.0654055 0.0195472,0.0346929 0.0611417,0.0677244 0.100705,0.0943504l0.595366 0.400925c0.00114961,0.000700787 0.00229134,0.00142126 0.0034252,0.00216929 0.00760236,0.00501575 0.0153268,0.00871654 0.0229409,0.0110236 0.00693307,0.00210236 0.0150906,0.00318504 0.0242362,0.00318504 0.00505118,0 0.00844488,-8.66142e-005 0.0100827,-0.000255906 0.00248819,-0.000259843 0.00561417,-0.000783465 0.00935433,-0.00157874l2.3622e-005 0.000114173c0.0106654,-0.0026063 0.0207205,-0.00730709 0.0295906,-0.0137126 0.00888976,-0.00641732 0.0165315,-0.0146378 0.0222953,-0.024252l0.0274016 -0.0459921 1.9685e-005 1.1811e-005c0.0147913,-0.0247205 0.0395276,-0.0433819 0.0699803,-0.0495945 0.0575276,-0.0117362 0.113681,0.0253858 0.125417,0.0829134l0.108386 0.522713c0.00836614,0.0343819 -0.000598425,0.0721772 -0.0270866,0.0994134l-0.548118 0.564433c-0.0174646,0.0179685 -0.0284606,0.040315 -0.0324567,0.0637992 -0.00407087,0.0239134 -0.00106693,0.0489921 0.00954331,0.0719213l0.41189 0.88889c0.014,0.030185 0.0390236,0.0518937 0.0681654,0.0625709 0.0291063,0.0106693 0.0623307,0.0102087 0.0927598,-0.00390157l0.000559055 -0.000259843c0.0298976,-0.0138898 0.0514213,-0.0387205 0.0620354,-0.0676496 0.0106339,-0.0289803 0.0102441,-0.0619921 -0.00368504,-0.0921811l-0.000259843 -0.000559055 -0.34626 -0.747413 0.00011811 -5.51181e-005c-0.0231378,-0.0500354 -0.00407874,-0.11022 0.0448819,-0.137445l0.759461 -0.422882c0.0479843,-0.0273346 0.10965,-0.0133386 0.140866,0.0332677l0.975941 1.45154c0.0111142,0.0165906 0.0260906,0.029622 0.0431969,0.0387087 0.0175748,0.00933858 0.0373504,0.0141929 0.0574173,0.0141929 0.0123819,0 0.0241732,-0.00161417 0.0349055,-0.00490551 0.010752,-0.00329528 0.0215827,-0.00847638 0.0321693,-0.0156142l0.000133858 0.00019685 0.000283465 -0.00019685c0.0171063,-0.0114764 0.0302992,-0.0264213 0.0392441,-0.0431654 0.00942913,-0.0176535 0.0143504,-0.0372913 0.0143858,-0.0570236 1.9685e-005,-0.0119685 -0.00170866,-0.0239882 -0.00526772,-0.035622 -0.00315748,-0.0103307 -0.00835433,-0.021063 -0.015689,-0.0319213l0.00019685 -0.000133858 -0.00019685 -0.000283465c-0.176996,-0.263244 -0.320087,-0.466433 -0.435201,-0.629906 -0.423555,-0.601469 -0.471807,-0.669988 -0.777098,-1.70667l8.26772e-005 -2.3622e-005c-0.00638976,-0.0216929 -0.00594882,-0.0455866 0.00283465,-0.068311 0.0211693,-0.0547638 0.0827362,-0.082 0.1375,-0.0608307l0.539886 0.208224c0.00281102,0.000850394 0.0056063,0.00181496 0.00838583,0.00291339 0.013063,0.00516929 0.0262008,0.00664567 0.0385472,0.00512205 0.0147717,-0.00182283 0.0288504,-0.00794488 0.0407598,-0.0171929 0.0120315,-0.00934646 0.0215827,-0.0216614 0.0271614,-0.0357598 0.00466929,-0.0118031 0.0065748,-0.0251693 0.00482283,-0.0393819l5.51181e-005 -7.87402e-006 -5.51181e-005 -0.000409449 -0.137083 -1.13997c-0.00275197,-0.0228976 -0.0142402,-0.0422638 -0.030622,-0.0551102 -0.0162559,-0.0127559 -0.0376102,-0.0194528 -0.0604252,-0.017315l-0.00169685 0.000224409 -0.000665354 7.87402e-005c-0.0224055,0.00270866 -0.0416339,0.0142953 -0.054626,0.0308465 -0.0126772,0.0161496 -0.0193504,0.0371929 -0.0171969,0.0594764l0.000267717 0.0020315 0.0996693 0.826602 -0.000240157 2.75591e-005c0.00198425,0.0166732 4.72441e-005,0.0340591 -0.00642913,0.0508071 -0.0211693,0.0547638 -0.0827362,0.082 -0.1375,0.0608307l-0.488575 -0.1885 1.5748e-005 -3.93701e-005c-0.202335,-0.075563 -0.382244,-0.0843661 -0.535976,-0.0320472 -0.156543,0.0532795 -0.290185,0.171665 -0.396677,0.349028l-7.87402e-006 -3.93701e-006c-0.000925197,0.00154331 -0.00189764,0.0030748 -0.00290945,0.00458661 -0.0326732,0.0487835 -0.0987165,0.0618425 -0.1475,0.0291693z"/>
 </g>
 <g id="Layer_x0020_1_0">
  <metadata id="CorelCorpID_1Corel-Layer"/>
  <rect class="fil1" width="6.82666" height="6.82666"/>
 </g>
</svg>
