<?xml version="1.0" encoding="UTF-8"?>
<!DOCTYPE svg PUBLIC "-//W3C//DTD SVG 1.1//EN" "http://www.w3.org/Graphics/SVG/1.1/DTD/svg11.dtd">
<!-- Creator: CorelDRAW -->
<svg xmlns="http://www.w3.org/2000/svg" xml:space="preserve" width="6.82666in" height="6.82666in" style="shape-rendering:geometricPrecision; text-rendering:geometricPrecision; image-rendering:optimizeQuality; fill-rule:evenodd; clip-rule:evenodd"
viewBox="0 0 6.82666 6.82666"
 xmlns:xlink="http://www.w3.org/1999/xlink">
 <defs>
  <style type="text/css">
   <![CDATA[
    .fil1 {fill:none}
    .fil0 {fill:#212121;fill-rule:nonzero}
   ]]>
  </style>
 </defs>
 <g id="Layer_x0020_1">
  <metadata id="CorelCorpID_0Corel-Layer"/>
  <g id="_319409120">
   <path id="_319409024" class="fil0" d="M3.41333 1.06658c-0.64802,0 -1.2347,0.262665 -1.65935,0.687339 -0.424657,0.424669 -0.687315,1.01136 -0.687315,1.65941 0,0.648047 0.262657,1.23474 0.687315,1.65941 0.424654,0.424673 1.01133,0.687339 1.65935,0.687339 0.64802,0 1.2347,-0.262665 1.65935,-0.687339 0.424657,-0.424669 0.687315,-1.01136 0.687315,-1.65941 0,-0.648047 -0.262657,-1.23474 -0.687315,-1.65941 -0.424654,-0.424673 -1.01133,-0.687339 -1.65935,-0.687339zm-1.81019 0.536504c0.463272,-0.463291 1.10328,-0.749843 1.81019,-0.749843 0.706909,0 1.34691,0.286551 1.81019,0.749843 0.463276,0.463287 0.749819,1.10331 0.749819,1.81024 0,0.706929 -0.286543,1.34696 -0.749819,1.81024 -0.463272,0.463291 -1.10328,0.749843 -1.81019,0.749843 -0.706909,0 -1.34691,-0.286551 -1.81019,-0.749843 -0.463276,-0.463287 -0.749819,-1.10331 -0.749819,-1.81024 0,-0.706929 0.286543,-1.34696 0.749819,-1.81024z"/>
   <path id="_319408928" class="fil0" d="M1.95037 5.24871c0.191272,0.152717 0.406866,0.276134 0.640008,0.363437 0.255386,0.0956339 0.532657,0.147933 0.822949,0.147933 0.290291,0 0.567563,-0.0522992 0.822949,-0.147933 0.233142,-0.0873031 0.448736,-0.21072 0.640008,-0.363437 -0.185823,-0.222157 -0.408311,-0.414335 -0.655902,-0.551252 -0.247752,-0.137016 -0.52076,-0.218449 -0.807055,-0.218449 -0.286295,0 -0.559303,0.0814331 -0.807055,0.218449 -0.247591,0.136917 -0.470079,0.329094 -0.655902,0.551252zm0.565843 0.562602c-0.290035,-0.108606 -0.555055,-0.268236 -0.784118,-0.467913l-0.0754488 -0.0657717 0.0612835 -0.0792283c0.215102,-0.278091 0.482854,-0.520055 0.785839,-0.68761 0.277996,-0.153744 0.585543,-0.245118 0.909559,-0.245118 0.324016,0 0.631563,0.091374 0.909559,0.245118 0.302984,0.167555 0.570736,0.40952 0.785839,0.68761l0.0612835 0.0792283 -0.0754488 0.0657717c-0.229063,0.199677 -0.494083,0.359307 -0.784118,0.467913 -0.279854,0.104795 -0.582189,0.162106 -0.897114,0.162106 -0.314925,0 -0.61726,-0.057311 -0.897114,-0.162106z"/>
   <path id="_319409240" class="fil0" d="M1.7321 1.48326c0.229063,-0.199677 0.494083,-0.359307 0.784118,-0.467913 0.279854,-0.104795 0.582189,-0.162106 0.897114,-0.162106 0.314925,0 0.61726,0.057311 0.897114,0.162106 0.290035,0.108606 0.555055,0.268236 0.784118,0.467913l0.0754488 0.0657717 -0.0612835 0.0792283c-0.215102,0.278091 -0.482854,0.520055 -0.785839,0.68761 -0.277996,0.153744 -0.585543,0.245118 -0.909559,0.245118 -0.324016,0 -0.631563,-0.091374 -0.909559,-0.245118 -0.302984,-0.167555 -0.570736,-0.40952 -0.785839,-0.68761l-0.0612835 -0.0792283 0.0754488 -0.0657717zm0.858283 -0.268748c-0.233142,0.0873031 -0.448736,0.21072 -0.640008,0.363437 0.185823,0.222157 0.408311,0.414335 0.655902,0.551252 0.247752,0.137016 0.52076,0.218449 0.807055,0.218449 0.286295,0 0.559303,-0.0814331 0.807055,-0.218449 0.247591,-0.136917 0.470079,-0.329094 0.655902,-0.551252 -0.191272,-0.152717 -0.406866,-0.276134 -0.640008,-0.363437 -0.255386,-0.0956339 -0.532657,-0.147933 -0.822949,-0.147933 -0.290291,0 -0.567563,0.0522992 -0.822949,0.147933z"/>
   <polygon id="_319409504" class="fil0" points="3.30666,5.86672 3.30666,0.959937 3.52,0.959937 3.52,5.86672 "/>
   <polygon id="_319409288" class="fil0" points="0.96002,3.30666 5.86664,3.30666 5.86664,3.52 0.96002,3.52 "/>
  </g>
  <rect class="fil1" width="6.82666" height="6.82666"/>
 </g>
</svg>
