<?xml version="1.0" encoding="UTF-8"?>
<!DOCTYPE svg PUBLIC "-//W3C//DTD SVG 1.1//EN" "http://www.w3.org/Graphics/SVG/1.1/DTD/svg11.dtd">
<!-- Creator: CorelDRAW -->
<svg xmlns="http://www.w3.org/2000/svg" xml:space="preserve" width="6.82666in" height="6.82666in" style="shape-rendering:geometricPrecision; text-rendering:geometricPrecision; image-rendering:optimizeQuality; fill-rule:evenodd; clip-rule:evenodd"
viewBox="0 0 6.82666 6.82666"
 xmlns:xlink="http://www.w3.org/1999/xlink">
 <defs>
  <style type="text/css">
   <![CDATA[
    .fil1 {fill:none}
    .fil0 {fill:#212121;fill-rule:nonzero}
   ]]>
  </style>
 </defs>
 <g id="Layer_x0020_1">
  <metadata id="CorelCorpID_0Corel-Layer"/>
  <path class="fil0" d="M1.70992 2.13333c0.235626,0 0.448961,0.0955157 0.603382,0.249941 0.154421,0.154421 0.249941,0.367756 0.249941,0.603386 0,0.235638 -0.0955157,0.44898 -0.249937,0.603402 -0.154421,0.154425 -0.367756,0.249941 -0.603386,0.249941 -0.235638,0 -0.448976,-0.0955157 -0.603406,-0.249941 -0.154421,-0.154421 -0.249941,-0.367764 -0.249941,-0.603402 0,-0.23563 0.0955157,-0.448965 0.249945,-0.60339 0.154429,-0.154417 0.367764,-0.249937 0.603402,-0.249937zm0.452547 0.400776c-0.115803,-0.115807 -0.275807,-0.187437 -0.452547,-0.187437 -0.176752,0 -0.33676,0.0716299 -0.452567,0.187433 -0.115811,0.115807 -0.187441,0.275811 -0.187441,0.452555 0,0.176752 0.0716339,0.336764 0.187437,0.452567 0.115811,0.115807 0.275819,0.187437 0.452571,0.187437 0.176744,0 0.336748,-0.0716299 0.452551,-0.187437 0.115803,-0.115803 0.187433,-0.275815 0.187433,-0.452567 0,-0.176744 -0.0716339,-0.336748 -0.187437,-0.452551z"/>
  <path class="fil0" d="M3.41332 2.13333c0.235638,0 0.448972,0.0955197 0.603402,0.249937 0.154429,0.154429 0.249945,0.367764 0.249945,0.60339 0,0.235638 -0.0955197,0.44898 -0.249941,0.603402 -0.154429,0.154425 -0.367768,0.249941 -0.603406,0.249941 -0.235626,0 -0.448961,-0.0955157 -0.603386,-0.249945 -0.154421,-0.154425 -0.249937,-0.36776 -0.249937,-0.603398 0,-0.235626 0.0955197,-0.448965 0.249941,-0.603386 0.154421,-0.154421 0.367756,-0.249941 0.603382,-0.249941zm0.452567 0.400772c-0.115807,-0.115803 -0.275815,-0.187433 -0.452567,-0.187433 -0.17674,0 -0.336744,0.0716339 -0.452547,0.187437 -0.115803,0.115803 -0.187437,0.275811 -0.187437,0.452551 0,0.176752 0.0716299,0.336756 0.187433,0.452563 0.115807,0.115811 0.275811,0.187441 0.452551,0.187441 0.176752,0 0.33676,-0.0716299 0.452571,-0.187437 0.115803,-0.115803 0.187437,-0.275815 0.187437,-0.452567 0,-0.17674 -0.0716299,-0.336744 -0.187441,-0.452555z"/>
  <path class="fil0" d="M2.56163 2.98666c0.235634,0 0.448969,0.0955157 0.603394,0.249937 0.154429,0.154425 0.249945,0.36776 0.249945,0.603386 0,0.235638 -0.0955197,0.44898 -0.249941,0.603402 -0.154425,0.154429 -0.367764,0.249945 -0.603398,0.249945 -0.235626,0 -0.448965,-0.0955157 -0.60339,-0.249949 -0.154421,-0.154421 -0.249941,-0.367764 -0.249941,-0.603398 0,-0.235626 0.0955236,-0.448961 0.249945,-0.603382 0.154421,-0.154421 0.36776,-0.249941 0.603386,-0.249941zm0.452559 0.400772c-0.115807,-0.115803 -0.275811,-0.187433 -0.452559,-0.187433 -0.17674,0 -0.336748,0.0716339 -0.452551,0.187437 -0.115803,0.115803 -0.187441,0.275807 -0.187441,0.452547 0,0.176748 0.0716339,0.33676 0.187437,0.452563 0.115807,0.115815 0.275819,0.187445 0.452555,0.187445 0.176748,0 0.336756,-0.0716299 0.452563,-0.187441 0.115803,-0.115803 0.187437,-0.275815 0.187437,-0.452567 0,-0.17674 -0.0716299,-0.336744 -0.187441,-0.452551z"/>
  <path class="fil0" d="M4.26505 2.98666c0.235626,0 0.448969,0.0955197 0.60339,0.249941 0.154421,0.154421 0.249945,0.367756 0.249945,0.603382 0,0.235634 -0.0955197,0.448976 -0.249941,0.603398 -0.154429,0.154433 -0.367764,0.249949 -0.603394,0.249949 -0.235634,0 -0.448969,-0.0955157 -0.603394,-0.249945 -0.154421,-0.154421 -0.249941,-0.367764 -0.249941,-0.603402 0,-0.235626 0.0955197,-0.448965 0.249941,-0.603386 0.154425,-0.154421 0.36776,-0.249937 0.603394,-0.249937zm0.452555 0.400776c-0.115803,-0.115803 -0.275815,-0.187437 -0.452555,-0.187437 -0.176748,0 -0.336752,0.0716299 -0.452559,0.187433 -0.115803,0.115803 -0.187437,0.275811 -0.187437,0.452551 0,0.176752 0.0716339,0.336764 0.187437,0.452567 0.115807,0.115811 0.275811,0.187441 0.452559,0.187441 0.176744,0 0.336752,-0.0716339 0.452559,-0.187445 0.115803,-0.115803 0.187437,-0.275815 0.187437,-0.452563 0,-0.17674 -0.0716378,-0.336744 -0.187441,-0.452547z"/>
  <path class="fil0" d="M5.11674 2.13333c0.235634,0 0.448976,0.0955197 0.603398,0.249941 0.154429,0.154425 0.249945,0.36776 0.249945,0.603386 0,0.235638 -0.0955197,0.44898 -0.249941,0.603402 -0.154429,0.154425 -0.367764,0.249941 -0.603402,0.249941 -0.23563,0 -0.448965,-0.0955157 -0.60339,-0.249945 -0.154421,-0.154425 -0.249937,-0.36776 -0.249937,-0.603398 0,-0.235626 0.0955197,-0.448965 0.249941,-0.603386 0.154421,-0.154421 0.36776,-0.249941 0.603386,-0.249941zm0.452563 0.400776c-0.115803,-0.115803 -0.275815,-0.187437 -0.452563,-0.187437 -0.17674,0 -0.336748,0.0716339 -0.452551,0.187437 -0.115803,0.115803 -0.187437,0.275811 -0.187437,0.452551 0,0.176752 0.0716299,0.336756 0.187433,0.452563 0.115807,0.115811 0.275811,0.187441 0.452555,0.187441 0.176752,0 0.336756,-0.0716299 0.452567,-0.187437 0.115803,-0.115803 0.187437,-0.275815 0.187437,-0.452567 0,-0.17674 -0.0716299,-0.336744 -0.187441,-0.452551z"/>
  <rect class="fil1" width="6.82666" height="6.82666"/>
 </g>
</svg>
