<?xml version="1.0" encoding="UTF-8"?>
<!DOCTYPE svg PUBLIC "-//W3C//DTD SVG 1.1//EN" "http://www.w3.org/Graphics/SVG/1.1/DTD/svg11.dtd">
<!-- Creator: CorelDRAW -->
<svg xmlns="http://www.w3.org/2000/svg" xml:space="preserve" width="6.82666in" height="6.82666in" style="shape-rendering:geometricPrecision; text-rendering:geometricPrecision; image-rendering:optimizeQuality; fill-rule:evenodd; clip-rule:evenodd"
viewBox="0 0 6.82666 6.82666"
 xmlns:xlink="http://www.w3.org/1999/xlink">
 <defs>
  <style type="text/css">
   <![CDATA[
    .fil1 {fill:none}
    .fil0 {fill:#212121;fill-rule:nonzero}
   ]]>
  </style>
 </defs>
 <g id="Layer_x0020_1">
  <metadata id="CorelCorpID_0Corel-Layer"/>
  <path class="fil0" d="M3.18793 1.18027c0,0.0904213 0.0364921,0.172189 0.0955,0.231248 0.0587402,0.0587913 0.14022,0.0951732 0.230531,0.0951732 0.0903071,0 0.171791,-0.0363819 0.230528,-0.0951772 0.0590079,-0.0590591 0.0955039,-0.140827 0.0955039,-0.231244 0,-0.0901102 -0.0364646,-0.171614 -0.0954291,-0.230575 -0.0589803,-0.0589764 -0.140504,-0.0954331 -0.230602,-0.0954331l-4.33071e-005 0c-0.0900787,0 -0.171579,0.0364449 -0.230539,0.0954016 -0.0592283,0.0592165 -0.0958583,0.140744 -0.0958661,0.230563l0.000417323 0 0 4.33071e-005zm-0.0553346 0.381248c-0.0976299,-0.0977165 -0.158004,-0.232547 -0.158004,-0.381248l0 -4.33071e-005 0.000417323 0c1.1811e-005,-0.14928 0.0602008,-0.284079 0.157535,-0.381398 0.0975906,-0.0975827 0.232417,-0.157906 0.381374,-0.157906l4.33071e-005 0c0.148976,0 0.283831,0.0603346 0.381437,0.157937 0.0975866,0.0975827 0.157933,0.232402 0.157933,0.381409 0,0.148697 -0.060378,0.283528 -0.158008,0.381244 -0.0978307,0.0979252 -0.232673,0.158516 -0.381362,0.158516 -0.148697,0 -0.283535,-0.0605945 -0.381366,-0.158512z"/>
  <path class="fil0" d="M3.17778 3.8495c-0.0241614,-0.0536142 -0.000283465,-0.116673 0.0533307,-0.140835 0.0536142,-0.0241614 0.116673,-0.000283465 0.140835,0.0533307 0.0433976,0.0961457 0.125874,0.20274 0.204957,0.304937 0.0517638,0.0668976 0.102197,0.132075 0.142433,0.194339 0.000787402,0.00122441 0.00153543,0.00246457 0.00226772,0.00370866 0.00217717,0.00331496 0.00254724,0.00379528 0.0030315,0.00459449 0.0508661,0.0840984 0.0593661,0.18085 0.0359055,0.269449 0.0560512,0.0888071 0.118961,0.186594 0.182165,0.283378 0.0724409,0.110929 0.143283,0.21774 0.203508,0.306693 0.0430315,0.0633898 0.109374,0.0799803 0.168866,0.0669567 0.0238386,-0.00521654 0.046378,-0.0146654 0.0659921,-0.0274173 0.019122,-0.0124252 0.0354764,-0.027811 0.0474882,-0.0452362 0.0250787,-0.036374 0.0291693,-0.085937 -0.00659843,-0.138654 -0.168909,-0.24928 -0.330193,-0.49989 -0.48422,-0.751614 -0.152114,-0.248606 -0.30087,-0.504583 -0.446378,-0.767343 -0.0141063,-0.0227244 -0.0197008,-0.0507638 -0.0134764,-0.0789409 0.0163425,-0.073437 0.0337087,-0.14513 0.0519449,-0.215291 0.0178661,-0.0687441 0.0369921,-0.137756 0.0571693,-0.20698 0.00331102,-0.014252 0.00963386,-0.0280472 0.0190866,-0.0404291 0.0356654,-0.0467126 0.102453,-0.0556654 0.149165,-0.02 0.112669,0.0858898 0.228996,0.16622 0.348287,0.241445 0.119512,0.0753622 0.242917,0.146181 0.369406,0.21285 0.0661732,0.034874 0.129134,0.0198031 0.172909,-0.0176772 0.0176457,-0.0151142 0.0327362,-0.0341457 0.0442835,-0.0554409 0.0111732,-0.0206063 0.0184331,-0.0422992 0.0208228,-0.0634449 0.00530315,-0.0469331 -0.0150276,-0.0957126 -0.0732953,-0.126315 -0.150626,-0.0793465 -0.296161,-0.163921 -0.435665,-0.25524 -0.140201,-0.0917717 -0.275508,-0.191035 -0.405217,-0.299429 -0.0332244,-0.0273071 -0.0478465,-0.0733031 -0.0332323,-0.116445l0.000106299 -0.000307087c0.000629921,-0.00200394 0.00132283,-0.00400394 0.00207874,-0.00599606 5.11811e-005,-0.000133858 4.72441e-005,-0.000110236 1.5748e-005,7.87402e-006l3.14961e-005 1.1811e-005 0.000811024 -0.00229921c0.002,-0.00542126 0.00374409,-0.0109055 0.00522835,-0.0164291 0.0179843,-0.0668583 0.000153543,-0.14228 -0.038378,-0.207933 -0.0400669,-0.0682638 -0.100839,-0.123878 -0.166724,-0.148205 -0.00617717,-0.00227953 -0.012374,-0.00426772 -0.0185591,-0.00592913l2.75591e-005 -0.000102362c-0.00174409,-0.00046063 0.000665354,0.000228346 -0.00450787,-0.00106693l2.3622e-005 -9.05512e-005c-0.199909,-0.0495039 -0.51563,0.086937 -0.803181,0.302228 -0.293972,0.220098 -0.550472,0.519016 -0.622043,0.787075 -0.00211811,0.00793701 -0.00244094,0.00895669 -0.00271654,0.010063 -0.0175827,0.0709685 0.0104764,0.126331 0.0554252,0.158437 0.0193543,0.0138189 0.041248,0.0238858 0.0639016,0.029685 0.0226535,0.00580315 0.0460787,0.00749606 0.0684961,0.00459055 0.0487874,-0.00632677 0.0933425,-0.0387717 0.109717,-0.104386 0.0355945,-0.142803 0.0934843,-0.265772 0.170906,-0.368799 0.0797402,-0.10611 0.179272,-0.190094 0.295705,-0.251957 0.0247717,-0.0141614 0.0551339,-0.0183898 0.0845236,-0.00923622 0.0561457,0.0174882 0.0874882,0.077185 0.07,0.133331 -0.0204764,0.0650433 -0.117882,0.390362 -0.178957,0.638012 -0.0312126,0.126567 -0.053563,0.225929 -0.0502874,0.238657 0.0310157,0.121134 0.0778307,0.240551 0.13378,0.357457 0.0555472,0.116071 0.121138,0.231169 0.189689,0.343654 0.00111417,0.00164173 0.00219685,0.0033189 0.00323622,0.00503937 0.030374,0.0503937 0.0141417,0.115878 -0.036252,0.146252 -0.128374,0.0775984 -0.256839,0.156185 -0.384882,0.237602 -0.127681,0.0811929 -0.25285,0.163858 -0.373504,0.24887 -0.0638819,0.0449843 -0.0797165,0.113799 -0.0654409,0.174736 0.0056378,0.0240709 0.0153937,0.0466181 0.0283307,0.0660039 0.0124921,0.0187165 0.0278071,0.0345827 0.0450354,0.0460236 0.0351024,0.023315 0.0826575,0.0259843 0.133461,-0.00976378 0.294933,-0.207453 0.602488,-0.393051 0.908732,-0.577858 0.0311614,-0.0188071 0.0623228,-0.0376142 0.0934409,-0.0564213l0.000185039 0.000307087c0.00333858,-0.00202362 -0.00265748,0.00147638 0.00369291,-0.00262598 0.0336654,-0.0217559 0.0583465,-0.0569449 0.069311,-0.0959449 0.0102087,-0.0363071 0.00770472,-0.075189 -0.011878,-0.107567 -0.00110236,-0.0018189 -0.00131102,-0.00224016 -0.00124016,-0.00220866l-0.000720472 -0.00109449c-0.0363228,-0.0562087 -0.0833425,-0.116972 -0.131598,-0.179339 -0.0868976,-0.112299 -0.177528,-0.229429 -0.230791,-0.347433zm0.456465 0.887394c-0.0109803,0.00909449 -0.0225079,0.0175787 -0.0345472,0.0253583 -0.00225197,0.00145669 -0.000854331,0.00038189 -0.00887795,0.00524016l-0.000185039 0.000110236 0.000185039 0.000307087c-0.0311181,0.0188071 -0.0622795,0.0376142 -0.0934409,0.0564213 -0.303969,0.183433 -0.609232,0.36765 -0.896228,0.56952 -0.134835,0.094874 -0.269299,0.0822874 -0.373469,0.0131024 -0.0409055,-0.0271654 -0.0762953,-0.0633858 -0.104201,-0.105197 -0.0274567,-0.0411417 -0.0478307,-0.0876102 -0.0591654,-0.136004 -0.0323268,-0.137972 0.00420472,-0.294256 0.150441,-0.397232 0.126303,-0.0889961 0.253799,-0.17328 0.381843,-0.254705 0.0981732,-0.0624252 0.197945,-0.123992 0.298354,-0.185106 -0.0521929,-0.0891614 -0.102287,-0.180984 -0.14765,-0.275772 -0.0614291,-0.128354 -0.113122,-0.260614 -0.147945,-0.396622 -0.0133346,-0.0518307 0.0110394,-0.18624 0.0494528,-0.341996 0.0228425,-0.0926142 0.0504685,-0.195291 0.0773701,-0.291606 -0.0464291,0.0718425 -0.082252,0.155811 -0.106209,0.251925 -0.0411969,0.165071 -0.159256,0.247465 -0.289717,0.264386 -0.0488583,0.00633465 -0.0993465,0.00279134 -0.147669,-0.00959055 -0.0483268,-0.012378 -0.0945039,-0.0334646 -0.134728,-0.062189 -0.110894,-0.0792047 -0.180705,-0.213315 -0.138764,-0.382602l0.00355118 -0.0142283c0.084122,-0.315071 0.372413,-0.656528 0.700374,-0.902075 0.334197,-0.250213 0.71739,-0.404685 0.981913,-0.338807l0.000393701 0.000102362 2.3622e-005 -0.000102362c0.00138976,0.000346457 0.00084252,0.000259843 0.0073937,0.00200394l0.000389764 0.000106299 2.75591e-005 -0.000106299c0.012437,0.00334252 0.024752,0.00728346 0.0368898,0.0117638 0.111921,0.0413268 0.212661,0.131559 0.276724,0.240701 0.059622,0.101591 0.0889606,0.221217 0.0685236,0.336114 0.106799,0.0861024 0.218098,0.166421 0.33337,0.241878 0.13528,0.0885512 0.27487,0.16976 0.418161,0.24524 0.149055,0.0782874 0.200323,0.209504 0.185799,0.337976 -0.00561417,0.0496614 -0.0212717,0.0980551 -0.0449882,0.141783 -0.0233425,0.0430433 -0.0551575,0.0826378 -0.0934567,0.115441 -0.104858,0.0897835 -0.254543,0.126484 -0.410406,0.0443386 -0.130276,-0.0686654 -0.25837,-0.142228 -0.383571,-0.221181 -0.0812756,-0.051252 -0.160965,-0.104547 -0.238846,-0.159996 -0.00530709,0.019689 -0.0105394,0.0394488 -0.0156969,0.0592913 -0.0147913,0.0569016 -0.0286654,0.113264 -0.0414921,0.168992 0.134677,0.242185 0.276311,0.485024 0.425236,0.728417 0.155193,0.25363 0.314598,0.501563 0.478386,0.743283 0.0933976,0.13765 0.0777638,0.274213 0.00576378,0.378654 -0.0279291,0.0405118 -0.064622,0.0754173 -0.106654,0.102732 -0.0415354,0.027 -0.0882795,0.0467874 -0.136827,0.0574173 -0.136776,0.0299409 -0.289728,-0.00885433 -0.389701,-0.156122 -0.0662165,-0.0978071 -0.137791,-0.205567 -0.206004,-0.310024 -0.0446575,-0.0683819 -0.0887756,-0.136622 -0.13013,-0.201343zm0.131201 -2.3177l0.000338583 -0.00102362 -3.14961e-005 -1.1811e-005 -0.000307087 0.00103543z"/>
  <path class="fil0" d="M1.66235 5.42353c-0.036815,-0.0457913 -0.0295394,-0.112768 0.016252,-0.149583 0.0457913,-0.036815 0.112768,-0.0295394 0.149583,0.016252 0.0421378,0.0522402 0.075315,0.083378 0.114697,0.102665 0.0415669,0.0203543 0.0984016,0.0326339 0.184465,0.0455276l2.57198 0c0.086063,-0.0128937 0.142898,-0.0251732 0.184465,-0.0455276 0.0393819,-0.0192874 0.0725591,-0.0504252 0.114697,-0.102665 0.036815,-0.0457913 0.103791,-0.0530669 0.149583,-0.016252 0.0457913,0.036815 0.0530669,0.103791 0.016252,0.149583 -0.0620748,0.0769567 -0.115555,0.125083 -0.187201,0.160169 -0.0669213,0.0327638 -0.14172,0.0498425 -0.249591,0.0659173 -0.00686614,0.00138583 -0.0139646,0.00211417 -0.0212362,0.00211417l-2.58591 0 0 -0.000125984c-0.00508661,-3.93701e-006 -0.0102362,-0.000370079 -0.0154173,-0.00112598 -0.111012,-0.0163307 -0.187291,-0.0334291 -0.255409,-0.0667795 -0.0716457,-0.0350866 -0.125126,-0.0832126 -0.187201,-0.160169z"/>
  <path class="fil0" d="M2.29334 5.76c0.0883661,0 0.16,0.0716339 0.16,0.159996 0,0.0883661 -0.0716339,0.16 -0.16,0.16 -0.0883622,0 -0.159996,-0.0716339 -0.159996,-0.16 0,-0.0883622 0.0716339,-0.159996 0.159996,-0.159996z"/>
  <path class="fil0" d="M4.53334 5.76c0.0883661,0 0.16,0.0716339 0.16,0.159996 0,0.0883661 -0.0716339,0.16 -0.16,0.16 -0.0883622,0 -0.159996,-0.0716339 -0.159996,-0.16 0,-0.0883622 0.0716339,-0.159996 0.159996,-0.159996z"/>
 </g>
 <g id="Layer_x0020_1_0">
  <metadata id="CorelCorpID_1Corel-Layer"/>
  <rect class="fil1" width="6.82666" height="6.82666"/>
 </g>
</svg>
