<?xml version="1.0" encoding="UTF-8"?>
<!DOCTYPE svg PUBLIC "-//W3C//DTD SVG 1.1//EN" "http://www.w3.org/Graphics/SVG/1.1/DTD/svg11.dtd">
<!-- Creator: CorelDRAW -->
<svg xmlns="http://www.w3.org/2000/svg" xml:space="preserve" width="6.82666in" height="6.82666in" style="shape-rendering:geometricPrecision; text-rendering:geometricPrecision; image-rendering:optimizeQuality; fill-rule:evenodd; clip-rule:evenodd"
viewBox="0 0 6.82666 6.82666"
 xmlns:xlink="http://www.w3.org/1999/xlink">
 <defs>
  <style type="text/css">
   <![CDATA[
    .fil1 {fill:none}
    .fil0 {fill:#212121;fill-rule:nonzero}
   ]]>
  </style>
 </defs>
 <g id="Layer_x0020_1">
  <metadata id="CorelCorpID_0Corel-Layer"/>
  <g id="_319387880">
   <path id="_319387760" class="fil0" d="M3.22007 5.75999l0.445965 0c0.0268661,0 0.0579882,-0.0103189 0.0861102,-0.0272087 0.0265669,-0.0159528 0.0483071,-0.0361102 0.0585354,-0.0569528l0 -0.000417323c0.0763661,-0.155051 0.194921,-0.425976 0.27078,-0.744083 0.050311,-0.210965 0.0815591,-0.441697 0.0683898,-0.670654 -0.0208228,-0.360327 -0.164638,-0.594346 -0.298189,-0.811669 -0.161244,-0.262386 -0.309161,-0.503083 -0.256079,-0.90161 0.0167323,-0.12639 0.0378858,-0.248713 0.0590394,-0.371071 0.0848465,-0.49076 0.169835,-0.982323 -0.107965,-1.08663 -0.0417205,-0.0156417 -0.0739882,-0.0234528 -0.103602,-0.0234488 -0.0296063,0 -0.0618701,0.00782677 -0.103587,0.0234488 -0.278079,0.104421 -0.192815,0.596886 -0.107752,1.08819 0.0210827,0.121783 0.0421614,0.243516 0.0589291,0.369512 0.0530787,0.398531 -0.0948504,0.63926 -0.25611,0.901673 -0.0923583,0.150291 -0.189591,0.308516 -0.247185,0.508043 0.117043,0.0991417 0.213839,0.221295 0.283319,0.359409 0.0778583,0.154764 0.121697,0.329134 0.121697,0.513232 0,0.130228 -0.0218583,0.255516 -0.0621063,0.372366 -0.0345827,0.100406 -0.083063,0.194768 -0.143181,0.280843 0.0104921,0.0248661 0.0206181,0.0481614 0.030378,0.0699252 0.0194213,0.043315 0.0386614,0.0842953 0.0576496,0.122941 0.0101732,0.0207874 0.0319488,0.0409213 0.0585551,0.056878 0.0282362,0.0169331 0.0595,0.0272835 0.0864094,0.0272835zm0.445965 0.213339l-0.445965 0c-0.0648976,0 -0.135421,-0.0220433 -0.195575,-0.0581181 -0.0595433,-0.0357126 -0.111248,-0.0868622 -0.140224,-0.146051 -0.0215748,-0.0439094 -0.0419646,-0.0871929 -0.0609803,-0.129602 -0.0210197,-0.046874 -0.039874,-0.0907402 -0.056315,-0.131181l-0.0230787 -0.0567756 0.0380787 -0.0486417c0.0626024,-0.0799685 0.112516,-0.171008 0.146614,-0.270004 0.032685,-0.0948976 0.050437,-0.196898 0.050437,-0.303201 0,-0.150551 -0.0354331,-0.292311 -0.0983583,-0.417398 -0.0656811,-0.130567 -0.161051,-0.243484 -0.277169,-0.329819l-0.0562677 -0.0418386 0.0158504 -0.0677441c0.0619567,-0.264819 0.179098,-0.455433 0.289783,-0.635555 0.140811,-0.229138 0.269984,-0.439343 0.226945,-0.7625 -0.014748,-0.110823 -0.0364173,-0.235976 -0.0580945,-0.361181 -0.100004,-0.577579 -0.200236,-1.15652 0.243587,-1.32319 0.0654449,-0.0245079 0.120283,-0.0367835 0.177752,-0.0367874 0.0574567,-7.87402e-006 0.112307,0.0122441 0.177768,0.0367874 0.443508,0.16652 0.343571,0.744543 0.243799,1.32163 -0.0217244,0.125673 -0.0434528,0.251319 -0.0582047,0.36274 -0.0430394,0.32315 0.0861181,0.533327 0.226913,0.762437 0.146866,0.238992 0.305024,0.496346 0.329024,0.911669 0.0145354,0.252736 -0.0190827,0.503764 -0.0733898,0.731488 -0.0802165,0.33637 -0.206224,0.624165 -0.287449,0.789083l-0.000165354 -8.26772e-005c-0.0290945,0.0590709 -0.0806575,0.11013 -0.140039,0.145791 -0.06,0.0360315 -0.130335,0.0580433 -0.195276,0.0580433z"/>
   <path id="_319387352" class="fil0" d="M5.04968 5.01333l0.350591 0c0.0179055,0 0.0387559,-0.00666535 0.0576772,-0.0175709 0.0170709,-0.00983858 0.0306654,-0.0215354 0.0364567,-0.0328583 0.0594528,-0.115811 0.151717,-0.318106 0.210673,-0.555346 0.0388583,-0.156358 0.0629921,-0.327406 0.052815,-0.497205 -0.015937,-0.264728 -0.126866,-0.437933 -0.229874,-0.598776 -0.129799,-0.202673 -0.248874,-0.388598 -0.205685,-0.699709 0.0127835,-0.0926378 0.0285984,-0.182315 0.044563,-0.272906 0.065622,-0.372264 0.134248,-0.761555 -0.0671457,-0.834118 -0.0305394,-0.0109843 -0.0538622,-0.0164685 -0.0747795,-0.0164646 -0.0209016,3.93701e-006 -0.0442205,0.0055 -0.074748,0.0164646 -0.201614,0.0726496 -0.132764,0.462661 -0.0669882,0.835311 0.0159094,0.0901378 0.0316654,0.179362 0.0444685,0.271713 0.043189,0.31111 -0.0759016,0.497035 -0.20572,0.699701 -0.103031,0.160846 -0.213984,0.334059 -0.229917,0.598783 -0.0096811,0.16248 0.0113819,0.332406 0.052878,0.499512 0.0482087,0.194157 0.123559,0.383531 0.210362,0.553039l0.000417323 0c0.00587008,0.0115118 0.019315,0.0231693 0.0360472,0.0328031 0.0190079,0.0109409 0.0399606,0.017626 0.0579094,0.017626zm0.350591 0.213339l-0.350591 0c-0.0542283,0 -0.113276,-0.017752 -0.163744,-0.0467992 -0.0509921,-0.0293543 -0.095311,-0.0714803 -0.120213,-0.120299l0.000330709 -0.000169291c-0.0940433,-0.183677 -0.175638,-0.388705 -0.22778,-0.598705 -0.0463189,-0.186543 -0.0697402,-0.377776 -0.0587126,-0.56285 0.0192835,-0.320409 0.145783,-0.51789 0.263256,-0.70128 0.107665,-0.168083 0.206433,-0.32228 0.174051,-0.555535 -0.0110079,-0.0794016 -0.0272402,-0.171335 -0.0436339,-0.264209 -0.0809252,-0.458476 -0.165634,-0.938311 0.205319,-1.07198 0.0537087,-0.0192913 0.0988661,-0.0289606 0.146417,-0.0289685 0.0475354,-7.87402e-006 0.0927087,0.00963386 0.146449,0.0289685 0.370689,0.133559 0.286236,0.612654 0.205476,1.07079 -0.0164331,0.0932283 -0.0327047,0.185535 -0.0437283,0.265402 -0.0323819,0.233264 0.0663661,0.387461 0.174016,0.555543 0.117449,0.18339 0.243925,0.38087 0.263213,0.701272 0.0116063,0.193575 -0.0152598,0.385961 -0.0586496,0.560543 -0.0637323,0.256449 -0.16372,0.47563 -0.228177,0.601181 -0.0250984,0.0490591 -0.0691929,0.0911969 -0.119787,0.120354 -0.0503425,0.0290157 -0.10924,0.0467441 -0.163512,0.0467441z"/>
   <path id="_319387448" class="fil0" d="M2.17486 3.69313c-0.0381929,-0.185965 -0.122512,-0.323205 -0.201937,-0.452484 -0.12413,-0.202043 -0.238,-0.38739 -0.196732,-0.69726 0.0134961,-0.101894 0.0300551,-0.195551 0.0464488,-0.288283 0.0612008,-0.346177 0.119929,-0.678362 -0.0665512,-0.748374 -0.0285551,-0.0107047 -0.050122,-0.0160512 -0.0690472,-0.0160472 -0.0189094,3.93701e-006 -0.0404764,0.00535827 -0.0690315,0.0160472 -0.186681,0.0700984 -0.12778,0.402874 -0.0664331,0.749457 0.0163386,0.0923268 0.0328425,0.185555 0.0463701,0.287201 0.0412795,0.309878 -0.072626,0.495197 -0.196795,0.697209 -0.0991378,0.161283 -0.205894,0.334965 -0.221205,0.600028 -0.00444882,0.0777598 -0.00222047,0.156843 0.0056063,0.236177l0.000307087 0.00310236c0.076815,-0.0884016 0.166929,-0.16485 0.267205,-0.226185 0.173768,-0.10628 0.377772,-0.167543 0.595728,-0.167543 0.042374,0 0.0844409,0.00236614 0.126067,0.00695669zm-0.0202677 -0.564154c0.110941,0.180579 0.230299,0.374854 0.25124,0.68739l0.00975591 0.145555 -0.141425 -0.0351378c-0.0354567,-0.00880709 -0.0727559,-0.0156693 -0.111799,-0.020437 -0.0369409,-0.00450787 -0.0748386,-0.00683465 -0.113571,-0.00683465 -0.177961,0 -0.343972,0.0496811 -0.484894,0.135874 -0.146213,0.0894331 -0.26576,0.21785 -0.34402,0.37065l-0.198335 -0.0241693c-0.0218386,-0.0931457 -0.0381969,-0.188307 -0.0476614,-0.284232 -0.00893307,-0.0905118 -0.0114843,-0.180492 -0.00644094,-0.268681 0.0184882,-0.320067 0.139583,-0.517079 0.252039,-0.700028 0.10372,-0.168744 0.198866,-0.323543 0.16763,-0.558035 -0.0111378,-0.0837087 -0.0284213,-0.181343 -0.0455354,-0.278035 -0.0769961,-0.435 -0.150925,-0.852669 0.202268,-0.985291 0.0522835,-0.0195669 0.0964252,-0.029378 0.143197,-0.0293858 0.0467598,-7.87402e-006 0.0909134,0.00977559 0.143213,0.0293858 0.352957,0.132516 0.279224,0.549583 0.202386,0.984209 -0.0171457,0.0969882 -0.0344685,0.194945 -0.0456142,0.279118 -0.0312323,0.234512 0.0638819,0.389323 0.167567,0.558087z"/>
   <path id="_319387928" class="fil0" d="M2.0488 3.68618c0.31578,0 0.601677,0.128008 0.808622,0.334953 0.206945,0.206945 0.334953,0.492846 0.334953,0.808626 0,0.31578 -0.128008,0.601677 -0.334953,0.808622 -0.206945,0.206945 -0.492846,0.334953 -0.808622,0.334953 -0.315787,0 -0.601689,-0.128 -0.808642,-0.334949 -0.206953,-0.206949 -0.334957,-0.492846 -0.334957,-0.808626 0,-0.31578 0.128004,-0.601677 0.334957,-0.80863 0.206953,-0.206941 0.492854,-0.334949 0.808642,-0.334949zm0.657787 0.485787c-0.168327,-0.168327 -0.400894,-0.272449 -0.657787,-0.272449 -0.256902,0 -0.489476,0.104118 -0.657807,0.272445 -0.168335,0.168335 -0.272453,0.400902 -0.272453,0.657795 0,0.256894 0.104118,0.489461 0.272453,0.657791 0.168335,0.168331 0.400906,0.272445 0.657807,0.272445 0.25689,0 0.489461,-0.104122 0.657787,-0.272449 0.168327,-0.168327 0.272449,-0.400894 0.272449,-0.657787 0,-0.256894 -0.104122,-0.489465 -0.272449,-0.657791z"/>
   <path id="_319387640" class="fil0" d="M2.2822 4.17118c0.076311,0 0.145701,0.0311732 0.196217,0.0815984l0.000208661 -0.000208661c0.0502756,0.0502795 0.081374,0.119744 0.081374,0.196449 0,0.0764252 -0.0311063,0.145748 -0.081374,0.196028l0 0.000417323c-0.0502756,0.0502835 -0.119732,0.0813858 -0.196425,0.0813858 -0.0767126,0 -0.146173,-0.0311024 -0.196453,-0.0813819 -0.0502795,-0.0502756 -0.0813858,-0.119736 -0.0813858,-0.196449 0,-0.0767126 0.0311063,-0.146173 0.0813819,-0.196457 0.0502835,-0.0502756 0.119744,-0.0813819 0.196457,-0.0813819zm0.0455906 0.231807c-0.0114055,-0.0114094 -0.0275079,-0.0184685 -0.0455906,-0.0184685 -0.0178268,0 -0.0339606,0.00721654 -0.045622,0.018878 -0.0116575,0.0116614 -0.018878,0.0277953 -0.018878,0.045622 0,0.0178189 0.00722047,0.0339528 0.0188819,0.0456142 0.0116614,0.0116614 0.0277913,0.018878 0.0456181,0.018878 0.0178071,0 0.0339291,-0.00722047 0.0455906,-0.0188819l0.000208661 0.000208661c0.0115315,-0.0116417 0.0186614,-0.0278268 0.0186614,-0.0458189 0,-0.0178268 -0.0072126,-0.0339567 -0.0188701,-0.0456142l0 -0.000417323z"/>
  </g>
  <rect class="fil1" width="6.82666" height="6.82666"/>
 </g>
</svg>
