<?xml version="1.0" encoding="UTF-8"?>
<!DOCTYPE svg PUBLIC "-//W3C//DTD SVG 1.1//EN" "http://www.w3.org/Graphics/SVG/1.1/DTD/svg11.dtd">
<!-- Creator: CorelDRAW -->
<svg xmlns="http://www.w3.org/2000/svg" xml:space="preserve" width="6.82666in" height="6.82666in" style="shape-rendering:geometricPrecision; text-rendering:geometricPrecision; image-rendering:optimizeQuality; fill-rule:evenodd; clip-rule:evenodd"
viewBox="0 0 6.82666 6.82666"
 xmlns:xlink="http://www.w3.org/1999/xlink">
 <defs>
  <style type="text/css">
   <![CDATA[
    .fil1 {fill:none}
    .fil0 {fill:#212121;fill-rule:nonzero}
   ]]>
  </style>
 </defs>
 <g id="Layer_x0020_1">
  <metadata id="CorelCorpID_0Corel-Layer"/>
  <path class="fil0" d="M2.46722 4.83887l3.93701e-005 -1.5748e-005c0.136276,-0.0550472 0.282098,-0.0495984 0.407669,0.00370079 0.125465,0.0532559 0.230685,0.154516 0.28589,0.29115l1.5748e-005 3.93701e-005c0.0550591,0.136276 0.0496181,0.282106 -0.00368504,0.407693 -0.0532598,0.12548 -0.154528,0.230709 -0.291169,0.285921 -0.136283,0.055063 -0.282122,0.049626 -0.407713,-0.00368504 -0.125484,-0.0532598 -0.230713,-0.154539 -0.285925,-0.291185 -0.0550512,-0.136295 -0.0496102,-0.282134 0.00370079,-0.407717 0.0532598,-0.125472 0.154528,-0.230693 0.291177,-0.285902zm0.0792047 0.197488l-3.93701e-005 1.5748e-005c-0.0817638,0.0330315 -0.142469,0.0962441 -0.174508,0.171728 -0.032,0.0753858 -0.0352047,0.163091 -0.0020315,0.24522 0.0330354,0.0817638 0.0962559,0.142472 0.171752,0.174516 0.0753858,0.032 0.163091,0.0351969 0.245217,0.00201575 0.081752,-0.0330354 0.142457,-0.096252 0.1745,-0.171748 0.0319921,-0.0753819 0.0351929,-0.163083 0.00201575,-0.245197l-1.5748e-005 -3.93701e-005c-0.0330276,-0.081748 -0.0962402,-0.142445 -0.171717,-0.17448 -0.0753701,-0.0319921 -0.163063,-0.0352008 -0.245173,-0.0020315z"/>
  <path class="fil0" d="M4.74139 1.85245c0.0601654,0.148839 0.12087,0.29911 0.181878,0.450146l0.0647126 0.160193c0.0170197,0.0421299 0.00956299,0.0232835 0.034752,0.0852717 0.10765,0.264862 0.155445,0.382465 0.134465,0.509413 -0.0170354,0.103091 -0.0737638,0.180531 -0.175787,0.319783 -0.0494173,0.0674528 -0.110563,0.150906 -0.180933,0.255772l-0.413024 0.615567 -0.048752 0.0395866 -0.575976 0.232709 -0.0616654 0.00541339 -0.724724 -0.15589c-0.125469,-0.0269764 -0.226433,-0.0443661 -0.308039,-0.0584213 -0.170035,-0.0292835 -0.264591,-0.0455709 -0.348406,-0.107846 -0.103402,-0.0768346 -0.150764,-0.194748 -0.257421,-0.460307 -0.0108031,-0.0269134 -0.0222795,-0.0554685 -0.0345157,-0.0857638l-0.12385 -0.306512 -0.12274 -0.303823c-0.283366,-0.70137 -0.0798189,-1.30649 0.333524,-1.70285 0.159362,-0.152815 0.350067,-0.274087 0.555945,-0.357264 0.205315,-0.0829528 0.426598,-0.128071 0.647748,-0.128846 0.572575,-0.00200394 1.13933,0.292004 1.42281,0.993665zm-0.015626 0.529311c-0.0610079,-0.151035 -0.121713,-0.301307 -0.181878,-0.450146 -0.245437,-0.607488 -0.733256,-0.862051 -1.22531,-0.860327 -0.192874,0.000677165 -0.38715,0.0405433 -0.568583,0.113846 -0.18087,0.0730748 -0.348142,0.179354 -0.487606,0.313091 -0.355102,0.340508 -0.529079,0.862571 -0.283524,1.47035l0.12274 0.303823 0.12385 0.306512c0.0122362,0.0302953 0.0237126,0.0588504 0.0345157,0.0857638 0.0911811,0.227028 0.131677,0.327835 0.186587,0.368638 0.0426063,0.0316575 0.119429,0.0448898 0.257571,0.0686811 0.0828819,0.0142717 0.185417,0.031937 0.31637,0.0600906l0.693228 0.149114 0.515362 -0.20822 0.394717 -0.58828c0.0757953,-0.112945 0.136705,-0.196083 0.185933,-0.263276 0.0827835,-0.112996 0.128819,-0.175835 0.137457,-0.228114 0.0111811,-0.0676457 -0.0297598,-0.168378 -0.121969,-0.395248 -0.00334646,-0.00824016 0.00675591,0.0166299 -0.034752,-0.0861063l-0.0647126 -0.160193z"/>
  <path class="fil0" d="M3.67257 4.32786l0.597713 -0.2415 0.0983661 -0.039748 0.0399685 0.0989173 0.523953 1.29681c0.0345354,0.0854882 0.0309331,0.177398 -0.00265748,0.256535 -0.0335512,0.0790551 -0.0973189,0.145488 -0.183154,0.180161l-0.172732 0.0697795 -3.14961e-005 1.1811e-005c-0.0853189,0.0344567 -0.177051,0.0308937 -0.256067,-0.00263386 -0.0793307,-0.0336614 -0.145913,-0.0974173 -0.180563,-0.183157l-1.1811e-005 -3.14961e-005 -0.523953 -1.29681 -0.039748 -0.0983701 0.0989173 -0.0399646zm0.578508 -0.00425197l-0.400429 0.161791 0.484209 1.19844 1.1811e-005 3.14961e-005c0.0125748,0.0311142 0.036752,0.0542638 0.065563,0.0664882 0.029122,0.0123543 0.0629449,0.0136693 0.0943976,0.000964567l3.14961e-005 -1.1811e-005 0.172732 -0.0697795c0.0309528,-0.0125039 0.054122,-0.0368543 0.0664843,-0.0659882 0.012315,-0.0290197 0.0136417,-0.0627126 0.000988189,-0.0940394l-0.483988 -1.1979z"/>
  <polygon class="fil0" points="2.36887,4.0336 5.0039,2.96899 5.08306,3.1665 2.44804,4.2311 "/>
 </g>
 <g id="Layer_x0020_1_0">
  <metadata id="CorelCorpID_1Corel-Layer"/>
  <rect class="fil1" width="6.82666" height="6.82666"/>
 </g>
</svg>
