<?xml version="1.0" encoding="UTF-8"?>
<!DOCTYPE svg PUBLIC "-//W3C//DTD SVG 1.1//EN" "http://www.w3.org/Graphics/SVG/1.1/DTD/svg11.dtd">
<!-- Creator: CorelDRAW -->
<svg xmlns="http://www.w3.org/2000/svg" xml:space="preserve" width="6.82666in" height="6.82666in" style="shape-rendering:geometricPrecision; text-rendering:geometricPrecision; image-rendering:optimizeQuality; fill-rule:evenodd; clip-rule:evenodd"
viewBox="0 0 6.82666 6.82666"
 xmlns:xlink="http://www.w3.org/1999/xlink">
 <defs>
  <style type="text/css">
   <![CDATA[
    .fil1 {fill:none}
    .fil0 {fill:#212121;fill-rule:nonzero}
   ]]>
  </style>
 </defs>
 <g id="Layer_x0020_1">
  <metadata id="CorelCorpID_0Corel-Layer"/>
  <path class="fil0" d="M3.84644 0.919803l-0.0279213 0.0279134c0.00109055,0.0714764 0.0698386,0.133 0.150358,0.174079 0.0419567,0.0214055 0.0856181,0.036937 0.12587,0.0459528 0.0207402,0.00464173 0.0404488,0.00761811 0.0583307,0.00882283 -0.0297244,-0.0314921 -0.0785591,-0.0765669 -0.131122,-0.122268 -0.0665039,-0.0578228 -0.133862,-0.109929 -0.175516,-0.1345zm-0.204398 -0.0964528l0.100193 -0.100169 5.90551e-005 5.90551e-005c0.019811,-0.0196929 0.0473071,-0.0316024 0.0774409,-0.0308937 0.0053622,0.000125984 0.00569291,3.14961e-005 0.00662598,9.44882e-005 0.0712756,0.00488976 0.214693,0.0966378 0.33476,0.201028 0.115972,0.100831 0.219051,0.222969 0.232571,0.30776 0.000188976,0.00111024 0.000362205,0.00222441 0.000515748,0.00334646 0.0012126,0.00794094 0.00153937,0.0161417 0.000885827,0.0244921 -0.00756693,0.0953543 -0.0763937,0.146256 -0.177469,0.158543 -0.0483071,0.00586614 -0.10722,0.00141339 -0.168713,-0.0123583 -0.0588346,-0.0131772 -0.120287,-0.0346732 -0.176705,-0.0634567 -0.167177,-0.0852953 -0.303232,-0.23524 -0.259331,-0.435528l0.00019685 4.33071e-005c0.00417717,-0.0194252 0.0138307,-0.0379055 0.0289685,-0.0529606zm0.540602 0.394508l-7.87402e-006 -2.3622e-005c0,0.000259843 0,0.000314961 7.87402e-006,2.3622e-005z"/>
  <path class="fil0" d="M3.74181 0.723598c0.0414213,-0.0416496 0.108768,-0.0418386 0.150417,-0.000417323 0.0416496,0.0414213 0.0418386,0.108768 0.000417323,0.150417l-1.43028 1.43423c-0.0414213,0.0416496 -0.108768,0.0418386 -0.150417,0.000417323 -0.0416496,-0.0414213 -0.0418386,-0.108768 -0.000417323,-0.150417l1.43028 -1.43423z"/>
  <path class="fil0" d="M3.51248 2.04284c0,-0.126531 0.0520866,-0.24122 0.136378,-0.324358 0.083748,-0.0826063 0.199177,-0.133685 0.326524,-0.133685 0.127169,0 0.242689,0.051126 0.326528,0.133803 0.0842835,0.0831102 0.136469,0.197744 0.136469,0.32424 0,0.126795 -0.0520118,0.241547 -0.136024,0.324665 -0.0840394,0.0831457 -0.19972,0.134543 -0.326972,0.134543 -0.12726,0 -0.242906,-0.0513898 -0.326917,-0.134528 -0.0839921,-0.083126 -0.135984,-0.197894 -0.135984,-0.324681zm0.285543 -0.172689c-0.044626,0.0440157 -0.0722047,0.105059 -0.0722047,0.172689 0,0.068 0.0277756,0.129441 0.0726457,0.173846 0.0449724,0.0445079 0.107524,0.0720236 0.176917,0.0720236 0.0693976,0 0.131976,-0.0275197 0.176972,-0.0720394 0.0448898,-0.0444134 0.072685,-0.105846 0.072685,-0.173831 0,-0.0675433 -0.0276457,-0.128543 -0.0722953,-0.172571 -0.0451929,-0.0445669 -0.107917,-0.0721339 -0.177362,-0.0721339 -0.0695787,0 -0.132244,0.0275157 -0.177358,0.0720157z"/>
  <path class="fil0" d="M2.48379 2.14263l1.45864 0.356047c0.0168898,0.00408661 0.0318583,0.012 0.0441969,0.0225906 0.366783,0.282539 0.129232,0.855358 0.00623622,1.15185 -0.0278386,0.0671142 -0.0490236,0.103965 -0.0484567,0.109705 0.0226654,0.229461 0.155933,0.425673 0.410276,0.800142 0.12978,0.191071 0.28935,0.426004 0.474055,0.722126 0.000897638,0.00144488 0.00175591,0.00290157 0.0025748,0.00437402 0.0741378,0.127157 0.051063,0.251165 -0.0192126,0.34176 -0.0263425,0.0339606 -0.0596024,0.0627559 -0.0968465,0.084622 -0.0369488,0.0216929 -0.0782047,0.0367008 -0.120846,0.0432913 -0.115114,0.0177913 -0.237803,-0.0226969 -0.315417,-0.152197 -0.0329094,-0.0495197 -0.623528,-0.938244 -0.897661,-1.35454 -0.0550551,0.291492 0.0148346,0.546563 0.0809882,0.787945 0.0354882,0.1295 0.0699921,0.255386 0.0868465,0.385839l0.000165354 -2.75591e-005c0.0247323,0.147346 -0.042185,0.256232 -0.141492,0.316331 -0.036622,0.0221614 -0.0780118,0.0371378 -0.120791,0.0443543 -0.0423504,0.00714567 -0.0862874,0.00653543 -0.128453,-0.0023937 -0.112441,-0.0237953 -0.211079,-0.103114 -0.238264,-0.247268 -0.377185,-1.13291 -0.334063,-1.25352 0.0599764,-2.35328 0.0297047,-0.0829134 0.061622,-0.171992 0.0999685,-0.280406l-0.78922 -0.224181c-0.113173,-0.0221535 -0.198047,-0.118 -0.226406,-0.223169 -0.0107323,-0.0397913 -0.0137874,-0.0815315 -0.0076811,-0.121815 0.00657874,-0.0434213 0.0236417,-0.0851142 0.052874,-0.12137 0.0632205,-0.0783898 0.178528,-0.125965 0.359583,-0.0938701 0.00493701,0.000862205 0.00972835,0.00205906 0.0143701,0.00354724zm1.38539 0.557043l-1.43597 -0.350516 -0.00046063 -7.48031e-005c-0.0913386,-0.016189 -0.139012,-0.00520079 -0.157079,0.0172008 -0.00414173,0.00513386 -0.00670472,0.0119764 -0.00787402,0.0197087 -0.00164567,0.010878 -0.000606299,0.0229606 0.0026811,0.0351457 0.00911811,0.0338189 0.0326457,0.0638937 0.062,0.069063l-2.3622e-005 0.000125984c0.00348031,0.000614173 0.00696457,0.00139764 0.0104409,0.00237402l0.904079 0.256807 -3.14961e-005 0.000114173c0.00209843,0.000590551 0.00419291,0.00124016 0.00627953,0.0019685 0.0554567,0.0193268 0.0847441,0.0799606 0.0654173,0.135417 -0.0440591,0.125429 -0.0934016,0.26313 -0.138339,0.388555 -0.371787,1.03766 -0.412441,1.15135 -0.0579921,2.21589 0.00312598,0.00740945 0.00546063,0.0152913 0.00687008,0.023563 0.00822047,0.0478386 0.0388386,0.0737441 0.0735748,0.0810945 0.0158346,0.00335039 0.0327087,0.00351969 0.0492874,0.000724409 0.0161496,-0.00272441 0.0318465,-0.00842126 0.0457913,-0.0168583 0.0296417,-0.017937 0.0493937,-0.051748 0.0414921,-0.0988268l0.000244094 -3.93701e-005c-0.000248031,-0.00150394 -0.000472441,-0.00301575 -0.000661417,-0.00454331 -0.0146063,-0.115965 -0.047622,-0.236425 -0.0815945,-0.360394 -0.0901575,-0.328965 -0.186547,-0.680839 -0.0160315,-1.12472 0.00931496,-0.0303307 0.0320157,-0.0562047 0.0639646,-0.0683701 0.0549961,-0.0209409 0.116559,0.00666929 0.1375,0.0616654 0.000503937,0.00133071 0.969646,1.45838 1.01363,1.5245 0.00161811,0.00229921 0.00315354,0.0046811 0.00461024,0.00714173 0.0260512,0.0441063 0.0651102,0.0582756 0.100917,0.0527402 0.0158701,-0.00245276 0.0315354,-0.00822047 0.0458465,-0.016622 0.0140197,-0.00823228 0.0263976,-0.0188858 0.0360197,-0.0312913 0.0206772,-0.0266535 0.0268268,-0.0642795 0.00361417,-0.104465 -0.189815,-0.304272 -0.343512,-0.530559 -0.468535,-0.71463 -0.274402,-0.404 -0.418173,-0.615681 -0.44611,-0.898472 -0.00472441,-0.0478583 0.0238228,-0.116657 0.0634567,-0.212209 0.0998071,-0.240587 0.290945,-0.701476 0.0729882,-0.891776z"/>
 </g>
 <g id="Layer_x0020_1_0">
  <metadata id="CorelCorpID_1Corel-Layer"/>
  <rect class="fil1" width="6.82666" height="6.82666"/>
 </g>
</svg>
