<?xml version="1.0" encoding="UTF-8"?>
<!DOCTYPE svg PUBLIC "-//W3C//DTD SVG 1.1//EN" "http://www.w3.org/Graphics/SVG/1.1/DTD/svg11.dtd">
<!-- Creator: CorelDRAW -->
<svg xmlns="http://www.w3.org/2000/svg" xml:space="preserve" width="6.82666in" height="6.82666in" style="shape-rendering:geometricPrecision; text-rendering:geometricPrecision; image-rendering:optimizeQuality; fill-rule:evenodd; clip-rule:evenodd"
viewBox="0 0 6.82666 6.82666"
 xmlns:xlink="http://www.w3.org/1999/xlink">
 <defs>
  <style type="text/css">
   <![CDATA[
    .fil2 {fill:none}
    .fil1 {fill:#212121}
    .fil0 {fill:#212121;fill-rule:nonzero}
   ]]>
  </style>
 </defs>
 <g id="Layer_x0020_1">
  <metadata id="CorelCorpID_0Corel-Layer"/>
  <g id="_319416584">
   <path id="_319417712" class="fil0" d="M5.25243 3.18734c0.130925,0 0.249453,0.0530748 0.335256,0.138878 0.0858071,0.0857992 0.138878,0.204339 0.138878,0.33526 0,0.130921 -0.0530709,0.249461 -0.138878,0.33526 -0.0858031,0.0858031 -0.204331,0.138878 -0.335256,0.138878 -0.130909,0 -0.249449,-0.0530748 -0.335256,-0.138886 -0.0858071,-0.0857992 -0.138886,-0.204335 -0.138886,-0.335252 0,-0.130917 0.0530787,-0.249453 0.138886,-0.335252 0.0858071,-0.085811 0.204346,-0.138886 0.335256,-0.138886zm0.184421 0.289713c-0.047185,-0.047185 -0.11239,-0.076374 -0.184421,-0.076374 -0.0720236,0 -0.137236,0.0291929 -0.184421,0.0763819 -0.047189,0.047185 -0.0763819,0.11239 -0.0763819,0.184417 0,0.0720276 0.0291929,0.137232 0.0763819,0.184417 0.047185,0.047189 0.112398,0.0763819 0.184421,0.0763819 0.0720315,0 0.137236,-0.029189 0.184421,-0.076374 0.047185,-0.047185 0.076374,-0.112394 0.076374,-0.184425 0,-0.0720315 -0.029189,-0.13724 -0.076374,-0.184425z"/>
   <path id="_319417328" class="fil0" d="M1.94224 3.18734c0.130921,0 0.249472,0.0530748 0.335287,0.138882 0.085811,0.0857992 0.13889,0.204335 0.13889,0.335256 0,0.130921 -0.0530787,0.249457 -0.13889,0.335256 -0.085815,0.0858071 -0.204366,0.138882 -0.335287,0.138882 -0.130906,0 -0.249441,-0.0530787 -0.335252,-0.138886 -0.0857992,-0.0858071 -0.138882,-0.204339 -0.138882,-0.335252 0,-0.130913 0.0530827,-0.249445 0.138882,-0.335252 0.085811,-0.0858071 0.204346,-0.138886 0.335252,-0.138886zm0.184453 0.289717c-0.0471929,-0.047189 -0.112409,-0.076378 -0.184453,-0.076378 -0.0720197,0 -0.137224,0.0291929 -0.184417,0.0763819 -0.047185,0.047189 -0.076378,0.112394 -0.076378,0.184417 0,0.0720236 0.0291929,0.137228 0.076378,0.184417 0.0471929,0.047189 0.112398,0.0763819 0.184417,0.0763819 0.0720433,0 0.13726,-0.029189 0.184453,-0.076378 0.047189,-0.047185 0.0763858,-0.112394 0.0763858,-0.184421 0,-0.0720276 -0.0291969,-0.137236 -0.0763858,-0.184421z"/>
   <path id="_319417376" class="fil0" d="M4.92871 4.05428l-2.66271 0c0.0125827,-0.0103819 0.0246575,-0.0213543 0.0361811,-0.032878 0.0507126,-0.0507126 0.0907717,-0.112087 0.116539,-0.180461l2.35726 0c0.0257677,0.068374 0.0658268,0.129744 0.116539,0.180457 0.0115236,0.0115236 0.0236024,0.0225 0.036185,0.0328819z"/>
   <path id="_319416872" class="fil0" d="M2.27076 3.27266l0.409925 -0.121996 0.058311 -0.0173504 0.0446063 0.0415157 0.130886 0.121819 0.527043 0c0.0224409,-0.0348465 0.0352008,-0.0807638 0.0486811,-0.129299 0.00451575,-0.0162598 0.00909843,-0.0327559 0.0161339,-0.0557953 0.020248,-0.0663504 0.0817008,-0.0968858 0.174055,-0.0994567 0.0496575,-0.00138583 0.115654,0.0039252 0.192531,0.0140591 0.280543,0.0369685 0.721543,0.138717 1.02203,0.208039l0.0604094 0.013937c-0.022378,0.0161102 -0.0433976,0.0339882 -0.0628465,0.053437 -0.0376063,0.0376024 -0.0693504,0.0810669 -0.0937598,0.128902 -0.294996,-0.0679843 -0.700012,-0.160098 -0.953339,-0.19348 -0.0615472,-0.00811024 -0.113114,-0.0127126 -0.150339,-0.0125315 -0.0260236,0.093685 -0.0503189,0.18078 -0.132303,0.256776l-0.0725 0.028752 -0.617409 0 -0.0725 -0.028752 -0.117169 -0.109051 -0.275894 0.0821063c-0.0255591,-0.0572756 -0.061374,-0.108969 -0.10513,-0.152724 -0.010063,-0.010063 -0.0205472,-0.0197087 -0.0314252,-0.0289055z"/>
   <path id="_319416992" class="fil0" d="M0.939343 3.72759l0.560677 -0.31826c-0.0424764,0.0743346 -0.0667559,0.160406 -0.0667559,0.252146 0,0.0100236 0.000299213,0.0199764 0.000870079,0.0298583l-0.263551 0.149598 0.295232 0c0.0257677,0.068374 0.0658228,0.129744 0.116539,0.180457 0.0115236,0.0115236 0.0235984,0.0225 0.036185,0.0328819l-0.618803 0 -0.058752 -0.0179173c-0.0262362,-0.0174803 -0.0460157,-0.0383819 -0.0601378,-0.0609921 -0.0201811,-0.0322874 -0.0284016,-0.0674094 -0.0272323,-0.101311 0.00119291,-0.0342874 0.011937,-0.0666772 0.029626,-0.0932244 0.0136772,-0.0205197 0.0314843,-0.0381102 0.0523504,-0.0511535l0.00375197 -0.00208268z"/>
   <path id="_319416680" class="fil0" d="M5.14252 3.16439l0 -0.235154c0,-0.0442283 0.0182441,-0.0846417 0.0476535,-0.114142l-0.000208661 -0.000208661c0.0292717,-0.0292717 0.0697441,-0.0474449 0.11435,-0.0474449l0.562177 0 0.106669 0 0 0.106669 0 0.705614 -0.213339 0 0 -0.598945 -0.403965 0 0 0.18222c-0.0333898,-0.0068937 -0.0679803,-0.0105197 -0.103413,-0.0105197 -0.0377402,0 -0.0745236,0.00411417 -0.109925,0.0119094z"/>
   <path id="_319417256" class="fil0" d="M3.62733 2.81161c0,-0.0586811 0.0475709,-0.106252 0.106252,-0.106252 0.0586811,0 0.106252,0.0475709 0.106252,0.106252l-7.87402e-006 0.176402c0,0.0586811 -0.0475709,0.106252 -0.106252,0.106252 -0.0586811,0 -0.106252,-0.0475709 -0.106252,-0.106252l7.87402e-006 -0.176402z"/>
   <circle id="_319417184" class="fil1" cx="1.94227" cy="3.66148" r="0.106679"/>
   <circle id="_319416656" class="fil1" cx="5.25244" cy="3.66148" r="0.106681"/>
  </g>
  <rect class="fil2" width="6.82666" height="6.82666"/>
 </g>
</svg>
