<?xml version="1.0" encoding="UTF-8"?>
<!DOCTYPE svg PUBLIC "-//W3C//DTD SVG 1.1//EN" "http://www.w3.org/Graphics/SVG/1.1/DTD/svg11.dtd">
<!-- Creator: CorelDRAW -->
<svg xmlns="http://www.w3.org/2000/svg" xml:space="preserve" width="6.82666in" height="6.82666in" style="shape-rendering:geometricPrecision; text-rendering:geometricPrecision; image-rendering:optimizeQuality; fill-rule:evenodd; clip-rule:evenodd"
viewBox="0 0 6.82666 6.82666"
 xmlns:xlink="http://www.w3.org/1999/xlink">
 <defs>
  <style type="text/css">
   <![CDATA[
    .fil1 {fill:none}
    .fil0 {fill:#212121;fill-rule:nonzero}
   ]]>
  </style>
 </defs>
 <g id="Layer_x0020_1">
  <metadata id="CorelCorpID_0Corel-Layer"/>
  <path class="fil0" d="M2.34666 4.58664c0.0589094,0 0.106669,0.0477598 0.106669,0.106669 0,0.0589094 -0.0477598,0.106669 -0.106669,0.106669l-1.38667 0c-0.0589094,0 -0.106669,-0.0477598 -0.106669,-0.106669l0 -3.30609c0,-0.0589094 0.0477598,-0.106669 0.106669,-0.106669l4.90667 0c0.0589094,0 0.106669,0.0477598 0.106669,0.106669l0 3.30609c0,0.0589094 -0.0477598,0.106669 -0.106669,0.106669l-1.38666 0c-0.0589094,0 -0.106669,-0.0477598 -0.106669,-0.106669 0,-0.0589094 0.0477598,-0.106669 0.106669,-0.106669l1.27999 0 0 -3.09275 -4.69333 0 0 3.09275 1.28 0z"/>
 </g>
 <g id="Layer_x0020_1_0">
  <metadata id="CorelCorpID_1Corel-Layer"/>
  <g id="_319409840">
   <path id="_319410416" class="fil0" d="M1.92 3.4133c-0.0589094,0 -0.106669,-0.0477598 -0.106669,-0.106669 0,-0.0589094 0.0477598,-0.106669 0.106669,-0.106669l2.98667 0c0.0589094,0 0.106669,0.0477598 0.106669,0.106669 0,0.0589094 -0.0477598,0.106669 -0.106669,0.106669l-2.98667 0z"/>
   <path id="_319410392" class="fil0" d="M1.92 2.98667c-0.0589094,0 -0.106669,-0.0477598 -0.106669,-0.106669 0,-0.0589094 0.0477598,-0.106669 0.106669,-0.106669l2.98667 0c0.0589094,0 0.106669,0.0477598 0.106669,0.106669 0,0.0589094 -0.0477598,0.106669 -0.106669,0.106669l-2.98667 0z"/>
   <path id="_319410896" class="fil0" d="M3.51982 5.40663c0,0.0589094 -0.0477598,0.106669 -0.106669,0.106669 -0.0589094,0 -0.106669,-0.0477598 -0.106669,-0.106669l0 -2.10136c0,-0.0589094 0.0477598,-0.106669 0.106669,-0.106669 0.0589094,0 0.106669,0.0477598 0.106669,0.106669l0 2.10136z"/>
   <path id="_319411088" class="fil0" d="M2.61162 3.94748c-0.0589094,0 -0.106669,-0.0477598 -0.106669,-0.106669 0,-0.0589094 0.0477598,-0.106669 0.106669,-0.106669l1.5962 0c0.0589094,0 0.106669,0.0477598 0.106669,0.106669 0,0.0589094 -0.0477598,0.106669 -0.106669,0.106669l-1.5962 0z"/>
   <path id="_319410848" class="fil0" d="M2.79026 4.37283c-0.0589094,0 -0.106669,-0.0477598 -0.106669,-0.106669 0,-0.0589094 0.0477598,-0.106669 0.106669,-0.106669l1.26307 0c0.0589094,0 0.106669,0.0477598 0.106669,0.106669 0,0.0589094 -0.0477598,0.106669 -0.106669,0.106669l-1.26307 0z"/>
   <path id="_319409984" class="fil0" d="M2.84024 4.8c-0.0589094,0 -0.106669,-0.0477598 -0.106669,-0.106669 0,-0.0589094 0.0477598,-0.106669 0.106669,-0.106669l1.15631 0c0.0589094,0 0.106669,0.0477598 0.106669,0.106669 0,0.0589094 -0.0477598,0.106669 -0.106669,0.106669l-1.15631 0z"/>
   <path id="_319409936" class="fil0" d="M4.49929 3.28394c0.0377402,-0.0451024 0.104898,-0.0510709 0.15,-0.0133307 0.0451024,0.0377402 0.0510709,0.104898 0.0133307,0.15 -0.224205,0.26776 -0.378811,0.541244 -0.463811,0.820433 -0.0842638,0.276795 -0.100567,0.561343 -0.0488976,0.853622 0.010122,0.0579882 -0.0286772,0.113213 -0.0866654,0.123335 -0.0579882,0.010122 -0.113213,-0.0286772 -0.123335,-0.0866654 -0.0573661,-0.324516 -0.0388425,-0.641846 0.0555669,-0.951961 0.0936811,-0.307709 0.261622,-0.606197 0.503811,-0.895433z"/>
   <path id="_319409864" class="fil0" d="M2.17415 3.42061c-0.0377402,-0.0451024 -0.0317717,-0.11226 0.0133307,-0.15 0.0451024,-0.0377402 0.11226,-0.0317717 0.15,0.0133307 0.242193,0.289244 0.410142,0.587732 0.503823,0.895453 0.0944094,0.310106 0.112929,0.627429 0.0555551,0.951941 -0.010122,0.0579882 -0.0653465,0.0967874 -0.123335,0.0866654 -0.0579882,-0.010122 -0.0967874,-0.0653465 -0.0866654,-0.123335 0.0516772,-0.29228 0.035378,-0.576819 -0.0488858,-0.853602 -0.0849961,-0.279193 -0.239614,-0.552685 -0.463823,-0.820453z"/>
  </g>
  <rect class="fil1" width="6.82666" height="6.82666"/>
 </g>
</svg>
