<?xml version="1.0" encoding="UTF-8"?>
<!DOCTYPE svg PUBLIC "-//W3C//DTD SVG 1.1//EN" "http://www.w3.org/Graphics/SVG/1.1/DTD/svg11.dtd">
<!-- Creator: CorelDRAW -->
<svg xmlns="http://www.w3.org/2000/svg" xml:space="preserve" width="6.82666in" height="6.82666in" style="shape-rendering:geometricPrecision; text-rendering:geometricPrecision; image-rendering:optimizeQuality; fill-rule:evenodd; clip-rule:evenodd"
viewBox="0 0 6.82666 6.82666"
 xmlns:xlink="http://www.w3.org/1999/xlink">
 <defs>
  <style type="text/css">
   <![CDATA[
    .fil1 {fill:none}
    .fil0 {fill:#212121;fill-rule:nonzero}
   ]]>
  </style>
 </defs>
 <g id="Layer_x0020_1">
  <metadata id="CorelCorpID_0Corel-Layer"/>
  <path class="fil0" d="M3.43009 1.02123c0.167437,0 0.317665,0.0483346 0.443492,0.13178 0.132201,0.0876772 0.23622,0.213457 0.303768,0.361933 0.000885827,0.00194488 0.00169685,0.00390157 0.00245669,0.00586614 0.024437,0.0546929 0.0439764,0.112177 0.0581575,0.171638 0.0142205,0.0596339 0.0231969,0.122654 0.0264606,0.18828l0.0297283 0.597173c0.00275984,0.0586811 -0.0425709,0.108492 -0.101252,0.111252 -0.0314567,0.00148031 -0.0603583,-0.0108622 -0.0808346,-0.0316693 -0.0885433,-0.0895709 -0.194969,-0.162091 -0.313602,-0.21185 -0.11348,-0.0475984 -0.237961,-0.073937 -0.368374,-0.073937 -0.135268,0 -0.271638,0.0272244 -0.395862,0.0767323 -0.122929,0.0489882 -0.23402,0.119547 -0.320272,0.206803 -0.041189,0.0418819 -0.108535,0.0424409 -0.150417,0.00125197 -0.0226654,-0.0222874 -0.0332205,-0.0522362 -0.0316142,-0.0816654l-5.51181e-005 -3.93701e-006 0.0341417 -0.594921c0.0136772,-0.238224 0.112724,-0.454969 0.268539,-0.610783 0.153083,-0.153083 0.360413,-0.247878 0.595539,-0.247878zm0.325988 0.309283c-0.0916063,-0.060752 -0.201965,-0.0959449 -0.325988,-0.0959449 -0.17539,0 -0.33022,0.0708898 -0.444705,0.185374 -0.119988,0.119988 -0.196291,0.287339 -0.20687,0.471618l-0.0206181 0.359272c0.0620512,-0.0387402 0.128571,-0.0722402 0.198,-0.0999094 0.149862,-0.0597244 0.313244,-0.0925669 0.474193,-0.0925669 0.159449,0 0.311807,0.0322756 0.450878,0.0906063 0.066122,0.0277323 0.12928,0.0614685 0.188811,0.10052l-0.0178583 -0.358756c-0.00249606,-0.0501772 -0.00977953,-0.100122 -0.0214606,-0.149114 -0.0111575,-0.0467874 -0.0262244,-0.0914331 -0.0448465,-0.133339 -0.000846457,-0.0016378 -0.00165748,-0.00330315 -0.00242913,-0.005 -0.0514134,-0.113008 -0.129205,-0.207831 -0.227106,-0.27276z"/>
  <path class="fil0" d="M4.06717 1.45872c0.011185,-0.00388976 0.0202441,-0.00692126 0.0272402,-0.00911417 0.233665,-0.0731929 0.481252,-0.0539803 0.691559,0.0435906 0.212024,0.0983701 0.386331,0.275949 0.471287,0.518598 0.00431102,0.0123071 0.00762205,0.0221496 0.00992913,0.0295157 0.00494882,0.0158898 0.00598425,0.0320591 0.00365354,0.0474843l9.84252e-005 1.5748e-005 -0.148571 0.968854c-0.00874409,0.0582165 -0.0630354,0.0983268 -0.121252,0.0895827 -0.0535197,-0.00803937 -0.0917323,-0.0545669 -0.0907559,-0.107256 -0.000259843,-0.00335433 -0.000661417,-0.00812992 -0.00119685,-0.0142717 -0.012374,-0.141555 -0.107512,-0.252343 -0.232571,-0.327535 -0.134917,-0.0811181 -0.301669,-0.121177 -0.443476,-0.116315 -0.00637402,0.000216535 -0.0170118,0.000980315 -0.0319449,0.00228346 -0.00374016,0.000322835 -0.00745669,0.000444882 -0.0111299,0.00038189 -0.0554213,0.00127953 -0.10311,-0.0406299 -0.108181,-0.0966535 -0.000137795,-0.00153543 -0.00023622,-0.00306299 -0.000311024,-0.00458661l-0.000106299 3.93701e-006 -0.0295197 -0.592571c-0.00245276,-0.0495315 -0.00947244,-0.0985394 -0.020685,-0.14635 -0.0113031,-0.048185 -0.0265551,-0.093752 -0.0453937,-0.136051 -0.0239291,-0.0536142 0.000133858,-0.116488 0.053748,-0.140417 0.00439764,-0.00196457 0.0088622,-0.00360236 0.0133583,-0.0049252l-2.3622e-005 -7.48031e-005 0.0142441 -0.00418898zm0.629634 0.227807c-0.144362,-0.0669764 -0.311579,-0.0863976 -0.474268,-0.0507835 0.00603543,0.0198937 0.0114449,0.0400079 0.0162047,0.0603031 0.0138031,0.0588504 0.0225118,0.120661 0.025685,0.184681l0.0243465 0.48874c0.16426,0.00590945 0.346547,0.0557598 0.496984,0.146213 0.0679409,0.0408504 0.129803,0.0898898 0.181504,0.146894l0.0890906 -0.580972c-0.0647244,-0.184685 -0.197709,-0.319988 -0.359547,-0.395075z"/>
  <path class="fil0" d="M5.18337 1.97079c0.243713,0.0272047 0.424866,0.134244 0.548051,0.279421 0.145878,0.171933 0.208126,0.396677 0.195472,0.604512 -0.00996063,0.163453 -0.0434213,0.332319 -0.122224,0.466035 -0.0695748,0.118055 -0.171953,0.207598 -0.319937,0.243437 -0.0570669,0.0138071 -0.114528,-0.0212677 -0.128335,-0.0783346 -0.00161811,-0.00668504 -0.00255512,-0.013378 -0.00287402,-0.0200039l-4.33071e-005 3.93701e-006c-0.00643701,-0.136016 -0.0801575,-0.245835 -0.159173,-0.311539 -0.0291417,-0.0242323 -0.0581929,-0.0416772 -0.0838189,-0.0513976 -0.00469291,-0.00177953 -0.00873622,-0.00327559 -0.012063,-0.0044685 -0.0286417,0.0320236 -0.0751693,0.0447008 -0.117614,0.0282953 -0.0473346,-0.0182992 -0.0740984,-0.0667795 -0.0668189,-0.114961l-0.00026378 -3.93701e-005 0.145913 -0.951783c0.00874409,-0.0582165 0.0630354,-0.0983268 0.121252,-0.0895827l0.00247638 0.000405512zm0.385547 0.416925c-0.0740591,-0.0872795 -0.178205,-0.155902 -0.314854,-0.189024l-0.106264 0.69315c0.0124291,0.00312992 0.0250197,0.00711024 0.037689,0.0119173 0.0462874,0.0175591 0.0965433,0.0472244 0.144654,0.0872323 0.0869646,0.0723189 0.16961,0.181264 0.210276,0.31622 0.0326142,-0.0251732 0.0592638,-0.0572087 0.0809213,-0.0939567 0.0591614,-0.100386 0.0848425,-0.236331 0.0930512,-0.371035 0.00957087,-0.15724 -0.0367323,-0.326343 -0.145472,-0.454504z"/>
  <path class="fil0" d="M2.73225 1.44961c0.00699606,0.00219291 0.0160551,0.00522441 0.0272402,0.00911417l0.0142441 0.00418898 -2.3622e-005 7.48031e-005c0.00449606,0.00132283 0.00896063,0.00296063 0.0133583,0.0049252 0.0536142,0.0239291 0.0776772,0.0868031 0.053748,0.140417 -0.0188386,0.0422992 -0.0340906,0.0878661 -0.0453937,0.136051 -0.0112126,0.047811 -0.0182323,0.0968189 -0.020685,0.14635l-0.0295197 0.592571 -0.000106299 -3.93701e-006c-7.48031e-005,0.00152362 -0.000173228,0.00305118 -0.000311024,0.00458661 -0.00507087,0.0560236 -0.0527598,0.0979331 -0.108181,0.0966535 -0.00367323,6.29921e-005 -0.00738976,-5.90551e-005 -0.0111299,-0.00038189 -0.0149331,-0.00130315 -0.0255709,-0.00206693 -0.0319449,-0.00228346 -0.141807,-0.0048622 -0.308559,0.0351969 -0.443476,0.116315 -0.125059,0.0751929 -0.220197,0.18598 -0.232571,0.327535 -0.000535433,0.00614173 -0.000937008,0.0109173 -0.00119685,0.0142717 0.000976378,0.052689 -0.0372362,0.0992165 -0.0907559,0.107256 -0.0582165,0.00874409 -0.112508,-0.0313661 -0.121252,-0.0895827l-0.148571 -0.968854 9.84252e-005 -1.5748e-005c-0.00233071,-0.0154252 -0.00129528,-0.0315945 0.00365354,-0.0474843 0.00230709,-0.00736614 0.00561811,-0.0172087 0.00992913,-0.0295157 0.0849567,-0.24265 0.259264,-0.420228 0.471287,-0.518598 0.210307,-0.0975709 0.457894,-0.116783 0.691559,-0.0435906zm-0.128126 0.186138c-0.162689,-0.0356142 -0.329906,-0.0161929 -0.474268,0.0507835 -0.161839,0.0750866 -0.294823,0.21039 -0.359547,0.395075l0.0890906 0.580972c0.0517008,-0.0570039 0.113563,-0.106043 0.181504,-0.146894 0.150437,-0.0904528 0.332724,-0.140303 0.496984,-0.146213l0.0243465 -0.48874c0.00317323,-0.0640197 0.0118819,-0.125831 0.025685,-0.184681 0.00475984,-0.0202953 0.0101693,-0.0404094 0.0162047,-0.0603031z"/>
  <path class="fil0" d="M1.57259 2.19869c-0.13665,0.033122 -0.240795,0.101744 -0.314854,0.189024 -0.10874,0.128161 -0.155043,0.297264 -0.145472,0.454504 0.00820866,0.134705 0.0338898,0.27065 0.0930512,0.371035 0.0216575,0.036748 0.0483071,0.0687835 0.0809213,0.0939567 0.0406654,-0.134957 0.123311,-0.243902 0.210276,-0.31622 0.0481102,-0.0400079 0.0983661,-0.0696732 0.144654,-0.0872323 0.0126693,-0.00480709 0.0252598,-0.0087874 0.037689,-0.0119173l-0.106264 -0.69315zm-0.477358 0.0515197c0.123185,-0.145177 0.304339,-0.252217 0.548051,-0.279421l0.00247638 -0.000405512c0.0582165,-0.00874409 0.112508,0.0313661 0.121252,0.0895827l0.145913 0.951783 -0.00026378 3.93701e-005c0.00727953,0.0481811 -0.0194843,0.0966614 -0.0668189,0.114961 -0.0424449,0.0164055 -0.0889724,0.00372835 -0.117614,-0.0282953 -0.00332677,0.00119291 -0.00737008,0.00268898 -0.012063,0.0044685 -0.025626,0.00972047 -0.0546772,0.0271654 -0.0838189,0.0513976 -0.0790157,0.0657047 -0.152736,0.175524 -0.159173,0.311539l-4.33071e-005 -3.93701e-006c-0.000318898,0.00662598 -0.00125591,0.0133189 -0.00287402,0.0200039 -0.0138071,0.0570669 -0.0712677,0.0921417 -0.128335,0.0783346 -0.147984,-0.0358386 -0.250362,-0.125382 -0.319937,-0.243437 -0.0788031,-0.133717 -0.112264,-0.302583 -0.122224,-0.466035 -0.0126535,-0.207835 0.0495945,-0.432579 0.195472,-0.604512z"/>
  <path class="fil0" d="M3.41302 4.62781c0.0872835,0 0.166319,0.0353858 0.223528,0.0925945 0.0572087,0.0572087 0.0925945,0.136232 0.0925945,0.22352 0,0.0872756 -0.0353858,0.166311 -0.0925984,0.223512 -0.0572087,0.0572047 -0.13624,0.0925906 -0.223524,0.0925906 -0.0872835,0 -0.166315,-0.0353858 -0.223524,-0.0925906 -0.0572087,-0.0572087 -0.0925945,-0.136236 -0.0925945,-0.223512 0,-0.0872874 0.0353858,-0.166311 0.0925945,-0.22352 0.0572087,-0.0572087 0.13624,-0.0925945 0.223524,-0.0925945zm0.0726929 0.243429c-0.0185906,-0.0185906 -0.0442953,-0.0300906 -0.0726929,-0.0300906 -0.0283976,0 -0.0540984,0.0115 -0.072689,0.0300906 -0.0185906,0.0185906 -0.0300906,0.0442913 -0.0300906,0.072685 0,0.0283898 0.0115,0.0540866 0.0300906,0.0726772 0.0185866,0.0185866 0.0442913,0.0300866 0.072689,0.0300866 0.0283976,0 0.0541024,-0.0115 0.072689,-0.0300866 0.0185945,-0.0185906 0.0300945,-0.0442913 0.0300945,-0.0726772 0,-0.0283937 -0.0115,-0.0540945 -0.0300906,-0.072685z"/>
 </g>
 <g id="Layer_x0020_1_0">
  <metadata id="CorelCorpID_1Corel-Layer"/>
  <path class="fil0" d="M2.55109 2.47232c-0.000228346,-0.0586811 0.0471535,-0.106441 0.105835,-0.106669 0.0586811,-0.000228346 0.106441,0.0471535 0.106669,0.105835l0.0181575 2.40135c0.000228346,0.0586811 -0.0471535,0.106441 -0.105835,0.106669 -0.0586811,0.000228346 -0.106441,-0.0471535 -0.106669,-0.105835l-0.0181575 -2.40135z"/>
  <path class="fil0" d="M1.68697 3.05102c-0.025311,-0.0529252 -0.0029252,-0.116358 0.05,-0.141669 0.0529252,-0.025311 0.116358,-0.0029252 0.141669,0.05l0.897122 1.87737c0.025311,0.0529252 0.0029252,0.116358 -0.05,0.141669 -0.0529252,0.025311 -0.116358,0.0029252 -0.141669,-0.05l-0.897122 -1.87737z"/>
  <path class="fil0" d="M1.29392 3.53296c-0.0398071,-0.0432598 -0.0370079,-0.11061 0.00625197,-0.150417 0.0432598,-0.0398071 0.11061,-0.0370079 0.150417,0.00625197l1.30324 1.41238c0.0398071,0.0432598 0.0370079,0.11061 -0.00625197,0.150417 -0.0432598,0.0398071 -0.11061,0.0370079 -0.150417,-0.00625197l-1.30324 -1.41238z"/>
  <path class="fil0" d="M4.06244 2.47149c0.000228346,-0.0586811 0.0479882,-0.106063 0.106669,-0.105835 0.0586811,0.000228346 0.106063,0.0479882 0.105835,0.106669l-0.0181575 2.40135c-0.000228346,0.0586811 -0.0479882,0.106063 -0.106669,0.105835 -0.0586811,-0.000228346 -0.106063,-0.0479882 -0.105835,-0.106669l0.0181575 -2.40135z"/>
  <path class="fil0" d="M4.94739 2.95935c0.025311,-0.0529252 0.0887441,-0.075311 0.141669,-0.05 0.0529252,0.025311 0.075311,0.0887441 0.05,0.141669l-0.897122 1.87737c-0.025311,0.0529252 -0.0887441,0.075311 -0.141669,0.05 -0.0529252,-0.025311 -0.075311,-0.0887441 -0.05,-0.141669l0.897122 -1.87737z"/>
  <path class="fil0" d="M5.37544 3.3888c0.0398071,-0.0432598 0.107157,-0.0460591 0.150417,-0.00625197 0.0432598,0.0398071 0.0460591,0.107157 0.00625197,0.150417l-1.30324 1.41238c-0.0398071,0.0432598 -0.107157,0.0460591 -0.150417,0.00625197 -0.0432598,-0.0398071 -0.0460591,-0.107157 -0.00625197,-0.150417l1.30324 -1.41238z"/>
  <path class="fil0" d="M2.51146 5.17702c-0.0469409,-0.0352087 -0.0564567,-0.101811 -0.021248,-0.148752 0.0352087,-0.0469409 0.101811,-0.0564567 0.148752,-0.021248l0.390016 0.292512 0.768098 0 0.390004 -0.292512c0.0469409,-0.0352087 0.113543,-0.0256929 0.148752,0.021248 0.0352087,0.0469409 0.0256929,0.113543 -0.021248,0.148752l-0.411406 0.308563c-0.0188898,0.0169606 -0.0438583,0.0272874 -0.0712402,0.0272874l-0.837819 0 0 -0.000417323c-0.0222126,1.9685e-005 -0.0446142,-0.00689764 -0.063752,-0.021252l-0.418909 -0.314181z"/>
  <path class="fil0" d="M3.20325 5.29953l0.419539 0 0.106669 0 0 0.106669 0 0.628362 0 0.106669 -0.106669 0 -0.419539 0 -0.106669 0 0 -0.106669 0 -0.628362 0 -0.106669 0.106669 0zm0.31287 0.213339l-0.206201 0 0 0.415024 0.206201 0 0 -0.415024z"/>
  <rect class="fil1" width="6.82666" height="6.82666"/>
 </g>
</svg>
