<?xml version="1.0" encoding="UTF-8"?>
<!DOCTYPE svg PUBLIC "-//W3C//DTD SVG 1.1//EN" "http://www.w3.org/Graphics/SVG/1.1/DTD/svg11.dtd">
<!-- Creator: CorelDRAW -->
<svg xmlns="http://www.w3.org/2000/svg" xml:space="preserve" width="6.82666in" height="6.82666in" style="shape-rendering:geometricPrecision; text-rendering:geometricPrecision; image-rendering:optimizeQuality; fill-rule:evenodd; clip-rule:evenodd"
viewBox="0 0 6.82666 6.82666"
 xmlns:xlink="http://www.w3.org/1999/xlink">
 <defs>
  <style type="text/css">
   <![CDATA[
    .fil1 {fill:none}
    .fil0 {fill:#212121;fill-rule:nonzero}
   ]]>
  </style>
 </defs>
 <g id="Layer_x0020_1">
  <metadata id="CorelCorpID_0Corel-Layer"/>
  <g id="_319209920">
   <path id="_319211096" class="fil0" d="M1.31891 3.12692l0 1.05336c0,0.161295 0.060685,0.206055 0.11578,0.246689 0.166177,0.122567 0.303937,0.224181 -0.0856693,1.07194 -0.0313268,0.0682244 -0.0110354,0.133406 0.0302953,0.177303 0.0159409,0.0169331 0.0347598,0.0308386 0.0548937,0.0407835 0.0189173,0.00934252 0.0385866,0.0150157 0.0575394,0.0161535 0.0377835,0.00226772 0.0758583,-0.017315 0.0993583,-0.0684646l0.00166535 -0.00375197c0.0563386,-0.111815 0.107953,-0.203654 0.153953,-0.285516 0.182559,-0.324874 0.266551,-0.47435 0.00773228,-0.862146l-0.0481575 -0.0721614 0.0606575 -0.0615866c0.0175945,-0.0178622 0.0352362,-0.0541614 0.0495551,-0.0971181 0.016248,-0.0487441 0.0262913,-0.102862 0.0262913,-0.148299l0 -0.853354 0 -0.0954764 0.0954173 -0.0103583c0.0518583,-0.00562598 0.10778,-0.0278346 0.162724,-0.0599606 0.0674764,-0.0394488 0.132291,-0.0932008 0.187,-0.1505l0.000417323 -0.000417323c0.147654,-0.153622 0.197697,-0.333201 0.252693,-0.530575 0.0139213,-0.0499606 0.0281417,-0.10098 0.0440315,-0.152669 0.0101969,-0.0330709 6.29921e-005,-0.0583622 -0.018626,-0.0732008 -0.00940551,-0.0074685 -0.0209528,-0.0132362 -0.0336063,-0.0170079 -0.0129724,-0.00386614 -0.0267638,-0.00541339 -0.0403228,-0.0043622 -0.0291614,0.00226378 -0.0570945,0.0197244 -0.0684567,0.0566496 -0.0117717,0.0380472 -0.022626,0.0878031 -0.0339449,0.139709 -0.0424882,0.194823 -0.0907126,0.415878 -0.29061,0.517008l-0.000417323 0c-0.0385787,0.0193268 -0.0785945,0.0327402 -0.119555,0.0421063 -0.0378976,0.00866929 -0.0781535,0.0140906 -0.11963,0.0177717l-0.0448268 0.00398031 -0.0339213 -0.0293976c-0.0506417,-0.0438858 -0.120232,-0.0658307 -0.190913,-0.0658307 -0.0423071,0 -0.0839252,0.00771654 -0.121193,0.0231417 -0.0357402,0.0147953 -0.067878,0.0367047 -0.0929803,0.0656693 -0.0350669,0.0404685 -0.0571732,0.0968976 -0.0571732,0.16989zm-0.213339 1.05336l0 -1.05336c0,-0.128193 0.0424055,-0.231421 0.109677,-0.309055 0.047626,-0.0549567 0.107343,-0.0960039 0.17298,-0.123173 0.0641142,-0.0265394 0.133433,-0.039811 0.202028,-0.039811 0.102854,0 0.206484,0.0294724 0.291496,0.0884094 0.0169488,-0.00235039 0.0337362,-0.00531102 0.0502913,-0.00909843 0.0263346,-0.00602362 0.0505827,-0.0138898 0.0717244,-0.024437l-8.26772e-005 -0.000165354c0.109,-0.0551417 0.14574,-0.223571 0.178114,-0.372008 0.0118268,-0.0542283 0.0231693,-0.106217 0.0389449,-0.157213 0.0413504,-0.13437 0.146008,-0.198114 0.255953,-0.20665 0.0392638,-0.00305118 0.0792638,0.00145276 0.116992,0.0127008 0.0380433,0.0113465 0.0741496,0.0297913 0.105276,0.0545039 0.0828858,0.065815 0.129843,0.171386 0.0894528,0.302374 -0.0154291,0.050185 -0.0290394,0.0990157 -0.0423622,0.146835 -0.0625669,0.224547 -0.119512,0.428866 -0.303957,0.62098l1.1811e-005 1.1811e-005c-0.0671732,0.0703543 -0.14802,0.137091 -0.233661,0.187161 -0.0493976,0.0288819 -0.10065,0.052378 -0.152307,0.0682362l0 0.767583c0,0.0661654 -0.0145,0.144594 -0.0379606,0.214969 -0.0128465,0.0385394 -0.0287992,0.0754094 -0.0470709,0.107689 0.282535,0.451268 0.177988,0.637472 -0.0385512,1.02282 -0.0461496,0.082126 -0.0979291,0.174268 -0.149787,0.277185l-7.87402e-005 -3.93701e-005c-0.0669173,0.142205 -0.183909,0.19611 -0.303449,0.188925 -0.0477992,-0.00286614 -0.0953071,-0.0161417 -0.139201,-0.0378228 -0.0426772,-0.0210827 -0.0823386,-0.0503228 -0.115728,-0.0857835 -0.0952992,-0.10122 -0.141717,-0.252299 -0.068626,-0.411469 0.317453,-0.69076 0.242992,-0.745689 0.153165,-0.811941 -0.0967323,-0.0713465 -0.203283,-0.149933 -0.203283,-0.418358z"/>
   <path id="_319211168" class="fil0" d="M1.89315 2.06131c0,-0.0889252 -0.0359449,-0.169417 -0.0940472,-0.227579 -0.0578228,-0.0578819 -0.138,-0.0937244 -0.226815,-0.0937244 -0.0887598,0 -0.169067,0.0359803 -0.227181,0.0940945 -0.058185,0.0581811 -0.0941654,0.138555 -0.0941654,0.227209 0,0.0888425 0.0359291,0.169193 0.0940394,0.227303 0.0581181,0.0581142 0.138469,0.0940433 0.227307,0.0940433 0.0888898,0 0.169118,-0.0357874 0.226937,-0.0936732 0.0580236,-0.0580945 0.0939252,-0.138559 0.0939252,-0.227673zm0.0567874 -0.377579c0.0967205,0.0968189 0.156551,0.230382 0.156551,0.377579 0,0.147409 -0.0597874,0.280917 -0.156429,0.377673 -0.0969213,0.0970276 -0.230516,0.157012 -0.377772,0.157012 -0.147724,0 -0.281394,-0.0598031 -0.378142,-0.156547 -0.0967362,-0.0967362 -0.156543,-0.230409 -0.156543,-0.378138 0,-0.147516 0.0598583,-0.28124 0.156669,-0.378043 0.0967205,-0.0967165 0.230343,-0.156598 0.378016,-0.156598 0.147205,0 0.280748,0.060063 0.37765,0.157063z"/>
   <path id="_319210712" class="fil0" d="M2.64249 1.30439c0,0.0664213 0.0268268,0.126535 0.0701772,0.170004l0.000208661 -0.000208661c0.0434685,0.0434764 0.103492,0.0704016 0.169724,0.0704016 0.0662362,0 0.126283,-0.0269331 0.169772,-0.0704252 0.0434921,-0.0434882 0.0704252,-0.103539 0.0704252,-0.169772 0,-0.0662362 -0.0269291,-0.126283 -0.0704173,-0.169772 -0.0434921,-0.0434921 -0.103543,-0.0704213 -0.16978,-0.0704213l-7.87402e-005 0c-0.0664843,0 -0.126465,0.0267598 -0.169665,0.0699803 -0.0437126,0.0437323 -0.0707717,0.103921 -0.0707835,0.170134l0.000417323 0 0 7.87402e-005zm-0.0804488 0.320213c-0.0820827,-0.0821063 -0.13289,-0.195374 -0.13289,-0.320213l0 -7.87402e-005 0.000417323 0c2.3622e-005,-0.125083 0.0506575,-0.238295 0.132453,-0.320134 0.0822992,-0.0823346 0.195657,-0.133319 0.3205,-0.133319l7.87402e-005 0c0.125122,0 0.238516,0.0508268 0.320614,0.132925 0.0820906,0.0820906 0.132921,0.195484 0.132921,0.320606 0,0.125118 -0.0508307,0.238516 -0.132929,0.320606 -0.0820906,0.0820984 -0.195488,0.132929 -0.320606,0.132929 -0.125138,0 -0.238496,-0.0508268 -0.320559,-0.132906l0 -0.000417323z"/>
   <path id="_319209992" class="fil0" d="M3.01174 1.81333l1.02934 0 0.129492 0 -0.0249094 0.127087 -0.227343 1.17137 -0.0169094 0.086252 -0.0876732 0 -0.56802 0 -0.0882559 0 -0.0163268 -0.0870866 -0.233976 -1.17137 -0.0236693 -0.126252 0.128252 0zm0.899846 0.213339l-0.771591 0 0.193976 0.958031 0.392087 0 0.185528 -0.958031z"/>
   <polygon id="_319210184" class="fil0" points="3.0847,1.81333 4.90667,1.81333 4.90667,2.02667 3.0847,2.02667 "/>
   <polygon id="_319209776" class="fil0" points="3.12061,2.43288 3.93219,2.43288 3.93219,2.64622 3.12061,2.64622 "/>
   <polygon id="_319209824" class="fil0" points="3.41972,3.14575 3.41972,1.9455 3.63306,1.9455 3.63306,3.14575 "/>
   <polygon id="_319210088" class="fil0" points="4.16041,1.70665 4.16041,1.06664 4.16041,0.959969 4.26707,0.959969 5.65375,0.959969 5.76,0.959969 5.76,1.06664 5.75998,3.30665 5.75997,3.41332 5.65372,3.41332 4.26707,3.41332 4.16041,3.41333 4.16041,3.30665 4.16041,2.13333 4.37374,2.13333 4.37374,3.19998 5.54747,3.19998 5.5475,1.17331 4.37374,1.17331 4.37374,1.70665 "/>
   <polygon id="_319210064" class="fil0" points="5.01754,3.21746 5.01772,5.97333 4.80521,5.97333 4.80504,3.21746 "/>
  </g>
  <rect class="fil1" width="6.82666" height="6.82666"/>
 </g>
</svg>
