<?xml version="1.0" encoding="UTF-8"?>
<!DOCTYPE svg PUBLIC "-//W3C//DTD SVG 1.1//EN" "http://www.w3.org/Graphics/SVG/1.1/DTD/svg11.dtd">
<!-- Creator: CorelDRAW -->
<svg xmlns="http://www.w3.org/2000/svg" xml:space="preserve" width="6.82666in" height="6.82666in" style="shape-rendering:geometricPrecision; text-rendering:geometricPrecision; image-rendering:optimizeQuality; fill-rule:evenodd; clip-rule:evenodd"
viewBox="0 0 6.82666 6.82666"
 xmlns:xlink="http://www.w3.org/1999/xlink">
 <defs>
  <style type="text/css">
   <![CDATA[
    .fil1 {fill:none}
    .fil0 {fill:#212121;fill-rule:nonzero}
   ]]>
  </style>
 </defs>
 <g id="Layer_x0020_1">
  <metadata id="CorelCorpID_0Corel-Layer"/>
  <path class="fil0" d="M2.67521 3.83125c-0.278386,-0.0235866 -0.543063,-0.0323937 -0.745358,-0.017563 -0.130051,0.0095315 -0.22648,0.024811 -0.270268,0.0471772 0.0208622,0.020815 0.0540787,0.0455906 0.101236,0.074752 0.0935787,0.057874 0.234858,0.127354 0.433386,0.210224 0.173528,0.0724291 0.36935,0.139303 0.585846,0.200185 0.218429,0.0614291 0.457299,0.116705 0.71498,0.165378 0.180709,0.0342047 0.345811,0.0621929 0.496535,0.0849843 0.150295,0.0227283 0.279524,0.0393031 0.390807,0.0510236l0.0734173 0.00773228 0.0186654 0.071437c0.00867323,0.0332047 0.024122,0.0784961 0.0509606,0.124496 0.0217205,0.0372283 0.0507441,0.0740906 0.0892441,0.102858 0.0181772,-0.0321457 0.0345433,-0.083 0.0486142,-0.12672 0.0114016,-0.0354331 0.0216102,-0.0671496 0.0332165,-0.0915945l0.0293346 -0.0617835 0.0681693 0.000948819c0.0760945,0.00105512 0.140189,-0.00127165 0.193862,-0.00555906 0.0621496,-0.0049685 0.104248,-0.0121339 0.132591,-0.0194016l0 -0.000417323c0.0152717,-0.00389764 0.0283937,-0.0138976 0.0386299,-0.0272638 0.0118346,-0.0154528 0.0200866,-0.0345827 0.0242205,-0.0548268 0.00408661,-0.0200197 0.00394094,-0.0408465 -0.000944882,-0.0599882 -0.00426772,-0.0167244 -0.0123346,-0.0312165 -0.0245236,-0.0405512 -0.0590827,-0.0452283 -0.142283,-0.0895276 -0.231764,-0.129417 -0.0773425,-0.0344764 -0.158598,-0.0653346 -0.233409,-0.0907283 0.00435827,-0.0549764 -0.00485433,-0.111862 -0.0273661,-0.167193 -0.00158268,-0.00389764 -0.00314567,-0.00774803 -0.00490945,-0.0115748l-0.0245512 -0.0531811 0.00237402 -0.00818898c0.107858,0.0315354 0.246319,0.0795472 0.374531,0.136701 0.10352,0.0461457 0.201469,0.0986969 0.27426,0.154417 0.053248,0.0407795 0.0865157,0.0964567 0.102028,0.157213 0.012685,0.0497008 0.013122,0.1035 0.0026063,0.154996 -0.0104724,0.051252 -0.0320354,0.100555 -0.0633858,0.141488 -0.0383228,0.0500354 -0.0907087,0.0882756 -0.155291,0.104768l-9.84252e-005 -0.000393701c-0.0405906,0.0104016 -0.0955079,0.0202283 -0.168327,0.0260472 -0.0384134,0.00306693 -0.083752,0.0051378 -0.137213,0.00571654l-0.00153543 0.00476772c-0.0185787,0.0577323 -0.0403976,0.125528 -0.0749488,0.180673 -0.0625,0.0997402 -0.147197,0.151075 -0.270961,0.0735197l-0.000413386 0c-0.0816339,-0.0515354 -0.138587,-0.119929 -0.178205,-0.187827 -0.0213268,-0.0365472 -0.037685,-0.0733307 -0.0501654,-0.10715 -0.101752,-0.0116339 -0.211949,-0.0261772 -0.331189,-0.0442087 -0.146535,-0.0221575 -0.313539,-0.0505945 -0.504031,-0.0866535 -0.264843,-0.0500276 -0.509839,-0.106693 -0.733319,-0.169543 -0.225071,-0.0632953 -0.428969,-0.132949 -0.610012,-0.208516 -0.207866,-0.0867677 -0.359236,-0.161646 -0.463386,-0.226059 -0.0787795,-0.0487205 -0.133213,-0.0935039 -0.166571,-0.134602 -0.0537047,-0.0661575 -0.0643819,-0.129846 -0.0389055,-0.190878 0.00309449,-0.00742126 0.0072126,-0.0152756 0.012315,-0.0235236 0.0607559,-0.0982677 0.229378,-0.149445 0.458862,-0.166264 0.233732,-0.0171378 0.545594,-0.00424803 0.867724,0.0262402l-0.0681535 0.115457c-0.0168819,0.0285984 -0.0300276,0.0582362 -0.0392126,0.0883701zm1.19028 0.180862c-0.0712087,-0.0164724 -0.0867441,-0.0201575 -0.0999094,-0.0232795 -0.118417,-0.0280827 -0.171508,-0.0406732 -0.331724,-0.0628268l0.000133858 -0.000956693 0.130886 -0.194957c0.0764606,0.0120433 0.0887283,0.0138898 0.149657,0.0279882l0.150957 0.254031z"/>
  <path class="fil0" d="M1.25 5.51369c-0.0407283,0.0423386 -0.108079,0.0436417 -0.150417,0.00291339 -0.0423386,-0.0407283 -0.0436417,-0.108079 -0.00291339,-0.150417 0.0481496,-0.0502992 0.0963228,-0.100618 0.151661,-0.140358 0.067378,-0.048378 0.14002,-0.0773307 0.223142,-0.0674094 0.0682992,0.00816535 0.12789,0.0404685 0.189378,0.0738031 0.0520984,0.0282402 0.106169,0.0575512 0.144051,0.0574764 0.0342598,-6.69291e-005 0.0827992,-0.0244803 0.131283,-0.0488661 0.0711969,-0.035815 0.142331,-0.0715984 0.226701,-0.0715984 0.0839921,0 0.155508,0.0358819 0.226972,0.0717402 0.0484961,0.0243307 0.0969764,0.0486614 0.131244,0.0487244 0.0345984,6.69291e-005 0.082752,-0.0240906 0.130917,-0.0482559 0.0709882,-0.0356181 0.142024,-0.0712559 0.225882,-0.0712559 0.0839921,0 0.155102,0.0353465 0.226201,0.070685 0.0490118,0.0243622 0.0980354,0.0487283 0.132299,0.0485945l0.000417323 3.93701e-006 0 -3.93701e-006c0.0336496,-0.000129921 0.0820472,-0.024689 0.130429,-0.0492362 0.0705276,-0.0357874 0.141071,-0.0715787 0.226622,-0.0717441 0.0853937,-0.000165354 0.156232,0.0352087 0.227091,0.0705945 0.0486299,0.0242835 0.0972874,0.0485866 0.132059,0.0485866 0.0351181,0 0.0832244,-0.0242126 0.131299,-0.0484094 0.0706142,-0.0355433 0.141209,-0.0710787 0.226433,-0.0712402 0.085378,-0.000165354 0.156142,0.0351181 0.226898,0.0704016 0.0484449,0.0241535 0.0968898,0.048315 0.131551,0.048315 0.0354567,0 0.0834055,-0.0240354 0.131319,-0.0480591 0.0711339,-0.0356614 0.142236,-0.0713071 0.225969,-0.0713071 0.0843189,0 0.155004,0.0352835 0.225965,0.0707008 0.0492283,0.0245709 0.0986654,0.049248 0.133417,0.049315 0.0391654,7.48031e-005 0.0939134,-0.0289724 0.146843,-0.0570551 0.0626339,-0.0332323 0.123484,-0.0655197 0.192709,-0.0733071 0.0837598,-0.0094252 0.157055,0.0193819 0.225098,0.0672953 0.0557598,0.0392638 0.105681,0.090189 0.155587,0.141098 0.041189,0.0418819 0.0406299,0.109228 -0.00125197,0.150417 -0.0418819,0.041189 -0.109228,0.0406299 -0.150417,-0.00125197 -0.0428465,-0.0437087 -0.0857047,-0.0874291 -0.126421,-0.116098 -0.0284331,-0.0200236 -0.0553701,-0.0324803 -0.0792638,-0.0297913 -0.0288031,0.00324016 -0.0722047,0.0262677 -0.116874,0.0499685 -0.0754252,0.0400197 -0.153433,0.0814094 -0.246008,0.0812283 -0.0865433,-0.000165354 -0.157626,-0.0356496 -0.228417,-0.0709843 -0.048374,-0.0241457 -0.096563,-0.0481969 -0.130965,-0.0481969 -0.0352874,0 -0.0831181,0.0239803 -0.130969,0.0479685 -0.0711811,0.035689 -0.142413,0.0713976 -0.226319,0.0713976 -0.0845315,0 -0.155543,-0.0354134 -0.226551,-0.0708189 -0.0489252,-0.0243976 -0.0978622,-0.0487992 -0.131898,-0.0487323 -0.0339016,6.29921e-005 -0.0822441,0.0243976 -0.130598,0.0487362 -0.071252,0.0358622 -0.142543,0.071748 -0.227134,0.071748 -0.0847126,0 -0.155902,-0.0355551 -0.227059,-0.0710906 -0.0490591,-0.0245 -0.0981063,-0.0489921 -0.132091,-0.0489252 -0.0338661,6.69291e-005 -0.0823307,0.0246535 -0.130787,0.0492402 -0.0700945,0.035563 -0.140205,0.0711339 -0.225291,0.0717323l-0.000555118 7.87402e-006 -0.000318898 0 -9.84252e-005 0c-0.0850748,0.000216535 -0.155988,-0.0350197 -0.226882,-0.0702638 -0.0484606,-0.0240866 -0.0969331,-0.0481811 -0.132035,-0.0481811 -0.035378,0 -0.0831457,0.0239685 -0.130882,0.0479173 -0.0706929,0.0354685 -0.141366,0.0709252 -0.225917,0.0707598 -0.084622,-0.000161417 -0.155417,-0.0356929 -0.226244,-0.0712283 -0.0482126,-0.0241929 -0.0964646,-0.0484016 -0.131972,-0.0484016 -0.0349291,0 -0.082878,0.024122 -0.130866,0.0482598 -0.0707402,0.0355787 -0.141563,0.0712047 -0.227118,0.0713701 -0.0932362,0.000181102 -0.17089,-0.0419134 -0.24572,-0.0824764 -0.0434606,-0.0235591 -0.0855827,-0.0463976 -0.112709,-0.0496378 -0.0222717,-0.00265748 -0.0474173,0.00917323 -0.0739764,0.0282441 -0.0385984,0.0277205 -0.0805551,0.0715472 -0.122496,0.115358z"/>
  <path class="fil0" d="M2.02961 5.90257c-0.0402677,0.0427992 -0.107618,0.0448504 -0.150417,0.00458268 -0.0427992,-0.0402677 -0.0448504,-0.107618 -0.00458268,-0.150417 0.0470079,-0.0501732 0.0940315,-0.100362 0.147398,-0.139177 0.0658701,-0.0479055 0.137598,-0.0762165 0.220976,-0.065315 0.065878,0.00861417 0.124409,0.0409724 0.184996,0.0744961l0.000177165 -0.000318898c0.0517717,0.0286417 0.105736,0.0585 0.143307,0.0585709 0.0345866,5.90551e-005 0.0827362,-0.0240984 0.130898,-0.0482638 0.0709961,-0.035622 0.142035,-0.0712677 0.225902,-0.0712677 0.0839961,0 0.155114,0.0353504 0.226217,0.0706969 0.0490157,0.0243622 0.0980433,0.0487323 0.132701,0.0486024 0.0336417,-0.000129921 0.0820433,-0.0246929 0.130429,-0.049248 0.0705315,-0.0357913 0.141071,-0.0715866 0.226622,-0.071752 0.0853937,-0.000165354 0.156232,0.0352087 0.227091,0.0705945 0.0486299,0.0242835 0.0972874,0.0485866 0.132059,0.0485866 0.0351181,0 0.0832165,-0.0242087 0.131283,-0.0483976 0.070626,-0.0355472 0.141228,-0.0710827 0.226449,-0.0712323 0.085374,-0.000165354 0.156142,0.0351142 0.226898,0.0703937 0.048437,0.0241457 0.0968898,0.0483031 0.131551,0.0483031 0.0394843,0 0.0926102,-0.0294055 0.143717,-0.0576929 0.0603858,-0.0334252 0.118858,-0.0657953 0.184437,-0.074874 0.156831,-0.0216969 0.265843,0.0873858 0.374787,0.19652l0.000208661 -0.000208661 4.33071e-005 4.33071e-005c0.0416496,0.0416496 0.0416496,0.109185 0,0.150835 -0.0416496,0.0416496 -0.109185,0.0416496 -0.150835,0l-4.33071e-005 -4.33071e-005 0.000212598 -0.000212598 -0.000212598 -0.000204724c-0.0714173,-0.0715433 -0.142866,-0.143106 -0.194996,-0.135894 -0.028,0.00387402 -0.0688858,0.0265079 -0.111098,0.049874 -0.0754764,0.0417756 -0.153913,0.0851969 -0.24622,0.0851969 -0.0845236,0 -0.155543,-0.0354094 -0.226551,-0.0708071 -0.0489213,-0.0243937 -0.0978583,-0.0487913 -0.131898,-0.0487244 -0.0339173,5.90551e-005 -0.0822598,0.0243898 -0.130614,0.0487283 -0.0712441,0.0358543 -0.142535,0.0717362 -0.227118,0.0717362 -0.0847126,0 -0.155902,-0.0355551 -0.227059,-0.0710906 -0.0490591,-0.0245 -0.0981063,-0.0489921 -0.132091,-0.0489252 -0.0338661,6.69291e-005 -0.0823346,0.0246614 -0.130787,0.049248 -0.0703583,0.0357087 -0.140732,0.0714213 -0.226264,0.071752 -0.0848543,0.000314961 -0.155866,-0.0349803 -0.226866,-0.0702717 -0.0484685,-0.0240945 -0.0969449,-0.0481929 -0.132051,-0.0481929 -0.035378,0 -0.0831575,0.0239724 -0.130902,0.0479291 -0.0706811,0.0354646 -0.141343,0.0709173 -0.225898,0.0707677 -0.0935866,-0.000177165 -0.171268,-0.0431654 -0.245811,-0.0844055l0.000177165 -0.000322835 -0.000177165 -9.44882e-005c-0.0423583,-0.023437 -0.0832795,-0.0460787 -0.110173,-0.0495945 -0.0199331,-0.0026063 -0.0433465,0.0087126 -0.0684724,0.0269843 -0.0376299,0.0273661 -0.0775197,0.0699449 -0.117398,0.112508z"/>
  <path class="fil0" d="M1.27093 5.15254c-0.0421102,0.0409567 -0.109461,0.0400236 -0.150417,-0.00208661 -0.0409567,-0.0421102 -0.0400236,-0.109461 0.00208661,-0.150417 0.0497402,-0.048622 0.0995,-0.0972677 0.156063,-0.135169 0.068189,-0.0456929 0.141307,-0.0724685 0.224244,-0.061378 0.0677598,0.00907087 0.127016,0.0414213 0.187941,0.0746811 0.0520354,0.0284055 0.105835,0.0577717 0.144469,0.057622 0.0336496,-0.000129921 0.0820472,-0.024689 0.130433,-0.0492402 0.0705236,-0.0357874 0.141063,-0.0715787 0.226614,-0.0717441 0.0853898,-0.000165354 0.156232,0.0352047 0.227091,0.0705866 0.0486299,0.0242835 0.0972874,0.0485787 0.132063,0.0485787 0.0385472,0 0.0909646,-0.0286457 0.141882,-0.0564724 0.0622165,-0.034 0.122917,-0.0671732 0.191992,-0.0754567 0.157752,-0.0189882 0.272957,0.0923543 0.388161,0.203705l0.000204724 0.00019685c0.0423386,0.0407283 0.0436417,0.108079 0.00291339,0.150417 -0.0407283,0.0423386 -0.108079,0.0436417 -0.150417,0.00291339l-0.000204724 -0.00019685c-0.078815,-0.0761772 -0.15763,-0.15235 -0.215657,-0.145366 -0.0294528,0.0035315 -0.0718622,0.0267047 -0.115323,0.0504567 -0.0749646,0.0409685 -0.152134,0.0831417 -0.243551,0.0831417 -0.0847087,0 -0.155906,-0.0355512 -0.227063,-0.0710827 -0.0490551,-0.0244961 -0.0980984,-0.0489843 -0.132091,-0.0489173 -0.0338661,6.69291e-005 -0.0823268,0.0246535 -0.13078,0.0492402 -0.0703583,0.0357008 -0.140732,0.0714134 -0.226268,0.0717441 -0.0925945,0.000358268 -0.170642,-0.0422441 -0.246138,-0.0834567 -0.0434055,-0.0236969 -0.0856299,-0.046748 -0.113776,-0.0505157 -0.0236299,-0.00315748 -0.0502756,0.00835827 -0.0784094,0.0272126 -0.0397717,0.0266496 -0.0829291,0.0688386 -0.126063,0.111004z"/>
  <path class="fil0" d="M2.86748 2.34415l0.723429 -0.250173c0.0554567,-0.0190984 0.115902,0.010378 0.135,0.0658346 0.0018622,0.00540551 0.00325591,0.0108543 0.00421654,0.016311l0.000366142 -6.29921e-005 0.110831 0.621437c0.00668898,0.0383189 -0.00798819,0.0754213 -0.0354409,0.0991102 -0.0368543,0.0351811 -0.122315,0.100681 -0.209642,0.167602 -0.0990079,0.075874 -0.200728,0.153835 -0.203563,0.158539 -0.000507874,0.00084252 -0.00102756,0.00167717 -0.00155512,0.00250394l-0.402299 0.681516c-0.00120079,0.0020315 -0.00246457,0.00400787 -0.00377559,0.00592913 -0.00737795,0.0118031 -0.00716535,0.0217677 -0.00277953,0.0283031 0.00281496,0.00419291 0.00674016,0.00797638 0.0113819,0.0110945 0.00473622,0.0031811 0.00994488,0.00545276 0.0152205,0.00655512 0.00869685,0.0018189 0.0190118,-0.00193307 0.0273386,-0.0141654 0.000775591,-0.0011378 0.0015748,-0.00224803 0.00238976,-0.00334646l0.378705 -0.564067c0.00669685,-0.01 0.0147992,-0.0184961 0.0238701,-0.0254094l0.314382 -0.258067 0.000771654 -0.000637795 -0.000177165 -0.000212598 0.284 -0.234843c0.0336024,-0.0354567 0.0737244,-0.0935 0.0762402,-0.170181 -0.0123268,-0.112791 -0.00729921,-0.242898 -0.00253937,-0.366291 0.00188583,-0.048874 0.00373622,-0.0967047 0.00434646,-0.136803 0.000688976,-0.0586811 0.0488228,-0.105689 0.107504,-0.105 0.0161102,0.000188976 0.0313346,0.00396063 0.0449409,0.0105394l5.90551e-005 -0.000122047 0.795488 0.386378c0.0118425,0.00571654 0.0221417,0.0133425 0.0307165,0.0223268 0.00934252,0.00856299 0.0187717,0.00991339 0.0259803,0.0068937 0.00471654,-0.00197638 0.00916535,-0.00503937 0.0130236,-0.00886614 0.00388976,-0.00385827 0.00710236,-0.00852362 0.00932283,-0.0136732 0.00245669,-0.00569685 0.00243307,-0.0126457 -0.00130709,-0.0197913l-0.97678 -0.537882c-0.00746457,-0.00409843 -0.0142441,-0.0089685 -0.0202913,-0.0144449 -0.0324291,-0.0236181 -0.0939252,-0.0500866 -0.168406,-0.0539724 -0.0542598,-0.00283071 -0.114118,0.00749213 -0.17189,0.0419685 -0.00476772,0.00285039 -0.00966929,0.00528346 -0.0146575,0.00731102l7.48031e-005 0.000188976 -0.927067 0.376787c-0.00576772,0.00233465 -0.011622,0.00412205 -0.0175039,0.00540157l3.93701e-006 1.1811e-005c-0.0102638,0.00224803 -0.0183819,0.0110945 -0.0225118,0.021752 -0.00179921,0.00464961 -0.00257874,0.00965748 -0.00215354,0.0145394 0.000192913,0.00222441 0.000606299,0.00393701 0.00124803,0.00481102 0.00525984,0.0071811 0.018815,0.0126732 0.0434882,0.0143661zm0.674909 -0.00864173l-0.620449 0.214563c-0.0118898,0.00459843 -0.0248071,0.00712598 -0.0383189,0.00712598 -0.112972,-0.000338583 -0.188063,-0.042563 -0.231299,-0.101579 -0.025126,-0.0343071 -0.0386496,-0.073 -0.0420827,-0.112315 -0.00320079,-0.0366535 0.00269685,-0.0743661 0.0163268,-0.109539 0.0270591,-0.0698071 0.0858425,-0.129646 0.165413,-0.150874l0.914287 -0.371594c0.0960866,-0.0548819 0.194236,-0.0714252 0.283016,-0.0667874 0.120713,0.00630315 0.226571,0.0539803 0.285224,0.0969252l0.989906 0.545114 -4.72441e-005 8.66142e-005c0.0088622,0.00487008 0.0171772,0.0110866 0.0246299,0.0186654 0.0807087,0.0819843 0.0872756,0.180362 0.0520709,0.261969 -0.0128701,0.0298268 -0.0318622,0.0572283 -0.0551575,0.0803425 -0.0233268,0.0231496 -0.0510591,0.042 -0.0813543,0.0547008 -0.0766024,0.0321102 -0.167366,0.0272126 -0.245346,-0.041252l-0.633783 -0.307835c-0.00413386,0.108965 -0.00750394,0.221772 0.00318504,0.315268l-0.000267717 3.14961e-005c0.000448819,0.00395669 0.000685039,0.00797638 0.000685039,0.0120512 -0.000259843,0.130024 -0.0570669,0.230429 -0.112409,0.297441l0.00867323 0.231075 0.33985 0.907449c0.0460906,0.102669 0.0191024,0.194909 -0.0407992,0.258567 -0.0224488,0.0238543 -0.0499646,0.0432323 -0.0800669,0.0570433 -0.0297323,0.0136378 -0.0622126,0.0217913 -0.0949961,0.0233976 -0.0884567,0.00433071 -0.177575,-0.0357047 -0.225205,-0.138213l-0.367839 -0.69665c-0.00304724,-0.0057874 -0.00550394,-0.0117283 -0.00740157,-0.0177559 -0.0181339,-0.049748 -0.0230394,-0.128917 -0.0247047,-0.208555l-0.138854 0.11398 -0.370067 0.551205c-0.00100394,0.00166142 -0.00205906,0.00330315 -0.00316535,0.0049252 -0.0645394,0.0947913 -0.15961,0.120673 -0.246504,0.102496 -0.0322205,-0.00673622 -0.0630197,-0.0199606 -0.0902205,-0.0382165 -0.0272874,-0.0183189 -0.0512638,-0.0419449 -0.0697205,-0.0694331 -0.0486378,-0.072437 -0.0604291,-0.168 0.000685039,-0.262236l0.401508 -0.680177c0.00076378,-0.00140157 0.00155118,-0.00279134 0.00238189,-0.00416929 0.0232953,-0.0386811 0.141673,-0.129398 0.256902,-0.217705 0.0584252,-0.0447756 0.115957,-0.0888661 0.153791,-0.119516l-0.0784764 -0.44002zm0.46824 0.823689l-0.0655748 0.0538268 -0.010878 0.00899606c0.001,0.0282008 0.00125984,0.0609331 0.00153543,0.0955354 0.000677165,0.0853858 0.0014685,0.185079 0.00249213,0.193409 0.00229528,0.00335827 0.00442126,0.00687402 0.0063622,0.0105551l0.367732 0.696449c0.00172441,0.00300394 0.00332283,0.00612205 0.00477559,0.00934646 0.00524016,0.0115591 0.013937,0.0161299 0.0222047,0.0157283 0.00555512,-0.000271654 0.0112638,-0.00174803 0.0166654,-0.00422441 0.0050315,-0.00230709 0.00964173,-0.00555512 0.0133976,-0.00954724 0.0051378,-0.00545669 0.00688189,-0.0146102 0.00162205,-0.0263819 -0.00133465,-0.00280709 -0.00256299,-0.00569291 -0.00366929,-0.00866142l-0.345701 -0.923071c-0.00482283,-0.0115236 -0.00769291,-0.0240866 -0.00816142,-0.037311l-0.00280315 -0.0746496zm-0.162634 -1.59304c-0.120516,-0.0257953 -0.219465,-0.0982205 -0.281744,-0.194406 -0.0622874,-0.0961929 -0.0880591,-0.215925 -0.0622913,-0.336386l7.48031e-005 -0.000334646c0.0258661,-0.120484 0.0985079,-0.219185 0.194835,-0.281453 0.0962756,-0.0622283 0.215929,-0.0878425 0.33585,-0.0621929l5.51181e-005 1.1811e-005c0.120886,0.025874 0.21972,0.0981811 0.281882,0.194224 0.0622756,0.0962126 0.0878504,0.215949 0.0620787,0.336453l-7.87402e-006 4.33071e-005c-0.0258386,0.120791 -0.0981378,0.219693 -0.194217,0.281917 -0.0961772,0.0622874 -0.215917,0.0879173 -0.336516,0.062122zm-0.103413 -0.31024c0.0326575,0.050437 0.0844921,0.0884094 0.147579,0.101909 0.0636181,0.0136063 0.126402,0.000334646 0.176516,-0.032122 0.0502992,-0.0325748 0.0881614,-0.0843937 0.101713,-0.14772l1.5748e-005 -7.48031e-005c0.0135945,-0.0635669 0.000358268,-0.126339 -0.0320787,-0.176453 -0.0325472,-0.0502874 -0.0843465,-0.0881654 -0.147717,-0.101728l-5.51181e-005 -1.1811e-005c-0.0634961,-0.0135787 -0.126417,-0.000299213 -0.176685,0.0321929 -0.0501299,0.0324016 -0.088,0.0841535 -0.101575,0.14761l-3.93701e-006 1.1811e-005c-0.0135709,0.0634528 -0.000192913,0.126217 0.0322913,0.176386z"/>
  <rect class="fil1" width="6.82666" height="6.82666"/>
 </g>
</svg>
