<?xml version="1.0" encoding="UTF-8"?>
<!DOCTYPE svg PUBLIC "-//W3C//DTD SVG 1.1//EN" "http://www.w3.org/Graphics/SVG/1.1/DTD/svg11.dtd">
<!-- Creator: CorelDRAW -->
<svg xmlns="http://www.w3.org/2000/svg" xml:space="preserve" width="6.82666in" height="6.82666in" style="shape-rendering:geometricPrecision; text-rendering:geometricPrecision; image-rendering:optimizeQuality; fill-rule:evenodd; clip-rule:evenodd"
viewBox="0 0 6.82666 6.82666"
 xmlns:xlink="http://www.w3.org/1999/xlink">
 <defs>
  <style type="text/css">
   <![CDATA[
    .fil1 {fill:none}
    .fil0 {fill:#212121;fill-rule:nonzero}
   ]]>
  </style>
 </defs>
 <g id="Layer_x0020_1">
  <metadata id="CorelCorpID_0Corel-Layer"/>
  <path class="fil0" d="M3.41333 0.853331c0.706902,0 1.34691,0.286547 1.81018,0.749823 0.463276,0.463272 0.749823,1.10328 0.749823,1.81018 0,0.706902 -0.286547,1.34691 -0.749823,1.81018 -0.463272,0.463276 -1.10328,0.749823 -1.81018,0.749823 -0.706902,0 -1.34691,-0.286547 -1.81018,-0.749823 -0.463276,-0.463272 -0.749823,-1.10328 -0.749823,-1.81018 0,-0.706902 0.286547,-1.34691 0.749823,-1.81018 0.463272,-0.463276 1.10328,-0.749823 1.81018,-0.749823zm1.65934 0.900657c-0.424654,-0.424657 -1.01133,-0.687319 -1.65934,-0.687319 -0.648016,0 -1.23469,0.262661 -1.65934,0.687319 -0.424657,0.424654 -0.687319,1.01133 -0.687319,1.65934 0,0.648016 0.262661,1.23469 0.687319,1.65934 0.424654,0.424657 1.01133,0.687319 1.65934,0.687319 0.648016,0 1.23469,-0.262661 1.65934,-0.687319 0.424657,-0.424654 0.687319,-1.01133 0.687319,-1.65934 0,-0.648016 -0.262661,-1.23469 -0.687319,-1.65934z"/>
  <path class="fil0" d="M3.41333 1.44c0.544902,0 1.03824,0.220882 1.39534,0.577992 0.35711,0.357106 0.577992,0.850441 0.577992,1.39534 0,0.544902 -0.220882,1.03824 -0.577992,1.39534 -0.357106,0.35711 -0.850441,0.577992 -1.39534,0.577992 -0.544902,0 -1.03824,-0.220882 -1.39534,-0.577992 -0.35711,-0.357106 -0.577992,-0.850441 -0.577992,-1.39534 0,-0.544902 0.220882,-1.03824 0.577992,-1.39534 0.357106,-0.35711 0.850441,-0.577992 1.39534,-0.577992zm1.24451 0.728827c-0.318488,-0.318492 -0.758492,-0.515488 -1.24451,-0.515488 -0.486016,0 -0.92602,0.196996 -1.24451,0.515488 -0.318492,0.318488 -0.515488,0.758492 -0.515488,1.24451 0,0.486016 0.196996,0.92602 0.515488,1.24451 0.318488,0.318492 0.758492,0.515488 1.24451,0.515488 0.486016,0 0.92602,-0.196996 1.24451,-0.515488 0.318492,-0.318488 0.515488,-0.758492 0.515488,-1.24451 0,-0.486016 -0.196996,-0.92602 -0.515488,-1.24451z"/>
  <path class="fil0" d="M3.41333 2.13333c0.353445,0 0.673449,0.143276 0.905087,0.374913 0.231638,0.231638 0.374913,0.551642 0.374913,0.905087 0,0.353445 -0.143276,0.673449 -0.374913,0.905087 -0.231638,0.231638 -0.551642,0.374913 -0.905087,0.374913 -0.353445,0 -0.673449,-0.143276 -0.905087,-0.374913 -0.231638,-0.231638 -0.374913,-0.551642 -0.374913,-0.905087 0,-0.353445 0.143276,-0.673449 0.374913,-0.905087 0.231638,-0.231638 0.551642,-0.374913 0.905087,-0.374913zm0.754252 0.525748c-0.19302,-0.19302 -0.459693,-0.312409 -0.754252,-0.312409 -0.294559,0 -0.561232,0.11939 -0.754252,0.312409 -0.19302,0.19302 -0.312409,0.459693 -0.312409,0.754252 0,0.294559 0.11939,0.561232 0.312409,0.754252 0.19302,0.19302 0.459693,0.312409 0.754252,0.312409 0.294559,0 0.561232,-0.11939 0.754252,-0.312409 0.19302,-0.19302 0.312409,-0.459693 0.312409,-0.754252 0,-0.294559 -0.11939,-0.561232 -0.312409,-0.754252z"/>
  <path class="fil0" d="M3.41333 2.66666c0.206173,0 0.392843,0.0835787 0.527969,0.218705 0.135126,0.135126 0.218705,0.321795 0.218705,0.527969 0,0.206173 -0.0835787,0.392843 -0.218705,0.527969 -0.135126,0.135126 -0.321795,0.218705 -0.527969,0.218705 -0.206173,0 -0.392843,-0.0835787 -0.527969,-0.218705 -0.135126,-0.135126 -0.218705,-0.321795 -0.218705,-0.527969 0,-0.206173 0.0835787,-0.392843 0.218705,-0.527969 0.135126,-0.135126 0.321795,-0.218705 0.527969,-0.218705zm0.377134 0.369539c-0.0965079,-0.0965079 -0.229846,-0.156201 -0.377134,-0.156201 -0.147287,0 -0.280626,0.0596929 -0.377134,0.156201 -0.0965079,0.0965079 -0.156201,0.229846 -0.156201,0.377134 0,0.147287 0.0596929,0.280626 0.156201,0.377134 0.0965079,0.0965079 0.229846,0.156201 0.377134,0.156201 0.147287,0 0.280626,-0.0596929 0.377134,-0.156201 0.0965079,-0.0965079 0.156201,-0.229846 0.156201,-0.377134 0,-0.147287 -0.0596929,-0.280626 -0.156201,-0.377134z"/>
  <polygon class="fil0" points="3.34086,3.32823 5.29881,1.37669 5.44881,1.52753 3.49086,3.47906 "/>
  <polygon class="fil0" points="5.86667,1.6 5.33333,1.6 5.22667,1.6 5.22667,1.49333 5.22667,0.959996 5.44,0.959996 5.44,1.38666 5.86667,1.38666 "/>
  <polygon class="fil0" points="3.84046,3.52 3.30667,3.52 3.30667,2.97466 3.52,2.97466 3.52,3.30666 3.84046,3.30666 "/>
 </g>
 <g id="Layer_x0020_1_0">
  <metadata id="CorelCorpID_1Corel-Layer"/>
  <rect class="fil1" width="6.82666" height="6.82666"/>
 </g>
</svg>
